<svg width="58" height="37" viewBox="0 0 58 37" fill="none" xmlns="http://www.w3.org/2000/svg">
<g clip-path="url(#clip0_139_620)">
<path d="M25.0831 21.4323C25.4159 21.4323 25.6857 21.1601 25.6857 20.8243C25.6857 20.4885 25.4159 20.2163 25.0831 20.2163C24.7503 20.2163 24.4805 20.4885 24.4805 20.8243C24.4805 21.1601 24.7503 21.4323 25.0831 21.4323Z" fill="white"/>
<path d="M26.9662 21.3563C27.2675 21.5843 27.5688 21.7363 27.7948 21.8123C28.0208 21.8883 28.2468 21.9643 28.4727 21.9643C28.6987 21.9643 28.8494 21.8883 29 21.8123C29.1507 21.7363 29.226 21.5843 29.226 21.4323C29.226 21.2043 29 20.9763 28.5481 20.6723C28.4727 20.5963 28.3974 20.5963 28.3974 20.5963L28.0208 20.3683C27.6442 20.1403 27.4182 19.9123 27.2675 19.6843C27.1169 19.4563 27.0416 19.1523 27.0416 18.8483C27.0416 18.3923 27.1922 18.0883 27.4935 17.7843C27.7948 17.4803 28.2468 17.4043 28.774 17.4043C29 17.4043 29.1507 17.4043 29.3766 17.4803C29.6026 17.5563 29.8286 17.5563 30.1299 17.7083V19.0003C29.9039 18.8483 29.6026 18.6963 29.3766 18.6203C29.1507 18.5443 28.9247 18.4683 28.774 18.4683C28.6234 18.4683 28.4727 18.5443 28.3221 18.6203C28.2468 18.6963 28.1714 18.7723 28.1714 18.9243C28.1714 19.0003 28.1714 19.0763 28.2468 19.1523C28.3221 19.2283 28.3974 19.3043 28.5481 19.3803L29.1507 19.7603C29.6779 20.0643 30.0546 20.2923 30.2052 20.5963C30.3559 20.8243 30.5065 21.1283 30.5065 21.5083C30.5065 22.0403 30.3559 22.4203 29.9792 22.8003C29.6026 23.1043 29.1507 23.2563 28.5481 23.2563C28.3221 23.2563 28.0961 23.2563 27.8701 23.1803C27.6442 23.1043 27.4182 23.1043 27.1169 22.9523L26.9662 21.3563Z" fill="white"/>
<path d="M32.4649 22.876V18.62H30.7325V17.48H35.4026V18.62H33.7455V22.876H32.4649Z" fill="white"/>
<path d="M37.2104 17.5562V20.5202C37.2104 20.9762 37.2857 21.3562 37.4364 21.5842C37.587 21.8122 37.8883 21.9642 38.1896 21.9642C38.4909 21.9642 38.7922 21.8882 38.9429 21.6602C39.0935 21.4322 39.2442 21.1282 39.2442 20.6722V17.5562H40.374V20.6722C40.374 21.4322 40.1481 22.0402 39.7714 22.4962C39.3948 22.9522 38.7922 23.1802 38.1143 23.1802C37.4364 23.1802 36.8338 22.9522 36.4572 22.5722C36.0805 22.1162 35.8546 21.5082 35.8546 20.7482V17.6322H37.2104V17.5562Z" fill="white"/>
<path d="M41.5792 22.876V17.48H43.0104C43.9896 17.48 44.8182 17.708 45.3455 18.164C45.8727 18.62 46.174 19.304 46.174 20.14C46.174 20.672 46.0987 21.052 45.8727 21.508C45.6468 21.888 45.3455 22.192 44.8935 22.496C44.6675 22.648 44.3662 22.724 44.0649 22.8C43.7636 22.876 43.387 22.876 43.0104 22.876H41.5792ZM42.8597 21.736H43.161C43.6883 21.736 44.1403 21.584 44.4416 21.356C44.7429 21.052 44.8935 20.672 44.8935 20.216C44.8935 19.76 44.7429 19.38 44.4416 19.076C44.1403 18.772 43.6883 18.696 43.161 18.696H42.8597V21.736Z" fill="white"/>
<path d="M47.0779 22.876V17.48H48.3585V22.876H47.0779Z" fill="white"/>
<path d="M49.2623 20.2161C49.2623 19.8361 49.3377 19.4561 49.4883 19.0761C49.6389 18.6961 49.7896 18.3921 50.0909 18.1641C50.3169 17.9361 50.6182 17.7081 50.9948 17.5561C51.2961 17.4041 51.6727 17.3281 52.0493 17.3281C52.426 17.3281 52.7273 17.4041 53.1039 17.5561C53.4052 17.7081 53.7065 17.9361 54.0078 18.1641C54.2338 18.3921 54.4597 18.7721 54.6104 19.0761C54.761 19.4561 54.8364 19.8361 54.8364 20.2161C54.8364 20.5201 54.761 20.9001 54.6857 21.1281C54.6104 21.4321 54.4597 21.6601 54.2338 21.9641C54.0078 22.3441 53.6312 22.5721 53.2545 22.8001C52.8779 23.0281 52.5013 23.1041 52.0493 23.1041C51.6727 23.1041 51.3714 23.0281 50.9948 22.8761C50.6935 22.7241 50.3922 22.4961 50.0909 22.2681C49.7896 21.9641 49.6389 21.6601 49.4883 21.3561C49.3377 20.9761 49.2623 20.5961 49.2623 20.2161ZM50.6182 20.2161C50.6182 20.6721 50.7688 21.0521 50.9948 21.3561C51.2961 21.6601 51.5974 21.8121 51.974 21.8121C52.3506 21.8121 52.7273 21.6601 52.9532 21.3561C53.2545 21.0521 53.3299 20.6721 53.3299 20.2161C53.3299 19.7601 53.1792 19.3801 52.9532 19.0001C52.6519 18.6961 52.3506 18.5441 51.974 18.5441C51.5974 18.5441 51.2208 18.6961 50.9948 19.0001C50.6935 19.3801 50.6182 19.7601 50.6182 20.2161Z" fill="white"/>
<path d="M8.81297 19.9883V22.5723C8.43635 22.7243 8.13505 22.8763 7.75843 22.9523C7.38181 23.0283 7.08051 23.1043 6.77921 23.1043C5.95064 23.1043 5.27271 22.8003 4.74544 22.2683C4.21817 21.7363 3.91687 21.0523 3.91687 20.2163C3.91687 19.3803 4.21817 18.6963 4.74544 18.1643C5.27271 17.6323 5.95064 17.4043 6.77921 17.4043C7.08051 17.4043 7.3818 17.4803 7.6831 17.5563C7.9844 17.6323 8.21038 17.7843 8.51168 17.9363L8.36103 19.3043C8.13505 19.0763 7.83375 18.8483 7.60778 18.7723C7.38181 18.6203 7.08051 18.6203 6.85453 18.6203C6.40258 18.6203 5.95064 18.7723 5.64934 19.0763C5.34804 19.3803 5.19739 19.8363 5.19739 20.2923C5.19739 20.8243 5.34804 21.2043 5.64934 21.5083C5.95064 21.8123 6.32726 21.9643 6.85453 21.9643C6.92986 21.9643 7.08051 21.9643 7.15583 21.9643C7.23116 21.9643 7.38181 21.8883 7.53245 21.8883V21.1283H6.47791V20.0643H8.81297V19.9883Z" fill="white"/>
<path d="M9.64154 22.876V17.48H10.9974C11.4493 17.48 11.7506 17.48 12.0519 17.556C12.2779 17.632 12.5039 17.708 12.7299 17.86C12.9558 18.012 13.1065 18.164 13.1818 18.392C13.2571 18.62 13.3324 18.848 13.3324 19.076C13.3324 19.38 13.2571 19.684 13.1065 19.988C12.9558 20.216 12.6545 20.444 12.3532 20.596L14.0104 22.876H12.5792L11.148 20.748H10.9974V22.876H9.64154ZM11.0727 18.468H10.8467V19.988H11.148C11.4493 19.988 11.7506 19.912 11.9013 19.76C12.0519 19.608 12.1273 19.456 12.1273 19.228C12.1273 19 12.0519 18.772 11.9013 18.696C11.7506 18.544 11.4493 18.468 11.0727 18.468Z" fill="white"/>
<path d="M14.161 22.8761L16.8727 17.3281H16.948L19.5844 22.8761H18.2285L17.9272 22.1161H15.8182L15.4415 22.8761H14.161ZM16.1948 21.1281H17.6259L16.948 19.4561L16.1948 21.1281Z" fill="white"/>
<path d="M20.1117 22.876V17.48H23.426V18.544H21.3922V19.608H23.2V20.672H21.3922V22.8H20.1117V22.876Z" fill="white"/>
<path d="M57.6987 13.1482H38.4909V3.57217C38.8675 3.42017 39.0935 3.04017 39.0935 2.66017C39.0935 2.12817 38.6416 1.67217 38.1143 1.67217C37.587 1.67217 37.1351 2.12817 37.1351 2.66017C37.1351 3.04017 37.361 3.42017 37.7377 3.57217L36.0805 5.09217L34.3481 2.73617C34.7247 2.58417 35.026 2.20417 35.026 1.74817C35.026 1.21617 34.574 0.760172 34.0468 0.760172C33.5195 0.760172 33.0675 1.21617 33.0675 1.74817C33.0675 2.20417 33.3688 2.58417 33.7455 2.73617L31.8623 4.86417L29.6026 1.90017C29.9039 1.74817 30.0545 1.36817 30.0545 1.06417C30.0545 0.532172 29.6026 0.0761719 29.0753 0.0761719C28.5481 0.0761719 28.0961 0.532172 28.0961 1.06417C28.0961 1.44417 28.3221 1.74817 28.6234 1.97617L26.439 4.86417L24.6312 2.81217C25.0078 2.66017 25.3091 2.28017 25.3091 1.82417C25.3091 1.29217 24.8571 0.836172 24.3299 0.836172C23.8026 0.836172 23.3507 1.29217 23.3507 1.82417C23.3507 2.28017 23.6519 2.66017 24.0286 2.81217L22.1455 5.32017L20.3377 3.72417C20.639 3.57217 20.7896 3.19217 20.7896 2.88817C20.7896 2.35617 20.3377 1.90017 19.8104 1.90017C19.2831 1.90017 18.8312 2.35617 18.8312 2.88817C18.8312 3.34417 19.1325 3.72417 19.5091 3.87617V13.1482H0.301299C0.150649 13.1482 0 13.3002 0 13.4522C0 13.6042 0.150649 13.7562 0.301299 13.7562H25.987H57.5481C57.6987 13.7562 57.8494 13.6042 57.8494 13.4522C58 13.3002 57.8493 13.1482 57.6987 13.1482ZM35.7039 10.3362C35.6286 10.2602 35.4779 10.3362 35.4026 10.4122L33.6701 13.1482H30.1299L33.5195 8.28417L37.7377 4.56017V8.66417L34.9507 13.1482H34.2727L35.8545 10.5642C35.8545 10.4882 35.8545 10.3362 35.7039 10.3362ZM37.7377 9.42417V13.1482H35.4026L37.7377 9.42417ZM38.1143 2.35617C38.2649 2.35617 38.3403 2.43217 38.3403 2.58417C38.3403 2.73617 38.2649 2.81217 38.1143 2.81217C37.9636 2.81217 37.8883 2.73617 37.8883 2.58417C37.8883 2.50817 37.9636 2.35617 38.1143 2.35617ZM33.9714 1.52017C34.1221 1.52017 34.1974 1.59617 34.1974 1.74817C34.1974 1.90017 34.1221 1.97617 33.9714 1.97617C33.8208 1.97617 33.7455 1.90017 33.7455 1.74817C33.7455 1.59617 33.8208 1.52017 33.9714 1.52017ZM33.8961 3.57217L35.4026 5.54817L33.5948 7.14417L32.3143 5.47217L33.8961 3.57217ZM24.7818 8.05617L29 2.50817L31.4857 5.77617L26.1377 13.1482H21.0909L24.7818 8.05617ZM28.6987 0.988172C28.6987 0.836172 28.774 0.760172 28.9247 0.760172C29.0753 0.760172 29.1507 0.836172 29.1507 0.988172C29.1507 1.06417 29.0753 1.21617 28.9247 1.21617C28.8494 1.21617 28.6987 1.14017 28.6987 0.988172ZM24.1039 1.44417C24.2545 1.44417 24.3299 1.52017 24.3299 1.67217C24.3299 1.82417 24.2545 1.90017 24.1039 1.90017C23.9532 1.90017 23.8779 1.82417 23.8779 1.67217C23.9532 1.59617 24.0286 1.44417 24.1039 1.44417ZM24.1792 3.57217L25.761 5.39617L24.3299 7.29617L22.5974 5.70017L24.1792 3.57217ZM19.7351 2.66017C19.8857 2.66017 19.961 2.73617 19.961 2.88817C19.961 3.04017 19.8857 3.11617 19.7351 3.11617C19.5844 3.11617 19.5091 3.04017 19.5091 2.88817C19.5091 2.73617 19.6597 2.66017 19.7351 2.66017ZM20.2623 4.71217L23.2 7.29617L21.1662 10.1082C21.0909 10.1842 21.0909 10.3362 21.2416 10.4122C21.2416 10.4122 21.3169 10.4882 21.3922 10.4882C21.4675 10.4882 21.5429 10.4882 21.5429 10.4122L23.5013 7.67617L24.1792 8.28417L20.639 13.2242H20.2623V4.71217ZM31.7117 6.08017L33.2182 8.05617L29.6779 13.1482H26.5896L31.7117 6.08017Z" fill="white"/>
<path d="M57.6987 26.4482H0.301299C0.150649 26.4482 0 26.6002 0 26.8282C0 26.9802 0.150649 27.1322 0.301299 27.1322H19.4338V32.6802C19.4338 32.7562 19.5091 32.9082 19.5844 32.9842L22.0701 35.4922C22.2208 35.6442 22.4468 35.6442 22.5974 35.4922L25.1584 33.0602L28.6234 36.5562C28.6987 36.6322 28.774 36.7082 28.9247 36.7082C29 36.7082 29.1507 36.6322 29.226 36.5562L32.6909 32.9842L35.1766 35.4922C35.3273 35.6442 35.5532 35.6442 35.7039 35.4922L38.2649 32.9842C38.3403 32.9082 38.4156 32.8322 38.4156 32.6802V27.2082H57.5481C57.6987 27.2082 57.8494 27.0562 57.8494 26.9042C58 26.6002 57.8493 26.4482 57.6987 26.4482ZM34.8 33.8202L33.5948 32.6802L34.4234 32.9082H36.5325L37.5117 32.6802L36.3065 33.8202H34.8ZM27.8701 34.5802L25.9117 32.6042L27.4182 32.9082H30.5065L31.8623 32.6802L29.9792 34.5802H27.8701ZM21.6935 33.8962L20.3377 32.6042L21.3922 32.9082H23.3507L24.4805 32.6042L23.1247 33.8962H21.6935ZM34.2727 32.4522L33.1429 32.1482V27.1322H34.2727V32.4522ZM32.3143 32.1482L30.7325 32.4522V27.1322H32.3143V32.1482ZM30.3558 32.4522H27.6442V27.1322H30.3558V32.4522ZM27.2675 32.4522L25.6104 32.0722V27.1322H27.1922V32.4522H27.2675ZM24.8571 32.1482L23.7273 32.4522V27.2082H24.8571V32.1482ZM23.2753 32.4522H21.6935V27.1322H23.2753V32.4522ZM36.3065 32.4522H34.7247V27.1322H36.3065V32.4522ZM21.2416 27.1322V32.4522L20.2623 32.1482V27.1322H21.2416ZM37.7377 32.2242L36.6831 32.4522V27.1322H37.7377V32.2242Z" fill="white"/>
</g>
<defs>
<clipPath id="clip0_139_620">
<rect width="58" height="37" fill="white"/>
</clipPath>
</defs>
</svg>
