<svg width="25" height="49" viewBox="0 0 25 49" fill="none" xmlns="http://www.w3.org/2000/svg">
<path d="M24.4395 45.5989L4.51477 24.4978L24.4395 3.3968C24.7962 3.01979 24.9959 2.51369 24.9959 1.98668C24.9959 1.45967 24.7962 0.953575 24.4395 0.576569C24.2662 0.394024 24.0595 0.249002 23.8312 0.149998C23.603 0.0509949 23.3579 1.95815e-08 23.1104 2.25336e-08C22.8628 2.54857e-08 22.6177 0.0509949 22.3895 0.149998C22.1613 0.249002 21.9545 0.394024 21.7812 0.576569L0.58053 23.0244C0.208315 23.4186 -3.52913e-06 23.9473 -3.52256e-06 24.4978C-3.516e-06 25.0483 0.208315 25.5771 0.58053 25.9713L21.7771 48.4191C21.9505 48.6029 22.1578 48.7491 22.3868 48.8488C22.6158 48.9486 22.8618 49 23.1104 49C23.3589 49 23.6049 48.9486 23.8339 48.8488C24.0629 48.7491 24.2702 48.6029 24.4436 48.4191C24.8003 48.0421 25 47.536 25 47.009C25 46.482 24.7962 45.9759 24.4395 45.5989Z" fill="#646464"/>
</svg>
