<svg width="25" height="49" viewBox="0 0 25 49" fill="none" xmlns="http://www.w3.org/2000/svg">
<path d="M0.560496 3.40112L20.4852 24.5022L0.560498 45.6032C0.203789 45.9802 0.00408924 46.4863 0.00408926 47.0133C0.00408928 47.5403 0.203789 48.0464 0.560498 48.4234C0.733752 48.606 0.940547 48.751 1.16877 48.85C1.397 48.949 1.64207 49 1.88963 49C2.13719 49 2.38226 48.949 2.61048 48.85C2.83871 48.751 3.04551 48.606 3.21876 48.4234L24.4195 25.9756C24.7917 25.5814 25 25.0527 25 24.5022C25 23.9517 24.7917 23.4229 24.4195 23.0287L3.22285 0.580887C3.04947 0.397053 2.84216 0.250934 2.61318 0.151169C2.3842 0.0513991 2.13817 -9.34626e-08 1.88963 -8.25984e-08C1.64109 -7.17342e-08 1.39506 0.0513992 1.16608 0.151169C0.937092 0.250935 0.729789 0.397053 0.556404 0.580887C0.199696 0.957893 -2.07786e-06 1.464 -2.05483e-06 1.991C-2.03179e-06 2.51801 0.203787 3.02411 0.560496 3.40112Z" fill="#646464"/>
</svg>
