<svg width="20" height="18" viewBox="0 0 20 18" fill="none" xmlns="http://www.w3.org/2000/svg">
<g clip-path="url(#clip0_711_11323)">
<path d="M18.9275 3.05775C18.6931 2.80458 18.3996 2.60096 18.0679 2.46136C17.7363 2.32176 17.3745 2.2496 17.0083 2.25H3.535L3.5 1.98675C3.42837 1.43956 3.13615 0.935049 2.67874 0.568858C2.22133 0.202668 1.63052 0.000256345 1.01833 0L0.833333 0C0.612319 0 0.400358 0.0790177 0.244078 0.21967C0.0877974 0.360322 0 0.551088 0 0.75C0 0.948913 0.0877974 1.13968 0.244078 1.28033C0.400358 1.42098 0.612319 1.5 0.833333 1.5H1.01833C1.22244 1.50002 1.41945 1.56747 1.57198 1.68954C1.72451 1.81161 1.82195 1.97981 1.84583 2.16225L2.9925 10.9373C3.11154 11.8498 3.59873 12.6913 4.36159 13.302C5.12445 13.9127 6.10988 14.25 7.13083 14.25H15.8333C16.0543 14.25 16.2663 14.171 16.4226 14.0303C16.5789 13.8897 16.6667 13.6989 16.6667 13.5C16.6667 13.3011 16.5789 13.1103 16.4226 12.9697C16.2663 12.829 16.0543 12.75 15.8333 12.75H7.13083C6.61505 12.7487 6.11233 12.6038 5.69161 12.3353C5.27089 12.0668 4.95276 11.6877 4.78083 11.25H14.7142C15.6911 11.2501 16.6369 10.9412 17.3865 10.3773C18.1361 9.81348 18.6417 9.03052 18.815 8.16525L19.4692 4.89975C19.5345 4.57576 19.5198 4.2428 19.4262 3.92448C19.3326 3.60616 19.1623 3.31026 18.9275 3.05775ZM17.8333 4.6335L17.1783 7.899C17.0743 8.41875 16.7704 8.889 16.3199 9.2274C15.8694 9.5658 15.301 9.7508 14.7142 9.75H4.51583L3.73167 3.75H17.0083C17.1307 3.74934 17.2518 3.77297 17.3629 3.81919C17.4741 3.86542 17.5725 3.93311 17.6513 4.01746C17.73 4.1018 17.7872 4.20073 17.8186 4.3072C17.8501 4.41368 17.8551 4.52508 17.8333 4.6335Z" fill="#EC6300"/>
<path d="M5.83366 18C6.75413 18 7.50033 17.3284 7.50033 16.5C7.50033 15.6716 6.75413 15 5.83366 15C4.91318 15 4.16699 15.6716 4.16699 16.5C4.16699 17.3284 4.91318 18 5.83366 18Z" fill="#EC6300"/>
<path d="M14.1667 18C15.0871 18 15.8333 17.3284 15.8333 16.5C15.8333 15.6716 15.0871 15 14.1667 15C13.2462 15 12.5 15.6716 12.5 16.5C12.5 17.3284 13.2462 18 14.1667 18Z" fill="#EC6300"/>
</g>
<defs>
<clipPath id="clip0_711_11323">
<rect width="20" height="18" fill="white"/>
</clipPath>
</defs>
</svg>
