<svg width="25" height="23" viewBox="0 0 25 23" fill="none" xmlns="http://www.w3.org/2000/svg">
<g clip-path="url(#clip0_294_6560)">
<path d="M23.6594 3.99703C23.3664 3.67737 22.9995 3.42028 22.5849 3.24401C22.1703 3.06775 21.7181 2.97663 21.2604 2.97714H4.41875L4.375 2.64475C4.28547 1.95386 3.92019 1.31685 3.34843 0.854486C2.77666 0.392124 2.03815 0.136554 1.27292 0.13623L1.04167 0.13623C0.765399 0.13623 0.500447 0.236 0.305097 0.413592C0.109747 0.591183 0 0.832048 0 1.0832C0 1.33435 0.109747 1.57522 0.305097 1.75281C0.500447 1.9304 0.765399 2.03017 1.04167 2.03017H1.27292C1.52806 2.0302 1.77431 2.11536 1.96497 2.26948C2.15563 2.42361 2.27744 2.63599 2.30729 2.86634L3.74062 13.9459C3.88943 15.0982 4.49841 16.1607 5.45199 16.9317C6.40556 17.7027 7.63735 18.1287 8.91354 18.1287H19.7917C20.0679 18.1287 20.3329 18.0289 20.5282 17.8513C20.7236 17.6737 20.8333 17.4328 20.8333 17.1817C20.8333 16.9305 20.7236 16.6897 20.5282 16.5121C20.3329 16.3345 20.0679 16.2347 19.7917 16.2347H8.91354C8.26881 16.2331 7.64042 16.0502 7.11451 15.7111C6.58861 15.372 6.19095 14.8934 5.97604 14.3408H18.3927C19.6138 14.3408 20.7962 13.9508 21.7331 13.2389C22.6701 12.527 23.3021 11.5384 23.5187 10.4459L24.3365 6.32279C24.4181 5.9137 24.3997 5.4933 24.2827 5.09138C24.1657 4.68946 23.9529 4.31585 23.6594 3.99703ZM22.2917 5.98661L21.4729 10.1097C21.3428 10.766 20.963 11.3597 20.3999 11.787C19.8367 12.2143 19.1262 12.4479 18.3927 12.4468H5.64479L4.66458 4.87108H21.2604C21.4134 4.87025 21.5648 4.90008 21.7037 4.95844C21.8426 5.01681 21.9656 5.10228 22.0641 5.20878C22.1625 5.31527 22.234 5.44018 22.2733 5.57462C22.3126 5.70906 22.3189 5.84972 22.2917 5.98661Z" fill="white"/>
<path d="M7.29232 22.8636C8.44291 22.8636 9.37565 22.0156 9.37565 20.9696C9.37565 19.9236 8.44291 19.0757 7.29232 19.0757C6.14172 19.0757 5.20898 19.9236 5.20898 20.9696C5.20898 22.0156 6.14172 22.8636 7.29232 22.8636Z" fill="white"/>
<path d="M17.7083 22.8636C18.8589 22.8636 19.7917 22.0156 19.7917 20.9696C19.7917 19.9236 18.8589 19.0757 17.7083 19.0757C16.5577 19.0757 15.625 19.9236 15.625 20.9696C15.625 22.0156 16.5577 22.8636 17.7083 22.8636Z" fill="white"/>
</g>
<defs>
<clipPath id="clip0_294_6560">
<rect width="25" height="22.7273" fill="white" transform="translate(0 0.13623)"/>
</clipPath>
</defs>
</svg>
