<svg width="6" height="10" viewBox="0 0 6 10" fill="none" xmlns="http://www.w3.org/2000/svg">
<path d="M0.91713 10C0.862293 10.0003 0.807934 9.9898 0.757169 9.96907C0.706403 9.94833 0.66023 9.91778 0.621296 9.87916C0.582243 9.84043 0.551245 9.79434 0.530092 9.74357C0.508938 9.6928 0.498047 9.63834 0.498047 9.58333C0.498047 9.52833 0.508938 9.47386 0.530092 9.42309C0.551245 9.37232 0.582243 9.32623 0.621296 9.2875L4.02546 5.88333C4.25955 5.64895 4.39103 5.33125 4.39103 5C4.39103 4.66875 4.25955 4.35104 4.02546 4.11666L0.621296 0.712496C0.542836 0.634036 0.498758 0.527622 0.498758 0.416663C0.498758 0.305704 0.542836 0.199289 0.621296 0.120829C0.699756 0.0423693 0.80617 -0.00170898 0.91713 -0.00170898C1.02809 -0.00170898 1.1345 0.0423693 1.21296 0.120829L4.61713 3.525C4.81114 3.71852 4.96507 3.94842 5.0701 4.20152C5.17513 4.45463 5.22919 4.72597 5.22919 5C5.22919 5.27403 5.17513 5.54536 5.0701 5.79847C4.96507 6.05157 4.81114 6.28147 4.61713 6.475L1.21296 9.87916C1.17403 9.91778 1.12786 9.94833 1.07709 9.96907C1.02632 9.9898 0.971966 10.0003 0.91713 10Z" fill="#828282"/>
</svg>
