<svg width="27" height="25" viewBox="0 0 27 25" fill="none" xmlns="http://www.w3.org/2000/svg">
<g clip-path="url(#clip0_307_11265)">
<path d="M25.1057 4.577C24.801 4.23944 24.4195 3.96795 23.9883 3.78182C23.5571 3.59568 23.0868 3.49946 22.6108 3.5H5.0955L5.05 3.149C4.95688 2.41942 4.577 1.74673 3.98236 1.25848C3.38773 0.770223 2.61968 0.500342 1.82383 0.5L1.58333 0.5C1.29602 0.5 1.02047 0.605357 0.817301 0.792893C0.614137 0.98043 0.5 1.23478 0.5 1.5C0.5 1.76522 0.614137 2.01957 0.817301 2.20711C1.02047 2.39464 1.29602 2.5 1.58333 2.5H1.82383C2.08918 2.50003 2.34528 2.58996 2.54357 2.75272C2.74186 2.91547 2.86854 3.13975 2.89958 3.383L4.39025 15.083C4.54501 16.2998 5.17835 17.4218 6.17007 18.236C7.16178 19.0502 8.44284 19.5 9.77008 19.5H21.0833C21.3706 19.5 21.6462 19.3946 21.8494 19.2071C22.0525 19.0196 22.1667 18.7652 22.1667 18.5C22.1667 18.2348 22.0525 17.9804 21.8494 17.7929C21.6462 17.6054 21.3706 17.5 21.0833 17.5H9.77008C9.09956 17.4983 8.44603 17.3051 7.8991 16.9471C7.35216 16.589 6.93859 16.0836 6.71508 15.5H19.6284C20.8984 15.5001 22.128 15.0882 23.1025 14.3364C24.0769 13.5846 24.7342 12.5407 24.9595 11.387L25.8099 7.033C25.8948 6.60101 25.8757 6.15707 25.754 5.73264C25.6323 5.30821 25.411 4.91368 25.1057 4.577ZM23.6833 6.678L22.8318 11.032C22.6966 11.725 22.3015 12.352 21.7158 12.8032C21.1302 13.2544 20.3913 13.5011 19.6284 13.5H6.37058L5.35117 5.5H22.6108C22.77 5.49912 22.9274 5.53062 23.0718 5.59226C23.2163 5.65389 23.3443 5.74415 23.4466 5.85661C23.549 5.96907 23.6233 6.10097 23.6642 6.24294C23.7051 6.3849 23.7117 6.53345 23.6833 6.678Z" fill="white"/>
<path d="M8.08268 24.5C9.2793 24.5 10.2493 23.6046 10.2493 22.5C10.2493 21.3954 9.2793 20.5 8.08268 20.5C6.88607 20.5 5.91602 21.3954 5.91602 22.5C5.91602 23.6046 6.88607 24.5 8.08268 24.5Z" fill="white"/>
<path d="M18.9167 24.5C20.1133 24.5 21.0833 23.6046 21.0833 22.5C21.0833 21.3954 20.1133 20.5 18.9167 20.5C17.72 20.5 16.75 21.3954 16.75 22.5C16.75 23.6046 17.72 24.5 18.9167 24.5Z" fill="white"/>
</g>
<defs>
<clipPath id="clip0_307_11265">
<rect width="26" height="24" fill="white" transform="translate(0.5 0.5)"/>
</clipPath>
</defs>
</svg>
