<svg width="80" height="80" viewBox="0 0 80 80" fill="none" xmlns="http://www.w3.org/2000/svg">
<path d="M11.9375 70.0159C10.6094 70.1877 9.28125 70.1877 8.0625 69.6565C5.78125 68.6409 4.3125 66.9221 3.75 64.4534C3.71875 64.3127 3.75 64.1721 3.60938 64.0784V61.6721C3.95312 60.7971 4.07812 59.8284 4.625 59.0159C6.46875 56.2502 9.09375 55.0627 12.3594 55.8752H12.6406C12.6381 55.9175 12.6434 55.9599 12.6562 56.0002C12.5156 56.219 12.2656 56.2502 12.0781 56.3752C11.0313 57.0784 10.0937 57.8752 9.42187 58.9377C8.44557 60.467 8.08803 62.3106 8.42188 64.094C8.6875 65.5002 9.20313 66.8127 10.2813 67.8752C11 68.5784 11.875 69.0627 12.6406 69.7034C12.4375 69.9065 12.1094 69.7815 11.9375 70.0159Z" fill="#016BB1"/>
<path d="M60.3905 12.6875C60.6561 12.9531 60.5311 13.2656 60.5311 13.5625V42.25C60.5311 43.1875 60.5311 43.2031 61.4999 43.1875C63.1874 43.125 64.8124 43.4063 66.1405 44.4688C67.1561 45.2656 68.078 46.2188 68.453 47.5469C68.2811 47.9219 68.1874 48.3281 67.953 48.6406C66.453 50.7031 64.4686 51.9219 61.8592 51.9375H37.7967C37.9374 50.9844 38.0155 50.0312 37.7967 49.0781C37.203 46.5 35.8905 44.5313 33.2655 43.625C33.1405 43.4063 32.828 43.5625 32.703 43.3281C32.578 43.0937 32.9686 43.2031 33.1249 43.2031C34.7655 43.2031 36.4061 43.1719 38.0624 43.2188C38.6561 43.2344 38.7967 43.0313 38.7967 42.4531C38.7655 38.5625 38.7811 34.6719 38.7811 30.7812H40.6874C42.3436 30.8125 43.9217 30.4531 45.4686 29.8906C46.0052 29.7127 46.4778 29.3813 46.828 28.9375C46.828 33.4219 46.8436 37.9219 46.8124 42.4062C46.8124 43.0781 47.0155 43.2344 47.6561 43.2188C48.9374 43.1719 50.2342 43.2031 51.5311 43.2031C52.4842 43.2031 52.4842 43.2031 52.4842 42.25V14.1094C53.8436 14.0938 55.2186 14.1719 56.5624 13.9531C57.9061 13.7344 59.2499 13.5312 60.3905 12.6875ZM43.078 48.4062H44.4842C45.203 48.3906 45.5624 47.9844 45.5624 47.2188C45.5689 47.0788 45.5464 46.939 45.4963 46.8082C45.4462 46.6774 45.3696 46.5583 45.2713 46.4585C45.173 46.3588 45.0551 46.2804 44.925 46.2284C44.7949 46.1763 44.6555 46.1518 44.5155 46.1562H41.6874C40.953 46.1562 40.4686 46.6094 40.4999 47.25C40.5233 47.5623 40.6632 47.8545 40.8918 48.0686C41.1204 48.2827 41.421 48.4032 41.7342 48.4062H43.078ZM55.3124 19.9063C55.3124 20.4219 55.2967 20.9375 55.3124 21.4531C55.2896 21.6013 55.2984 21.7525 55.3382 21.897C55.378 22.0415 55.448 22.1759 55.5435 22.2914C55.6389 22.407 55.7578 22.501 55.8921 22.5673C56.0265 22.6337 56.1734 22.6709 56.3232 22.6764C56.473 22.682 56.6222 22.6558 56.7611 22.5995C56.9 22.5433 57.0255 22.4583 57.1293 22.3502C57.233 22.242 57.3127 22.1131 57.3631 21.972C57.4135 21.8309 57.4335 21.6807 57.4217 21.5313C57.453 20.4219 57.453 19.3125 57.4217 18.2188C57.4138 18.0777 57.3779 17.9397 57.316 17.8127C57.2541 17.6858 57.1675 17.5724 57.0613 17.4793C56.9551 17.3862 56.8314 17.3152 56.6975 17.2705C56.5635 17.2257 56.422 17.2081 56.2811 17.2188C55.7499 17.2344 55.328 17.6875 55.3124 18.2813C55.2967 18.875 55.3124 19.3594 55.3124 19.9063Z" fill="#D0D8DA"/>
<path d="M67.0156 55.6098C68.3125 55.5942 69.6094 55.5473 70.8594 55.9067C73.0781 56.5317 74.5469 58.0004 75.3594 60.1254C73.8438 62.9848 71.5312 64.4067 68.2188 64.3754C60.3906 64.3129 52.5469 64.3598 44.7188 64.3598C44.7188 63.7504 44.7031 63.1411 44.7188 62.5317C44.8438 59.9223 42.6563 56.8286 40.1875 56.0473C39.7938 55.8667 39.3699 55.7607 38.9375 55.7348C39.1719 55.5161 39.4687 55.6098 39.75 55.6098H67.0156ZM49.9219 60.8286H51.4062C51.5458 60.8306 51.6844 60.8052 51.8141 60.7537C51.9438 60.7022 52.062 60.6257 52.1622 60.5284C52.2623 60.4312 52.3423 60.3152 52.3975 60.1871C52.4528 60.059 52.4823 59.9212 52.4844 59.7817C52.5156 59.1723 52.125 58.6254 51.5312 58.5942C50.4687 58.5473 49.4219 58.5473 48.3594 58.5942C47.7344 58.6254 47.375 59.1567 47.3906 59.8442C47.4062 60.5317 47.8594 60.8286 48.5156 60.8286H49.9219Z" fill="#D0D8DA"/>
<path d="M44.7188 64.3594C52.5469 64.3594 60.3906 64.3125 68.2188 64.375C71.5312 64.4063 73.8437 62.9844 75.3594 60.125C76.125 61.7656 76.1406 63.4688 75.5781 65.1406C74.7656 67.5781 73.125 69.25 70.5937 69.9063C70.0281 70.0567 69.4447 70.1303 68.8594 70.125H39.9062L39.625 69.875C39.8438 69.8281 40.0469 69.7812 40.1875 69.5781C41.5469 69.2812 42.4219 68.3125 43.2812 67.3438C44.1406 66.375 44.2813 65.375 44.7188 64.3594Z" fill="#46AFE4"/>
<path d="M52.4844 14.1094V42.2344C52.4844 43.1875 52.4844 43.1875 51.5312 43.1875C50.2344 43.1875 48.9375 43.1562 47.6562 43.2031C47.0156 43.2188 46.8125 43.0625 46.8125 42.3906C46.8438 37.9062 46.8281 33.4063 46.8281 28.9219V13.375C46.8281 13.1406 46.8594 12.9062 46.875 12.6719C48.4687 13.6094 50.2188 13.9531 52.0625 13.9844C52.1719 14.1406 52.3437 14.0938 52.4844 14.1094Z" fill="#46AFE4"/>
<path d="M67.0156 55.6094H39.7499C39.4687 55.6094 39.1718 55.5156 38.9374 55.7344C37.7656 55.4219 36.6406 55.7344 35.5312 56.0312C35.4218 55.9531 35.4687 55.875 35.5468 55.8125C36.7812 54.7969 37.3593 53.4062 37.7968 51.9219H61.8593C64.4687 51.9062 66.4531 50.6875 67.9531 48.625C68.1874 48.3125 68.2812 47.9062 68.4531 47.5312C68.8437 48.0938 68.9218 48.75 68.9999 49.3906C69.2656 51.75 68.6249 53.8437 67.0156 55.6094Z" fill="#46AFE4"/>
<path d="M38.7812 30.7656C38.7812 34.6562 38.7656 38.5469 38.7969 42.4375C38.7969 43.0156 38.6563 43.2188 38.0625 43.2031C36.4063 43.1563 34.7656 43.1875 33.125 43.1875V29.8125C33.125 29.5625 33.1563 29.2969 33.1719 29.0469C34.7813 30.125 36.5781 30.6094 38.5 30.625C38.5258 30.6753 38.567 30.7161 38.6176 30.7414C38.6682 30.7667 38.7255 30.7752 38.7812 30.7656Z" fill="#46AFE4"/>
<path d="M12.6404 55.8909C12.6717 55.6409 12.4842 55.5159 12.3436 55.3753C9.84356 52.6253 9.84356 48.4066 12.2186 45.5941C13.9998 43.5159 16.2029 42.9222 18.7967 43.3128H18.9998C19.1092 43.5003 19.4529 43.4378 19.4842 43.7191C18.5674 44.1125 17.7427 44.6926 17.0623 45.4222C14.4998 48.1566 14.5311 53.0003 17.3904 55.6253C17.8904 56.0941 18.4061 56.5316 19.0467 56.7659C19.1673 56.814 19.2759 56.8878 19.365 56.9823C19.4541 57.0768 19.5214 57.1896 19.5623 57.3128V57.4534H19.5779C17.9998 57.6409 16.4373 57.7503 14.8904 57.3128C14.4061 56.6722 13.6248 56.4534 12.9686 56.0472C12.9333 55.9946 12.8835 55.9533 12.8253 55.9283C12.7671 55.9034 12.7029 55.8958 12.6404 55.9066V55.8909Z" fill="#016BB1"/>
<path d="M25.5001 70.0317C24.6092 70.1646 23.7035 70.1646 22.8126 70.0317C21.8751 69.6411 20.9376 69.3129 20.1251 68.6411C18.5939 67.3442 17.6095 65.8286 17.4376 63.8129C17.2032 63.1411 17.3282 62.4692 17.4376 61.7973C17.4532 61.6098 17.4689 61.4223 17.5001 61.2504C17.7657 59.7504 18.6251 58.5629 19.5782 57.4379H19.6876C20.3439 56.9536 20.9532 56.4067 21.6876 56.0473C22.8595 55.7973 24.0157 55.3911 25.2345 55.7348C25.6876 55.8286 26.1564 55.8286 26.5157 56.1723C26.1407 56.1411 25.8282 56.3129 25.547 56.5161C24.7054 57.1103 23.9621 57.8326 23.3439 58.6567C23.092 58.9664 22.8819 59.3079 22.7189 59.6723C21.9064 61.8286 21.7657 63.9692 22.8126 66.1254C23.5939 67.7661 24.8595 68.8598 26.4845 69.5786C26.3126 69.8129 26.047 69.8598 25.7814 69.8911C25.7254 69.8755 25.6656 69.8812 25.6137 69.9072C25.5617 69.9332 25.5212 69.9776 25.5001 70.0317Z" fill="#016BB1"/>
<path d="M35.5312 56.0312C36.6406 55.7343 37.7656 55.4218 38.9375 55.7343C39.3699 55.7602 39.7938 55.8662 40.1875 56.0468C39.5938 56.5 38.8906 56.7343 38.3125 57.25C36.1094 59.2656 35.3906 61.75 35.9844 64.5937C36.4844 66.9531 37.9688 68.6093 40.1875 69.5781C40.0469 69.7812 39.8438 69.8281 39.625 69.875C39.4063 69.9218 39.2969 69.8593 39.2031 70.0312C38.3122 70.1641 37.4065 70.1641 36.5156 70.0312C36.4945 69.9771 36.4541 69.9327 36.4021 69.9067C36.3501 69.8807 36.2903 69.875 36.2344 69.8906C35.2969 69.6875 34.5469 69.1875 33.8125 68.5937C32.2812 67.3437 31.3281 65.7968 31.1562 63.7968C31.1406 63.1718 31.1406 62.5625 31.1406 61.9375C31.1719 61.6875 31.2031 61.4375 31.25 61.1875C31.5312 59.6875 32.3438 58.4843 33.4063 57.4375C34.0781 56.9218 34.7187 56.3437 35.5312 56.0312Z" fill="#016BB1"/>
<path d="M32.7031 43.3126C32.8281 43.5469 33.1406 43.3907 33.2656 43.6094C33.1455 43.712 33.0145 43.8011 32.875 43.8751C30.7812 44.8438 29.6562 46.5626 29.0937 48.7344C28.3125 51.7344 29.8125 55.4532 32.7031 56.7344C32.8324 56.7856 32.9494 56.8636 33.0463 56.9632C33.1433 57.0629 33.218 57.1819 33.2656 57.3126C32.3906 57.5938 31.5 57.5938 30.5938 57.6094C29.6875 57.6251 29.2813 57.3126 28.6094 57.2969L28.4687 57.1563C28.0937 56.6094 27.4375 56.5001 26.9062 56.1719C26.7522 55.9044 26.5088 55.6997 26.2188 55.5938C25.0156 54.1719 24.2344 52.5782 24.2188 50.6876V49.6563C24.5625 46.8907 25.9531 44.8751 28.4844 43.6719C28.7969 43.5313 29.1719 43.5469 29.4531 43.3126C30.529 43.1328 31.6273 43.1328 32.7031 43.3126Z" fill="#016BB1"/>
<path d="M38.7812 30.7657C38.7254 30.7752 38.6681 30.7667 38.6175 30.7414C38.5669 30.7161 38.5257 30.6754 38.4999 30.625C38.3749 30.3125 38.1405 30.0782 37.9374 29.8282C37.2187 28.9844 37.2499 28.5 37.7968 27.5469C38.0468 27.1094 38.5468 27 38.7655 26.5782C40.7983 26.4355 42.8408 26.6255 44.8124 27.1407C45.578 27.3282 46.2187 27.8438 46.828 28.3594V28.9219C46.4779 29.3657 46.0052 29.6971 45.4687 29.875C43.9218 30.4375 42.3437 30.7969 40.6874 30.7657H38.7812Z" fill="#46AFE4"/>
<path d="M52.4841 14.1095C52.3435 14.0939 52.1716 14.1407 52.0623 13.9845C52.0573 13.8447 52.0017 13.7115 51.906 13.6095C50.6873 12.0939 50.781 11.4064 52.3435 10.297L52.4841 10.1407C54.4223 9.99603 56.3711 10.1435 58.2654 10.5782C58.655 10.6725 59.0365 10.7979 59.406 10.9532C60.406 11.3751 60.5779 11.672 60.3904 12.6876C59.2498 13.5314 57.906 13.7501 56.5623 13.9532C55.2185 14.1564 53.8435 14.0939 52.4841 14.1095Z" fill="#46AFE4"/>
<path d="M17.4375 63.8125C17.6094 65.8281 18.5938 67.3437 20.125 68.6406C20.9375 69.3125 21.875 69.6406 22.8125 70.0313C22.6406 70.2031 22.4219 70.1406 22.2031 70.1406H12.5312C12.3281 70.1406 12.1094 70.2031 11.9375 70.0156C12.1094 69.7813 12.4375 69.9063 12.6406 69.7188C12.9317 69.63 13.2141 69.5149 13.4844 69.375C15.3906 68.1719 16.7812 66.5938 17.1562 64.2812C17.1875 64.0781 17.1094 63.8438 17.4375 63.8125Z" fill="#D0D8DA"/>
<path d="M31.1563 63.7969C31.3282 65.7969 32.2813 67.3438 33.8126 68.5938C34.547 69.1875 35.297 69.6875 36.2345 69.8906V70.0313C32.7576 70.211 29.2738 70.211 25.797 70.0313C25.7842 69.9855 25.7789 69.938 25.7813 69.8906C26.047 69.8594 26.3126 69.8125 26.4845 69.5781C27.2345 69.5781 27.672 69 28.2188 68.625C29.7501 67.5781 30.547 66.0938 30.8595 64.3125C30.9063 64.0938 30.922 63.8906 31.1563 63.7969Z" fill="#D0D8DA"/>
<path d="M29.4531 43.3127C29.1719 43.5471 28.7969 43.5315 28.4844 43.6721C25.9531 44.8752 24.5625 46.8909 24.2188 49.6565C23.9219 48.0315 23.3438 46.5315 22.1875 45.3127C21.4375 44.5159 20.6406 43.8284 19.4844 43.7346C19.4531 43.4534 19.1094 43.5159 19 43.3284C19.1562 43.1252 19.3906 43.1877 19.5938 43.1877H28.8594C29.0625 43.1877 29.2812 43.1252 29.4531 43.3127Z" fill="#D0D8DA"/>
<path d="M38.7657 26.5781C38.5469 27 38.0469 27.1094 37.7969 27.5469C37.25 28.5 37.2188 28.9844 37.9375 29.8281C38.1407 30.0781 38.375 30.3125 38.5 30.625C36.5782 30.6094 34.7813 30.125 33.1719 29.0469C33.0157 28.4375 33.3282 28.1094 33.8125 27.7969C35.0469 27 36.4375 26.75 37.8594 26.6719L38.7657 26.5781Z" fill="#016BB1"/>
<path d="M52.4844 10.1406L52.3437 10.2969C50.7812 11.4062 50.6875 12.0937 51.9062 13.6094C52.002 13.7114 52.0575 13.8446 52.0625 13.9844C50.2187 13.9531 48.4687 13.6094 46.875 12.6719C46.7969 11.6406 46.9062 11.4062 47.8437 11C49.3281 10.3594 50.8906 10.1406 52.4844 10.1406Z" fill="#016BB1"/>
<path d="M39.2031 70.0316C39.2969 69.8597 39.4688 69.8754 39.625 69.8754L39.9062 70.1254C39.6719 70.1254 39.4219 70.2191 39.2031 70.0316Z" fill="#BBDEF6"/>
<path d="M25.7813 69.8904C25.7788 69.9378 25.7841 69.9853 25.7969 70.0311C25.6875 70.1404 25.5938 70.1561 25.5 70.0311C25.5211 69.9769 25.5616 69.9326 25.6135 69.9066C25.6655 69.8806 25.7253 69.8748 25.7813 69.8904Z" fill="#BBDEF6"/>
<path d="M36.2344 70.0311V69.8904C36.2903 69.8748 36.3501 69.8806 36.4021 69.9066C36.4541 69.9326 36.4945 69.9769 36.5156 70.0311C36.4219 70.1561 36.3281 70.1404 36.2344 70.0311Z" fill="#BBDEF6"/>
<path d="M17.4374 63.8125C17.1092 63.8437 17.1874 64.0781 17.1561 64.2812C16.7811 66.5937 15.3905 68.1719 13.4842 69.375C13.214 69.5149 12.9316 69.63 12.6405 69.7188C11.8749 69.0781 10.9999 68.5938 10.2811 67.8906C9.203 66.8281 8.68737 65.5156 8.42175 64.1094C8.0879 62.326 8.44545 60.4824 9.42175 58.9531C10.0936 57.8906 11.0311 57.0937 12.078 56.3906C12.2655 56.2656 12.5155 56.2344 12.6561 56.0156H12.9686C13.6249 56.4219 14.4061 56.6406 14.8905 57.2813C14.9999 57.4063 15.0936 57.5469 15.203 57.6562C16.078 58.5 16.6405 59.5469 17.0155 60.6875C17.1405 61.0625 16.9686 61.5469 17.4374 61.7812C17.328 62.4687 17.203 63.1406 17.4374 63.8125Z" fill="#46AFE4"/>
<path d="M12.9689 56.031H12.6564C12.6435 55.9906 12.6382 55.9483 12.6408 55.906C12.7017 55.8936 12.7649 55.8988 12.8229 55.9209C12.881 55.943 12.9316 55.9812 12.9689 56.031Z" fill="white"/>
<path d="M33.2654 57.3125C33.2178 57.1819 33.1431 57.0628 33.0461 56.9632C32.9492 56.8635 32.8322 56.7856 32.7029 56.7344C29.8123 55.4531 28.3123 51.7344 29.0936 48.7344C29.6561 46.5625 30.7811 44.8437 32.8748 43.875C33.0144 43.801 33.1453 43.712 33.2654 43.6094C35.8904 44.5156 37.2029 46.4844 37.7967 49.0625C38.0154 50.0156 37.9373 50.9687 37.7967 51.9219C37.3592 53.4062 36.7811 54.7969 35.5467 55.8125C35.4686 55.875 35.4217 55.9531 35.5311 56.0312C34.7186 56.3438 34.0779 56.9219 33.4061 57.4375L33.2654 57.3125Z" fill="#46AFE4"/>
<path d="M43.0781 48.4058H41.7343C41.4211 48.4028 41.1205 48.2823 40.8919 48.0681C40.6633 47.854 40.5234 47.5619 40.5 47.2495C40.4687 46.6089 40.9531 46.1558 41.6875 46.1558H44.5156C44.6556 46.1513 44.795 46.1759 44.9251 46.2279C45.0552 46.2799 45.1731 46.3583 45.2714 46.4581C45.3697 46.5579 45.4463 46.6769 45.4964 46.8077C45.5465 46.9386 45.569 47.0784 45.5625 47.2183C45.5625 47.9839 45.2031 48.3902 44.4843 48.4058H43.0781Z" fill="#46AFE4"/>
<path d="M55.3126 19.9063C55.3126 19.3594 55.297 18.8282 55.3126 18.2813C55.3283 17.7344 55.7501 17.2344 56.2814 17.2188C56.4222 17.2082 56.5638 17.2258 56.6977 17.2705C56.8317 17.3153 56.9554 17.3863 57.0616 17.4794C57.1678 17.5725 57.2544 17.6858 57.3163 17.8128C57.3782 17.9398 57.4141 18.0778 57.422 18.2188C57.4533 19.3126 57.4533 20.4219 57.422 21.5313C57.4338 21.6807 57.4138 21.8309 57.3634 21.9721C57.313 22.1132 57.2333 22.2421 57.1295 22.3502C57.0258 22.4584 56.9003 22.5434 56.7614 22.5996C56.6225 22.6558 56.4732 22.682 56.3235 22.6765C56.1737 22.6709 56.0268 22.6338 55.8924 22.5674C55.758 22.5011 55.6392 22.407 55.5437 22.2915C55.4483 22.176 55.3783 22.0416 55.3385 21.8971C55.2987 21.7526 55.2899 21.6013 55.3126 21.4532C55.297 20.9376 55.3126 20.4219 55.3126 19.9063Z" fill="#46AFE4"/>
<path d="M40.1873 69.5781C37.9685 68.6094 36.4842 66.9531 35.9842 64.5937C35.3904 61.75 36.1092 59.2656 38.3123 57.25C38.8904 56.7344 39.5935 56.5 40.1873 56.0469C42.656 56.8281 44.8435 59.9219 44.7185 62.5312C44.7029 63.1406 44.7185 63.75 44.7185 64.3594C44.281 65.375 44.0467 66.5 43.281 67.3437C42.5154 68.1875 41.5467 69.2812 40.1873 69.5781Z" fill="#46AFE4"/>
<path d="M49.9217 60.8281H48.5155C47.8592 60.8281 47.4217 60.4219 47.3905 59.8438C47.3592 59.2656 47.7342 58.625 48.3592 58.5938C49.4217 58.5469 50.4686 58.5469 51.5311 58.5938C52.1249 58.625 52.5155 59.1719 52.4842 59.7813C52.4822 59.9208 52.4527 60.0586 52.3974 60.1867C52.3421 60.3148 52.2621 60.4308 52.162 60.528C52.0619 60.6252 51.9436 60.7018 51.8139 60.7533C51.6842 60.8048 51.5456 60.8302 51.4061 60.8281H49.9217Z" fill="#1A87C9"/>
<path d="M19.4842 43.7344C20.6404 43.8281 21.4373 44.5156 22.1873 45.3125C23.3435 46.5313 23.9217 48.0312 24.2185 49.6562V50.6719C23.9529 51.3594 24.0935 52.0937 23.8279 52.7812C23.3592 54.0469 22.6092 55.0938 21.6873 56.0469C20.9529 56.4063 20.3435 56.9531 19.6873 57.4375C19.6497 57.392 19.6078 57.3501 19.5623 57.3125C19.5214 57.1893 19.4541 57.0765 19.365 56.982C19.2759 56.8875 19.1673 56.8137 19.0467 56.7656C18.406 56.5312 17.8904 56.0938 17.3904 55.625C14.531 53 14.4998 48.1562 17.0623 45.4375C17.7426 44.7079 18.5674 44.1279 19.4842 43.7344Z" fill="#46AFE4"/>
<path d="M17.4375 61.7969C16.9687 61.5625 17.1406 61.0781 17.0156 60.7031C16.6406 59.5625 16.0781 58.5156 15.2031 57.6719C15.0938 57.5625 15 57.4219 14.8906 57.2969C16.4375 57.7344 18 57.625 19.5781 57.4375C18.625 58.5625 17.7656 59.75 17.5 61.25C17.4687 61.4219 17.4531 61.6094 17.4375 61.7969Z" fill="#D0D8DA"/>
<path d="M19.5625 57.3125C19.608 57.3501 19.6499 57.392 19.6875 57.4375H19.5625V57.3125Z" fill="#DFEBF9"/>
<path d="M31.1564 63.7967C30.922 63.8904 30.9064 64.0935 30.8595 64.3123C30.547 66.0935 29.7501 67.5779 28.2189 68.6248C27.672 68.9998 27.2345 69.5779 26.4845 69.5779C24.8595 68.8592 23.5939 67.7654 22.8126 66.1248C21.7657 63.9685 21.9064 61.8279 22.7189 59.6717C22.8819 59.3072 23.092 58.9658 23.3439 58.656C23.9621 57.8319 24.7054 57.1097 25.547 56.5154C25.8282 56.3123 26.1407 56.1404 26.5157 56.1717H26.9064C27.4376 56.4998 28.0939 56.6092 28.4689 57.156L28.6095 57.2967C29.5157 58.3123 30.3751 59.3279 30.7345 60.7029C30.8439 61.1092 30.7657 61.6092 31.1407 61.9373C31.1407 62.5623 31.1407 63.1717 31.1564 63.7967Z" fill="#46AFE4"/>
<path d="M21.6875 56.0469C22.6094 55.0938 23.3594 54.0469 23.8281 52.7812C24.0937 52.0938 23.9531 51.3594 24.2187 50.6719C24.2344 52.5781 25.0156 54.1719 26.2188 55.5938C25.8906 55.6719 25.5312 55.4844 25.2344 55.7344C24.0156 55.3906 22.8594 55.7969 21.6875 56.0469Z" fill="#D0D8DA"/>
<path d="M25.2344 55.7344C25.5312 55.4844 25.8906 55.6719 26.2188 55.5938C26.5088 55.6996 26.7522 55.9043 26.9062 56.1719H26.5156C26.1562 55.8281 25.6875 55.8281 25.2344 55.7344Z" fill="#DFEBF9"/>
<path d="M31.1406 61.9375C30.7656 61.6094 30.8437 61.1094 30.7344 60.7031C30.375 59.3281 29.5156 58.3125 28.6094 57.2969C29.2812 57.3125 29.9062 57.625 30.5937 57.6094C31.2812 57.5938 32.3906 57.5937 33.2656 57.3125L33.4062 57.4375C32.3437 58.4844 31.5312 59.6875 31.25 61.1875C31.2031 61.4375 31.1719 61.6875 31.1406 61.9375Z" fill="#D0D8DA"/>
</svg>
