<svg width="50" height="80" viewBox="0 0 50 80" fill="none" xmlns="http://www.w3.org/2000/svg">
<g clip-path="url(#clip0_283_6559)">
<path d="M44.2344 75.4375H47.7813C48.2813 75.4375 48.7657 75.4531 48.9532 76.0469C49.1407 76.6406 48.8126 76.9063 48.4219 77.1875H1.71882C1.3282 76.9063 1.03132 76.5781 1.2032 76.0469C1.37507 75.5156 1.85945 75.4375 2.37507 75.4375H44.2344Z" fill="#696F7A"/>
<path d="M8.67187 25.3125L9.25 25.2812H40.8906L41.4688 25.3125C41.7656 25.8906 41.7656 26.5156 41.7656 27.1406C41.7448 37.1823 41.7448 47.2344 41.7656 57.2969H40.0312C40.0312 56.25 40 55.2188 40.0312 54.1719C40.0469 53.7188 39.9219 53.5313 39.4219 53.5469C38.3906 53.5781 37.3594 53.5781 36.3125 53.5469C35.8437 53.5313 35.6719 53.7031 35.6719 54.1719C35.7031 55.2188 35.6875 56.25 35.7031 57.2969H33.9531C33.9375 56.25 33.9219 55.2188 33.9531 54.1719C33.9531 53.7188 33.8437 53.5313 33.3437 53.5469C32.1562 53.5781 30.9844 53.5625 29.7969 53.5469C29.3281 53.5313 29.1406 53.7031 29.1562 54.1719C29.1875 55.2031 29.1719 56.25 29.1719 57.2812H27.4219C27.4219 56.2188 27.4062 55.1562 27.4219 54.1094C27.4375 53.6562 27.2812 53.5156 26.8437 53.5312H23.2969C22.875 53.5156 22.7031 53.6562 22.7187 54.1094C22.7344 55.1562 22.7187 56.2188 22.7187 57.2812H20.9687C20.9687 56.25 20.9687 55.2031 20.9844 54.1719C21 53.7031 20.8281 53.5313 20.3437 53.5469C19.1719 53.5625 17.9844 53.5781 16.7969 53.5469C16.3125 53.5313 16.1875 53.7188 16.2031 54.1719C16.2187 55.2188 16.2031 56.25 16.2031 57.2969H14.4531C14.4531 56.25 14.4375 55.2188 14.4688 54.1719C14.4844 53.7031 14.3125 53.5313 13.8281 53.5469C12.7969 53.5781 11.75 53.5781 10.7188 53.5469C10.2188 53.5313 10.1094 53.7188 10.1094 54.1719C10.1406 55.2188 10.125 56.25 10.125 57.2969H8.375C8.39583 47.2552 8.40104 37.2031 8.39062 27.1406C8.39062 26.5156 8.39062 25.8906 8.67187 25.3125ZM33.9375 42.2031C33.9375 41.4844 33.9219 40.75 33.9375 40.0313C33.9531 39.6719 33.8438 39.5 33.4531 39.5H29.6875C29.3125 39.5 29.1562 39.6563 29.1562 40.0156C29.1719 41.4531 29.1719 42.875 29.1562 44.2969C29.1562 44.7031 29.3125 44.8594 29.7188 44.8594C30.9531 44.8438 32.1875 44.8438 33.4062 44.8594C33.8281 44.8594 33.9531 44.7031 33.9531 44.3125C33.9219 43.6094 33.9375 42.9062 33.9375 42.2031ZM20.9844 42.1562C20.9844 41.4531 20.9687 40.75 20.9844 40.0625C21 39.6562 20.8281 39.5 20.4219 39.5H16.7344C16.375 39.5 16.1875 39.5937 16.2031 39.9844C16.224 41.4323 16.224 42.8854 16.2031 44.3437C16.1875 44.7812 16.3906 44.8594 16.7656 44.8594C17.9844 44.8438 19.1875 44.8438 20.3906 44.8594C20.8437 44.8594 21 44.6875 20.9844 44.2656C20.9687 43.5625 20.9844 42.8594 20.9844 42.1562ZM20.9844 49.2656C20.9844 48.5781 20.9687 47.875 20.9844 47.1719C21 46.75 20.8906 46.5625 20.4219 46.5781C19.2031 46.6094 17.9688 46.5938 16.7344 46.5781C16.3281 46.5781 16.1875 46.7188 16.2031 47.125C16.2187 48.5156 16.2187 49.9219 16.2031 51.3125C16.2031 51.6719 16.2969 51.8438 16.6875 51.8281H20.5156C20.8594 51.8438 21 51.7031 20.9844 51.3594C20.9687 50.6719 20.9844 49.9687 20.9844 49.2656ZM29.1562 49.1406C29.1562 49.8438 29.1719 50.5312 29.1562 51.2344C29.1406 51.6406 29.2344 51.8437 29.7031 51.8437C30.9375 51.8125 32.1719 51.8125 33.3906 51.8281C33.7969 51.8438 33.9531 51.7187 33.9531 51.2969C33.9219 49.9062 33.9219 48.5156 33.9531 47.1094C33.9531 46.6875 33.7812 46.5781 33.3906 46.5781C32.1719 46.5938 30.9375 46.6094 29.7031 46.5781C29.2344 46.5781 29.1406 46.7812 29.1562 47.1875C29.1719 47.8438 29.1562 48.4844 29.1562 49.1406ZM33.9375 35.1562C33.9375 34.4531 33.9219 33.75 33.9531 33.0469C33.9687 32.6406 33.7969 32.5156 33.4062 32.5156H29.7188C29.3281 32.5156 29.1406 32.6094 29.1562 33.0469C29.1719 34.4375 29.1719 35.8438 29.1562 37.2344C29.1562 37.6406 29.2969 37.7812 29.7031 37.7812C30.9375 37.75 32.1562 37.75 33.3906 37.7812C33.8594 37.7812 33.9531 37.5937 33.9531 37.1719C33.9219 36.5 33.9375 35.8281 33.9375 35.1562ZM16.2031 35.125C16.2031 35.8281 16.2187 36.5312 16.2031 37.2344C16.1875 37.625 16.3281 37.7812 16.7344 37.7812C17.9688 37.75 19.2031 37.7656 20.4219 37.7812C20.8125 37.7812 21 37.6875 20.9844 37.25C20.9687 35.8594 20.9687 34.4531 20.9844 33.0625C21 32.6563 20.8594 32.5156 20.4531 32.5156C19.2187 32.5313 17.9844 32.5469 16.7656 32.5156C16.2969 32.5 16.1875 32.6875 16.2031 33.1094C16.2187 33.7812 16.2031 34.4531 16.2031 35.125ZM27.4219 42.1875C27.4219 41.4531 27.4062 40.7344 27.4219 40.0156C27.4375 39.6406 27.2969 39.5 26.9219 39.5H23.2344C22.8594 39.5 22.7187 39.6406 22.7187 40.0156C22.7344 41.4531 22.7344 42.9062 22.7187 44.3437C22.7187 44.7187 22.8438 44.8594 23.2188 44.8594C24.4479 44.8385 25.6823 44.8385 26.9219 44.8594C27.2812 44.8594 27.4375 44.7344 27.4219 44.3594C27.4062 43.625 27.4219 42.9062 27.4219 42.1875ZM27.4219 49.2656C27.4219 48.5469 27.4062 47.8125 27.4219 47.0937C27.4219 46.7812 27.3594 46.5781 26.9844 46.5938H23.1562C22.8437 46.5938 22.7187 46.7187 22.7187 47.0156C22.7344 48.4687 22.7344 49.9219 22.7187 51.3594C22.7187 51.7031 22.8437 51.8281 23.1875 51.8281H26.9531C27.2969 51.8281 27.4375 51.7031 27.4219 51.3594C27.4062 50.6719 27.4219 49.9687 27.4219 49.2656ZM27.4219 35.1562C27.4219 34.4531 27.4062 33.75 27.4219 33.0469C27.4375 32.7031 27.3437 32.5156 26.9375 32.5156H23.1719C22.8281 32.5156 22.7187 32.6719 22.7187 33C22.7344 34.4219 22.7344 35.8438 22.7187 37.2812C22.7187 37.6563 22.875 37.7812 23.2344 37.7656C24.4375 37.7656 25.6562 37.75 26.8594 37.7812C27.3125 37.7812 27.4375 37.6094 27.4219 37.1719C27.4062 36.5 27.4219 35.8281 27.4219 35.1562ZM10.125 42.1875C10.125 42.8906 10.1406 43.5938 10.1094 44.2969C10.1094 44.6875 10.2031 44.8594 10.6406 44.8594C11.7188 44.8281 12.8125 44.8438 13.9062 44.8594C14.2969 44.8594 14.4688 44.7188 14.4688 44.3125C14.4531 42.875 14.4531 41.4531 14.4688 40.0313C14.4688 39.6719 14.3281 39.5 13.9531 39.5H10.6094C10.2344 39.5 10.1094 39.6563 10.1094 40.0156C10.1406 40.75 10.125 41.4688 10.125 42.1875ZM40.0156 42.25C40.0156 41.5156 40.0156 40.7969 40.0312 40.0781C40.0312 39.6875 39.9531 39.4844 39.5156 39.5C38.4219 39.5312 37.3438 39.5156 36.25 39.5C35.8594 39.5 35.6719 39.6406 35.6875 40.0469V44.3281C35.6719 44.75 35.875 44.8594 36.2656 44.8594C37.3438 44.8438 38.4375 44.8438 39.5312 44.8594C39.9062 44.8594 40.0312 44.7187 40.0312 44.3437C40.0156 43.6562 40.0156 42.9531 40.0156 42.25ZM40.0156 35.1562C40.0156 34.4375 40.0156 33.7188 40.0312 32.9844C40.0312 32.6563 39.9219 32.5156 39.5625 32.5156H36.1719C35.7812 32.5156 35.6719 32.6719 35.6719 33.0312C35.6875 34.4375 35.6875 35.8281 35.6719 37.2187C35.6719 37.625 35.7969 37.7812 36.2187 37.7812C37.2969 37.75 38.3906 37.75 39.4688 37.7812C39.9219 37.7812 40.0469 37.6094 40.0312 37.1875C40 36.5156 40.0156 35.8281 40.0156 35.1562ZM14.4531 35.1719C14.4531 34.4688 14.4375 33.7656 14.4688 33.0781C14.4844 32.6875 14.3594 32.5156 13.9375 32.5156C12.8281 32.5469 11.7187 32.5313 10.6094 32.5156C10.2344 32.5156 10.1094 32.6562 10.1094 33.0312C10.125 34.4531 10.125 35.875 10.1094 37.2812C10.1094 37.6875 10.2812 37.7812 10.6406 37.7656H13.9687C14.3437 37.7656 14.4688 37.625 14.4688 37.25C14.4531 36.5625 14.4531 35.8594 14.4531 35.1719ZM35.6875 49.1719C35.6875 49.875 35.7031 50.5781 35.6719 51.2656C35.6719 51.6562 35.7656 51.8437 36.2031 51.8437C37.3125 51.8125 38.4219 51.8125 39.5156 51.8437C39.9687 51.8437 40.0312 51.6406 40.0312 51.2656C40.0208 49.8906 40.0208 48.5156 40.0312 47.1406C40.0312 46.7656 39.9531 46.5781 39.5156 46.5781C38.4115 46.6094 37.3021 46.6094 36.1875 46.5781C35.75 46.5781 35.6719 46.7812 35.6719 47.1562C35.7031 47.8281 35.6875 48.5 35.6875 49.1719ZM14.4531 49.2656C14.4531 48.5469 14.4531 47.8281 14.4688 47.1094C14.4688 46.75 14.3594 46.5781 13.9687 46.5781C12.8437 46.6094 11.7187 46.5938 10.5781 46.5938C10.2344 46.5781 10.1094 46.7188 10.125 47.0469V51.3906C10.1094 51.75 10.2812 51.8281 10.6094 51.8281H14C14.3438 51.8438 14.4688 51.7031 14.4688 51.3594C14.4531 50.6719 14.4531 49.9687 14.4531 49.2656ZM18.6094 30.7812C19.2344 30.7812 19.8594 30.7656 20.4844 30.7969C21.1094 30.8281 21 30.6562 20.9844 30.2812C20.9635 29.3854 20.9635 28.4948 20.9844 27.6094C20.9844 27.2187 20.875 27.0156 20.4531 27.0312H16.6875C16.2969 27.0156 16.1875 27.2031 16.2031 27.5469C16.2187 28.4688 16.2187 29.3906 16.2031 30.2969C16.1875 30.7031 16.3594 30.7969 16.7187 30.7969L18.6094 30.7812ZM31.5781 27.0312H29.7031C29.3438 27.0156 29.1562 27.1562 29.1562 27.5312C29.1719 28.4375 29.1719 29.3594 29.1562 30.2812C29.1562 30.6406 29.2969 30.7969 29.6719 30.7969C30.9375 30.7813 32.1875 30.7656 33.4375 30.7969C33.8906 30.7969 33.9531 30.5937 33.9375 30.2187C33.9219 29.4062 33.9062 28.5781 33.9531 27.7656C34 26.9531 33.75 26.9687 33.1719 27.0156C32.5937 27.0625 32.1094 27.0312 31.5781 27.0312ZM25.0781 30.7812H26.9531C27.2969 30.7812 27.4219 30.6562 27.4219 30.3125C27.4062 29.375 27.4062 28.4219 27.4219 27.4844C27.4219 27.1406 27.2969 27 26.9531 27.0156H23.1875C22.8437 27 22.7187 27.1406 22.7187 27.4844C22.7344 28.4219 22.7344 29.3594 22.7187 30.3125C22.7187 30.6562 22.8437 30.7812 23.1875 30.7812H25.0781ZM12.1562 30.7812C12.8281 30.7812 13.375 30.7656 13.9375 30.7969C14.5 30.8281 14.4844 30.6406 14.4688 30.25C14.4531 29.375 14.4375 28.5 14.4688 27.6406C14.4844 27.1406 14.2656 27 13.8125 27.0156C13.3594 27.0312 12.4687 27.0312 11.7812 27.0312C10.125 27.0312 10.1094 27.0312 10.125 28.6719C10.1406 29.3437 9.84375 30.2188 10.25 30.6406C10.6562 31.0625 11.5781 30.7187 12.1562 30.7812ZM37.7031 30.7812C38.375 30.7812 38.9375 30.7656 39.4844 30.7969C40.0312 30.8281 40.0469 30.6563 40.0312 30.25C40 29.3646 40 28.474 40.0312 27.5781C40.0469 27.0937 39.8281 27.0156 39.4219 27.0156C38.7187 27.0469 38.0312 27.0312 37.3281 27.0312C35.6875 27.0312 35.6719 27.0312 35.6875 28.6719C35.7031 29.3437 35.4063 30.2031 35.8125 30.625C36.2188 31.0469 37.1406 30.7031 37.7031 30.7812Z" fill="#A9B1BD"/>
<path d="M27.422 57.3125H45.4845C46.5314 57.3281 47.5939 57.3594 48.6564 57.3438C49.1876 57.3281 49.6408 57.4062 50.0314 57.7812C50.422 58.1562 50.0001 58.75 50.0001 59.25C50.047 62.5 50.0314 65.7656 50.0314 69.0312C50.0314 70.0469 49.8283 70.25 48.797 70.25H1.20327C0.375149 70.25 0.12515 70 0.12515 69.1719C0.12515 65.8594 0.109524 62.5469 0.140774 59.25C0.140774 58.75 -0.249851 58.2656 0.109524 57.7812C0.468899 57.2969 0.968899 57.3281 1.50015 57.3438C2.54702 57.3594 3.60952 57.3281 4.67202 57.3125H27.422ZM25.0001 66.5781H31.8908C32.7814 66.5781 33.0626 66.2969 33.0626 65.4219C33.0626 64.5469 33.0783 63.2031 33.0626 62.0938C33.0626 61.2344 32.797 60.9688 31.9533 60.9688H18.1095C17.2501 60.9688 16.9533 61.2812 16.9376 62.1562V65.4219C16.9533 66.2969 17.2345 66.5781 18.1095 66.5781H25.0001ZM5.7814 63.75C5.76883 64.3063 5.86809 64.8594 6.07329 65.3766C6.27849 65.8938 6.58546 66.3646 6.97599 66.7609C7.36652 67.1573 7.83265 67.4712 8.34676 67.684C8.86087 67.8969 9.41249 68.0043 9.9689 68C11.0812 68.0001 12.1488 67.5626 12.9412 66.782C13.7335 66.0013 14.1869 64.9403 14.2033 63.8281C14.2189 61.4844 12.3283 59.5313 10.0314 59.5156C8.90693 59.5156 7.82829 59.9612 7.03171 60.7549C6.23513 61.5485 5.78553 62.6255 5.7814 63.75ZM44.3595 63.7969C44.3751 61.4844 42.4376 59.5156 40.1564 59.5156C39.0454 59.5237 37.9817 59.9665 37.1932 60.7492C36.4046 61.5319 35.954 62.5922 35.9376 63.7031C35.922 66.125 37.7658 68 40.1564 68C41.2699 67.9959 42.3366 67.5517 43.1239 66.7644C43.9113 65.977 44.3554 64.9103 44.3595 63.7969Z" fill="#1A87C9"/>
<path d="M50.0313 57.7653C49.6406 57.3903 49.1875 57.3121 48.6562 57.3278C47.5938 57.3434 46.5313 57.3121 45.4844 57.2965C45.4844 56.984 45.5 56.6715 45.5 56.359V26.6403C45.5 26.1559 45.5 25.6715 44.9531 25.4215L44.9062 25.3121C46.2656 25.2965 47.6094 25.2809 48.9688 25.2965C49.75 25.2965 50.0313 25.5934 50.0313 26.4059V57.7653Z" fill="#1A87C9"/>
<path d="M4.67188 57.2969C3.60938 57.3125 2.54688 57.3438 1.5 57.3281C0.96875 57.3125 0.5 57.3906 0.109375 57.7656V26.4844C0.109375 25.5469 0.375 25.2812 1.32813 25.2812L5.23438 25.3125C5.21701 25.3466 5.2064 25.3837 5.20313 25.4219C4.64063 25.6562 4.64062 26.1406 4.64062 26.6406V56.6562C4.64062 56.875 4.65625 57.0938 4.67188 57.2969Z" fill="#1A87C9"/>
<path d="M4.67188 57.2969C4.65625 57.0938 4.64062 56.875 4.64062 56.6562V26.6406C4.64062 26.1406 4.64063 25.6562 5.20313 25.4219L5.34375 25.3437L8.67188 25.3125C8.39063 25.8906 8.39062 26.5156 8.39062 27.1406C8.39062 37.1823 8.38542 47.2344 8.375 57.2969H4.67188Z" fill="#D0D8DA"/>
<path d="M44.9531 25.4219C45.5 25.6719 45.5 26.1562 45.5 26.6406V56.3594C45.5 56.6719 45.4844 56.9844 45.4844 57.2969H41.7656C41.7656 47.2552 41.7656 37.2031 41.7656 27.1406C41.7656 26.5156 41.7656 25.8906 41.4688 25.3125L44.7969 25.3437L44.9531 25.4219Z" fill="#D0D8DA"/>
<path d="M5.90625 70.25H15.6562C15.5156 70.6562 15.375 71.0625 15.25 71.4687C14.8594 72.7969 14.2656 74.0625 14.0469 75.4375H5.90625V70.25Z" fill="#1A87C9"/>
<path d="M34.5 70.25H44.2344V75.4375H36.0938C36.1406 75.0937 35.9844 74.7812 35.8906 74.4688C35.4219 73.0625 34.9531 71.6562 34.5 70.25Z" fill="#1A87C9"/>
<path d="M39.2814 22.0933C39.1228 22.1047 38.9646 22.0674 38.8277 21.9864C38.6909 21.9054 38.5821 21.7847 38.5157 21.6402C38.4307 21.4912 38.3941 21.3195 38.4108 21.1487C38.4276 20.978 38.4971 20.8167 38.6095 20.6871C39.1095 19.9683 39.8282 19.4683 40.4376 18.8433C41.047 18.2183 41.0939 18.109 40.422 17.4683C39.7501 16.8277 39.3439 16.4996 38.8751 15.9527C37.9376 14.8433 37.9532 13.9371 38.9064 12.859C39.3595 12.359 39.8907 11.9371 40.3907 11.4683C40.8907 10.9996 41.0939 10.6246 40.3907 9.98395C39.6876 9.34333 39.3126 9.0152 38.8282 8.48395C37.9689 7.49958 37.9845 6.46833 38.8439 5.49958C39.7032 4.53083 40.4376 4.03083 41.1407 3.18708C41.4532 2.81208 41.8907 2.8902 42.2501 3.17145C42.4132 3.27733 42.5288 3.44242 42.5726 3.6319C42.6163 3.82138 42.5847 4.02043 42.4845 4.18708C42.2003 4.66764 41.8417 5.10009 41.422 5.46833C41.0626 5.78083 40.7189 6.12458 40.3439 6.43708C39.9689 6.74958 39.8907 7.15583 40.3282 7.5777C40.7657 7.99958 41.6407 8.6402 42.1564 9.3277C42.9064 10.3433 42.9376 11.0621 42.172 12.0777C41.6876 12.7183 41.0626 13.2183 40.4689 13.7496C39.8751 14.2808 39.8282 14.484 40.4376 15.0777C41.047 15.6715 41.5314 16.0933 42.0314 16.6402C43.0001 17.7027 42.9845 18.6715 42.0157 19.7183C41.3282 20.4527 40.5782 21.1558 39.8595 21.859C39.7884 21.9408 39.699 22.0048 39.5985 22.0455C39.4981 22.0862 39.3894 22.1026 39.2814 22.0933Z" fill="#EB6409"/>
<path d="M8.48439 22.0938C7.76564 22.0625 7.42189 21.3594 7.81251 20.7188C8.20314 20.0782 9.00001 19.5157 9.59376 18.9219C10.1875 18.3282 10.3594 18.1094 9.59376 17.3907C8.82814 16.6719 8.32814 16.3438 7.85939 15.6563C7.39064 14.9688 7.26564 14.1407 7.81251 13.3125C8.35939 12.4844 8.90626 12.0782 9.51564 11.5469C10.375 10.7969 10.375 10.7032 9.54689 9.92191C9.09376 9.50003 8.60939 9.07816 8.18751 8.60941C7.14064 7.48441 7.15626 6.48441 8.18751 5.37503C8.89064 4.62503 9.70314 4.01566 10.3438 3.20316C10.625 2.82816 11.0625 2.85941 11.4375 3.15628C11.8125 3.45316 11.9219 3.87503 11.6563 4.31253C11.3906 4.75003 10.7344 5.34378 10.2188 5.82816C8.92189 7.09378 8.82814 6.87503 10.2656 8.20316C10.636 8.51357 10.9809 8.8532 11.2969 9.21878C12.1875 10.3594 12.1875 11.2344 11.2188 12.3125C10.7235 12.8391 10.1965 13.3348 9.64064 13.7969C9.14064 14.2344 9.10939 14.5938 9.62501 15.0469C10.1567 15.5029 10.6626 15.988 11.1406 16.5C12.2344 17.6407 12.2188 18.7032 11.1406 19.8594C10.4844 20.5469 9.68751 21.0625 9.12501 21.8282C9.05135 21.9252 8.95321 22.001 8.84065 22.0477C8.72808 22.0943 8.60513 22.1103 8.48439 22.0938Z" fill="#EB6409"/>
<path d="M22.1873 10.6253C22.1873 11.5472 21.7029 12.0941 21.2029 12.6097C20.7465 13.0764 20.2667 13.5197 19.7654 13.9378C19.3435 14.2972 19.3748 14.6097 19.7654 14.9534C20.156 15.2972 20.8592 15.9222 21.3592 16.4378C22.5154 17.6409 22.4842 18.7191 21.3435 19.9222C20.7029 20.5784 19.9373 21.1097 19.3748 21.8441C19.3072 21.9242 19.2244 21.9903 19.1312 22.0384C19.038 22.0865 18.9363 22.1158 18.8317 22.1245C18.7272 22.1332 18.622 22.1212 18.5222 22.0892C18.4223 22.0571 18.3297 22.0057 18.2498 21.9378C17.8435 21.6409 17.7498 21.2347 18.031 20.7972C18.4998 20.0472 19.2029 19.5159 19.8435 18.9222C20.4842 18.3284 20.6248 18.0784 19.8592 17.4066C19.0935 16.7347 18.6404 16.3753 18.1717 15.7191C17.4842 14.7503 17.4842 13.9534 18.281 13.0316C18.8485 12.4068 19.4482 11.8123 20.0779 11.2503C20.4998 10.8753 20.5154 10.5784 20.0935 10.1722C19.6717 9.76593 18.7029 9.04719 18.1873 8.31281C17.6717 7.57844 17.4998 6.65656 18.156 5.71906C18.6092 5.04718 19.3123 4.62531 19.8592 4.04719C20.0467 3.82844 20.2498 3.62531 20.4217 3.39094C20.5935 3.15656 21.1873 2.79719 21.6717 3.14094C22.156 3.48469 22.1404 3.95344 21.8435 4.40656C21.5467 4.85969 20.8904 5.43781 20.3904 5.92219C20.246 6.08501 20.0893 6.23649 19.9217 6.37531C19.3592 6.79719 19.3592 7.17219 19.906 7.64094C20.4886 8.14515 21.0416 8.6825 21.5623 9.25031C21.9529 9.65656 22.2185 10.1409 22.1873 10.6253Z" fill="#EB6409"/>
<path d="M32.4688 18.219C32.4531 19.0159 31.9375 19.594 31.375 20.1409C30.8125 20.6878 30.1875 21.1878 29.6563 21.7972C29.125 22.4065 28.9063 22.2347 28.5 21.9222C28.0938 21.6097 28 21.1409 28.3281 20.7034C28.9063 19.9534 29.625 19.344 30.3281 18.7034C31.0313 18.0628 30.7344 17.9222 30.2813 17.5315C29.8281 17.1409 29.2344 16.6097 28.75 16.1097C27.7031 15.0003 27.6875 14.094 28.625 12.9065C29.1406 12.2503 29.8281 11.7815 30.4063 11.2034C30.9844 10.6253 30.7656 10.5628 30.4063 10.2347C30.0469 9.90654 29.3281 9.28154 28.8281 8.76591C27.625 7.53154 27.6406 6.45341 28.8281 5.23466C29.4688 4.54716 30.2656 4.03154 30.8125 3.23466C31.0938 2.84404 31.5313 2.85966 31.9219 3.12529C32.3125 3.39091 32.4531 3.79716 32.1875 4.25029C31.7656 4.98466 31.1094 5.48466 30.5156 6.04716L29.9375 6.59404C29.6406 6.89091 29.6406 7.17216 29.9688 7.45341C30.2969 7.73466 31.0469 8.42216 31.5625 8.93779C32.7813 10.1878 32.7813 11.2503 31.5313 12.5159L30.2344 13.7659C29.5313 14.4222 29.5313 14.4847 30.2031 15.1253C30.875 15.7659 31.1875 15.9847 31.6406 16.4534C32.0938 16.9222 32.4688 17.469 32.4688 18.219Z" fill="#EB6409"/>
<path d="M5.34375 25.3434L5.20312 25.4215C5.20639 25.3834 5.21701 25.3462 5.23437 25.3121C5.25351 25.3046 5.27458 25.3036 5.29434 25.3093C5.31411 25.3149 5.33146 25.3269 5.34375 25.3434Z" fill="#8B8D96"/>
<path d="M44.9531 25.4219L44.7969 25.3438C44.8105 25.329 44.8279 25.3183 44.8472 25.3128C44.8665 25.3073 44.8869 25.3072 44.9062 25.3125L44.9531 25.4219Z" fill="#8B8D96"/>
<path d="M33.9375 42.2031C33.9375 42.9063 33.9219 43.6094 33.9531 44.3125C33.9531 44.7031 33.8281 44.8594 33.4062 44.8594C32.1875 44.8438 30.9531 44.8438 29.7188 44.8594C29.3125 44.8594 29.1562 44.7031 29.1562 44.2969C29.1719 42.875 29.1719 41.4531 29.1562 40.0156C29.1562 39.6563 29.3125 39.5 29.6875 39.5H33.4531C33.8438 39.5 33.9531 39.6719 33.9375 40.0313C33.9219 40.75 33.9375 41.4844 33.9375 42.2031Z" fill="#EB6409"/>
<path d="M20.9843 42.1562C20.9843 42.8594 20.9687 43.5625 20.9843 44.2656C20.9999 44.6875 20.8437 44.8594 20.3906 44.8594C19.1874 44.8438 17.9843 44.8438 16.7656 44.8594C16.3906 44.8594 16.1874 44.7812 16.2031 44.3437C16.2239 42.8958 16.2239 41.4427 16.2031 39.9844C16.1874 39.5937 16.3749 39.5 16.7343 39.5H20.4218C20.8281 39.5 20.9999 39.6562 20.9843 40.0625C20.9687 40.75 20.9843 41.4531 20.9843 42.1562Z" fill="#EB6409"/>
<path d="M20.9846 49.2655C20.9846 49.9687 20.9689 50.6718 20.9846 51.3593C21.0002 51.703 20.8596 51.8437 20.5158 51.828H16.6877C16.2971 51.8437 16.2033 51.6718 16.2033 51.3124C16.2189 49.9218 16.2189 48.5155 16.2033 47.1249C16.1877 46.7187 16.3283 46.578 16.7346 46.578C17.9689 46.5937 19.2033 46.6093 20.4221 46.578C20.8908 46.5624 21.0002 46.7499 20.9846 47.1718C20.9689 47.8749 20.9846 48.578 20.9846 49.2655Z" fill="#EB6409"/>
<path d="M29.1564 49.1406C29.1564 48.4844 29.172 47.8437 29.1564 47.1875C29.1407 46.7812 29.2345 46.5781 29.7032 46.5781C30.9376 46.6094 32.172 46.5938 33.3907 46.5781C33.7814 46.5781 33.9532 46.6875 33.9532 47.1094C33.922 48.5156 33.922 49.9062 33.9532 51.2969C33.9532 51.7187 33.797 51.8438 33.3907 51.8281C32.172 51.8125 30.9376 51.8125 29.7032 51.8437C29.2345 51.8437 29.1407 51.6406 29.1564 51.2344C29.172 50.5312 29.1564 49.8437 29.1564 49.1406Z" fill="#EB6409"/>
<path d="M33.9374 35.1562C33.9374 35.8281 33.9218 36.5 33.953 37.1719C33.953 37.5937 33.8593 37.7812 33.3906 37.7812C32.1562 37.75 30.9374 37.75 29.703 37.7812C29.2968 37.7812 29.1562 37.6406 29.1562 37.2344C29.1718 35.8437 29.1718 34.4375 29.1562 33.0469C29.1405 32.6094 29.3281 32.5156 29.7187 32.5156H33.4062C33.7968 32.5156 33.9687 32.6406 33.953 33.0469C33.9218 33.75 33.9374 34.4531 33.9374 35.1562Z" fill="#EB6409"/>
<path d="M16.2031 35.1249C16.2031 34.453 16.2187 33.7812 16.2031 33.1093C16.1874 32.6874 16.2968 32.4999 16.7656 32.5155C17.9843 32.5468 19.2187 32.5312 20.4531 32.5155C20.8593 32.5155 20.9999 32.6562 20.9843 33.0624C20.9687 34.453 20.9687 35.8593 20.9843 37.2499C20.9999 37.6874 20.8124 37.7812 20.4218 37.7812C19.2031 37.7655 17.9687 37.7499 16.7343 37.7812C16.3281 37.7812 16.1874 37.6249 16.2031 37.2343C16.2187 36.5312 16.2031 35.828 16.2031 35.1249Z" fill="#EB6409"/>
<path d="M27.4219 42.1875C27.4219 42.9062 27.4063 43.625 27.4219 44.3594C27.4375 44.7344 27.2812 44.8594 26.9219 44.8594C25.6823 44.8385 24.4479 44.8385 23.2188 44.8594C22.8438 44.8594 22.7188 44.7187 22.7188 44.3437C22.7344 42.9062 22.7344 41.4531 22.7188 40.0156C22.7188 39.6406 22.8594 39.5 23.2344 39.5H26.9219C27.2969 39.5 27.4375 39.6406 27.4219 40.0156C27.4063 40.7344 27.4219 41.4531 27.4219 42.1875Z" fill="#EB6409"/>
<path d="M27.4219 49.2655C27.4219 49.9686 27.4063 50.6717 27.4219 51.3592C27.4375 51.703 27.2969 51.828 26.9531 51.828H23.1875C22.8437 51.828 22.7188 51.703 22.7188 51.3592C22.7344 49.9217 22.7344 48.4686 22.7188 47.0155C22.7188 46.7186 22.8438 46.5936 23.1563 46.5936H26.9844C27.3594 46.578 27.4219 46.7811 27.4219 47.0936C27.4063 47.8124 27.4219 48.5467 27.4219 49.2655Z" fill="#EB6409"/>
<path d="M27.4219 35.1562C27.4219 35.8281 27.4063 36.5 27.4219 37.1719C27.4375 37.6094 27.3125 37.7812 26.8594 37.7812C25.6562 37.75 24.4375 37.7656 23.2344 37.7656C22.875 37.7812 22.7188 37.6562 22.7188 37.2812C22.7344 35.8438 22.7344 34.4219 22.7188 33C22.7188 32.6719 22.8281 32.5156 23.1719 32.5156H26.9375C27.3438 32.5156 27.4375 32.7031 27.4219 33.0469C27.4063 33.75 27.4219 34.4531 27.4219 35.1562Z" fill="#EB6409"/>
<path d="M10.125 42.1875C10.125 41.4687 10.1406 40.75 10.1094 40.0156C10.1094 39.6563 10.2344 39.5 10.6094 39.5H13.9531C14.3281 39.5 14.4688 39.6719 14.4688 40.0313C14.4531 41.4531 14.4531 42.875 14.4688 44.3125C14.4688 44.7188 14.2969 44.8594 13.9063 44.8594C12.8125 44.8438 11.7188 44.8281 10.6406 44.8594C10.2031 44.8594 10.1094 44.6875 10.1094 44.2969C10.1406 43.5937 10.125 42.8906 10.125 42.1875Z" fill="#EB6409"/>
<path d="M40.0156 42.2499C40.0156 42.953 40.0156 43.6561 40.0312 44.3436C40.0312 44.7186 39.9062 44.8592 39.5312 44.8592C38.4374 44.8436 37.3437 44.8436 36.2656 44.8592C35.8749 44.8592 35.6718 44.7499 35.6874 44.328V40.0467C35.6718 39.6405 35.8593 39.4999 36.2499 39.4999C37.3437 39.5155 38.4218 39.5311 39.5155 39.4999C39.9531 39.4842 40.0312 39.6874 40.0312 40.078C40.0156 40.7967 40.0156 41.5155 40.0156 42.2499Z" fill="#EB6409"/>
<path d="M40.0156 35.1562C40.0156 35.8281 40 36.5156 40.0313 37.1875C40.0469 37.6094 39.9219 37.7812 39.4688 37.7812C38.3906 37.75 37.2969 37.75 36.2188 37.7812C35.7969 37.7812 35.6719 37.625 35.6719 37.2187C35.6875 35.8281 35.6875 34.4375 35.6719 33.0312C35.6719 32.6719 35.7813 32.5156 36.1719 32.5156H39.5625C39.9219 32.5156 40.0313 32.6563 40.0313 32.9844C40.0156 33.7188 40.0156 34.4375 40.0156 35.1562Z" fill="#EB6409"/>
<path d="M14.4531 35.1719C14.4531 35.8594 14.4531 36.5625 14.4688 37.2656C14.4688 37.6406 14.3437 37.7813 13.9687 37.7813H10.6406C10.2813 37.7969 10.1094 37.7031 10.1094 37.2969C10.125 35.8906 10.125 34.4688 10.1094 33.0469C10.1094 32.6719 10.2344 32.5312 10.6094 32.5312C11.7187 32.5469 12.8281 32.5625 13.9375 32.5312C14.3594 32.5312 14.4844 32.7031 14.4688 33.0938C14.4375 33.7656 14.4531 34.4688 14.4531 35.1719Z" fill="#EB6409"/>
<path d="M35.6875 49.1719C35.6875 48.5 35.7031 47.8281 35.6719 47.1562C35.6719 46.7812 35.75 46.5781 36.1875 46.5781C37.2917 46.6094 38.401 46.6094 39.5156 46.5781C39.9531 46.5781 40.0313 46.7656 40.0313 47.1406C40.0208 48.5156 40.0208 49.8906 40.0313 51.2656C40.0313 51.6406 39.9688 51.8437 39.5156 51.8437C38.4219 51.8125 37.3125 51.8125 36.2031 51.8437C35.7656 51.8437 35.6719 51.6562 35.6719 51.2656C35.7031 50.5781 35.6875 49.875 35.6875 49.1719Z" fill="#EB6409"/>
<path d="M14.4529 49.2656C14.4529 49.9687 14.4529 50.6719 14.4686 51.3594C14.4686 51.7031 14.3436 51.8438 13.9998 51.8281H10.6092C10.2811 51.8281 10.1092 51.75 10.1248 51.3906V47.0469C10.1092 46.7188 10.2342 46.5781 10.5779 46.5938C11.7186 46.5938 12.8436 46.6094 13.9686 46.5781C14.3592 46.5781 14.4686 46.75 14.4686 47.1094C14.4529 47.8281 14.4529 48.5469 14.4529 49.2656Z" fill="#EB6409"/>
<path d="M18.6093 30.7812H16.7187C16.3593 30.7812 16.1875 30.6874 16.2031 30.2812C16.2187 29.3749 16.2187 28.4531 16.2031 27.5312C16.1875 27.1874 16.2968 26.9999 16.6875 27.0156H20.4531C20.875 26.9999 20.9843 27.2031 20.9843 27.5937C20.9635 28.4895 20.9635 29.3801 20.9843 30.2656C21 30.6406 20.875 30.7968 20.4843 30.7812C20.0937 30.7656 19.2343 30.7812 18.6093 30.7812Z" fill="#EB6409"/>
<path d="M20.9686 57.2969H16.2029C16.2029 56.25 16.2186 55.2187 16.2029 54.1719C16.1873 53.7187 16.3123 53.5312 16.7967 53.5469C17.9842 53.5781 19.1717 53.5625 20.3436 53.5469C20.8279 53.5312 20.9998 53.7031 20.9842 54.1719C20.9686 55.2187 20.9686 56.2656 20.9686 57.2969Z" fill="#EB6409"/>
<path d="M33.953 57.3125H29.1718C29.1718 56.2812 29.1874 55.2344 29.1562 54.2031C29.1405 53.7344 29.328 53.5625 29.7968 53.5781C30.9843 53.5937 32.1562 53.6094 33.3437 53.5781C33.8437 53.5625 33.953 53.75 33.953 54.2031C33.9218 55.2344 33.9374 56.2656 33.953 57.3125Z" fill="#EB6409"/>
<path d="M31.5781 27.0312C32.1094 27.0312 32.6406 27.0624 33.1719 27.0155C33.7031 26.9687 34 27.1249 33.9531 27.7655C33.9062 28.4062 33.9219 29.4062 33.9375 30.2187C33.9531 30.5937 33.8906 30.7968 33.4375 30.7968C32.1875 30.7655 30.9375 30.7812 29.6719 30.7968C29.2969 30.7968 29.1562 30.6405 29.1562 30.2812C29.1719 29.3593 29.1719 28.4374 29.1562 27.5312C29.1562 27.1562 29.3438 27.0155 29.7031 27.0312H31.5781Z" fill="#EB6409"/>
<path d="M25.0781 30.7814H23.1875C22.8437 30.7814 22.7188 30.6564 22.7188 30.3127C22.7344 29.3596 22.7344 28.4221 22.7188 27.4846C22.7188 27.1408 22.8437 27.0002 23.1875 27.0158H26.9531C27.2969 27.0002 27.4219 27.1408 27.4219 27.4846C27.4063 28.4221 27.4063 29.3752 27.4219 30.3127C27.4219 30.6564 27.2969 30.7814 26.9531 30.7814H25.0781Z" fill="#EB6409"/>
<path d="M27.4219 57.3127H22.7187C22.7187 56.2502 22.7344 55.1877 22.7187 54.1408C22.7031 53.6877 22.875 53.5471 23.2969 53.5627H26.8437C27.2812 53.5471 27.4375 53.6877 27.4219 54.1408C27.4062 55.1877 27.4219 56.2502 27.4219 57.3127Z" fill="#EB6409"/>
<path d="M12.1562 30.7812C11.5781 30.7187 10.6875 31.0937 10.25 30.6405C9.8125 30.1874 10.1406 29.3437 10.125 28.6718C10.1094 27.0312 10.125 27.0312 11.7812 27.0312C12.4687 27.0312 13.1406 27.0468 13.8125 27.0155C14.4844 26.9843 14.4844 27.1405 14.4687 27.6405C14.4375 28.4999 14.4531 29.3749 14.4687 30.2499C14.4844 30.6405 14.3594 30.8124 13.9375 30.7968C13.5156 30.7812 12.8281 30.7812 12.1562 30.7812Z" fill="#EB6409"/>
<path d="M37.7031 30.7813C37.1406 30.7031 36.25 31.1094 35.8125 30.625C35.375 30.1406 35.7031 29.3438 35.6875 28.6719C35.6719 27.0313 35.6875 27.0313 37.3281 27.0313C38.0312 27.0313 38.7187 27.0469 39.4219 27.0156C39.8281 27.0156 40.0469 27.0938 40.0312 27.5781C40 28.4635 40 29.3542 40.0312 30.25C40.0469 30.6563 39.9062 30.8125 39.4844 30.7969C39.0625 30.7813 38.375 30.7813 37.7031 30.7813Z" fill="#EB6409"/>
<path d="M14.4531 57.3125H10.125C10.125 56.2656 10.1406 55.2344 10.1094 54.1875C10.1094 53.7344 10.2188 53.5469 10.7188 53.5625C11.75 53.5937 12.7969 53.5937 13.8281 53.5625C14.3125 53.5469 14.4844 53.7187 14.4688 54.1875C14.4375 55.2344 14.4531 56.2656 14.4531 57.3125Z" fill="#EB6409"/>
<path d="M40.0313 57.3125H35.7031C35.6875 56.2656 35.7031 55.2344 35.6719 54.1875C35.6719 53.7187 35.8438 53.5469 36.3125 53.5625C37.3594 53.5937 38.3906 53.5937 39.4219 53.5625C39.9219 53.5469 40.0469 53.7344 40.0313 54.1875C40 55.2344 40.0313 56.2656 40.0313 57.3125Z" fill="#EB6409"/>
<path d="M25 66.5781H18.1094C17.2344 66.5781 16.9531 66.2969 16.9375 65.4219V62.1562C16.9531 61.2812 17.25 60.9688 18.1094 60.9688H31.9531C32.7969 60.9688 33.0625 61.2344 33.0625 62.0937C33.0729 63.2083 33.0729 64.3177 33.0625 65.4219C33.0625 66.2969 32.7813 66.5781 31.8906 66.5781H25Z" fill="#D0D8DA"/>
<path d="M5.78133 63.75C5.78547 62.6255 6.23506 61.5485 7.03164 60.7549C7.82822 59.9612 8.90687 59.5156 10.0313 59.5156C12.3282 59.5312 14.2188 61.4844 14.2032 63.8281C14.1868 64.9403 13.7334 66.0013 12.9411 66.782C12.1488 67.5626 11.0811 68.0001 9.96883 68C9.41242 68.0043 8.86081 67.8969 8.3467 67.684C7.83259 67.4712 7.36645 67.1573 6.97592 66.7609C6.5854 66.3646 6.27843 65.8938 6.07323 65.3766C5.86803 64.8594 5.76877 64.3063 5.78133 63.75Z" fill="#D0D8DA"/>
<path d="M44.3595 63.7969C44.3554 64.9103 43.9112 65.977 43.1239 66.7644C42.3365 67.5517 41.2698 67.9959 40.1563 68C37.7657 68 35.922 66.125 35.9376 63.7031C35.9539 62.5922 36.4046 61.5319 37.1931 60.7492C37.9817 59.9665 39.0453 59.5237 40.1563 59.5156C42.4376 59.5156 44.3751 61.4844 44.3595 63.7969Z" fill="#D0D8DA"/>
</g>
<defs>
<clipPath id="clip0_283_6559">
<rect width="50" height="80" fill="white"/>
</clipPath>
</defs>
</svg>
