<svg width="80" height="80" viewBox="0 0 80 80" fill="none" xmlns="http://www.w3.org/2000/svg">
<path d="M29.4532 76.7344C29.1114 76.5448 28.7872 76.3252 28.4844 76.0781C28.2437 75.8849 28.0498 75.6398 27.9173 75.3611C27.7847 75.0824 27.7168 74.7774 27.7188 74.4688C27.7188 73.1563 27.7344 71.8438 27.75 70.5156H51.7813C51.7969 71.8594 51.8282 73.1875 51.7969 74.5313C51.7657 75.625 51.0157 76.4062 49.9532 76.6094H30.1094C29.9375 76.6094 29.7344 76.5625 29.5938 76.75L29.4532 76.7344ZM34.2032 75.0469H36.6094C37.5313 75 38.1094 74.4063 38.0938 73.5156C38.0782 72.625 37.4844 72.0938 36.5938 72.0781C35.0313 72.0625 33.4844 72.0625 31.9219 72.0781C30.9844 72.0938 30.4063 72.6719 30.4063 73.5625C30.4063 74.4531 31 75.0312 31.9375 75.0469H34.2032ZM45.2344 75.0469H47.6407C48.5469 75.0156 49.1094 74.4375 49.125 73.5938C49.1407 72.75 48.5625 72.0938 47.625 72.0781C46.0782 72.0625 44.5157 72.0625 42.9688 72.0781C42.0313 72.0938 41.4375 72.6875 41.4532 73.5625C41.4688 74.4375 42.0469 75.0312 42.9844 75.0469H45.2344Z" fill="#016BB1"/>
<path d="M29.5938 76.7347C29.7344 76.5472 29.9375 76.5941 30.1094 76.5941H49.9531C49.9403 76.6344 49.935 76.6768 49.9375 76.7191L29.5938 76.7347Z" fill="#016BB1"/>
<path d="M18.5467 55.1094C18.5259 46.599 18.5207 38.0885 18.5311 29.5781H56.578V55.125H18.5467V55.1094Z" fill="#1A87C9"/>
<path d="M31.9844 4.45313L36.5 4.42188L47.5469 4.45313C47.4844 4.76563 47.1875 4.71875 47 4.8125C45.4531 5.65625 44.3906 6.84375 44.3125 8.65625C44.2344 10.4688 44.3125 12 44.2812 13.6719C44.2656 14.1875 44.4531 14.3125 44.9375 14.2969H51.2187C50.9844 14.5469 50.6875 14.4219 50.4062 14.4375H47.5469C51.6094 16.7188 54.5 19.8594 55.875 24.3281H19.8594L19.2344 24.2969C20.5625 19.9531 23.2969 16.7969 27.3281 14.7344C27.6094 14.5781 27.9062 14.4531 28.2031 14.2969H34.625C35.1094 14.3125 35.2656 14.1563 35.25 13.6563C35.2292 12.1042 35.2292 10.5573 35.25 9.01563C35.2813 7.76563 34.75 6.76563 33.9531 5.84375C33.4063 5.21875 32.5938 4.98438 31.9844 4.45313ZM41.2812 9.79688C41.5369 9.80205 41.7925 9.79161 42.0469 9.76563C42.3429 9.73913 42.619 9.6054 42.8233 9.38959C43.0276 9.17378 43.146 8.89075 43.1562 8.59375C43.1719 8.03125 42.7031 7.42188 42.0937 7.40625C40.5469 7.35938 38.9844 7.35938 37.4531 7.40625C36.8438 7.42188 36.375 8.01563 36.375 8.59375C36.3852 8.89075 36.5037 9.17378 36.708 9.38959C36.9123 9.6054 37.1884 9.73913 37.4844 9.76563C37.7387 9.79161 37.9944 9.80205 38.25 9.79688C38.25 11.0938 38.2656 12.375 38.2344 13.6719C38.2188 14.1406 38.3438 14.3594 38.8594 14.3281C39.4681 14.2891 40.0787 14.2891 40.6875 14.3281C41.125 14.3438 41.3125 14.2344 41.2969 13.7344C41.2656 12.4219 41.2812 11.1094 41.2812 9.79688Z" fill="#1A87C9"/>
<path d="M51.7812 70.5156H27.75C27.3281 70.25 26.8438 70.3906 26.375 70.3125C21.6719 69.4844 18.5781 65.8594 18.5469 61.0781C18.5469 60.8438 18.5312 60.6094 18.5312 60.375H56.5781C56.75 64.4062 54.7656 68.8125 49.0938 70.4219H51.8281C51.8252 70.458 51.8084 70.4916 51.7812 70.5156Z" fill="#1A87C9"/>
<path d="M19.2342 24.2969L19.8592 24.3281H55.8749L60.3124 24.2969C60.6405 24.3281 60.9842 24.3125 61.2967 24.375C61.8998 24.4898 62.445 24.8088 62.8406 25.2783C63.2361 25.7479 63.4579 26.3393 63.4686 26.9531C63.4686 28.3125 62.4999 29.3438 61.0155 29.5781H18.5311C16.9686 29.3125 15.9686 28.1875 16.078 26.8125C16.1874 25.4375 17.2811 24.3906 18.8749 24.3438L19.2342 24.2969Z" fill="#016BB1"/>
<path d="M56.578 60.3594H18.5311C17.0467 60.1094 16.1249 59.1406 16.078 57.7969C16.0311 56.4531 16.8905 55.5156 18.5467 55.0938H60.9999C62.8592 55.5469 63.7499 56.7656 63.3749 58.3594C63.1249 59.4531 62.2811 60.1562 61.0155 60.3594H56.578Z" fill="#016BB1"/>
<path d="M61 55.1094H56.5781V29.5625H61.0156C61.0156 31.0469 61 32.5313 61 34V55.1094Z" fill="#016BB1"/>
<path d="M31.9842 4.45348C32.5936 4.98473 33.4061 5.2191 33.9529 5.8441C34.7498 6.76598 35.2811 7.76598 35.2498 9.01598C35.229 10.5576 35.229 12.1045 35.2498 13.6566C35.2654 14.1566 35.1092 14.3129 34.6248 14.2972H28.2029C28.2029 13.7816 28.2186 13.266 28.2186 12.7504L28.3279 12.6097L29.7342 12.5785C30.5311 12.5472 31.0311 12.1097 31.0623 11.3129C31.0936 10.516 31.1092 9.5316 31.0779 8.64098C31.0467 7.75035 30.5623 7.39098 29.7029 7.35973H28.9998C28.1404 7.35973 28.0623 7.26598 28.2186 6.43785C28.3158 5.86551 28.6154 5.34715 29.0628 4.97718C29.5102 4.60722 30.0756 4.41028 30.6561 4.42223C31.0936 4.4066 31.5467 4.43785 31.9842 4.45348Z" fill="#016BB1"/>
<path d="M51.2186 14.2972H44.9374C44.453 14.3129 44.2655 14.1879 44.2811 13.6722C44.3124 12.0004 44.2343 10.3285 44.3124 8.6566C44.3905 6.98473 45.453 5.6566 46.9999 4.81285C47.1874 4.7191 47.4843 4.76598 47.5468 4.45348C48.0311 4.43785 48.5311 4.4066 49.0155 4.42223C49.6566 4.45067 50.2606 4.73076 50.6964 5.20172C51.1323 5.67268 51.3648 6.29651 51.3436 6.93785C51.3436 7.26598 51.2343 7.39098 50.9061 7.35973C50.578 7.32848 50.1561 7.3441 49.7655 7.35973C48.9686 7.39098 48.4999 7.81285 48.453 8.62535C48.4061 9.43785 48.4218 10.3597 48.453 11.2347C48.4843 12.1097 48.9686 12.5472 49.8436 12.5941C50.2811 12.6097 50.8593 12.391 51.1249 12.6879C51.3905 12.9847 51.1874 13.5004 51.2186 13.9066C51.2436 14.0416 51.2856 14.1728 51.3436 14.2972H51.2186Z" fill="#016BB1"/>
<path d="M56.5781 60.3594H61.0156C61.0312 61.9375 60.9062 63.5156 60.2031 64.9531C58.5 68.4375 55.7031 70.2344 51.8281 70.3906H49.0938C54.7656 68.7969 56.75 64.3906 56.5781 60.3594Z" fill="#016BB1"/>
<path d="M51.2188 14.2969H51.3438C54.5 15.7188 57.0312 17.8438 58.7969 20.8281C59.4694 21.9038 59.9801 23.0726 60.3125 24.2969L55.875 24.3281C54.5 19.8594 51.6094 16.7188 47.5469 14.4375H50.4063C50.6875 14.4219 50.9844 14.5469 51.2188 14.2969Z" fill="#016BB1"/>
<path d="M28.3279 12.6098L28.2185 12.7504C28.2029 12.6567 28.2185 12.5942 28.3279 12.6098Z" fill="#EC6667"/>
<path d="M34.2029 75.0469H31.9373C30.9998 75.0312 30.4217 74.4531 30.4061 73.5625C30.3904 72.6719 30.9842 72.0938 31.9217 72.0781C33.4842 72.0625 35.0311 72.0625 36.5936 72.0781C37.4842 72.0938 38.0779 72.6719 38.0936 73.5156C38.1092 74.3594 37.5311 75 36.6092 75.0469H34.2029Z" fill="#504F4F"/>
<path d="M45.2344 75.0469H42.9844C42.0469 75.0312 41.4531 74.4375 41.4531 73.5625C41.4531 72.6875 42.0313 72.0938 42.9688 72.0781C44.5156 72.0625 46.0781 72.0625 47.625 72.0781C48.5625 72.0938 49.125 72.7031 49.125 73.5938C49.125 74.4844 48.5469 75.0156 47.6406 75.0469H45.2344Z" fill="#504F4F"/>
<path d="M38.25 9.79688C37.9944 9.80205 37.7387 9.79161 37.4844 9.76562C37.1884 9.73913 36.9123 9.6054 36.708 9.38959C36.5037 9.17378 36.3852 8.89075 36.375 8.59375C36.375 8.01562 36.8437 7.42188 37.4531 7.40625C38.9844 7.35938 40.5469 7.35938 42.0937 7.40625C42.7031 7.42188 43.1719 8.03125 43.1563 8.59375C43.146 8.89075 43.0276 9.17378 42.8233 9.38959C42.619 9.6054 42.3429 9.73913 42.0469 9.76562C41.7925 9.79161 41.5369 9.80205 41.2813 9.79688H38.25Z" fill="#504F4F"/>
<path d="M38.2498 9.79688H41.281C41.281 11.1094 41.2654 12.4219 41.2967 13.7344C41.3123 14.2344 41.1248 14.3437 40.6873 14.3281C40.0785 14.2891 39.4679 14.2891 38.8592 14.3281C38.3435 14.3594 38.2185 14.1406 38.2342 13.6719C38.2654 12.375 38.2498 11.0937 38.2498 9.79688Z" fill="#EB6409"/>
</svg>
