<svg width="80" height="80" viewBox="0 0 80 80" fill="none" xmlns="http://www.w3.org/2000/svg">
<path d="M74.3594 76.3438H70.8125C69.1719 75.6875 68.75 74.3906 68.8438 72.75C68.9375 71.1094 68.8438 69.8281 68.875 68.3594C68.8906 67.75 68.7344 67.5469 68.0938 67.5469C65.4219 67.5938 62.75 67.5625 60.0781 67.5781V60.0469C62.7656 60.0469 65.4531 60.0312 68.1406 60.0625C68.7031 60.0625 68.875 59.9062 68.875 59.3438C68.8542 53.5625 68.8542 47.7812 68.875 42C68.875 41.4375 68.7031 41.2812 68.1406 41.2812C65.4531 41.3125 62.7656 41.2969 60.0781 41.2969C60.0625 40.8594 60.0469 40.4062 60.0469 39.9531C60.0469 37.875 60.1875 35.7656 59.2656 33.7969C62.2031 33.7969 65.125 33.7656 68.0625 33.7969C68.7344 33.7969 68.875 33.5781 68.875 32.9531C68.8542 28.9844 68.849 25.0156 68.8594 21.0469C68.8594 20.0156 68.8594 20.0156 67.8281 20.0156H11.7656C11.3438 19.9688 11.1875 20.1406 11.1875 20.5781C11.2083 24.7865 11.2083 28.9896 11.1875 33.1875C11.1875 33.5937 11.2969 33.7812 11.75 33.7812L19.6094 33.75L27.4219 33.7812C29.6719 33.7969 31.2344 35.3594 31.25 37.625C31.2656 38.4844 31.25 39.3281 31.25 40.1875C31.25 41.3438 31.25 41.3438 30.0938 41.3438H18.75C16.4844 41.3281 14.2188 41.3438 11.9531 41.2969C11.3594 41.2812 11.1875 41.4531 11.1875 42.0469C11.2083 47.8073 11.2083 53.5677 11.1875 59.3281C11.1875 59.9375 11.3906 60.0781 11.9688 60.0781H31.2344V67.6406L11.75 67.6094C11.3125 67.6094 11.1875 67.7969 11.1875 68.2031C11.2083 69.6927 11.2083 71.1771 11.1875 72.6562C11.2085 73.1772 11.1981 73.699 11.1562 74.2188C11.0156 75.3594 10.1875 75.9219 9.25 76.3906H5.70312C4.0625 75.7344 3.73438 74.4375 3.73438 72.7969C3.76562 50.9323 3.77604 29.0781 3.76563 7.23438V6.40625C3.78125 4.8125 4.79687 3.78125 6.375 3.76563C7.0625 3.74479 7.75 3.74479 8.4375 3.76563C10.2031 3.76563 11.1875 4.76563 11.1875 6.54688C11.1875 8.32812 11.2187 10 11.1875 11.7188C11.1719 12.2812 11.2969 12.5 11.9219 12.5H68.1406C68.75 12.5 68.8906 12.2812 68.875 11.7188C68.8438 9.92708 68.8438 8.13021 68.875 6.32812C68.8906 4.82812 69.9219 3.79688 71.4062 3.76563C72.2188 3.75 73.0156 3.75 73.8281 3.76563C74.4235 3.77739 74.9968 3.99242 75.4531 4.375C75.8906 4.71875 76.0312 5.26562 76.3438 5.70312V74.3594C76.1607 74.805 75.8911 75.2098 75.5505 75.5505C75.2098 75.8911 74.805 76.1607 74.3594 76.3438Z" fill="#1A87C9"/>
<path d="M76.3438 5.70312C76.0312 5.26563 75.8906 4.71875 75.4531 4.375C74.9969 3.99242 74.4235 3.77739 73.8281 3.76563C73.0156 3.75 72.2188 3.75 71.4062 3.76563C69.9219 3.79688 68.8906 4.82812 68.875 6.32812C68.8438 8.13021 68.8438 9.92708 68.875 11.7188C68.8906 12.2812 68.75 12.5 68.1406 12.5H11.9219C11.2969 12.5 11.1719 12.2812 11.1875 11.7188C11.2188 10 11.2031 8.26563 11.1875 6.54688C11.1719 4.82813 10.2031 3.76563 8.4375 3.76563C7.75 3.74479 7.0625 3.74479 6.375 3.76563C4.79688 3.78125 3.78125 4.8125 3.76563 6.40625V7.1875C3.76563 29.0521 3.75521 50.9063 3.73438 72.75C3.73438 74.3906 4.0625 75.6875 5.70312 76.3438C5.09375 76.3438 4.48438 76.3281 3.85938 76.3438C3.625 76.3594 3.53125 76.3125 3.57813 76.0625C3.58595 75.9689 3.58595 75.8748 3.57813 75.7812C3.57813 51.9062 3.57292 28.0365 3.5625 4.17188C3.5625 3.67188 3.67188 3.5625 4.1875 3.5625H75.7812C76.2656 3.5625 76.4063 3.65625 76.3594 4.14063C76.3229 4.66068 76.3177 5.18245 76.3438 5.70312Z" fill="white"/>
<path d="M9.25 76.3438C10.1875 75.875 11.0156 75.3125 11.1563 74.1719C11.1981 73.6521 11.2085 73.1304 11.1875 72.6094C11.2083 71.1302 11.2083 69.6458 11.1875 68.1563C11.1875 67.75 11.3125 67.5625 11.75 67.5625L31.2344 67.5938C31.2344 68.2969 31.2344 69 31.25 69.7188C31.25 71.5938 32.25 72.5938 34.1406 72.6094H56.7656C57.0937 72.6094 57.4219 72.6094 57.75 72.5781C59.125 72.4219 60.0156 71.4531 60.0469 70.0625C60.0625 69.2344 60.0625 68.4063 60.0781 67.5938C62.75 67.5781 65.4219 67.6094 68.0937 67.5625C68.7344 67.5625 68.8906 67.7656 68.875 68.375C68.8437 69.8438 68.9375 71.3125 68.8438 72.7656C68.75 74.2188 69.1719 75.7031 70.8125 76.3594L9.25 76.3438Z" fill="white"/>
<path d="M74.3594 76.3438C74.805 76.1607 75.2098 75.8911 75.5505 75.5505C75.8911 75.2098 76.1607 74.805 76.3438 74.3594C76.3438 75.0156 76.5938 75.9375 76.2656 76.2656C75.9375 76.5938 75.0156 76.3438 74.3594 76.3438Z" fill="white"/>
<path d="M60.0782 67.5783C60.0626 68.3908 60.0626 69.219 60.047 70.0471C60.0157 71.4377 59.1251 72.4065 57.7501 72.5627C57.422 72.594 57.0939 72.594 56.7657 72.594H34.1407C32.2501 72.5783 31.2501 71.5783 31.2501 69.7033C31.2345 68.9846 31.2345 68.2815 31.2345 67.5783V60.0315C31.2345 58.2346 31.2189 56.4377 31.2501 54.6408C31.2657 54.0158 31.1407 53.7971 30.4532 53.7971C27.422 53.844 24.4064 53.8283 21.3751 53.7971C19.7814 53.7971 18.7501 52.7658 18.7501 51.1877C18.7345 47.9065 18.7501 44.6096 18.7501 41.3283H30.0939C31.2501 41.3283 31.2501 41.3283 31.2501 40.1721C31.2501 39.3127 31.2657 38.469 31.2501 37.6096C31.2345 35.344 29.672 33.7815 27.422 33.7658L19.6095 33.7346C21.2814 30.4533 23.9845 28.7658 27.6407 28.7502C35.3907 28.719 43.1407 28.7502 50.8907 28.7502C51.9315 28.7283 52.9694 28.8653 53.9689 29.1565C56.3907 29.9533 58.0939 31.5627 59.2657 33.7815C60.1876 35.7502 60.047 37.8596 60.047 39.9377C60.047 40.3908 60.0626 40.844 60.0782 41.2815C60.0626 43.7033 60.047 46.1408 60.047 48.5627C60.0626 52.3908 60.0626 56.2033 60.0782 60.0315V67.5783Z" fill="#EB6409"/>
<path d="M59.2656 33.7965C58.0937 31.5778 56.3906 29.9684 53.9688 29.1715C52.9693 28.8804 51.9314 28.7434 50.8906 28.7653C43.1406 28.7653 35.3906 28.734 27.6406 28.7653C23.9844 28.7809 21.2812 30.4684 19.6094 33.7497L11.75 33.7809C11.2969 33.7809 11.1875 33.5934 11.1875 33.1872C11.2083 28.9892 11.2083 24.7861 11.1875 20.5778C11.1875 20.1403 11.3438 19.9684 11.7656 20.0153H67.8281C68.8594 20.0153 68.8594 20.0153 68.8594 21.0465C68.8594 25.0153 68.8646 28.984 68.875 32.9528C68.875 33.5778 68.7344 33.7965 68.0625 33.7965C65.125 33.7653 62.2031 33.7965 59.2656 33.7965Z" fill="white"/>
<path d="M18.75 41.3281C18.75 44.6094 18.7344 47.9062 18.75 51.1875C18.75 52.7656 19.7813 53.7969 21.375 53.7969C24.4063 53.8281 27.4219 53.8437 30.4531 53.7969C31.1406 53.7969 31.2656 54.0156 31.25 54.6406C31.2187 56.4375 31.2344 58.2344 31.2344 60.0312H11.9688C11.3906 60.0312 11.1875 59.8906 11.1875 59.2812C11.2083 53.5312 11.2083 47.7708 11.1875 42C11.1875 41.4062 11.3594 41.2344 11.9531 41.25C14.2188 41.3281 16.4844 41.3125 18.75 41.3281Z" fill="white"/>
<path d="M60.0781 60.0469C60.0625 56.2187 60.0625 52.4062 60.0469 48.5781C60.0469 46.1562 60.0625 43.7187 60.0781 41.2969C62.7656 41.2969 65.4531 41.3125 68.1406 41.2812C68.7031 41.2812 68.875 41.4375 68.875 42C68.8542 47.7812 68.8542 53.5625 68.875 59.3437C68.875 59.9062 68.7031 60.0625 68.1406 60.0625C65.4531 60.0312 62.7656 60.0469 60.0781 60.0469Z" fill="white"/>
</svg>
