<svg width="80" height="80" viewBox="0 0 80 80" fill="none" xmlns="http://www.w3.org/2000/svg">
<path d="M21.1719 54.3589C21.1875 49.3902 21.1875 44.4214 21.2031 39.4527V32.3277C21.2656 30.7964 21.0625 29.2495 21.3438 27.7183C21.625 26.187 23.4062 24.5777 25.1562 24.4683C27.1719 24.3277 28.9062 25.5152 29.5781 27.437C29.6406 27.6089 29.6875 27.7652 29.8906 27.7652C29.7188 28.4839 29.75 29.2183 29.75 29.9527V67.3589C29.75 68.0933 29.7188 68.8277 29.8906 69.5464C29.5469 69.562 29.5781 69.8745 29.5156 70.0777C29.3323 70.5928 29.0487 71.0665 28.6813 71.4715C28.3139 71.8764 27.8699 72.2046 27.375 72.437C24.4062 73.7964 21.3594 71.8433 21.2031 68.7183C21.1719 68.2183 21.1875 67.7183 21.1719 67.2183V54.3589Z" fill="#76CBEE"/>
<path d="M63.8438 27.7661C64.2344 27.7192 64.1875 27.3442 64.2812 27.1099C64.75 26.0161 65.5 25.1723 66.625 24.7505C69.625 23.6567 72.4844 25.6255 72.5 28.563C72.5625 41.9536 72.5313 55.3599 72.5313 68.7661C72.5313 70.938 70.6094 72.7817 68.4219 72.8442C66.2344 72.9067 65.0469 71.8911 64.2344 70.0786C64.1406 69.8755 64.1875 69.563 63.8438 69.5474C64.0156 68.813 63.9844 68.0474 63.9844 67.2974C63.9635 54.8807 63.9635 42.4588 63.9844 30.0317C63.9844 29.2661 64.0156 28.5161 63.8438 27.7661Z" fill="#46AFE4"/>
<path d="M29.8904 69.5465C29.7185 68.8278 29.7498 68.0934 29.7498 67.359V29.9528C29.7498 29.2184 29.7185 28.484 29.8904 27.7653C30.2498 26.1403 31.2498 25.0309 32.8279 24.6246C34.406 24.2184 35.6717 24.4059 36.8592 25.5153C37.394 26.0468 37.8188 26.6787 38.1092 27.3746C38.1873 27.5465 38.1873 27.7653 38.4529 27.7653C38.281 28.5153 38.3123 29.2653 38.3123 30.0309V67.2965C38.3123 68.0465 38.281 68.8121 38.4529 69.5621C37.9842 69.6871 38.031 70.1403 37.8748 70.4528C36.7498 72.8903 33.7967 73.484 31.8435 72.2809C30.8435 71.6715 30.0935 70.7809 29.8904 69.5465Z" fill="#46AFE4"/>
<path d="M38.4529 69.5627C38.281 68.8127 38.3123 68.0471 38.3123 67.2971V30.0314C38.3123 29.2658 38.281 28.5158 38.4529 27.7658C38.7967 25.9221 40.4685 24.5471 42.281 24.4689C44.4217 24.3752 45.7654 25.3752 46.6092 27.2502C46.7029 27.4377 46.656 27.7658 46.9998 27.7658C46.8123 28.5471 46.8592 29.3596 46.8592 30.1721V67.1564C46.8592 67.9533 46.8123 68.7658 46.9998 69.5627C46.531 69.6721 46.5935 70.1408 46.4373 70.4533C45.281 72.7346 42.6092 73.5939 40.406 72.2814C39.3904 71.6877 38.656 70.7814 38.4529 69.5627Z" fill="#1A87C9"/>
<path d="M63.8438 27.7657C64.0156 28.5157 63.9844 29.2657 63.9844 30.0313C63.9635 42.4584 63.9635 54.8803 63.9844 67.297C63.9844 68.047 64.0156 68.8126 63.8438 69.547C63.4844 71.0782 62.5781 72.1876 61.1094 72.6407C59.6406 73.0938 58.1094 72.9688 56.875 71.797C56.3298 71.3018 55.9072 70.6866 55.6406 70.0001C55.5781 69.8282 55.6094 69.547 55.2812 69.5626C55.4688 68.7657 55.4219 67.9532 55.4219 67.1563V30.172C55.4219 29.3595 55.4688 28.547 55.2812 27.7657C55.6875 27.7188 55.625 27.3438 55.7188 27.1095C55.9476 26.5355 56.2985 26.0181 56.7471 25.593C57.1956 25.168 57.7312 24.8455 58.3167 24.6479C58.9022 24.4502 59.5236 24.3822 60.138 24.4484C60.7524 24.5146 61.3451 24.7135 61.875 25.0313C62.3857 25.3122 62.8274 25.7033 63.168 26.1763C63.5085 26.6493 63.7394 27.1923 63.8438 27.7657Z" fill="#1A87C9"/>
<path d="M55.2811 27.7656C55.4686 28.5469 55.4217 29.3594 55.4217 30.1719V67.1562C55.4217 67.9531 55.4686 68.7656 55.2811 69.5625C54.8905 71.5313 53.1873 72.8594 51.0623 72.8438C50.1083 72.8585 49.1793 72.5382 48.437 71.9387C47.6947 71.3391 47.1862 70.4983 46.9998 69.5625C46.8123 68.7656 46.8592 67.9531 46.8592 67.1562V30.1719C46.8592 29.3594 46.8123 28.5469 46.9998 27.7656C47.2186 26.1562 49.1092 24.4219 51.1405 24.4219C53.1717 24.4219 55.078 26.1562 55.2811 27.7656Z" fill="#016BB1"/>
<path d="M21.1718 54.3594V67.2188C19 67.2188 16.8125 67.2031 14.625 67.2344C14.2031 67.2344 14.0312 67.1406 14.0625 66.6875C14.0937 66.2344 14.0312 65.5 14.0781 64.9063C14.125 64.3125 13.9375 64.3125 13.4843 64.3125C11.5156 64.3438 9.54683 64.3125 7.56245 64.3438C7.06245 64.3438 6.93745 64.2031 6.95308 63.7031C6.98433 62.2188 6.9687 60.7188 6.95308 59.2188C6.93745 58.7813 7.04683 58.6563 7.49995 58.6563C9.48433 58.6875 11.4843 58.6563 13.4843 58.6875C13.9218 58.6875 14.0937 58.5938 14.0781 58.1094C14.0468 57.0313 14.0937 55.9688 14.0625 54.8906C14.0468 54.4531 14.1875 54.3438 14.625 54.3438L21.1718 54.3594Z" fill="#EB6409"/>
<path d="M51.4374 15.4995C51.3124 14.2964 51.7186 13.312 52.5311 12.4526C53.3436 11.5933 53.2343 10.3901 53.0155 9.29639C52.9061 8.74951 52.6405 8.23389 52.4061 7.71826C52.1718 7.20264 52.203 6.99951 52.5624 6.78076C52.9218 6.56201 53.3905 6.54639 53.6249 6.96826C54.5311 8.59326 55.1561 11.062 54.0155 12.8901C53.9885 12.9577 53.9517 13.0209 53.9061 13.0776C52.3436 14.5151 52.7186 16.1558 53.3749 17.8276L53.4374 17.9683C53.6718 18.437 53.9999 18.937 53.328 19.2964C52.6561 19.6558 52.4061 19.312 52.1093 18.562C51.8124 17.812 51.2968 16.5776 51.4374 15.4995Z" fill="#EB6409"/>
<path d="M38.1719 15.4687C38.0625 14.2968 38.5 13.3437 39.2657 12.4374C40.3282 11.2031 39.9375 9.7812 39.4688 8.42183C39.375 8.14058 39.25 7.89057 39.1407 7.62495C39.0313 7.35932 38.9688 6.9062 39.375 6.73432C39.7813 6.56245 40.1875 6.60932 40.4219 7.04682C40.8196 7.7209 41.0897 8.46243 41.2188 9.23432C41.4375 10.7499 41.4532 12.2343 40.2813 13.5C39.1094 14.7656 39.5157 16.1718 40 17.5781C40.0911 17.8181 40.1954 18.0528 40.3125 18.2812C40.4688 18.6875 40.5782 19.1093 40.0625 19.2968C39.5469 19.4843 39.1875 19.3125 38.9688 18.8125C38.5 17.75 38.0469 16.6718 38.1719 15.4687Z" fill="#EB6409"/>
<path d="M48.0156 10.6723C48.0781 11.8442 47.5469 12.7973 46.8125 13.6254C46.0781 14.4536 46.0625 15.2661 46.2344 16.2036C46.3714 16.9034 46.6027 17.5815 46.9219 18.2192C47.0937 18.5942 47.125 19.0317 46.6875 19.2817C46.6022 19.3292 46.508 19.3584 46.4108 19.3675C46.3136 19.3766 46.2156 19.3653 46.123 19.3344C46.0304 19.3036 45.9453 19.2538 45.873 19.1882C45.8007 19.1226 45.7428 19.0427 45.7031 18.9536C44.8281 17.2036 44.2812 15.3911 45.1875 13.4692C45.3644 13.0811 45.6077 12.7269 45.9062 12.4223C46.625 11.6723 46.6719 10.7661 46.5156 9.84418C46.4167 9.18786 46.2053 8.55354 45.8906 7.96918C45.6406 7.53168 45.5312 7.00043 46.0781 6.7348C46.625 6.46918 46.9687 6.87543 47.1875 7.32855C47.6851 8.37626 47.9668 9.51343 48.0156 10.6723Z" fill="#EB6409"/>
<path d="M61.2813 10.8442C61.288 11.6971 60.976 12.5218 60.4063 13.1567C59.0938 14.5942 59.2344 16.1567 59.9844 17.7817C60.0954 17.9852 60.1845 18.1999 60.25 18.4223C60.3281 18.7973 60.2813 19.1567 59.8594 19.3129C59.7765 19.3484 59.6873 19.3668 59.5971 19.367C59.5069 19.3673 59.4176 19.3494 59.3345 19.3144C59.2514 19.2794 59.1762 19.228 59.1134 19.1633C59.0505 19.0987 59.0013 19.022 58.9688 18.9379C58.2031 17.3129 57.6094 15.6723 58.2656 13.8286C58.4844 13.2504 58.8594 12.8129 59.2344 12.3598C59.9531 11.5004 59.9531 10.5473 59.7188 9.56293C59.6061 9.00597 59.4113 8.46885 59.1406 7.96918C58.9063 7.51605 58.7969 7.00043 59.3594 6.7348C59.9219 6.46918 60.25 6.87543 60.4531 7.32855C60.9941 8.42179 61.2774 9.62443 61.2813 10.8442Z" fill="#EB6409"/>
<path d="M21.203 32.3281V33.75H14.9217C14.595 33.7349 14.2705 33.6878 13.953 33.6094C13.5155 33.5313 13.3124 33.2812 13.3749 32.8594C13.4374 32.4375 13.6874 32.3125 14.078 32.3125H21.203V32.3281Z" fill="#76CBEE"/>
<path d="M21.203 38.0312V39.4531H14.9217C14.595 39.438 14.2705 39.3909 13.953 39.3125C13.5155 39.2344 13.3124 38.9844 13.3749 38.5625C13.4374 38.1406 13.6874 38.0156 14.078 38.0156H21.203V38.0312Z" fill="#76CBEE"/>
</svg>
