<svg width="80" height="80" viewBox="0 0 80 80" fill="none" xmlns="http://www.w3.org/2000/svg">
<path d="M7.82812 71.2344C8.28125 68.3125 8.75 65.4062 9.17188 62.4844C9.92188 57.4219 10.6875 52.3438 11.1719 47.2344C11.7969 40.4531 12.25 33.6563 10.625 26.9219C10.5156 26.4688 10.6875 26.3906 11.0938 26.3906H29.6719C29.4375 27.6875 29.2031 28.9063 29 30.1563C28.3125 34.6563 28.4375 39.1719 28.7812 43.6875C29.4375 52.7031 30.9688 61.6094 32.2969 70.5469C32.3281 70.7656 32.3594 71 32.375 71.2344C32.3906 71.4688 31.9844 71.2813 31.7812 71.2813C24.0312 71.3021 16.276 71.3021 8.51563 71.2813C8.28125 71.2813 8.0625 71.25 7.82812 71.2344Z" fill="#016BB1"/>
<path d="M47.625 71.2344C48.3594 66.1875 49.125 61.1562 49.8438 56.1094C50.7656 49.4688 51.5781 42.8281 51.4688 36.1094C51.4063 32.8594 51.1094 29.6406 50.25 26.3906H51.0938C56.9219 26.3906 62.7656 26.4062 68.5938 26.375C69.375 26.375 69.4531 26.5469 69.2812 27.2969C68.375 31.125 68.1875 35.0312 68.2969 38.9531C68.5313 47.875 69.9531 56.6562 71.2813 65.4531C71.5781 67.3594 71.8594 69.2813 72.1562 71.2031C71.8401 71.2453 71.522 71.2714 71.2031 71.2813C63.6406 71.3021 56.0677 71.3021 48.4844 71.2813C48.1875 71.2813 47.9062 71.25 47.625 71.2344Z" fill="#016BB1"/>
<path d="M35.5625 71.2344C36.7344 63.3282 38.0937 55.4532 38.7344 47.4688C39.1562 42.3594 39.3125 37.2188 38.2656 32.1407C37.9844 30.7657 37.9844 30.75 39.4219 30.75C42.375 30.75 45.3438 30.7813 48.2969 30.7344C49.0781 30.7188 49.3437 30.875 49.4375 31.7344C50.0781 38.0157 49.5 44.25 48.7813 50.4688C47.9844 57.4063 46.8125 64.2969 45.8437 71.2032C42.4219 71.375 38.9844 71.3125 35.5625 71.2344Z" fill="#016BB1"/>
<path d="M35.5626 71.2344C38.9845 71.3125 42.422 71.375 45.8439 71.2031C46.4376 71.3281 47.0314 71.2812 47.6251 71.2344C47.9064 71.25 48.1876 71.2812 48.4845 71.2812C56.0678 71.3021 63.6407 71.3021 71.2032 71.2812C71.5221 71.2714 71.8402 71.2453 72.1564 71.2031C73.2501 71.375 74.3439 71.2344 75.4532 71.2812C76.5626 71.3281 77.2032 71.9062 77.2189 72.7812C77.2345 73.6562 76.547 74.3281 75.5157 74.3906H5.12511C4.74841 74.4041 4.37133 74.3779 4.00011 74.3125C3.61527 74.2587 3.2658 74.0591 3.02389 73.755C2.78197 73.451 2.66609 73.0656 2.70018 72.6785C2.73428 72.2914 2.91574 71.9322 3.20709 71.6751C3.49844 71.418 3.87742 71.2826 4.26574 71.2969C5.45324 71.25 6.64074 71.25 7.82824 71.2344C8.06261 71.25 8.28136 71.2812 8.51574 71.2812C16.2657 71.3021 24.0209 71.3021 31.7814 71.2812C31.9845 71.2812 32.172 71.25 32.3751 71.2344H35.5626Z" fill="#EB6409"/>
<path d="M21.0314 11.0465C21.0508 12.2926 20.8225 13.5301 20.3595 14.6872C19.7814 16.0778 20.1095 17.484 20.4064 18.8747C20.5314 19.4997 20.7658 20.0934 20.9377 20.7028C21.1095 21.3122 20.8127 22.1715 20.1252 22.4059C19.4377 22.6403 18.6877 22.359 18.4377 21.609C17.5158 18.859 16.8439 16.1247 18.0158 13.2184C18.7033 11.5153 18.297 9.67153 17.9845 7.9059C17.9533 7.73403 17.9064 7.56215 17.8752 7.39028C17.7189 6.43715 18.0783 5.82778 18.8595 5.6559C19.6408 5.48403 20.2814 5.92153 20.4845 6.82778C20.8229 8.20936 21.0063 9.62434 21.0314 11.0465Z" fill="#EB6409"/>
<path d="M27.6407 11.0473C27.6676 12.3244 27.4391 13.594 26.9688 14.7816C26.3907 16.3441 26.8126 17.9223 27.1876 19.4848C27.2969 19.9066 27.4688 20.2973 27.5938 20.7191C27.7813 21.4848 27.4376 22.1723 26.7501 22.4066C26.0626 22.641 25.3126 22.3441 25.0626 21.5941C24.1563 18.8441 23.4688 16.1098 24.6563 13.2035C25.3594 11.4535 24.9063 9.60976 24.6094 7.79726C24.5513 7.57139 24.5095 7.34163 24.4844 7.10976C24.4219 6.29726 24.8438 5.70351 25.5938 5.62539C26.3438 5.54726 26.9063 5.92226 27.0938 6.67226C27.461 8.10149 27.6447 9.57163 27.6407 11.0473Z" fill="#EB6409"/>
<path d="M55.8124 5.594C56.0169 5.59005 56.2195 5.6334 56.4045 5.72065C56.5895 5.8079 56.7519 5.93669 56.8789 6.097C57.006 6.25731 57.0942 6.44479 57.1369 6.64483C57.1796 6.84487 57.1755 7.05206 57.1249 7.25025C56.7968 8.79712 56.5936 10.3284 56.6874 11.9065C56.7092 12.4268 56.8202 12.9394 57.0155 13.4221C58.1874 16.2815 57.4374 19.0159 56.4999 21.719C56.2655 22.3909 55.453 22.6409 54.8124 22.3909C54.496 22.2712 54.2389 22.0328 54.0959 21.7263C53.9529 21.4198 53.9353 21.0696 54.0468 20.7502C54.4565 19.5157 54.7443 18.244 54.9061 16.9534C55.0013 16.1711 54.9048 15.3775 54.6249 14.6409C53.4999 11.9534 53.953 9.23462 54.5936 6.5315C54.7343 5.93775 55.2186 5.67212 55.8124 5.594Z" fill="#EB6409"/>
<path d="M11.6721 10.5935C11.6877 9.70285 11.469 8.56223 11.2502 7.4216C11.094 6.51535 11.5002 5.8591 12.2659 5.70285C13.0315 5.5466 13.6877 6.03098 13.8596 6.9216C14.4221 9.64035 14.719 12.3122 13.6096 15.0154C12.9846 16.5466 13.5784 18.156 13.969 19.7029C14.0627 20.0622 14.219 20.4216 14.3127 20.781C14.4846 21.4841 14.1409 22.1872 13.5002 22.3904C12.8596 22.5935 12.1252 22.4529 11.8909 21.7654C10.9221 19.1091 10.1565 16.406 11.2815 13.5935C11.6252 12.7029 11.6721 11.7966 11.6721 10.5935Z" fill="#EB6409"/>
<path d="M62.2969 5.70307C63.3437 5.67182 63.9375 6.43745 63.7344 7.4062C63.3992 8.87627 63.2574 10.3838 63.3125 11.8906C63.3327 12.3827 63.4329 12.8682 63.6094 13.3281C64.8281 16.1874 64.0937 18.9374 63.1406 21.6718C62.8906 22.3749 62.1719 22.6406 61.5 22.4062C61.1794 22.2988 60.9134 22.0705 60.7588 21.7699C60.6041 21.4692 60.5729 21.1201 60.6719 20.7968C60.875 19.9843 61.1562 19.1874 61.3281 18.3749C61.625 16.9531 61.625 15.5624 61.0937 14.1249C60.1562 11.6249 60.5937 9.04682 61.2344 6.5312C61.2937 6.29439 61.4305 6.08422 61.623 5.93415C61.8155 5.78408 62.0528 5.70274 62.2969 5.70307Z" fill="#EB6409"/>
<path d="M46.6407 20.5313C46.6875 19.8125 46.5 19.1563 46.25 18.5C45.2657 15.8438 45.6719 13.1875 46.3438 10.5469C46.5157 9.85942 47.1563 9.57817 47.875 9.73442C48.5938 9.89067 48.9844 10.5469 48.8594 11.3438C48.7344 12.1407 48.5313 13.1094 48.4375 14C48.2813 15.3282 48.3282 16.6563 48.8907 17.9219C49.4532 19.1875 49.3907 20.7032 49.2032 22.1094C49.0329 23.2593 48.7503 24.3897 48.3594 25.4844C48.0313 26.3594 47.3594 26.7657 46.6407 26.5157C45.9219 26.2657 45.5313 25.5313 45.8282 24.5938C46.1568 23.6045 46.4076 22.591 46.5782 21.5625C46.625 21.2188 46.625 20.875 46.6407 20.5313Z" fill="#EB6409"/>
<path d="M42.6563 20.5779C42.6563 22.281 42.2501 23.906 41.7032 25.5154C41.4063 26.3748 40.6876 26.7654 39.9688 26.5154C39.2501 26.2654 38.8751 25.531 39.1719 24.656C39.5227 23.6412 39.7739 22.5946 39.9219 21.531C40.0911 20.5005 39.9832 19.4436 39.6094 18.4685C38.6251 15.8592 39.0313 13.2185 39.6719 10.6092C39.8438 9.90603 40.6094 9.56228 41.2657 9.73415C41.6071 9.82939 41.8978 10.0542 42.0758 10.3607C42.2539 10.6671 42.3052 11.031 42.2188 11.3748C41.9021 12.6953 41.7395 14.0481 41.7344 15.406C41.716 16.2224 41.8759 17.0329 42.2032 17.781C42.6094 18.6717 42.6876 19.6248 42.6563 20.5779Z" fill="#EB6409"/>
<path d="M68.6096 22.4684C67.594 22.4841 67.0315 21.6091 67.3909 20.4997C67.8596 19.0622 68.219 17.6091 68.2034 16.0778C68.203 15.6169 68.1127 15.1605 67.9377 14.7341C66.7815 12.0153 67.219 9.26532 67.8596 6.54657C68.0315 5.82782 68.7346 5.48407 69.4221 5.65595C70.1096 5.82782 70.594 6.4997 70.4065 7.32782C70.0561 8.76408 69.8984 10.2406 69.9377 11.7184C69.9462 12.2691 70.052 12.814 70.2502 13.3278C71.4534 16.2028 70.7346 18.9528 69.7815 21.7028C69.594 22.2028 69.1565 22.4528 68.6096 22.4684Z" fill="#EB6409"/>
</svg>
