<svg width="80" height="80" viewBox="0 0 80 80" fill="none" xmlns="http://www.w3.org/2000/svg">
<path d="M76.7811 46.0471C75.2029 47.1565 73.4686 48.0315 71.7967 49.0003L35.6873 69.8284C34.9686 70.2346 34.4998 70.2034 33.8748 69.6721C23.9373 61.2034 13.9842 52.7555 4.01543 44.3284L3.6248 44.0003C3.14043 43.5471 3.17168 43.219 3.7498 42.8909L5.71855 41.844L3.79668 40.2346C3.0623 39.6096 3.09355 39.3284 3.9373 38.8753L21.1717 29.6721C21.6873 29.4065 21.7967 29.2815 21.4061 28.7346C19.4529 25.9846 19.8279 23.1721 21.3123 20.3753C22.0361 19.0694 23.0263 17.9302 24.2186 17.0315C24.4842 16.8128 24.7654 16.594 25.1092 16.8128C25.4529 17.0315 25.3592 17.3909 25.2498 17.719C24.8904 18.8753 24.5154 20.0315 24.4998 21.2815C24.4789 21.6866 24.5528 22.0911 24.7155 22.4626C24.8783 22.8342 25.1254 23.1628 25.4373 23.4221C26.2811 24.1409 27.1404 24.8284 27.7186 25.7971C27.8748 26.0471 28.0311 26.0003 28.2498 25.8753C29.2342 25.344 30.2186 24.8128 31.2186 24.2971C31.4842 24.1565 31.5311 24.0003 31.4529 23.719C31.3116 23.0844 31.0165 22.4941 30.5936 22.0003C30.1381 21.4483 29.653 20.9215 29.1404 20.4221C26.5154 17.8284 26.3904 14.6878 27.6873 11.7034C28.4217 10.0315 29.5936 8.68777 31.0154 7.54714C31.2811 7.32839 31.5623 7.10964 31.9061 7.34402C32.2498 7.57839 32.1404 7.92214 32.0311 8.25027C31.745 9.11349 31.5204 9.99591 31.3592 10.8909C31.1092 12.219 31.3748 13.344 32.5154 14.1878C34.1445 15.402 35.2639 17.1786 35.6561 19.1721C35.834 20.0034 35.9023 20.8544 35.8592 21.7034C36.1873 21.7034 36.4061 21.5003 36.6404 21.3753C38.3279 20.4846 39.9998 19.5628 41.7029 18.6878C42.0623 18.5003 42.1873 18.3128 42.1561 17.8753C41.8904 14.2034 43.6404 11.5159 46.3592 9.31277C46.6092 9.12527 46.8748 9.03152 47.1561 9.23464C47.4373 9.43777 47.3748 9.73464 47.2811 10.0159C46.9795 10.8993 46.7393 11.8025 46.5623 12.719C46.3123 14.0784 46.5779 15.219 47.7498 16.094C50.0154 17.7971 50.9842 20.1565 51.0623 22.9221C51.0779 23.2659 51.2342 23.4221 51.4842 23.6096L67.2811 34.9065C67.9842 35.4065 68.6873 35.8909 69.3748 36.4065C70.0623 36.9221 69.9529 37.0628 69.4842 37.6096C69.0154 38.1565 68.4842 38.8284 67.9686 39.4378L76.7811 45.469V46.0471Z" fill="#EB6409"/>
<path d="M31.4062 25.5C30.4375 25.8438 29.5938 26.4531 28.6719 26.8906C28.3594 27.0313 28.4375 27.2344 28.5156 27.4844C28.7356 28.0649 28.8928 28.6673 28.9844 29.2813C29.0469 29.875 29.1094 30.4844 29.1719 31.1719C29.5156 30.9844 29.7656 30.875 30 30.7188C30.2344 30.5625 30.6406 30.5156 30.8594 30.875C31.0781 31.2344 30.8594 31.5 30.5312 31.6875C30.2031 31.875 29.5625 32.2031 29.0938 32.4844C28.625 32.7656 28.4375 33.3281 28.9844 33.7656C29.5312 34.2031 30.2031 34.7031 30.7969 35.1719C31.1094 35.4375 31.5312 35.7031 31.1719 36.1719C30.8125 36.6406 30.4531 36.3125 30.1406 36.0625C29.5781 35.625 29 35.1875 28.4531 34.7188C28.1406 34.4688 27.9688 34.5156 27.75 34.8438C27.1285 35.8398 26.2965 36.6877 25.3125 37.3281C25.0625 37.5 24.8281 37.6719 24.5312 37.4531C24.2344 37.2344 24.2656 36.9531 24.3594 36.625C24.4531 36.2969 24.7656 35.6094 24.6406 35.0313C24.3594 35 24.1719 35.1719 23.9687 35.2813L21.4531 36.6719C21.0938 36.8594 20.6562 37.1094 20.3906 36.625C20.125 36.1406 20.5625 35.9219 20.9062 35.7188C21.9531 35.1406 22.9844 34.5313 24.0625 34.0156C24.7188 33.7031 24.7812 33.3125 24.5312 32.7031C24.2812 32.0938 23.625 31.25 23.0781 30.5938C22.75 30.2188 22.4531 30.2031 22.0156 30.4375C18.9375 32.1094 15.8281 33.7656 12.7344 35.4063C12.2969 35.6406 12.2812 35.7969 12.6562 36.1094C13.5156 36.7813 14.375 37.4688 15.2188 38.1719C15.5625 38.4688 15.8437 38.6563 16.2812 38.3281C16.3825 38.2622 16.5036 38.234 16.6235 38.2482C16.7435 38.2625 16.8546 38.3184 16.9375 38.4063C17.125 38.6094 17.1719 38.8906 17 39.0625C16.8281 39.2344 16.9219 39.5625 17.1562 39.7344L19.75 41.875C20.0469 42.125 20.4062 42.3906 20.0625 42.8125C19.7187 43.2344 19.375 42.9688 19.0625 42.7188C18.0938 41.9375 17.125 41.1563 16.1875 40.3594C15.8125 40.0313 15.5 39.9375 15.0469 40.2188C14.125 40.7813 13.1719 41.2656 12.2187 41.7813C11.875 41.9844 11.5469 42.0938 11.2969 41.6563C11.0469 41.2188 11.375 41.0156 11.7031 40.8281L14.2812 39.4063C14.5625 39.25 14.7031 39.1406 14.3594 38.875L11.4688 36.5156C11.2969 36.375 11.1406 36.2656 10.8906 36.4063L4.8125 39.6406C5.67188 40.3594 6.46875 41 7.21875 41.7031C7.96875 42.4063 8.67188 42.9219 9.64062 42.0781C9.74192 42.0112 9.86411 41.9835 9.98438 42C10.0795 41.9953 10.1739 42.0197 10.2548 42.0699C10.3358 42.1202 10.3995 42.1939 10.4375 42.2813C10.4796 42.37 10.4947 42.4692 10.4808 42.5665C10.4669 42.6637 10.4247 42.7547 10.3594 42.8281C10.2286 42.9631 10.0753 43.0742 9.90625 43.1563C9.39063 43.3594 9.45313 43.5781 9.82813 43.8906C11.2813 45.0938 12.7344 46.2969 14.1719 47.5313C14.4531 47.7813 14.6562 47.7813 14.9688 47.5625C16.622 46.4636 18.4206 45.6011 20.3125 45C21.3125 44.6719 21.3281 44.6563 20.5469 43.9219C20.2812 43.6563 20.1875 43.4063 20.4219 43.1094C20.6562 42.8125 20.9531 42.8594 21.2344 43.0781C21.5156 43.2969 22 43.6563 22.3594 43.9844C22.7188 44.3125 22.9219 44.2969 23.3125 44.2188C24.7619 43.9119 26.2374 43.7445 27.7187 43.7188C28.3125 43.7031 28.9219 43.7344 29.4688 43.4375L34.9531 40.4688C35.3906 40.2344 35.3281 40.0938 34.9688 39.8438C34.6094 39.5938 34.1562 39.1875 33.7188 38.875C33.2812 38.5625 33.0938 38.3438 33.375 37.9375C33.6562 37.5313 34.0312 37.7031 34.3594 37.9844C34.6875 38.2656 34.7812 38.2813 34.9688 38.4688C35.8438 39.2969 36.7188 39.9531 37.8906 38.8906C38.1562 38.6406 38.4688 38.7969 38.6406 39.125C38.8125 39.4531 38.625 39.6719 38.375 39.8438L37.5 40.3438C37.541 40.4154 37.588 40.4833 37.6406 40.5469L42.2031 44.125C42.4144 44.2812 42.676 44.3536 42.9375 44.3281C44.5937 44.3281 46.25 44.375 47.8906 44.2813C48.8906 44.2344 49.9531 44.4219 50.8594 43.9688C52.5781 43.1406 54.2188 42.1719 55.9688 41.2188L53.6094 39.4688L51.375 37.7969C51.1562 37.625 51.0156 37.4063 51.2188 37.1094C51.4219 36.8125 51.6563 36.7813 51.9688 36.9219C52.0893 36.9909 52.2042 37.0693 52.3125 37.1563C53.75 38.2031 55.1719 39.25 56.5781 40.3125C56.8906 40.5469 57.125 40.6094 57.4688 40.4063L60.9844 38.4688C61.4367 38.1983 61.9065 37.9582 62.3906 37.75C62.6406 37.6406 62.9219 37.6563 63.0781 37.9375C63.2344 38.2188 63.125 38.4531 62.8906 38.625C62.6781 38.7786 62.4534 38.9144 62.2188 39.0313L58.0312 41.3594C58.2031 41.4844 58.2813 41.5781 58.375 41.6406C58.8906 41.9531 59.25 42.5313 60.0156 42.2344C61.2969 41.7344 62.5625 41.2344 63.75 40.5781C65.3357 39.7364 66.7974 38.6795 68.0938 37.4375C68.3438 37.2188 68.4531 37.0938 68.1094 36.8125C67.7656 36.5313 67.125 36.1875 66.5312 36.6563C66.4751 36.7123 66.4069 36.7547 66.3317 36.7801C66.2566 36.8055 66.1766 36.8132 66.0979 36.8026C66.0193 36.792 65.9442 36.7634 65.8784 36.7191C65.8127 36.6747 65.758 36.6158 65.7188 36.5469C65.5625 36.3125 65.5469 36.0469 65.7812 35.9063C66.4219 35.5 65.9844 35.3125 65.6563 35.0781C60.9063 31.6927 56.1615 28.2969 51.4219 24.8906C50.9688 24.5625 50.8906 24.6719 50.75 25.1563C50.1676 27.051 48.9332 28.6784 47.2656 29.75C46.7969 30.0469 46.3281 29.9063 46.2969 29.4531C46.3006 29.239 46.343 29.0273 46.4219 28.8281C46.9219 27.1406 47.0312 25.5 45.9062 23.9688C45.5938 23.5469 45.3438 23.4688 44.8594 23.75C43.0625 24.7813 41.2344 25.7813 39.4062 26.7656C38.9062 27.0313 38.8281 27.1875 39.3438 27.5625C41.8438 29.375 44.3281 31.2031 46.7656 33.0625C47.3594 33.5156 47.7812 33.5625 48.4062 33.1875C49.875 32.3281 51.375 31.5469 52.875 30.7344C53.2812 30.5 53.625 30.5156 53.7813 31C53.9375 31.4844 53.5781 31.5938 53.2812 31.75L49.0625 34.0625C48.9219 34.1406 48.4844 34.1719 48.8125 34.5313C49.1406 34.8906 49.2188 35.0938 48.9062 35.3906C48.5938 35.6875 48.2812 35.5625 48.0156 35.3125C47.75 35.0625 47.2656 35 46.7969 35.2656C44.7031 36.4375 42.5625 37.5781 40.4531 38.7344C40.0781 38.9375 39.6719 39.1406 39.4062 38.6406C39.1406 38.1406 39.5625 37.9688 39.9062 37.7813L41.6094 36.8594L46.4844 34.2031L38.0781 27.9531C37.7656 27.7188 37.5156 27.8281 37.2344 27.9844L34.3438 29.5781C34 29.7813 33.6094 29.9844 33.3594 29.5156C33.1094 29.0469 33.4531 28.8281 33.8125 28.625L36.75 27C36.1094 26.5156 35.5156 26.125 34.9844 25.6563C34.4531 25.1875 34.5 25.4375 34.2656 25.7656C33.6661 26.6028 32.9132 27.3185 32.0469 27.875C31.8125 28.0313 31.6094 28.1719 31.3281 27.9844C31.0469 27.7969 31.0312 27.5313 31.125 27.2188C31.2188 26.9063 31.4844 26.125 31.4531 25.5469L31.5 25.4531L31.4062 25.5Z" fill="#B7531B"/>
<path d="M26.7969 44.8596L27.25 45.2815L39.1406 55.3128C39.9688 56.0003 40.6406 56.7971 40.8906 57.8596C41.3125 59.594 40.6719 61.0159 39.5312 62.2503C37 65.0159 33.9844 65.2971 31.0156 63.094L30.5 62.7034C25.5 58.8128 20.7031 54.6565 15.8906 50.5471C12.9219 48.0315 10.0469 45.3909 7.01563 42.9378C6.82813 42.7815 6.6875 42.5471 6.35938 42.7346C6.03125 42.9221 5.375 43.2659 4.82812 43.5628L5.20312 43.9065C14.9531 52.1565 24.6927 60.4065 34.4219 68.6565C34.7656 68.9534 35 68.9221 35.3594 68.719C38.2969 67.0003 41.2656 65.3128 44.2188 63.6096L61.3281 53.7346C65.7656 51.193 70.1979 48.6565 74.625 46.1253C75.1875 45.7971 75.125 45.6721 74.6406 45.344C73.0938 44.3128 71.5781 43.2346 70.0469 42.1721C69.0781 41.5159 68.1094 40.8596 67.1562 40.1721C66.5938 39.7659 66.3594 40.3284 66.0156 40.5315C65.6719 40.7346 66.0312 40.969 66.1406 41.1409C66.375 41.5628 66.625 41.969 66.75 42.4378C67.2969 44.4534 66.6094 46.1409 65.2812 47.6409C62.75 50.5315 59.5625 50.9534 56.4531 48.7815C54.9531 47.7346 53.5 46.594 52.0156 45.5159C51.7812 45.344 51.5938 45.1253 51.25 45.1565C50.6562 45.2346 50.0469 45.2659 49.2656 45.3284C50.25 46.1409 51.125 46.8284 51.9531 47.5628C53.3125 48.7503 53.9688 50.2503 53.5781 52.0471C53 54.594 51.2656 56.1565 48.9531 57.1409C46.6406 58.1253 44.9844 57.5315 43.1875 56.1878C38.5469 52.7346 34.0625 49.0784 29.625 45.3753C28.7188 44.6253 27.8594 44.7659 26.7969 44.8596Z" fill="white"/>
<path d="M17.2969 47.469L17.6719 47.8283C20.5781 50.2971 23.4531 52.7658 26.375 55.2033C28.7188 57.1721 31.0625 59.1408 33.5156 60.9533C33.9531 61.2815 34.4062 61.5158 34.9844 61.3752C35.9165 61.1352 36.7449 60.5976 37.3438 59.844C37.9531 59.0471 37.9062 58.5158 37.1406 57.8596L22.8906 45.8283C22.7922 45.7251 22.667 45.6513 22.5289 45.6155C22.3909 45.5796 22.2456 45.5829 22.1094 45.6252C20.4427 46.0624 18.829 46.6806 17.2969 47.469Z" fill="white"/>
<path d="M34.7812 45.1875L37.2187 47.1562C39.9844 49.3594 42.7031 51.6094 45.5937 53.6562C46.125 54.0469 46.6875 54.2656 47.3281 54.0469C48.3594 53.7187 49.2187 53.1406 49.8125 52.2188C50.4062 51.2969 50.3594 50.7031 49.4844 49.9844C47.7813 48.5625 46.0469 47.1719 44.3281 45.7656C44.1476 45.577 43.9014 45.465 43.6406 45.4531C40.7031 45.4375 37.7656 45.25 34.7812 45.1875Z" fill="white"/>
<path d="M23.9841 45.3127C24.8591 46.0627 25.6716 46.7971 26.5154 47.5002L37.9529 57.1096C38.531 57.594 38.9529 58.2346 38.8435 58.9846C38.5779 60.6252 37.406 61.5471 35.9685 62.2034C34.531 62.8596 33.6248 62.4846 32.5935 61.6409C31.0935 60.4065 29.531 59.219 28.031 57.9846C25.4216 55.8127 22.8435 53.6252 20.2498 51.4534L16.4841 48.2502C16.031 47.8596 15.781 48.344 15.5466 48.5471C15.3123 48.7502 15.6716 48.9065 15.8123 49.0315L23.7029 55.7502C26.4529 58.094 29.2341 60.4221 32.1404 62.594C32.9373 63.1877 33.8123 63.6721 34.8435 63.5315C36.8591 63.2815 38.4216 62.2502 39.4685 60.5002C40.2654 59.1877 40.0779 57.7034 38.9373 56.6565C37.7966 55.6096 36.2498 54.2971 34.8748 53.1565C31.906 50.6409 28.906 48.1721 25.9685 45.6252C25.3435 45.0784 24.7966 44.8909 23.9841 45.3127Z" fill="#B7531B"/>
<path d="M25.8438 35.3281C26.1563 35.2656 26.2813 35.0469 26.4219 34.875C28.6875 32.0781 28.2969 28.4219 26.4532 25.9063C25.8907 25.1406 25.1094 24.625 24.4532 23.9687C23.4844 22.9844 23.2657 21.8281 23.4532 20.5312C23.5157 20.0937 23.5938 19.6406 23.7032 19C22.7344 20.0781 22.0313 21.0937 21.6407 22.2969C20.9375 24.4531 20.9532 26.5313 22.4688 28.375C23.0625 29.0938 23.7344 29.75 24.3594 30.4375C25.3125 31.4844 25.9063 32.6563 25.8438 34.1094C25.8282 34.5156 25.8438 34.9063 25.8438 35.3281Z" fill="#B7531B"/>
<path d="M45.6095 11.5938C45.1438 11.9923 44.757 12.4746 44.4689 13.0156C43.1252 15.2813 42.6252 17.6094 43.9845 20.0625C44.4689 20.9219 45.2189 21.5625 45.8908 22.2656C46.5627 22.9688 47.4533 24.0781 47.7345 25.2813C47.9587 26.0797 47.9961 26.9191 47.8439 27.7344C48.1409 27.5255 48.4043 27.2726 48.6252 26.9844C51.047 23.875 49.9533 19 47.1564 17C46.6857 16.6906 46.2871 16.2835 45.9878 15.8062C45.6885 15.329 45.4956 14.7929 45.422 14.2344C45.297 13.3594 45.6252 12.5469 45.6095 11.5938Z" fill="#B7531B"/>
<path d="M32.6093 25.8438C32.828 25.8594 32.8905 25.7031 32.9843 25.6094C35.8593 22.6719 34.9843 17.5 32.1561 15.3437C30.7186 14.2344 29.8593 12.875 30.2655 10.9687C30.3436 10.5937 30.3593 10.2188 30.4218 9.71875C29.9388 10.1084 29.5401 10.5921 29.2499 11.1406C27.9218 13.4063 27.4061 15.7344 28.7655 18.1875C29.2499 19.0469 29.9999 19.7031 30.6718 20.4063C31.6874 21.4375 32.4686 22.6094 32.6718 24.1094C32.7499 24.7031 32.6093 25.2656 32.6093 25.8438Z" fill="#B7531B"/>
<path d="M30.8281 44.9844L31.4531 45.5313C33.4062 47.1094 35.3281 48.7032 37.2969 50.2501C39.6719 52.1251 42.0156 54.0469 44.5 55.7657C45.2969 56.3126 46.1719 56.6563 47.125 56.5001C49.2812 56.1563 50.9219 55.0001 52.0469 53.1407C52.479 52.4335 52.6558 51.5996 52.5477 50.778C52.4397 49.9563 52.0534 49.1965 51.4531 48.6251C50.5937 47.7501 49.5312 47.1094 48.6875 46.2501C47.8438 45.3907 46.9219 45.3907 45.7812 45.5157C47.2344 46.7188 48.5937 47.8751 49.9844 48.9844C51.375 50.0938 51.6719 51.2188 50.7188 52.8282C49.2812 55.2344 46.6406 55.8126 44.3906 54.1563C40.8125 51.5001 37.3438 48.7032 33.9219 45.8438C33.0156 45.0938 32.125 44.6563 30.8281 44.9844Z" fill="#B7531B"/>
<path d="M44.5782 22.5315L44.3594 22.2815C44.0469 21.9221 43.7501 21.5471 43.4219 21.2034C43.0938 20.8596 42.9532 19.7346 42.297 19.7034C41.6407 19.6721 41.1251 20.2346 40.5313 20.5471L36.1094 22.9065C35.0313 23.4846 34.9688 24.3284 35.9376 25.0315L37.4376 26.1409C37.6563 26.2971 37.8594 26.4065 38.1563 26.2503L44.3438 22.7971C44.4033 22.7783 44.4566 22.7436 44.4979 22.6969C44.5392 22.6501 44.5669 22.5929 44.5782 22.5315Z" fill="#B7531B"/>
<path d="M53.1406 45.031C54.7812 46.2185 56.3125 47.4685 58 48.5154C58.6563 48.9216 59.3437 49.2498 60.0781 49.1716C62.7031 48.8591 64.6094 47.4841 65.6406 45.031C66.1406 43.8435 65.9219 42.6873 65.1406 41.6404C64.7187 41.0623 64.3437 41.5154 63.9844 41.7029C63.625 41.8904 63.9688 42.156 64.0781 42.3279C64.625 43.156 64.75 43.9841 64.2969 44.906C63.874 45.7935 63.2005 46.5377 62.3594 47.0466C60.3281 48.2498 59.5469 48.1404 58.0312 47.031C57.3594 46.531 56.625 46.1091 56.0156 45.5623C55.4062 45.0154 54.2812 44.4998 53.1406 45.031Z" fill="#B7531B"/>
<path d="M56.2344 44.3904C57.1562 45.0467 57.9844 45.5779 58.7344 46.1873C59.4844 46.7967 60.5938 46.8435 61.5625 46.2654C62.248 45.879 62.8194 45.3185 63.2188 44.6404C63.4043 44.3302 63.4864 43.9691 63.4531 43.6092C63.3594 42.7967 62.6563 42.3592 61.9063 42.6717C60.0745 43.4233 58.1753 43.9988 56.2344 44.3904Z" fill="white"/>
<path d="M40.6719 44.313L36.6719 41.1723C36.5946 41.097 36.495 41.0486 36.388 41.0345C36.281 41.0205 36.1723 41.0414 36.0781 41.0942L31.2188 43.7505L40.6719 44.313Z" fill="#B7531B"/>
<path d="M54.1562 43.4532L54.2187 43.6407C55.5324 43.4641 56.8286 43.1766 58.0937 42.7813C57.5312 42.4844 57.2812 41.8438 56.7031 42.0938C55.8281 42.4844 55.0156 43 54.1562 43.4532Z" fill="#B7531B"/>
<path d="M31.4531 25.5469C31.4844 26.125 31.2969 26.6719 31.125 27.2188C30.9531 27.7656 31.0469 27.7813 31.3281 27.9844C31.6094 28.1875 31.8125 28.0313 32.0469 27.875C32.9132 27.3185 33.6661 26.6028 34.2656 25.7656C34.5 25.4375 34.6562 25.3906 34.9844 25.6563C35.3125 25.9219 36.1094 26.5156 36.75 27L33.8125 28.625C33.4531 28.8281 33.1094 29.0625 33.3594 29.5156C33.6094 29.9688 34 29.7813 34.3438 29.5781L37.2344 27.9844C37.5156 27.8281 37.7656 27.7188 38.0781 27.9531L46.4844 34.2031L41.6094 36.8594L39.9062 37.7813C39.5625 37.9688 39.1562 38.1719 39.4062 38.6406C39.6562 39.1094 40.0781 38.9375 40.4531 38.7344C42.5625 37.5781 44.7031 36.4375 46.7969 35.2656C47.2656 35 47.6094 34.9375 48.0156 35.3125C48.4219 35.6875 48.5938 35.7188 48.9062 35.3906C49.2188 35.0625 49.0781 34.8125 48.8125 34.5313C48.5469 34.25 48.9219 34.1406 49.0625 34.0625L53.2812 31.75C53.5781 31.5938 53.9219 31.4219 53.7813 31C53.6406 30.5781 53.2812 30.5 52.875 30.7344C51.375 31.5469 49.875 32.3281 48.4062 33.1875C47.7812 33.5625 47.3594 33.5156 46.7656 33.0625C44.3281 31.2031 41.8438 29.375 39.3438 27.5625C38.8281 27.1875 38.9062 27.0313 39.4062 26.7656C41.2344 25.7813 43.0625 24.7813 44.8594 23.75C45.3438 23.4688 45.5938 23.5469 45.9062 23.9688C47.0312 25.5 46.9219 27.1406 46.4219 28.8281C46.343 29.0273 46.3006 29.239 46.2969 29.4531C46.3281 29.9063 46.7969 30.0469 47.2656 29.75C48.9332 28.6784 50.1676 27.051 50.75 25.1563C50.8906 24.6719 50.9688 24.5625 51.4219 24.8906C56.151 28.2969 60.8958 31.6927 65.6563 35.0781C65.9844 35.3125 66.4219 35.5 65.7812 35.9063C65.5469 36.0469 65.5625 36.3125 65.7188 36.5469C65.758 36.6158 65.8127 36.6747 65.8784 36.7191C65.9442 36.7634 66.0193 36.792 66.0979 36.8026C66.1766 36.8132 66.2566 36.8055 66.3317 36.7801C66.4069 36.7547 66.4751 36.7123 66.5312 36.6563C67.125 36.1875 67.5781 36.3906 68.1094 36.8125C68.6406 37.2344 68.3438 37.2188 68.0938 37.4375C66.7974 38.6795 65.3357 39.7364 63.75 40.5781C62.5625 41.2344 61.2969 41.7344 60.0156 42.2344C59.25 42.5313 58.8906 41.9531 58.375 41.6406C58.2813 41.5781 58.2031 41.4844 58.0312 41.3594L62.2188 39.0313C62.4534 38.9144 62.6781 38.7786 62.8906 38.625C63.125 38.4531 63.2344 38.2188 63.0781 37.9375C62.9219 37.6563 62.6406 37.6406 62.3906 37.75C61.9065 37.9582 61.4367 38.1983 60.9844 38.4688L57.4688 40.4063C57.125 40.6094 56.8906 40.5469 56.5781 40.3125C55.1719 39.25 53.75 38.2031 52.3125 37.1563C52.2042 37.0693 52.0893 36.9909 51.9688 36.9219C51.6563 36.7813 51.4062 36.8281 51.2188 37.1094C51.0312 37.3906 51.1562 37.625 51.375 37.7969L53.6094 39.4688L55.9688 41.2188C54.2188 42.1719 52.5781 43.1406 50.8594 43.9688C49.9531 44.4219 48.8906 44.2344 47.8906 44.2813C46.25 44.375 44.5937 44.3281 42.9375 44.3281C42.676 44.3536 42.4144 44.2812 42.2031 44.125L37.6406 40.5469C37.588 40.4833 37.541 40.4154 37.5 40.3438L38.375 39.8438C38.625 39.6719 38.8281 39.4688 38.6406 39.125C38.4531 38.7813 38.1562 38.6406 37.8906 38.8906C36.7188 39.9531 35.8438 39.2969 34.9688 38.4688C34.7812 38.2813 34.5625 38.1563 34.3594 37.9844C34.1562 37.8125 33.6719 37.5 33.375 37.9375C33.0781 38.375 33.375 38.625 33.7188 38.875C34.0625 39.125 34.5469 39.5469 34.9688 39.8438C35.3906 40.1406 35.3906 40.2344 34.9531 40.4688L29.4688 43.4375C28.9219 43.7344 28.3125 43.7031 27.7187 43.7188C26.2374 43.7445 24.7619 43.9119 23.3125 44.2188C22.9219 44.2969 22.6406 44.2656 22.3594 43.9844C22.0781 43.7031 21.6094 43.375 21.2344 43.0781C20.8594 42.7813 20.6719 42.7969 20.4219 43.1094C20.1719 43.4219 20.2812 43.6563 20.5469 43.9219C21.3281 44.6563 21.3125 44.6719 20.3125 45C18.4206 45.6011 16.622 46.4636 14.9688 47.5625C14.6562 47.7813 14.4531 47.7813 14.1719 47.5313C12.7344 46.2969 11.2813 45.0938 9.82813 43.8906C9.45313 43.5781 9.39063 43.3594 9.90625 43.1563C10.0753 43.0742 10.2286 42.9631 10.3594 42.8281C10.4247 42.7547 10.4669 42.6637 10.4808 42.5665C10.4947 42.4692 10.4796 42.37 10.4375 42.2813C10.3995 42.1939 10.3358 42.1202 10.2548 42.0699C10.1739 42.0197 10.0795 41.9953 9.98438 42C9.86411 41.9835 9.74192 42.0112 9.64062 42.0781C8.67188 42.9219 7.95313 42.4063 7.21875 41.7031C6.48438 41 5.67188 40.3594 4.8125 39.6406L10.8906 36.4063C11.1406 36.2656 11.2969 36.375 11.4688 36.5156L14.3594 38.875C14.7031 39.1406 14.5625 39.25 14.2812 39.4063L11.7031 40.8281C11.375 41.0156 11.0469 41.2188 11.2969 41.6563C11.5469 42.0938 11.875 41.9844 12.2187 41.7813C13.1719 41.2656 14.125 40.7813 15.0469 40.2188C15.5 39.9375 15.8125 40.0313 16.1875 40.3594C17.125 41.1563 18.0938 41.9375 19.0625 42.7188C19.375 42.9688 19.7031 43.2344 20.0625 42.8125C20.4219 42.3906 20.0469 42.125 19.75 41.875L17.1562 39.7344C16.9219 39.5625 16.6719 39.4063 17 39.0625C17.3281 38.7188 17.125 38.6094 16.9375 38.4063C16.8546 38.3184 16.7435 38.2625 16.6235 38.2482C16.5036 38.234 16.3825 38.2622 16.2812 38.3281C15.8437 38.6563 15.5625 38.4688 15.2188 38.1719C14.375 37.4688 13.5156 36.7813 12.6562 36.1094C12.2812 35.7969 12.2969 35.6406 12.7344 35.4063C15.8281 33.7656 18.9375 32.1094 22.0156 30.4375C22.4531 30.2031 22.75 30.2188 23.0781 30.5938C23.625 31.25 24.2031 31.8906 24.5312 32.7031C24.8594 33.5156 24.7188 33.7031 24.0625 34.0156C22.9844 34.5313 21.9531 35.1406 20.9062 35.7188C20.5625 35.9219 20.0938 36.1094 20.3906 36.625C20.6875 37.1406 21.0938 36.8594 21.4531 36.6719L23.9687 35.2813C24.1719 35.1719 24.3594 35 24.6406 35.0313C24.7656 35.6094 24.5 36.1094 24.3594 36.625C24.2187 37.1406 24.2188 37.2344 24.5312 37.4531C24.8438 37.6719 25.0625 37.5 25.3125 37.3281C26.2965 36.6877 27.1285 35.8398 27.75 34.8438C27.9688 34.5156 28.1406 34.4688 28.4531 34.7188C29 35.1875 29.5781 35.625 30.1406 36.0625C30.4531 36.3125 30.8125 36.6563 31.1719 36.1719C31.5312 35.6875 31.1094 35.4375 30.7969 35.1719C30.2031 34.7031 29.5781 34.25 28.9844 33.7656C28.3906 33.2813 28.4688 32.8594 29.0938 32.4844C29.7188 32.1094 30.0625 31.9531 30.5312 31.6875C31 31.4219 31.0781 31.2656 30.8594 30.875C30.6406 30.4844 30.3438 30.5 30 30.7188C29.6562 30.9375 29.5156 30.9844 29.1719 31.1719C29.1094 30.4844 29.0469 29.875 28.9844 29.2813C28.8928 28.6673 28.7356 28.0649 28.5156 27.4844C28.4375 27.2344 28.3594 27.0313 28.6719 26.8906C29.5938 26.4531 30.4375 25.8438 31.4062 25.5L31.4531 25.5469ZM56.7812 29.4844C56.6875 29.1094 56.4688 28.8438 56.0781 29C55.6663 29.1785 55.2736 29.3984 54.9062 29.6563C54.8064 29.7265 54.7357 29.8309 54.7075 29.9498C54.6793 30.0686 54.6956 30.1936 54.7532 30.3013C54.8109 30.409 54.906 30.4918 55.0205 30.5341C55.1351 30.5765 55.2612 30.5755 55.375 30.5313C55.7868 30.3488 56.1838 30.1346 56.5625 29.8906C56.6345 29.8515 56.6935 29.7922 56.7323 29.7201C56.7712 29.6479 56.7882 29.566 56.7812 29.4844ZM19.5938 37.3906C19.5 36.9844 19.2656 36.7344 18.875 36.875C18.481 37.0409 18.1042 37.245 17.75 37.4844C17.6966 37.5151 17.6498 37.5561 17.6123 37.605C17.5748 37.6538 17.5472 37.7096 17.5313 37.7691C17.5153 37.8286 17.5112 37.8906 17.5193 37.9517C17.5273 38.0128 17.5473 38.0717 17.5781 38.125C17.7187 38.3906 17.9531 38.5313 18.2344 38.4063C18.6383 38.2122 19.0297 37.993 19.4062 37.75C19.4652 37.7107 19.5132 37.6571 19.546 37.5943C19.5788 37.5315 19.5952 37.4615 19.5938 37.3906ZM32.0469 36.3125C31.9102 36.3282 31.7844 36.3947 31.6946 36.499C31.6049 36.6033 31.5577 36.7375 31.5625 36.875C31.5469 37.1875 32.2187 37.8438 32.5625 37.8438C32.6343 37.848 32.7063 37.838 32.7743 37.8143C32.8423 37.7907 32.9049 37.7539 32.9586 37.706C33.0123 37.6581 33.056 37.6 33.0873 37.5352C33.1185 37.4704 33.1366 37.4 33.1406 37.3281C33.1719 37.0156 32.4375 36.3281 32.0469 36.3125ZM32.0781 29.6719C31.7656 29.7969 31.3594 29.875 31.2969 30.3438C31.2842 30.4157 31.2885 30.4895 31.3095 30.5595C31.3304 30.6294 31.3674 30.6935 31.4175 30.7466C31.4676 30.7997 31.5293 30.8404 31.5979 30.8654C31.6665 30.8904 31.74 30.899 31.8125 30.8906C32.2031 30.8906 32.5937 30.7188 32.6406 30.2656C32.6875 29.8125 32.4844 29.7188 32.0781 29.6719ZM50.3906 35.9844C50.3438 35.5938 50.0469 35.3906 49.6875 35.3438C49.6104 35.3361 49.5325 35.3459 49.4597 35.3725C49.3869 35.3991 49.321 35.4417 49.2669 35.4973C49.2129 35.5528 49.1721 35.6199 49.1475 35.6934C49.1229 35.7669 49.1152 35.845 49.125 35.9219C49.151 36.0986 49.2393 36.2603 49.374 36.3777C49.5086 36.4952 49.6807 36.5607 49.8594 36.5625C50.2031 36.5781 50.375 36.3594 50.3906 35.9844ZM65.2812 37.0625C65.2188 36.75 65.0625 36.4844 64.75 36.5C64.4375 36.5156 64.0469 36.6875 64.0156 37.125C64.0007 37.1966 64.0028 37.2707 64.0216 37.3414C64.0405 37.4121 64.0756 37.4773 64.1242 37.532C64.1728 37.5867 64.2335 37.6292 64.3015 37.6562C64.3694 37.6832 64.4428 37.6939 64.5156 37.6875C64.6957 37.6876 64.8703 37.6254 65.0098 37.5115C65.1493 37.3976 65.2452 37.239 65.2812 37.0625Z" fill="#76CBEE"/>
<path d="M23.9842 45.3127C24.7967 44.8909 25.3436 45.0784 25.9686 45.6252C28.9061 48.1721 31.9061 50.6409 34.8749 53.1565C36.2499 54.2971 37.6249 55.4377 38.9374 56.6565C40.2499 57.8752 40.2655 59.1877 39.4686 60.5002C38.4217 62.2502 36.8592 63.2815 34.8436 63.5315C33.8124 63.6721 32.9374 63.1877 32.1405 62.594C29.2342 60.4221 26.453 58.094 23.703 55.7502L15.8124 49.0315C15.6717 48.9065 15.203 48.844 15.5467 48.5471C15.8905 48.2502 16.0311 47.8596 16.4842 48.2502L20.2499 51.4534C22.8436 53.6252 25.4217 55.8127 28.0311 57.9846C29.5311 59.219 31.0936 60.4065 32.5936 61.6409C33.6249 62.4846 34.7186 62.7971 35.9686 62.2034C37.2186 61.6096 38.578 60.6252 38.8436 58.9846C38.953 58.2346 38.5311 57.594 37.953 57.1096L26.5155 47.5002C25.6717 46.7971 24.8592 46.0627 23.9842 45.3127Z" fill="#EF7C30"/>
<path d="M25.8438 35.3281C25.8438 34.9063 25.8282 34.5156 25.8438 34.1094C25.9063 32.6563 25.3125 31.4844 24.3594 30.4375C23.7344 29.75 23.0625 29.0938 22.4688 28.375C20.9532 26.5313 20.9375 24.4531 21.6407 22.2969C22.0313 21.0937 22.7344 20.0781 23.7032 19C23.5938 19.6406 23.5157 20.0937 23.4532 20.5312C23.2657 21.8281 23.4844 22.9844 24.4532 23.9687C25.1094 24.625 25.8907 25.1406 26.4532 25.9063C28.2969 28.4219 28.6875 32.0781 26.4219 34.875C26.2813 35.0469 26.1563 35.2656 25.8438 35.3281Z" fill="#F08137"/>
<path d="M45.6095 11.5938C45.6252 12.5469 45.297 13.3594 45.422 14.2344C45.4956 14.7929 45.6885 15.329 45.9878 15.8062C46.2871 16.2835 46.6857 16.6906 47.1564 17C49.9533 19 51.047 23.875 48.6252 26.9844C48.4043 27.2726 48.1409 27.5255 47.8439 27.7344C47.9961 26.9191 47.9587 26.0797 47.7345 25.2813C47.4533 24.0781 46.7189 23.1406 45.8908 22.2656C45.0627 21.3906 44.4689 20.9219 43.9845 20.0625C42.6252 17.6094 43.1252 15.2813 44.4689 13.0156C44.757 12.4746 45.1438 11.9923 45.6095 11.5938Z" fill="#F08137"/>
<path d="M32.6093 25.8438C32.6093 25.2656 32.7499 24.7031 32.6718 24.1094C32.4686 22.6094 31.6874 21.4375 30.6718 20.4063C29.9999 19.7031 29.2499 19.0469 28.7655 18.1875C27.4061 15.7344 27.9218 13.4063 29.2499 11.1406C29.5401 10.5921 29.9388 10.1084 30.4218 9.71875C30.3593 10.2188 30.3436 10.5937 30.2655 10.9687C29.8593 12.875 30.7186 14.2344 32.1561 15.3437C34.9843 17.5 35.8593 22.6719 32.9843 25.6094C32.8905 25.7031 32.828 25.8594 32.6093 25.8438Z" fill="#F08137"/>
<path d="M30.8281 44.9844C32.125 44.6563 33.0156 45.0938 33.9219 45.8438C37.3438 48.7032 40.8125 51.5001 44.3906 54.1563C46.6406 55.8126 49.2812 55.2344 50.7188 52.8282C51.6719 51.2188 51.4375 50.1563 49.9844 48.9844C48.5312 47.8126 47.2344 46.7188 45.7812 45.5157C46.9219 45.3907 47.8594 45.3907 48.6875 46.2501C49.5156 47.1094 50.5937 47.7501 51.4531 48.6251C52.0534 49.1965 52.4397 49.9563 52.5477 50.778C52.6558 51.5996 52.479 52.4335 52.0469 53.1407C50.9219 55.0001 49.2812 56.1563 47.125 56.5001C46.1719 56.6563 45.2969 56.3126 44.5 55.7657C42.0156 54.0469 39.6719 52.1251 37.2969 50.2501C35.3281 48.7032 33.4062 47.1094 31.4531 45.5313L30.8281 44.9844Z" fill="#EF7C30"/>
<path d="M44.5782 22.5315C44.5669 22.5929 44.5392 22.6501 44.4979 22.6969C44.4566 22.7436 44.4033 22.7783 44.3438 22.7971L38.1563 26.2503C37.8594 26.4065 37.6563 26.2971 37.4376 26.1409L35.9376 25.0315C34.9688 24.3284 35.0313 23.4846 36.1094 22.9065L40.5313 20.5471C41.1251 20.2346 41.7345 19.6721 42.297 19.7034C42.8595 19.7346 42.9688 20.7346 43.4219 21.2034C43.8751 21.6721 44.0469 21.9221 44.3594 22.2815L44.5782 22.5315Z" fill="#76CBEE"/>
<path d="M53.1406 45.0311C54.2812 44.4999 55.1719 44.7967 56.0156 45.5624C56.8594 46.328 57.3594 46.5311 58.0312 47.0311C59.5469 48.1405 60.3281 48.2499 62.3594 47.0467C63.2005 46.5378 63.874 45.7936 64.2969 44.9061C64.75 43.9842 64.625 43.1561 64.0781 42.328C63.9688 42.1561 63.4531 41.9686 63.9844 41.703C64.5156 41.4374 64.7187 41.0624 65.1406 41.6405C65.9219 42.6874 66.1406 43.8436 65.6406 45.0311C64.6094 47.4842 62.7031 48.8592 60.0781 49.1717C59.3437 49.2499 58.6563 48.9217 58 48.5155C56.3125 47.4686 54.7812 46.2186 53.1406 45.0311Z" fill="#EF7C30"/>
<path d="M40.6719 44.313L31.2188 43.7505L36.0781 41.0942C36.1723 41.0414 36.281 41.0205 36.388 41.0345C36.495 41.0486 36.5946 41.097 36.6719 41.1723L40.6719 44.313Z" fill="#76CBEE"/>
<path d="M54.1562 43.4532C55.0156 43 55.8281 42.4844 56.7031 42.0938C57.2812 41.8438 57.5312 42.4844 58.0937 42.7813C56.8286 43.1766 55.5324 43.4641 54.2187 43.6407L54.1562 43.4532Z" fill="#76CBEE"/>
<path d="M31.4062 25.5L31.5 25.4531L31.4531 25.5469L31.4062 25.5Z" fill="#FBBD4E"/>
<path d="M56.7811 29.4841C56.7881 29.5657 56.7711 29.6476 56.7322 29.7198C56.6934 29.7919 56.6344 29.8512 56.5624 29.8904C56.1837 30.1343 55.7867 30.3485 55.3749 30.531C55.261 30.5752 55.1349 30.5762 55.0204 30.5339C54.9059 30.4915 54.8108 30.4087 54.7531 30.301C54.6954 30.1934 54.6792 30.0683 54.7074 29.9495C54.7355 29.8307 54.8062 29.7263 54.9061 29.656C55.2735 29.3981 55.6662 29.1782 56.078 28.9997C56.4686 28.8435 56.6874 29.1091 56.7811 29.4841Z" fill="#B7531B"/>
<path d="M19.5936 37.391C19.5951 37.4619 19.5786 37.5319 19.5459 37.5947C19.5131 37.6575 19.465 37.7111 19.4061 37.7504C19.0296 37.9934 18.6382 38.2126 18.2342 38.4066C17.953 38.5316 17.7186 38.391 17.578 38.1254C17.5472 38.0721 17.5272 38.0132 17.5191 37.9521C17.5111 37.891 17.5152 37.829 17.5311 37.7695C17.5471 37.71 17.5746 37.6542 17.6122 37.6053C17.6497 37.5565 17.6965 37.5155 17.7499 37.4848C18.1041 37.2454 18.4809 37.0413 18.8749 36.8754C19.2655 36.7348 19.4999 36.9848 19.5936 37.391Z" fill="#B7531B"/>
<path d="M32.0467 36.3125C32.4373 36.3281 33.1717 37.0156 33.1405 37.3281C33.1365 37.4 33.1184 37.4703 33.0871 37.5352C33.0559 37.6 33.0122 37.658 32.9584 37.7059C32.9047 37.7539 32.8421 37.7907 32.7741 37.8143C32.7062 37.838 32.6342 37.848 32.5623 37.8438C32.2186 37.8438 31.5467 37.1875 31.5623 36.875C31.5575 36.7375 31.6047 36.6032 31.6945 36.499C31.7843 36.3947 31.91 36.3281 32.0467 36.3125Z" fill="#B7531B"/>
<path d="M32.0779 29.6719C32.4841 29.7188 32.6716 29.9688 32.6404 30.2656C32.6091 30.5625 32.2029 30.8906 31.8123 30.8906C31.7398 30.899 31.6663 30.8904 31.5977 30.8654C31.5291 30.8404 31.4673 30.7997 31.4172 30.7466C31.3672 30.6934 31.3302 30.6294 31.3092 30.5594C31.2883 30.4895 31.284 30.4156 31.2966 30.3438C31.3591 29.875 31.7654 29.7969 32.0779 29.6719Z" fill="#B7531B"/>
<path d="M50.3908 35.984C50.3752 36.359 50.2033 36.5777 49.8596 36.5621C49.6809 36.5603 49.5088 36.4948 49.3742 36.3773C49.2395 36.2599 49.1513 36.0982 49.1252 35.9215C49.1154 35.8446 49.1231 35.7665 49.1477 35.693C49.1723 35.6195 49.2131 35.5524 49.2672 35.4969C49.3212 35.4413 49.3871 35.3987 49.4599 35.3721C49.5327 35.3455 49.6106 35.3357 49.6877 35.3433C50.0471 35.3902 50.344 35.5933 50.3908 35.984Z" fill="#B7531B"/>
<path d="M65.2813 37.0622C65.2453 37.2386 65.1494 37.3972 65.0099 37.5111C64.8704 37.625 64.6958 37.6872 64.5157 37.6872C64.4428 37.6936 64.3695 37.6829 64.3015 37.6559C64.2336 37.6289 64.1728 37.5863 64.1243 37.5317C64.0757 37.477 64.0405 37.4117 64.0217 37.341C64.0028 37.2704 64.0008 37.1963 64.0157 37.1247C64.047 36.6872 64.3907 36.5153 64.7501 36.4997C65.1094 36.4841 65.2188 36.7497 65.2813 37.0622Z" fill="#B7531B"/>
</svg>
