<svg width="80" height="80" viewBox="0 0 80 80" fill="none" xmlns="http://www.w3.org/2000/svg">
<path d="M19.2813 63.7813C18.9531 62.4375 18.5938 62.125 17.4375 62.125H14.8906C13.8906 62.0938 13.3125 61.4219 13.3125 60.25V38.9062C13.3125 38.4062 13.375 38.2031 13.875 38.2188H24.0781C24.5469 38.2188 24.6719 38.3594 24.6719 38.8906C24.6406 41.5937 24.6563 44.2813 24.6563 46.9688C24.6563 48.3281 25.1875 48.9375 26.3438 48.9375H37.9063C39.0313 48.9375 39.5625 48.3438 39.5625 47.0469C39.5625 44.3438 39.5781 41.6562 39.5469 38.9687C39.5313 38.3281 39.7031 38.2031 40.2188 38.2188C43.5521 38.25 46.8854 38.2448 50.2188 38.2031C50.8438 38.2031 50.9375 38.4375 50.9219 39.0781C50.8906 41.7188 50.9062 44.3594 50.9062 47C50.9062 48.3281 51.4375 48.9375 52.6094 48.9375H60.2031C61.3281 48.9375 61.8281 48.3437 61.8281 47.0156C61.8438 44.3281 61.8438 41.6406 61.8281 38.9375C61.8125 38.375 61.9219 38.2031 62.4375 38.2188C65.8125 38.25 69.2031 38.2344 72.5781 38.2188C73.0781 38.2031 73.2031 38.3594 73.1875 38.9375C73.1719 46 73.1875 53.0625 73.1875 60.1094C73.1875 61.5156 72.6719 62.125 71.4531 62.125H55.3594C52.7344 62.125 50.9062 64.25 50.9062 67.2969C50.9062 70.3438 50.8906 72.9531 50.9219 75.7812C50.9219 76.2969 50.8281 76.4844 50.3438 76.4688H40.1406C39.6406 76.4844 39.5625 76.2812 39.5625 75.7656C39.5781 72.9688 39.5781 70.1719 39.5781 67.3594C39.5625 64.1719 37.7969 62.125 35.0625 62.125H30.875C29.7813 62.125 29.3594 62.5312 29.1406 63.7969H25.6562C25.3438 62.6406 24.9531 62.1875 24.2344 62.1406C23.5156 62.0938 23.0156 62.5781 22.6875 63.7969L19.2813 63.7813Z" fill="#1A87C9"/>
<path d="M32.9219 21.3282C32.9219 28.8907 26.6563 35.0625 19 35.0625C11.3438 35.0625 5.00003 28.8438 5.01565 21.2657C5.03128 13.6875 11.3438 7.51565 19.0469 7.53128C26.75 7.5469 32.9375 13.7344 32.9219 21.3282ZM23.6094 21.6407C23.625 18.1563 20.4844 15.9063 17.4532 16.9844C16.8907 17.1875 16.5938 17.0782 16.2188 16.6719C15.2969 15.6407 14.3125 14.6719 13.3594 13.6719C13.1186 13.3987 12.7841 13.2258 12.4219 13.1875C11.7344 13.1563 11.2188 13.4375 10.9063 14.0313C10.5938 14.625 10.7032 15.2813 11.1875 15.7969C12.1407 16.8282 13.0938 17.8594 14.0938 18.8594C14.4844 19.25 14.6407 19.5782 14.4688 20.1719C13.9688 22.0157 14.5157 23.6094 16 24.8125C17.4844 26.0157 19.1563 26.25 20.9063 25.4375C22.6563 24.625 23.4844 23.1875 23.6094 21.6407ZM10.8907 27.8282C10.8865 28.0339 10.9234 28.2384 10.9993 28.4297C11.0752 28.621 11.1885 28.7953 11.3325 28.9422C11.4766 29.0892 11.6485 29.2059 11.8383 29.2856C12.028 29.3653 12.2317 29.4063 12.4375 29.4063C12.839 29.3991 13.2231 29.2406 13.5127 28.9625C13.8024 28.6844 13.9765 28.3072 14 27.9063C14 27.4919 13.8354 27.0944 13.5424 26.8014C13.2494 26.5084 12.8519 26.3438 12.4375 26.3438C12.0367 26.3395 11.6502 26.4926 11.361 26.7701C11.0718 27.0476 10.9029 27.4275 10.8907 27.8282ZM29.8125 21.5938C29.8146 21.3947 29.7774 21.1972 29.7032 21.0126C29.6289 20.8279 29.519 20.6597 29.3797 20.5175C29.2404 20.3753 29.0745 20.2619 28.8914 20.1839C28.7083 20.1058 28.5116 20.0646 28.3125 20.0625C28.1073 20.0473 27.9011 20.075 27.7071 20.1438C27.5131 20.2125 27.3356 20.3209 27.1857 20.4619C27.0358 20.603 26.9169 20.7737 26.8365 20.9632C26.7562 21.1526 26.7161 21.3567 26.7188 21.5625C26.7381 21.9734 26.911 22.362 27.2033 22.6514C27.4956 22.9408 27.8859 23.1098 28.2969 23.125C29.0782 23.1407 29.7969 22.3907 29.8125 21.5938ZM25.2813 26.3438C25.0761 26.3457 24.8735 26.3888 24.6853 26.4706C24.4972 26.5523 24.3274 26.6711 24.186 26.8197C24.0446 26.9684 23.9346 27.144 23.8624 27.336C23.7902 27.528 23.7573 27.7326 23.7657 27.9375C23.7859 28.3396 23.962 28.7179 24.2567 28.9921C24.5514 29.2663 24.9413 29.4149 25.3438 29.4063C25.7447 29.3943 26.1256 29.2287 26.4077 28.9436C26.6898 28.6586 26.8516 28.276 26.8594 27.875C26.8574 27.6706 26.8148 27.4685 26.7342 27.2806C26.6536 27.0926 26.5366 26.9226 26.3898 26.7802C26.243 26.6378 26.0695 26.5259 25.8792 26.451C25.689 26.3761 25.4857 26.3396 25.2813 26.3438ZM19.0938 10.5938C18.8955 10.5854 18.6975 10.6165 18.5113 10.6852C18.3251 10.7539 18.1544 10.8589 18.0091 10.994C17.8637 11.1292 17.7467 11.2919 17.6647 11.4726C17.5826 11.6533 17.5373 11.8485 17.5313 12.0469C17.5208 12.2519 17.5516 12.4568 17.6218 12.6497C17.6921 12.8425 17.8004 13.0192 17.9404 13.1693C18.0803 13.3195 18.249 13.4399 18.4364 13.5236C18.6238 13.6072 18.8261 13.6524 19.0313 13.6563C19.446 13.6565 19.8444 13.495 20.142 13.2062C20.4396 12.9174 20.6128 12.5239 20.625 12.1094C20.6094 11.7098 20.4425 11.331 20.1583 11.0496C19.874 10.7683 19.4936 10.6054 19.0938 10.5938ZM8.1094 21.2657C8.10307 21.4699 8.13811 21.6734 8.21243 21.8637C8.28674 22.0541 8.39878 22.2275 8.54182 22.3734C8.68486 22.5194 8.85594 22.6349 9.04478 22.7131C9.23361 22.7912 9.4363 22.8304 9.64065 22.8282C10.0404 22.8327 10.4264 22.6823 10.7177 22.4085C11.009 22.1347 11.183 21.7587 11.2032 21.3594C11.2344 20.5313 10.5 19.7969 9.65628 19.7813C9.25662 19.781 8.87235 19.9353 8.58399 20.212C8.29563 20.4887 8.12555 20.8663 8.1094 21.2657ZM27.1875 14.9063C27.1795 14.5068 27.0173 14.1259 26.7348 13.8434C26.4522 13.5609 26.0714 13.3986 25.6719 13.3907C24.8282 13.3907 24.0782 14.125 24.0938 14.9532C24.1098 15.3539 24.2794 15.7332 24.5673 16.0124C24.8553 16.2917 25.2396 16.4495 25.6407 16.4532C25.8456 16.4597 26.0496 16.4241 26.2402 16.3487C26.4309 16.2732 26.604 16.1595 26.7489 16.0146C26.8939 15.8696 27.0076 15.6965 27.083 15.5059C27.1585 15.3152 27.194 15.1112 27.1875 14.9063Z" fill="#76CBEE"/>
<path d="M51.75 23.9687C51.75 27.4375 51.7344 30.8906 51.7656 34.3594C51.7656 34.9687 51.5937 35.1406 50.9844 35.125C47.125 35.1094 43.25 35.0937 39.375 35.125C38.7656 35.1406 38.6094 34.9531 38.6094 34.3594C38.6406 27.3594 38.6406 20.3698 38.6094 13.3906C38.6094 12.7812 38.7812 12.6094 39.3906 12.625C43.25 12.6406 47.125 12.6406 50.9844 12.625C51.6094 12.6094 51.7656 12.7969 51.75 13.3906C51.7344 16.9219 51.75 20.4375 51.75 23.9687Z" fill="#EB6409"/>
<path d="M67.4062 25.0467C65.6249 25.0467 63.8593 25.0311 62.078 25.0623C61.5312 25.0779 61.2655 24.9842 61.3124 24.3436C61.578 20.6248 61.7968 16.9061 62.0155 13.1873C62.0468 12.6873 62.203 12.4686 62.7655 12.4842C65.9062 12.5154 69.0312 12.4998 72.1718 12.4842C72.6562 12.4842 72.8124 12.6092 72.8437 13.1248C73.0468 16.8436 73.2499 20.5623 73.5155 24.2811C73.5624 24.9842 73.3593 25.0779 72.7343 25.0623C70.9687 25.0311 69.1874 25.0467 67.4062 25.0467Z" fill="#D0D8DA"/>
<path d="M71.6405 33.9844C71.6364 34.5384 71.5232 35.0862 71.3074 35.5965C71.0916 36.1068 70.7775 36.5695 70.3828 36.9584C69.9882 37.3472 69.5208 37.6545 69.0074 37.8628C68.4939 38.071 67.9445 38.176 67.3905 38.1719C65.1093 38.1407 63.1718 36.1719 63.203 33.9063C63.2235 32.7859 63.6841 31.7185 64.4852 30.9349C65.2864 30.1513 66.3636 29.7145 67.4843 29.7188C68.0376 29.7249 68.5842 29.8402 69.0929 30.0581C69.6015 30.276 70.0621 30.5921 70.4483 30.9884C70.8344 31.3848 71.1385 31.8534 71.3431 32.3675C71.5477 32.8817 71.6488 33.4311 71.6405 33.9844Z" fill="#D0D8DA"/>
<path d="M73.5315 25.0781C73.0315 26.8594 72.5783 28.5 72.1096 30.1563C71.9846 30.625 71.8752 30.9063 71.219 30.5938C68.6565 29.375 66.0627 29.3906 63.4846 30.5938C63.0315 30.8125 62.8127 30.8594 62.6565 30.2188C62.2971 28.7344 61.8283 27.2813 61.3908 25.8281C61.2502 25.3438 61.2502 25.0625 61.9065 25.0625C65.7346 25.0938 69.5627 25.0781 73.5315 25.0781Z" fill="#76CBEE"/>
<path d="M42.7812 38.2033C42.9844 37.2971 43.1719 36.4377 43.3438 35.5939C43.4219 35.2346 43.5781 35.0939 43.9219 35.1096C44.7656 35.1408 45.6094 35.1252 46.4688 35.1252C46.7031 35.1252 46.9219 35.1096 46.9844 35.4689C47.1719 36.3752 47.375 37.2658 47.5938 38.2033H42.7812Z" fill="#D0D8DA"/>
<path d="M45.2812 7.40625C47.7656 7.40625 47.7656 7.40625 47.7656 9.875C47.7656 12.625 47.7656 12.625 45.0313 12.625C42.5469 12.625 42.5469 12.625 42.5469 10.1406C42.5469 7.40625 42.5469 7.40625 45.2812 7.40625Z" fill="#D0D8DA"/>
<path d="M13.6094 36.5781C13.6094 35.0625 13.6094 35.0625 18.8281 35.0625C24.3438 35.0625 24.3438 35.0625 24.3438 36.7344C24.3438 38.4063 24.3438 38.2344 19.2344 38.2344C13.6094 38.2344 13.6094 38.2344 13.6094 36.5781Z" fill="#D0D8DA"/>
<path d="M23.6092 21.6404C23.4842 23.1873 22.6717 24.6248 20.9061 25.4373C19.1404 26.2498 17.4686 26.0154 15.9998 24.8123C14.5311 23.6092 13.9686 22.0154 14.4686 20.1717C14.6404 19.5779 14.4842 19.2498 14.0936 18.8592C13.0936 17.8592 12.1404 16.8279 11.1873 15.7967C10.7029 15.281 10.5779 14.6717 10.9061 14.031C11.2342 13.3904 11.7342 13.156 12.4217 13.1873C12.7839 13.2256 13.1184 13.3984 13.3592 13.6717C14.3123 14.6717 15.2967 15.6404 16.2186 16.6717C16.5936 17.0779 16.8904 17.1873 17.4529 16.9842C20.4842 15.906 23.6248 18.156 23.6092 21.6404ZM20.4998 21.3279C20.5154 20.5467 19.7967 19.7967 18.9842 19.781C18.5866 19.784 18.2048 19.937 17.9152 20.2093C17.6255 20.4816 17.4492 20.8532 17.4217 21.2498C17.4289 21.6513 17.5874 22.0353 17.8655 22.325C18.1436 22.6147 18.5208 22.7887 18.9217 22.8123C19.7029 22.8435 20.4686 22.1248 20.4998 21.3279Z" fill="#EB6409"/>
<path d="M10.8905 27.8282C10.9027 27.4276 11.0716 27.0477 11.3608 26.7702C11.65 26.4926 12.0365 26.3396 12.4373 26.3438C12.8517 26.3438 13.2492 26.5085 13.5422 26.8015C13.8352 27.0945 13.9998 27.4919 13.9998 27.9063C13.9763 28.3072 13.8022 28.6844 13.5125 28.9626C13.2228 29.2407 12.8388 29.3992 12.4373 29.4063C12.2315 29.4064 12.0278 29.3654 11.8381 29.2857C11.6483 29.206 11.4764 29.0892 11.3323 28.9423C11.1883 28.7953 11.075 28.6211 10.9991 28.4298C10.9232 28.2385 10.8863 28.034 10.8905 27.8282Z" fill="#EB6409"/>
<path d="M29.8126 21.5939C29.797 22.3908 29.0783 23.1408 28.297 23.1251C27.886 23.1099 27.4957 22.9409 27.2034 22.6515C26.9111 22.3621 26.7382 21.9735 26.7189 21.5626C26.7162 21.3568 26.7563 21.1527 26.8366 20.9633C26.917 20.7738 27.0359 20.6031 27.1858 20.462C27.3357 20.321 27.5132 20.2126 27.7072 20.1439C27.9012 20.0751 28.1074 20.0475 28.3126 20.0626C28.5117 20.0647 28.7084 20.1059 28.8915 20.184C29.0746 20.262 29.2405 20.3754 29.3798 20.5176C29.5191 20.6598 29.629 20.828 29.7033 21.0127C29.7775 21.1974 29.8147 21.3949 29.8126 21.5939Z" fill="#EB6409"/>
<path d="M25.2811 26.3441C25.4855 26.3399 25.6887 26.3764 25.879 26.4513C26.0693 26.5262 26.2428 26.6381 26.3896 26.7805C26.5363 26.9229 26.6534 27.0929 26.734 27.2809C26.8146 27.4688 26.8572 27.6708 26.8592 27.8753C26.8513 28.2763 26.6896 28.6589 26.4075 28.9439C26.1254 29.229 25.7444 29.3946 25.3436 29.4066C24.9411 29.4152 24.5512 29.2666 24.2565 28.9924C23.9618 28.7181 23.7857 28.3398 23.7654 27.9378C23.7571 27.7328 23.7899 27.5283 23.8622 27.3363C23.9344 27.1442 24.0444 26.9687 24.1858 26.82C24.3272 26.6714 24.497 26.5526 24.6851 26.4709C24.8733 26.3891 25.0759 26.346 25.2811 26.3441Z" fill="#EB6409"/>
<path d="M19.0938 10.5941C19.4936 10.6057 19.8741 10.7686 20.1583 11.05C20.4426 11.3313 20.6094 11.7101 20.6251 12.1097C20.6129 12.5242 20.4396 12.9177 20.142 13.2065C19.8444 13.4953 19.446 13.6568 19.0313 13.6566C18.8261 13.6527 18.6238 13.6076 18.4364 13.5239C18.249 13.4403 18.0803 13.3198 17.9404 13.1697C17.8005 13.0195 17.6922 12.8428 17.6219 12.65C17.5516 12.4572 17.5208 12.2522 17.5313 12.0472C17.5373 11.8489 17.5827 11.6536 17.6647 11.4729C17.7467 11.2922 17.8638 11.1295 18.0091 10.9944C18.1544 10.8592 18.3251 10.7542 18.5113 10.6855C18.6975 10.6168 18.8955 10.5857 19.0938 10.5941Z" fill="#EB6409"/>
<path d="M8.10961 21.2656C8.12576 20.8663 8.29584 20.4887 8.5842 20.212C8.87256 19.9353 9.25683 19.7809 9.65649 19.7813C10.5002 19.7969 11.2346 20.5313 11.2034 21.3594C11.1832 21.7587 11.0092 22.1346 10.7179 22.4084C10.4266 22.6823 10.0406 22.8327 9.64086 22.8281C9.43651 22.8303 9.23382 22.7912 9.04499 22.713C8.85615 22.6349 8.68507 22.5194 8.54203 22.3734C8.39899 22.2275 8.28695 22.0541 8.21264 21.8637C8.13833 21.6733 8.10328 21.4699 8.10961 21.2656Z" fill="#EB6409"/>
<path d="M27.1877 14.9063C27.1943 15.1112 27.1587 15.3152 27.0833 15.5058C27.0078 15.6964 26.8941 15.8696 26.7492 16.0145C26.6042 16.1595 26.4311 16.2732 26.2404 16.3486C26.0498 16.4241 25.8458 16.4596 25.6409 16.4531C25.2398 16.4494 24.8555 16.2916 24.5675 16.0124C24.2796 15.7332 24.11 15.3539 24.094 14.9531C24.0784 14.125 24.8284 13.3906 25.6721 13.3906C26.0716 13.3986 26.4525 13.5609 26.735 13.8434C27.0175 14.1259 27.1797 14.5068 27.1877 14.9063Z" fill="#EB6409"/>
<path d="M20.5 21.3281C20.4687 22.125 19.7031 22.8438 18.9219 22.8125C18.521 22.7889 18.1438 22.6149 17.8657 22.3252C17.5876 22.0355 17.4291 21.6515 17.4219 21.25C17.4494 20.8534 17.6256 20.4818 17.9153 20.2095C18.205 19.9372 18.5868 19.7842 18.9844 19.7812C19.7969 19.7969 20.5156 20.5469 20.5 21.3281Z" fill="#D0D8DA"/>
</svg>
