<svg width="80" height="80" viewBox="0 0 80 80" fill="none" xmlns="http://www.w3.org/2000/svg">
<path d="M3.75 35.5C4.06215 35.1554 4.46167 34.9017 4.90625 34.7656L13.375 31.5937C13.5 31.875 13.7656 31.7969 13.9844 31.8125H16.4688C16.8125 31.8125 17.1406 31.8125 17.3594 32.1094C16.5938 32.2969 16.4219 32.7969 16.4844 33.5469C16.5366 34.3949 16.5418 35.2452 16.5 36.0937C16.4844 36.8281 15.9844 37.3594 15.3438 37.3437C14.7031 37.3281 14.25 36.8438 14.2344 36.0625V33.375C12.0469 34.25 9.875 34.9219 7.73438 35.9062C7.82568 35.9758 7.92543 36.0336 8.03125 36.0781C11.875 37.5469 15.7344 39 19.5781 40.4844C19.9219 40.6094 20.1719 40.5 20.4531 40.3906L30 36.7656L32.2188 35.9219L31.4531 35.625L20.8906 31.5625C20.9844 31.3906 21.1562 31.4062 21.3125 31.375C22.8281 31.1094 24.3438 31.3125 25.875 31.2344L34.9375 34.7656C36 35.1875 36.0625 35.2969 36.0625 36.4375V42.7187C36.8281 42.4531 37.5 42.1875 38.2031 42C38.9062 41.8125 38.9219 41.5938 38.9219 41.0156C38.8906 37.1562 38.9219 33.2812 38.9219 29.4219H41C41.0156 33.2656 41.0312 37.1094 41.0156 40.9531C41 41.5781 41.1875 41.875 41.7812 42.0469C42.3265 42.1951 42.8514 42.4103 43.3438 42.6875C43.8906 43 43.8594 42.7187 43.8594 42.3281V36.375C43.8594 35.4219 44.0469 35.1406 44.9375 34.7969C47.6562 33.7344 50.375 32.6563 53.1094 31.6563C53.8438 31.375 54.2188 31.0469 54.0938 30.2656H56.1719C56.4688 30.8125 56.75 30.0938 57.0312 30.25C57.3125 30.4063 57.4844 30.5312 57.7656 30.5312H62.4375C62.75 30.5312 63.0469 30.5 63.2812 30.25L63.6719 30.3594L65.6719 30.3906C65.5312 31.0781 65.9219 31.3437 66.5312 31.5625C69.5781 32.6562 72.6094 33.7969 75.6562 34.9375C76.1406 35.125 76.3125 35.5156 76.3125 36C76.3125 38.9844 76.3125 41.9844 76.2969 44.9687H74.2188V37.5938L74.0781 37.5625L61.4688 42.3281C61.1875 42.4219 61.1406 42.625 61.1406 42.875H59.1875C59.25 42.4219 58.9219 42.3438 58.6094 42.2188L48.3906 38.375L45.9844 37.5C45.9844 39.4688 46 41.3281 45.9844 43.1875C45.9729 43.3099 46.0018 43.4327 46.0667 43.5371C46.1316 43.6415 46.2289 43.7218 46.3438 43.7656C47 44.125 47.7812 44.1406 48.4219 44.5625C48.1409 44.7781 47.7908 44.8837 47.4375 44.8594C46.5938 44.8385 45.75 44.8385 44.9062 44.8594C44.6875 44.8594 44.4219 44.7813 44.2812 45.0313C43.0625 44.5781 41.8281 44.1406 40.625 43.6562C40.4468 43.5743 40.2539 43.5294 40.0579 43.524C39.8619 43.5186 39.6668 43.553 39.4844 43.625C37.7812 44.2813 36.125 45.0312 34.375 45.5625C34.125 45.2813 33.8125 45.2656 33.4688 45.2812H30.9531C30.75 45.2656 30.4688 45.3594 30.4062 45.0156C31.0312 44.7656 31.6562 44.5 32.2969 44.2656C34.0781 43.5937 34.0781 43.5937 34.0781 41.6875V37.5156L33.5781 37.6719C29.9687 39.0312 26.375 40.4531 22.7188 41.7188C21.375 42.1875 20.5625 42.75 20.875 44.2812H18.9375C18.9087 43.9278 18.9035 43.5729 18.9219 43.2188C18.9844 42.6563 18.7969 42.3594 18.2188 42.1562C15.6094 41.2031 13.0156 40.1875 10.4219 39.2031L5.84375 37.4844V44.4219H3.75V35.5ZM65.6875 33.3594V35.9375C65.6875 36.875 65.3438 37.3437 64.6719 37.3437C64 37.3437 63.7031 36.8594 63.7031 35.9687C63.7031 35.0781 63.6875 34.125 63.7188 33.2188C63.7344 32.7813 63.5781 32.5781 63.1875 32.4375C62.3438 32.1406 61.5156 31.7969 60.7031 31.4375C60.5329 31.364 60.3495 31.326 60.1641 31.326C59.9787 31.326 59.7952 31.364 59.625 31.4375L49.0312 35.4687L47.9062 35.9062C48.2812 36.0625 48.4844 36.1719 48.7031 36.25C52.2812 37.625 55.875 38.9844 59.4531 40.375C59.6324 40.4544 59.8258 40.4967 60.0218 40.4994C60.2179 40.5021 60.4124 40.4651 60.5938 40.3906L69.9062 36.8594L72.3438 35.9219L65.6875 33.3594Z" fill="#1A87C9"/>
<path d="M76.2969 54.0625C76.3594 54.5938 76.1406 54.875 75.6406 55.0781C70.6406 56.9844 65.651 58.9115 60.6719 60.8594C60.4904 60.9351 60.2948 60.9715 60.0982 60.9661C59.9016 60.9607 59.7084 60.9137 59.5312 60.8281C58.4844 60.375 57.3906 60.0312 56.1875 59.5938V62.1875C56.1875 63.4531 56.1562 64.7344 56.2031 66.0156C56.2344 66.8281 55.8906 67.25 55.1406 67.5313C51.1719 69.0313 47.2187 70.5625 43.25 72.0781C42.1406 72.5 41 73.2344 39.875 73.2344C38.75 73.2344 37.6875 72.4688 36.5938 72.0469C32.6562 70.5313 28.7188 69.0156 24.7656 67.5313C24.1094 67.2813 23.8438 66.9219 23.8594 66.2187C23.9062 64.0469 23.875 61.875 23.875 59.6094C22.875 60 21.9219 60.3437 21.0156 60.75C20.3594 61.0469 19.7969 61.0156 19.125 60.75C14.3854 58.9375 9.64583 57.1458 4.90625 55.375C4.4673 55.2269 4.07062 54.975 3.75 54.6406V53.9219H5.71875C5.9375 53.9219 6.21875 54.0156 6.29688 53.6719L18.9375 58.4688V54.4844H20.875V58.4531L23.6406 57.4219C23.8906 57.3281 23.875 57.0938 23.875 56.8906C23.875 56.2813 23.8906 55.6562 23.8906 55.0469H25.8281C25.8438 56.3906 25.8594 57.7188 25.8594 59.0625C25.8594 61.0156 25.8906 62.9844 25.8438 64.9375C25.8281 65.5 26 65.7656 26.5312 65.9688C29.2031 66.9688 31.8437 68.0156 34.5156 69.0469L39.0469 70.7812V69.9219C39.0469 65.1094 39.0312 60.2813 39.0625 55.4688C39.0625 54.8594 38.9375 54.4844 38.3281 54.3281C38.3319 54.2875 38.3439 54.2482 38.3636 54.2125C38.3832 54.1767 38.41 54.1455 38.4422 54.1205C38.4745 54.0956 38.5115 54.0776 38.551 54.0676C38.5905 54.0576 38.6317 54.0559 38.6719 54.0625H41.3906C41.4308 54.0559 41.472 54.0576 41.5115 54.0676C41.551 54.0776 41.588 54.0956 41.6203 54.1205C41.6525 54.1455 41.6793 54.1767 41.6989 54.2125C41.7186 54.2482 41.7306 54.2875 41.7344 54.3281C41.125 54.4844 41 54.8594 41.0156 55.4688C41.0469 59.6094 41.0312 63.7344 41.0312 67.8594V70.7344C41.2065 70.7008 41.3789 70.6538 41.5469 70.5938L53.5312 65.9688C54.0469 65.7656 54.2344 65.5313 54.2188 64.9531C54.2031 61.8438 54.2188 58.7344 54.2344 55.625H56.1719C56.1719 56.0469 56.1875 56.4688 56.1875 56.8906C56.1875 57.3125 56.1719 57.3125 56.4375 57.4062L59.1875 58.4531V52.7969H61.125V58.4375L61.9531 58.1563L73.7656 53.6875C73.7969 53.8438 73.9062 53.8906 74.0625 53.9375C74.7969 54.1563 75.5469 54.0313 76.2969 54.0625Z" fill="#1A87C9"/>
<path d="M6.29688 53.6719C6.21875 54.0156 5.9375 53.9219 5.71875 53.9219H3.75V44.4219H5.84375C5.85938 44.6875 5.875 44.9375 5.875 45.2031V52.9531C5.875 53.2813 5.84375 53.625 6.29688 53.6719Z" fill="#1A87C9"/>
<path d="M25.8279 19.7187L31.7654 17.4688C30.3591 16.7344 29.2654 15.6875 27.5935 15.9219C26.7185 16.0469 25.8123 15.9531 24.906 15.9375C24.5154 15.9219 24.2966 16.0156 24.1248 16.4375C23.3591 18.3437 21.2654 19.3594 19.3904 18.7656C17.5154 18.1719 16.1873 16.1406 16.5467 14.25C16.9529 12.1094 18.8435 10.6094 20.9216 10.8594C22.4216 11.0312 23.5154 11.8594 24.0935 13.25C24.2966 13.7031 24.5154 13.8281 24.9841 13.8281C26.281 13.7969 27.5779 13.8281 28.8748 13.7969C29.4375 13.7827 29.9919 13.9348 30.4685 14.2344C31.6248 14.9375 32.8123 15.5781 33.9685 16.2656C34.0906 16.3509 34.2333 16.4018 34.3818 16.4128C34.5303 16.4238 34.679 16.3945 34.8123 16.3281C35.9841 15.8281 37.156 15.3438 38.3435 14.8906C38.7654 14.7344 38.9216 14.5156 38.906 14.0781C38.8904 12.2812 38.906 10.4844 38.906 8.6875V8.1875C38.9529 7.5625 39.4685 7.01562 40.0154 7.01562C40.5623 7.01562 40.9998 7.51562 41.0154 8.1875C41.031 9.25 41.0154 10.3125 41.0154 11.375C41.0154 12.4375 41.0466 13.2656 41.0154 14.2031C40.9998 14.6094 41.1091 14.8438 41.531 14.9844C42.7966 15.4219 44.0623 15.8906 45.3123 16.3594C45.4401 16.4098 45.5784 16.4276 45.7147 16.4112C45.8511 16.3948 45.9813 16.3448 46.0935 16.2656C47.3123 15.5469 48.5466 14.8594 49.7654 14.125C50.1291 13.9083 50.5451 13.7948 50.9685 13.7969C52.3591 13.8281 53.7498 13.7969 55.1404 13.8125C55.531 13.8281 55.7654 13.75 55.9373 13.3281C56.6091 11.625 58.2654 10.6406 59.9685 10.8594C60.8658 10.9838 61.6989 11.3948 62.3437 12.0311C62.9885 12.6674 63.4104 13.495 63.5467 14.3906C63.781 16.1094 62.7654 17.8438 61.1248 18.5625C59.4842 19.2812 57.5935 18.8437 56.4373 17.375C56.3197 17.2577 56.2337 17.1126 56.1873 16.9531C55.9685 15.9219 55.2498 15.8438 54.3904 15.9219C53.851 15.9922 53.3048 15.9922 52.7654 15.9219C51.2185 15.7031 49.9841 16.3906 48.781 17.1719C48.6404 17.2656 48.4217 17.2812 48.4685 17.4844C48.5154 17.6875 48.7185 17.6562 48.8592 17.7188L55.0935 20.0469C55.7498 20.2812 56.3123 20.6094 56.1716 21.4687H52.781C52.531 21.4687 52.2498 21.5625 52.0623 21.2969C51.8748 21.0312 51.9685 21.1094 51.8435 21.0469L46.3123 18.9062C46.031 18.7812 45.8435 18.875 45.6091 19.0156C44.7498 19.5469 43.8748 20.0938 42.9998 20.5938C42.3748 20.9688 41.656 20.7969 41.3279 20.25C40.9998 19.7031 41.1717 19.0156 41.8904 18.6094L43.3904 17.7812L40.2185 16.5937C40.1679 16.5684 40.1126 16.554 40.0561 16.5513C39.9996 16.5486 39.9432 16.5577 39.8904 16.5781L36.6716 17.7656C37.2966 18.1406 37.7966 18.4375 38.281 18.75C38.7654 19.0625 39.031 19.7031 38.7498 20.2031C38.4685 20.7031 37.8435 20.8906 37.2185 20.5469C36.5935 20.2031 35.5154 19.6406 34.7029 19.1094C34.2498 18.8281 33.8748 18.8438 33.406 19.0312C32.3279 19.4375 31.2654 19.9219 30.156 20.2031C29.031 19.6719 27.8435 20 26.6873 19.9062C26.3904 19.875 26.0623 20.0312 25.8279 19.7187ZM22.031 16.0312C21.7341 15.875 21.4685 15.9375 21.2185 15.9375C19.9685 15.9375 19.5154 15.6562 19.4841 14.8906C19.4529 14.125 19.9529 13.8125 21.1873 13.8125H21.9841C21.2966 12.8281 20.2185 12.6875 19.3435 13.375C18.4685 14.0625 18.3748 15.4219 19.031 16.1094C19.906 17.0312 21.1716 17.0156 22.031 16.0312ZM57.9685 15.9375C58.656 16.7656 59.3591 16.9688 60.2029 16.6406C60.5703 16.5071 60.8867 16.2622 61.1081 15.94C61.3294 15.6178 61.4445 15.2346 61.4373 14.8438C61.4186 14.4266 61.2678 14.0261 61.0065 13.7003C60.7453 13.3745 60.3873 13.1402 59.9841 13.0312C59.2498 12.8281 58.6091 13.0625 58.0935 13.8125H58.8123C59.0728 13.8019 59.3337 13.8071 59.5935 13.8281C60.2029 13.9219 60.656 14.4531 60.5779 15.0156C60.4998 15.5781 60.0779 15.9062 59.4998 15.9375H57.9685Z" fill="#1A87C9"/>
<path d="M25.8282 19.7188C26.0626 20.0312 26.3907 19.875 26.6876 19.9063C27.8439 20 29.0314 19.6719 30.1564 20.2031C29.4533 20.6406 28.5626 20.6562 27.8439 21.2344C31.3282 22.5781 34.7658 23.8281 38.1408 25.2187C39.3595 25.7031 40.3908 25.75 41.6251 25.25C45.0783 23.8438 48.5783 22.5938 52.0626 21.2812C52.2501 21.5469 52.5314 21.4531 52.7814 21.4531H56.172V30.25H54.0939V22.7813L53.4845 22.9688L42.1095 27.2656C41.0314 27.6719 41.0314 27.6719 41.0314 28.7812C41.0314 29 41.0158 29.2031 41.0001 29.4219H38.922C38.922 29.0156 38.8751 28.6094 38.9064 28.2188C38.9376 27.8281 38.7658 27.6406 38.4064 27.5C35.7814 26.5313 33.172 25.5156 30.547 24.5156L25.8751 22.75V31.2344C24.3439 31.3125 22.8282 31.1094 21.3126 31.375C21.1564 31.4063 20.9845 31.3906 20.8907 31.5625C20.1876 31.25 19.5157 31.3125 18.8126 31.6406C18.3751 31.875 17.8907 32.0938 17.3595 32.1094C17.1407 31.8125 16.8126 31.8125 16.4689 31.8125H13.9845C13.7657 31.7969 13.5001 31.875 13.3751 31.5938C14.1407 31.4375 14.3439 30.9375 14.2345 30.2188C14.1251 29.5 14.5001 28.7813 14.0939 28.375C13.6876 27.9688 12.9376 28.2812 12.3282 28.2812H8.07825C7.26575 28.2812 6.87512 27.8906 6.87512 27.0781C6.8595 24.6406 6.87512 22.2188 6.89075 19.7969H8.96887C8.9845 21.7344 9.00012 23.6563 8.9845 25.5938C8.96887 26.1406 9.09387 26.3281 9.672 26.3125C11.4845 26.2656 13.3126 26.2969 15.1251 26.2969C16.1876 26.2969 16.5001 26.625 16.5001 27.7031C16.5001 28.7813 16.5001 29.4375 16.5001 30.3906C17.3907 30.0156 18.2032 29.6875 18.9845 29.3281C19.2514 29.2063 19.541 29.142 19.8344 29.1393C20.1278 29.1366 20.4185 29.1956 20.6876 29.3125L23.8751 30.5312V28.8438C23.8751 26.3281 23.8751 23.8281 23.8595 21.3281C23.8439 20.7344 24.0626 20.3281 24.6251 20.125L25.8282 19.7188Z" fill="#1A87C9"/>
<path d="M71.0937 20.9061C71.0807 20.813 71.0755 20.7189 71.0781 20.6249C71.1875 19.953 70.9375 19.6093 70.2968 19.2968C69.4427 18.9056 68.7647 18.2106 68.395 17.3469C68.0253 16.4833 67.9903 15.5129 68.2968 14.6249C68.9218 12.828 70.8906 11.6718 72.7343 12.0155C74.5781 12.3593 76.1875 14.0936 76.0156 16.078C75.8906 17.4843 75.2812 18.7343 73.8593 19.2811C72.9531 19.6249 73.2968 20.3124 73.1875 20.9061H71.0937ZM71.0781 17.4218C71.0781 16.8436 71.0625 16.4061 71.0781 15.9686C71.0937 15.2343 71.5 14.7968 72.125 14.8124C72.75 14.828 73.1875 15.2811 73.2031 15.9686C73.2187 16.4061 73.2031 16.8436 73.2031 17.3436C74.2031 16.4843 74.2968 15.3749 73.5468 14.5624C72.7968 13.7499 71.4218 13.7655 70.7031 14.578C69.9843 15.3905 70.0937 16.6249 71.0781 17.4218Z" fill="#1A87C9"/>
<path d="M8.96859 19.7815H6.89046C6.34359 19.344 5.65609 19.1253 5.15609 18.594C3.84359 17.1878 3.64046 15.0628 4.76546 13.594C5.89046 12.1253 8.17171 11.5003 9.89046 12.4378C11.6092 13.3753 12.4217 15.344 11.703 17.2034C11.5147 17.7006 11.2282 18.1548 10.8604 18.5387C10.4925 18.9226 10.0511 19.2284 9.56234 19.4378C9.35921 19.5315 9.09359 19.5471 8.96859 19.7815ZM8.99984 17.2815C9.79671 16.7971 10.0936 16.2346 9.93734 15.5784C9.83507 15.1532 9.60506 14.7696 9.27823 14.4791C8.9514 14.1886 8.54343 14.0051 8.10921 13.9534C7.71793 13.9199 7.32655 14.0166 6.99593 14.2285C6.66532 14.4405 6.414 14.7557 6.28109 15.1253C6.1349 15.5018 6.11212 15.9151 6.21603 16.3055C6.31994 16.6958 6.54516 17.0431 6.85921 17.2971C6.85921 16.8128 6.85921 16.3753 6.87484 15.9378C6.89046 15.5003 7.35921 14.7971 7.96859 14.8128C8.57796 14.8284 8.96859 15.2346 8.98421 15.9221C8.99984 16.3596 8.99984 16.7971 8.99984 17.2815Z" fill="#1A87C9"/>
<path d="M71.0938 20.9062H73.1875C73.1875 22.875 73.2188 24.8594 73.2031 26.8281C73.1875 28.0156 72.75 28.4062 71.5625 28.4062H66.2813C65.8125 28.3906 65.6562 28.5312 65.6875 29C65.7187 29.4688 65.6719 29.9375 65.6719 30.4062L63.6719 30.375C63.6875 29.3906 63.6875 28.4062 63.7031 27.4219C63.7188 26.4375 64.0781 26.2969 64.8438 26.2812C66.7188 26.2812 68.6094 26.2656 70.4844 26.2969C70.9375 26.2969 71.0938 26.1719 71.0938 25.7031C71.0625 24.1094 71.0938 22.5 71.0938 20.9062Z" fill="#1A87C9"/>
<path d="M76.2969 54.0625C75.5469 54.0313 74.7969 54.1563 74.0625 53.9375C73.9062 53.8906 73.7969 53.8438 73.7656 53.6875C74.1875 53.5781 74.2031 53.2656 74.2031 52.9219C74.2031 50.2813 74.2031 47.625 74.2187 44.9844H76.2969V54.0625Z" fill="#1A87C9"/>
<path d="M63.2812 30.2661C63.0469 30.5161 62.75 30.5473 62.4375 30.5473H57.7656C57.4844 30.5473 57.1875 30.5942 57.0312 30.2661C57.8594 29.7973 58.7656 29.5317 59.6406 29.1723C59.9547 29.0598 60.299 29.0654 60.6094 29.1879C61.5 29.5161 62.3906 29.9067 63.2812 30.2661Z" fill="#1A87C9"/>
<path d="M6.29687 53.6719C5.84375 53.625 5.875 53.2812 5.875 52.9531V45.2031C5.875 44.9375 5.85938 44.6875 5.84375 44.4219V37.4844L10.4219 39.2031C13.0156 40.1875 15.6094 41.2031 18.2188 42.1562C18.7969 42.3594 18.9844 42.6563 18.9219 43.2188C18.9035 43.5729 18.9087 43.9278 18.9375 44.2812V58.4688L6.29687 53.6719ZM12.0938 43.1563C11.3281 43.1563 10.75 44.0469 11.125 44.6875C12.2969 46.7813 13.5156 48.8594 14.7344 50.9375C15.0156 51.4063 15.4844 51.5 15.9687 51.2656C16.2063 51.1508 16.3888 50.9468 16.4766 50.6981C16.5644 50.4493 16.5503 50.1759 16.4375 49.9375C15.2812 47.8438 14.1094 45.75 12.9219 43.6562C12.8386 43.5087 12.7185 43.3851 12.5735 43.2975C12.4284 43.2099 12.2631 43.1613 12.0938 43.1563ZM13.6719 51.625C13.6875 51.3125 13.5156 51.0781 13.375 50.8438C12.5 49.3125 11.6094 47.7969 10.7187 46.2656C10.4844 45.8594 10.2656 45.4375 10 45.0469C9.73437 44.6562 9.04687 44.3125 8.60937 44.5625C8.17187 44.8125 8 45.4375 8.32812 46.0469C8.65625 46.6563 8.78125 46.875 9.01562 47.2813C9.92188 48.8906 10.8437 50.4844 11.75 52.0781C12.0312 52.5937 12.4687 52.75 13 52.5938C13.5312 52.4375 13.6406 52.0938 13.6719 51.625Z" fill="#76CBEE"/>
<path d="M74.2187 44.9844C74.2031 47.625 74.2031 50.2813 74.2031 52.9219C74.2031 53.2656 74.1875 53.5781 73.7656 53.6875L61.9531 58.1563L61.125 58.4375V42.875C61.125 42.625 61.1719 42.4219 61.4531 42.3281L74.0625 37.5625L74.2031 37.5938L74.2187 44.9844ZM64.5312 51.3594C64.7676 51.3479 64.9909 51.2474 65.1562 51.0781C65.2768 50.9678 65.382 50.8416 65.4687 50.7031L68.8594 45C69.2188 44.4063 69.0625 43.7969 68.5469 43.4531C68.4342 43.3766 68.3075 43.3232 68.1741 43.2959C68.0407 43.2686 67.9032 43.268 67.7695 43.2942C67.6359 43.3203 67.5087 43.3727 67.3954 43.4483C67.2821 43.5238 67.1849 43.6211 67.1094 43.7344C65.9062 45.7812 64.7031 47.8281 63.5469 49.9062C63.1719 50.5781 63.7656 51.3906 64.5312 51.3594ZM67.2812 52.6406C67.5048 52.6554 67.7277 52.604 67.9222 52.4928C68.1167 52.3817 68.2742 52.2157 68.375 52.0156C68.9219 51 69.5 50 70.0781 49C70.6562 48 71.1562 47.125 71.6719 46.1562C71.9688 45.625 71.7969 44.8594 71.4062 44.625C71.0156 44.3906 70.2188 44.5469 69.9531 45C68.7448 47.0833 67.5573 49.1771 66.3906 51.2813C66.0625 51.8906 66.5781 52.6562 67.2812 52.6406Z" fill="#76CBEE"/>
<path d="M41 29.4219C41.0156 29.2031 41.0313 29 41.0313 28.7812C41.0313 27.6719 41.0313 27.6719 42.1094 27.2656L53.4844 22.9687L54.0938 22.7812V30.2656C54.2188 31.0469 53.8438 31.375 53.1094 31.6562C50.375 32.6563 47.6563 33.7344 44.9375 34.7969C44.0469 35.1406 43.8594 35.4219 43.8594 36.375V42.3281C43.8594 42.7187 43.8906 43 43.3438 42.6875C42.8514 42.4103 42.3265 42.1951 41.7812 42.0469C41.1875 41.875 41 41.5781 41.0156 40.9531C41.0313 37.1094 41.0156 33.2656 41 29.4219Z" fill="#76CBEE"/>
<path d="M25.875 31.2344V22.75L30.5469 24.5156C33.1719 25.5156 35.7812 26.5312 38.4062 27.5C38.7656 27.6406 38.9375 27.8125 38.9062 28.2188C38.875 28.625 38.9219 29.0156 38.9219 29.4219C38.9219 33.2812 38.8906 37.1562 38.9219 41.0156C38.9219 41.5938 38.7344 41.8594 38.2031 42C37.6719 42.1406 36.8281 42.4531 36.0625 42.7187V36.4375C36.0625 35.2969 36 35.1875 34.9375 34.7656L25.875 31.2344Z" fill="#76CBEE"/>
<path d="M56.1719 55.625H54.2344V49.6719L51.3125 50.7656L41.7344 54.3281C41.7306 54.2875 41.7186 54.2482 41.6989 54.2125C41.6793 54.1767 41.6525 54.1455 41.6203 54.1205C41.588 54.0956 41.551 54.0776 41.5115 54.0676C41.472 54.0576 41.4308 54.0559 41.3906 54.0625H38.6719C38.6317 54.0559 38.5905 54.0576 38.551 54.0676C38.5115 54.0776 38.4745 54.0956 38.4422 54.1205C38.41 54.1455 38.3832 54.1767 38.3636 54.2125C38.3439 54.2482 38.3319 54.2875 38.3281 54.3281L25.8281 49.6875V55.0469H23.8906C23.875 52.7656 23.875 50.4687 23.8438 48.1875C23.8438 47.7344 24.0312 47.4219 24.4531 47.2656L30.4062 45.0156C30.4688 45.3594 30.75 45.2656 30.9531 45.2812H33.4687C33.8125 45.2656 34.125 45.2812 34.375 45.5625L27.9375 48.1094C30 48.9531 31.9375 49.75 33.9062 50.5156C35.875 51.2812 37.5938 51.9062 39.4219 52.625C39.5823 52.6863 39.7533 52.7151 39.925 52.7097C40.0967 52.7043 40.2656 52.6649 40.4219 52.5937L48.1406 49.6406L52.0625 48.1094C50.2031 47.3906 48.5312 46.7656 46.875 46.1094C46 45.7656 45.0937 45.5156 44.2812 45.0312C44.4219 44.7812 44.6875 44.8594 44.9062 44.8594C45.75 44.8385 46.5938 44.8385 47.4375 44.8594C47.7908 44.8837 48.1409 44.7781 48.4219 44.5625H48.5625C50.875 45.4375 53.2031 46.2969 55.5156 47.1875C55.9844 47.3594 56.2031 47.7188 56.2031 48.2344C56.1875 50.7031 56.1719 53.1562 56.1719 55.625Z" fill="#1A87C9"/>
<path d="M44.2812 45.0313C45.0937 45.5156 46 45.7656 46.875 46.1094C48.5312 46.7656 50.2031 47.3906 52.0625 48.1094L48.1406 49.6406L40.4219 52.5937C40.2656 52.6649 40.0967 52.7043 39.925 52.7097C39.7533 52.7151 39.5823 52.6863 39.4219 52.625C37.5938 51.9062 35.7344 51.2344 33.9062 50.5156C32.0781 49.7969 30 48.9531 27.9375 48.1094L34.375 45.5625C36.125 45.0312 37.7812 44.2813 39.4844 43.625C39.6668 43.553 39.8619 43.5186 40.0579 43.524C40.2539 43.5294 40.4468 43.5743 40.625 43.6562C41.8281 44.1406 43.0625 44.5781 44.2812 45.0313Z" fill="#76CBEE"/>
<path d="M56.1719 55.625C56.1719 53.1562 56.1875 50.7031 56.2032 48.25C56.2032 47.7344 55.9844 47.375 55.5157 47.2031C53.2032 46.3125 50.875 45.4531 48.5625 44.5781H48.4219C47.7813 44.1562 47 44.1406 46.3438 43.7813C46.2289 43.7374 46.1316 43.6571 46.0667 43.5527C46.0018 43.4483 45.9729 43.3255 45.9844 43.2031C46 41.3437 45.9844 39.4844 45.9844 37.5156L48.3907 38.3906L58.6094 42.2344C58.9219 42.3594 59.25 42.4375 59.1875 42.8906V58.4688L56.4375 57.4219C56.1719 57.3281 56.1875 57.1094 56.1875 56.9062C56.1875 56.7031 56.1719 56.0469 56.1719 55.625Z" fill="#76CBEE"/>
<path d="M30.4061 45.0156L24.453 47.2656C24.0311 47.4219 23.8436 47.7344 23.8436 48.1875C23.8749 50.4687 23.8749 52.7656 23.8905 55.0469C23.8905 55.6562 23.8749 56.2812 23.8749 56.8906C23.8749 57.0938 23.8905 57.3281 23.6405 57.4219L20.8749 58.4531V44.2812C20.5624 42.75 21.3749 42.1875 22.7186 41.7187C26.3749 40.4531 29.9686 39.0312 33.578 37.6719L34.078 37.5156V41.6875C34.078 43.5937 34.078 43.5937 32.2968 44.2656C31.6561 44.5 31.0311 44.7656 30.4061 45.0156Z" fill="#76CBEE"/>
<path d="M17.3594 32.1093C17.8906 32.0937 18.375 31.8749 18.8125 31.6406C19.5156 31.3124 20.1875 31.2499 20.8906 31.5624L31.4531 35.6249L32.2188 35.9218L30 36.7656L20.4531 40.3906C20.1719 40.4999 19.9219 40.6093 19.5781 40.4843C15.7344 38.9999 11.875 37.5468 8.03125 36.0781C7.92543 36.0335 7.82568 35.9758 7.73438 35.9062C9.875 34.9218 12.0469 34.2499 14.2344 33.3749V36.0624C14.25 36.8437 14.6562 37.3281 15.3437 37.3437C16.0312 37.3593 16.4844 36.8281 16.5 36.0937C16.5418 35.2451 16.5366 34.3948 16.4844 33.5468C16.4219 32.7968 16.5938 32.2968 17.3594 32.1093Z" fill="#76CBEE"/>
<path d="M65.6875 33.3595L72.3438 35.922L69.9062 36.8595L60.5937 40.3907C60.4124 40.4652 60.2179 40.5022 60.0218 40.4995C59.8258 40.4969 59.6324 40.4545 59.4531 40.3751C55.875 38.9845 52.2813 37.6251 48.7031 36.2501C48.4844 36.172 48.2812 36.0626 47.9062 35.9064L49.0312 35.4689L59.625 31.4376C59.7952 31.3641 59.9787 31.3262 60.1641 31.3262C60.3495 31.3262 60.5329 31.3641 60.7031 31.4376C61.5156 31.797 62.3437 32.1407 63.1875 32.4376C63.5781 32.5782 63.7344 32.7814 63.7187 33.2189C63.6875 34.1251 63.7031 35.047 63.7031 35.9689C63.7031 36.8907 64.0312 37.3282 64.6719 37.3439C65.3125 37.3595 65.6875 36.8751 65.6875 35.9376V33.3595Z" fill="#76CBEE"/>
<path d="M20.875 44.2812V54.4844H18.9375V44.2812H20.875Z" fill="#1A87C9"/>
<path d="M59.1875 52.7969V42.875H61.1406V52.7969H59.1875Z" fill="#1A87C9"/>
<path d="M41.7342 54.3281L51.3123 50.7656L54.2342 49.6719V55.625C54.2185 58.7344 54.2029 61.8438 54.2185 64.9531C54.2342 65.5313 54.0467 65.7656 53.531 65.9688L41.5467 70.5938C41.3787 70.6538 41.2063 70.7008 41.031 70.7344V67.8594C41.031 63.7344 41.0467 59.6094 41.0154 55.4688C40.9998 54.8594 41.1248 54.4844 41.7342 54.3281Z" fill="#76CBEE"/>
<path d="M25.8281 55.0469V49.6875L38.3281 54.3281C38.9375 54.4844 39.0625 54.8594 39.0625 55.4688C39.0312 60.2812 39.0469 65.1094 39.0469 69.9219V70.7812L34.5156 69.0469C31.8437 68.0156 29.2031 66.9688 26.5312 65.9688C26 65.7656 25.8281 65.5 25.8437 64.9375C25.8906 62.9844 25.8594 61.0156 25.8594 59.0625C25.8594 57.7188 25.8438 56.3906 25.8281 55.0469Z" fill="#76CBEE"/>
<path d="M52.0625 21.2812C48.5781 22.5937 45.0781 23.8437 41.625 25.2499C40.3906 25.7499 39.3594 25.7031 38.1406 25.2187C34.7656 23.8281 31.3281 22.5781 27.8438 21.2343C28.5625 20.6562 29.4531 20.6406 30.1563 20.2031C31.2656 19.9218 32.3281 19.4374 33.4063 19.0312C33.875 18.8437 34.25 18.8281 34.7031 19.1093C35.5156 19.6406 36.375 20.0937 37.2188 20.5468C38.0625 20.9999 38.4219 20.7499 38.75 20.2031C39.0781 19.6562 38.8594 19.1093 38.2812 18.7499C37.7031 18.3906 37.2969 18.1406 36.6719 17.7656L39.8906 16.5781C39.9434 16.5577 39.9998 16.5486 40.0563 16.5512C40.1128 16.5539 40.1682 16.5684 40.2188 16.5937L43.3906 17.7812L41.8906 18.6093C41.1719 19.0156 40.9688 19.5937 41.3281 20.2499C41.6875 20.9062 42.375 20.9687 43 20.5937C43.875 20.0937 44.75 19.5468 45.6094 19.0156C45.8438 18.8749 46.0312 18.7812 46.3125 18.9062L51.8437 21.0312C51.9687 21.0937 52.0469 21.1562 52.0625 21.2812Z" fill="#76CBEE"/>
<path d="M22.0311 16.0308C21.1718 17.0152 19.9061 17.0308 19.0311 16.109C18.3749 15.4215 18.5468 14.0308 19.3436 13.3746C20.1405 12.7183 21.2968 12.8277 21.9843 13.8121H21.1874C19.953 13.8121 19.453 14.1246 19.4843 14.8902C19.5155 15.6558 19.9686 15.9371 21.2186 15.9371C21.4686 15.9371 21.7343 15.8746 22.0311 16.0308Z" fill="white"/>
<path d="M57.9688 15.9379H59.5C60.0781 15.9067 60.5 15.6254 60.5781 15.0161C60.6563 14.4067 60.2031 13.9223 59.5937 13.8286C59.3339 13.8076 59.073 13.8024 58.8125 13.8129H58.0937C58.6094 13.0629 59.25 12.8286 59.9844 13.0317C60.3875 13.1406 60.7456 13.375 61.0068 13.7008C61.268 14.0266 61.4188 14.427 61.4375 14.8442C61.4447 15.235 61.3296 15.6183 61.1083 15.9405C60.887 16.2626 60.5705 16.5076 60.2031 16.6411C59.3594 16.9692 58.6562 16.7661 57.9688 15.9379Z" fill="white"/>
<path d="M71.0784 17.4219C70.094 16.6251 69.9846 15.3907 70.7034 14.5782C71.4221 13.7657 72.7815 13.7501 73.5471 14.5626C74.3127 15.3751 74.2034 16.4844 73.2034 17.3438C73.2034 16.8438 73.219 16.4063 73.2034 15.9688C73.1877 15.2813 72.7502 14.8282 72.1252 14.8126C71.5002 14.7969 71.094 15.2344 71.0784 15.9688C71.0627 16.4063 71.0784 16.8438 71.0784 17.4219Z" fill="white"/>
<path d="M8.99981 17.2809C8.99981 16.7965 8.99981 16.359 8.98419 15.9215C8.96856 15.234 8.56231 14.8122 7.96856 14.8122C7.37481 14.8122 6.89044 15.2653 6.87481 15.9372C6.85919 16.609 6.85919 16.8122 6.85919 17.2965C6.54513 17.0425 6.31991 16.6952 6.216 16.3049C6.11209 15.9145 6.13488 15.5012 6.28106 15.1247C6.41398 14.7551 6.66529 14.4399 6.9959 14.2279C7.32652 14.016 7.71791 13.9193 8.10919 13.9528C8.5434 14.0045 8.95137 14.188 9.2782 14.4785C9.60503 14.769 9.83505 15.1526 9.93731 15.5778C10.0936 16.234 9.79669 16.7965 8.99981 17.2809Z" fill="white"/>
<path d="M12.0939 43.1562C12.2633 43.1613 12.4285 43.2099 12.5736 43.2975C12.7187 43.3851 12.8387 43.5087 12.922 43.6562C14.1095 45.75 15.2814 47.8437 16.4376 49.9375C16.5505 50.1759 16.5645 50.4493 16.4767 50.6981C16.3889 50.9468 16.2064 51.1508 15.9689 51.2656C15.4845 51.5 15.0157 51.4062 14.7345 50.9375C13.5157 48.8594 12.297 46.7812 11.1251 44.6875C10.7501 44.0469 11.3282 43.1562 12.0939 43.1562Z" fill="#EB6409"/>
<path d="M13.6717 51.6248C13.6405 52.0935 13.4686 52.4685 12.9998 52.5935C12.5311 52.7185 12.0311 52.5935 11.7498 52.0779C10.8436 50.4842 9.92171 48.8904 9.01546 47.281C8.78109 46.8748 8.54671 46.4685 8.32796 46.0467C8.10921 45.6248 8.12484 44.8279 8.60921 44.5623C9.09359 44.2967 9.64046 44.5154 9.99984 45.0467C10.3592 45.5779 10.4842 45.8592 10.7186 46.2654C11.6092 47.7967 12.4998 49.3123 13.3748 50.8435C13.5155 51.0779 13.6873 51.3123 13.6717 51.6248Z" fill="#EB6409"/>
<path d="M64.5315 51.3598C63.7659 51.391 63.1721 50.5785 63.5471 49.9066C64.7034 47.8285 65.9065 45.7816 67.1096 43.7348C67.1851 43.6214 67.2824 43.5242 67.3957 43.4486C67.509 43.3731 67.6361 43.3207 67.7698 43.2946C67.9034 43.2684 68.0409 43.269 68.1743 43.2963C68.3078 43.3236 68.4345 43.377 68.5471 43.4535C69.0627 43.7973 69.219 44.4066 68.8596 45.0004L65.469 50.7035C65.3822 50.842 65.2771 50.9682 65.1565 51.0785C64.9911 51.2478 64.7679 51.3483 64.5315 51.3598Z" fill="#EB6409"/>
<path d="M67.2814 52.6404C66.5782 52.656 66.0626 51.8904 66.3907 51.281C67.5678 49.1768 68.7553 47.0831 69.9532 44.9997C70.2189 44.5466 71.0001 44.3904 71.4064 44.6247C71.8126 44.8591 71.9689 45.6247 71.672 46.156C71.1564 47.1247 70.6095 48.0466 70.0782 48.9997C69.547 49.9529 68.922 50.9997 68.3751 52.0154C68.2743 52.2154 68.1168 52.3814 67.9223 52.4926C67.7278 52.6037 67.5049 52.6551 67.2814 52.6404Z" fill="#EB6409"/>
</svg>
