<svg width="80" height="80" viewBox="0 0 80 80" fill="none" xmlns="http://www.w3.org/2000/svg">
<path d="M55.8594 42.2656C57.75 42.2656 59.6406 42.2187 61.5312 42.25C63.4219 42.2812 64.4531 43.7187 64.5 45.6719C64.5156 46.1562 64.5 46.6406 64.5 47.125C64.5 47.6094 64.4375 47.9531 64.3906 48.3594H5.5625V44.6094C6.32812 42.7969 7.15625 42.25 9.125 42.25H44.9062C44.9531 43.1094 45.3437 43.4844 46.2969 43.4844H54.3594C55.25 43.4844 55.5938 43.1875 55.8594 42.2656Z" fill="#D0D8DA"/>
<path d="M36.1562 76.5781H33.7812C33.6406 76.3906 33.4219 76.3906 33.2188 76.3281C32.1745 76.0265 31.2337 75.4426 30.5 74.6406C29.2188 73.2969 28.8281 71.6406 28.8125 69.8594C28.7969 64.75 28.7969 59.6406 28.7812 54.5312H28.9219C28.9219 55.5625 28.9375 56.5781 28.9063 57.5938C28.8906 58.0469 29 58.25 29.5156 58.25C33.375 58.2187 37.25 58.2344 41.125 58.2188C41.125 62.3438 41.1719 66.4531 41.125 70.5625C41.1272 71.4545 40.9273 72.3355 40.5403 73.1392C40.1533 73.9429 39.5893 74.6486 38.8906 75.2031C38.0781 75.875 37.1094 76.2031 36.1562 76.5781Z" fill="#F08137"/>
<path d="M60.7498 58.2188C60.7498 62.4062 60.7811 66.5937 60.7342 70.7812C60.703 73.3281 58.953 75.5156 56.4998 76.2969C56.2967 76.375 56.0467 76.375 55.8905 76.5781H53.5311C53.2655 76.4844 53.0155 76.375 52.7498 76.2969C50.3436 75.5312 48.5623 73.2969 48.5311 70.7656C48.4842 66.5937 48.5311 62.4062 48.5311 58.2188H60.7498Z" fill="#F08137"/>
<path d="M16.4061 76.5781H14.1874C14.0683 76.5128 13.9426 76.4605 13.8124 76.4219C11.0155 75.5781 9.26551 73.4531 9.21864 70.5469C9.14051 66.4375 9.20301 62.3281 9.21864 58.2188H21.4374C21.4374 62.4062 21.453 66.5937 21.4218 70.7812C21.4061 72.4844 20.6561 73.8906 19.4061 75.0469C18.5468 75.8594 17.4843 76.2188 16.4061 76.5781Z" fill="#F08137"/>
<path d="M12.9062 27.4844C12.9062 23.9531 12.9219 20.4063 12.9062 16.875C12.9062 15.6719 12.4688 15.2656 11.25 15.2656H5.5625V10.2656H12.5156C13.9688 10.2812 15.2969 10.6562 16.3438 11.75C17.3906 12.8438 17.7969 14.0156 17.7969 15.4531V27.4531L12.9062 27.4844Z" fill="#1A87C9"/>
<path d="M9.17188 54.5C8.84375 54.5 8.53125 54.4844 8.20313 54.5C6.90625 54.5781 6.10938 53.8906 5.5625 52.8125V49.6094H23C23.9219 49.6094 23.9063 49.6094 23.9219 50.5469C23.9375 51.4844 23.7344 52.7344 24.4844 53.6875C24.0156 54.3438 23.3281 54.5 22.5625 54.5H9.17188Z" fill="#959A9B"/>
<path d="M24.4844 53.6875C23.7344 52.7344 23.9375 51.625 23.9219 50.5469C23.9063 49.4688 23.9219 49.6094 23 49.6094H5.5625V48.3594H64.375C64.6094 48.75 64.4219 49.1875 64.5 49.6094H54.6875C51.5938 49.6094 48.5 49.625 45.3906 49.6094C44.9219 49.5938 44.7344 49.7187 44.75 50.2187C44.7969 50.9531 44.7812 51.7031 44.7969 52.4375C44.7422 52.8946 44.5326 53.3192 44.2031 53.6406C43.7188 53.1875 43.5469 52.5938 43.5312 51.9531C43.5156 51.3125 43.5 50.75 43.5312 50.1562C43.5625 49.5625 43.375 49.6094 42.9688 49.6094H25.6875C25.2969 49.6094 25.1562 49.7344 25.1562 50.125C25.1719 50.9531 25.1562 51.7969 25.1406 52.625C24.9531 53 24.8906 53.4531 24.4844 53.6875Z" fill="#696F7A"/>
<path d="M68.125 27.4844C68.125 24.2969 68.1407 21.1094 68.125 17.9063C68.1094 14.2969 65.7032 11.3125 62.1875 10.5C58.6719 9.68754 54.6719 12.0313 53.7657 15.5782C53.1719 17.9063 53.0157 17.6719 51.0157 17.6719H49.8282C48.9844 17.6407 48.4688 17.0157 48.5938 16.1875C49.4844 9.68754 55.0313 5.01566 61.5313 5.45316C66.9532 5.82816 71.3907 9.73441 72.7032 14.9688C72.959 16.0965 73.0849 17.2499 73.0782 18.4063C73.1094 21.4375 73.0938 24.4844 73.0938 27.5157L68.125 27.4844Z" fill="#1A87C9"/>
<path d="M56.1406 32.4062C55.7969 34.6719 55.4687 36.9531 55.125 39.2188C54.9687 40.2188 54.8125 41.2188 54.6406 42.2188H46.0156L44.5156 32.4062H56.1406Z" fill="#1A87C9"/>
<path d="M44.7968 52.4378C44.7812 51.7034 44.7968 50.9534 44.7499 50.219C44.7343 49.719 44.9218 49.594 45.3905 49.6097C48.4999 49.6253 51.5937 49.6097 54.6874 49.6097H64.4843V51.6722C64.4687 53.5315 63.5312 54.4847 61.6874 54.5003H47.7812C46.0155 54.5003 45.3905 54.0628 44.7968 52.4378Z" fill="#959A9B"/>
<path d="M68.125 27.4843H75.2969C76.2344 27.4999 76.7188 27.953 76.7344 28.8749C76.75 29.7968 76.75 30.3593 76.7344 31.0936C76.7188 31.828 76.25 32.328 75.4844 32.3593C74.7188 32.3905 73.9063 32.3905 73.125 32.3905H65.6406C65.3906 30.9218 64.9531 29.4999 64.5156 28.078V32.4374C64.5 33.4686 64.5 34.5155 64.4844 35.5468C64.4772 35.825 64.4458 36.1021 64.3906 36.3749C64.3276 36.6572 64.165 36.9074 63.9325 37.0795C63.7001 37.2517 63.4134 37.3344 63.125 37.3124C62.8316 37.2863 62.5575 37.1548 62.3536 36.9422C62.1496 36.7296 62.0296 36.4504 62.0156 36.1561C61.9844 35.4374 62 34.7186 62 34.0155V24.0155C62.0156 23.0624 62.5625 22.5311 63.4062 22.6249C64.25 22.7186 64.4531 23.2186 64.4844 24.0155C64.5156 24.8124 64.5 25.9218 64.4688 26.8593C64.4531 27.328 64.5625 27.5311 65.0781 27.4999C66.0938 27.4843 67.1094 27.4999 68.125 27.4843Z" fill="#959A9B"/>
<path d="M56.1406 32.4062H44.5156C44.2969 30.9531 44.0937 29.5 43.8437 28.0469C43.6562 26.9687 44.1562 26.2656 45.2656 26.2656H55.3906C56.5156 26.2656 57.0312 26.9844 56.8281 28.1094C56.5781 29.5312 56.375 30.9687 56.1406 32.4062Z" fill="#D0D8DA"/>
<path d="M12.9064 27.4844H17.797L18.8908 27.5156C19.9377 27.4844 20.6564 28 21.2345 28.7969C21.5002 29.625 21.547 30.4531 21.1408 31.2656C20.3283 32.5156 19.0627 32.4375 17.8127 32.4062H11.6408C10.2658 32.375 9.20329 31.3281 9.18767 30C9.17204 28.6719 10.2658 27.5781 11.6564 27.5313L12.9064 27.4844Z" fill="#959A9B"/>
<path d="M72.9844 32.4062H73.1251C73.0782 33.3281 73.1407 34.2656 73.0157 35.1875C72.9631 35.7428 72.7004 36.257 72.2813 36.625C72.1367 36.735 72.0232 36.8807 71.952 37.0478C71.8808 37.2149 71.8543 37.3977 71.8751 37.5781C71.8751 40.2188 71.8594 42.8594 71.8594 45.4844C71.8594 48.1094 70.3282 49.5938 67.7657 49.5938H64.5001C64.4219 49.1719 64.6094 48.7344 64.3751 48.3438C64.4376 47.9375 64.2657 47.5 64.5001 47.1094H67.8282C68.9376 47.1094 69.3594 46.6719 69.3751 45.5469C69.3751 43.0938 69.3907 40.6406 69.3907 38.2031C69.6961 38.3632 70.0309 38.4596 70.3747 38.4865C70.7185 38.5133 71.0641 38.4701 71.3907 38.3594C71.9063 38.1719 71.7188 37.7188 71.7344 37.3438C71.7501 36.9688 71.5626 37.1094 71.3907 37.1875C70.7032 37.5156 70.0469 37.2969 69.3907 37.0781C68.1719 36.2188 68.0001 34.9688 68.1563 33.6094C69.3751 33.6094 70.5938 33.625 71.8126 33.6094C73.0313 33.5938 73.0001 33.8906 72.9844 32.4062Z" fill="#1A87C9"/>
<path d="M10.4375 42.25V38.9375C10.4375 37.7812 10.8438 37.3594 12 37.3594H18.7812C19.7969 37.375 20.25 37.8125 20.2656 38.8438C20.2812 39.875 20.2656 41.1094 20.2656 42.2344L10.4375 42.25Z" fill="#959A9B"/>
<path d="M48.4844 54.5H60.7969L60.75 58.2188H48.5313L48.4844 54.5Z" fill="#EB6409"/>
<path d="M21.1406 31.2653C21.5469 30.4528 21.5 29.6247 21.2344 28.7966C22.3281 28.781 23.4062 28.7497 24.5 28.7653C25 28.781 25.2188 28.656 25.1719 28.1091C25.125 27.5622 25.1563 26.906 25.1719 26.3122C25.1875 25.7185 25.6406 25.0935 26.3281 25.0778C27.0156 25.0622 27.3906 25.3122 27.5625 25.9685C27.6296 26.2396 27.6662 26.5173 27.6719 26.7966C27.6563 28.8903 27.6563 30.9997 27.6719 33.1091C27.6723 33.4064 27.6249 33.7019 27.5312 33.9841C27.3281 34.5935 26.9375 34.9216 26.2969 34.8747C25.9953 34.8379 25.7166 34.6952 25.5106 34.4719C25.3045 34.2487 25.1845 33.9595 25.1719 33.656C25.1563 32.8435 25.1562 32.031 25.1562 31.2185V29.0466C24.7344 29.7497 24.1719 30.3747 24.0937 31.2341L21.1406 31.2653Z" fill="#D0D8DA"/>
<path d="M17.7969 37.3438H12.8906C12.9062 36.1094 12.9062 34.875 12.9219 33.625H17.7812C17.7812 34.8594 17.7969 36.0938 17.7969 37.3438Z" fill="#1A87C9"/>
<path d="M46.0156 42.2188H54.6406L55.8594 42.2656C55.5938 43.1875 55.25 43.4844 54.3594 43.4844H46.2969C45.3437 43.4844 44.9531 43.1094 44.9062 42.25L46.0156 42.2188Z" fill="#959A9B"/>
<path d="M17.7813 33.625H12.9219C12.75 33.2344 12.9062 32.8125 12.8125 32.4062H17.8125C17.7969 32.8125 17.7969 33.2188 17.7813 33.625Z" fill="#016BB1"/>
<path d="M72.9844 32.4062C73 33.8906 73.1094 33.6094 71.8125 33.625C70.5156 33.6406 69.375 33.625 68.1563 33.625L68.1094 32.3906L72.9844 32.4062Z" fill="#016BB1"/>
<path d="M64.5156 32.4531V28.0938C64.9531 29.5156 65.3906 30.9375 65.6406 32.4062L64.5156 32.4531Z" fill="#696F7A"/>
<path d="M69.3906 37.0938C70.0469 37.3125 70.7031 37.5313 71.3906 37.2031C71.5625 37.125 71.7344 37.125 71.7344 37.3594C71.7344 37.5938 71.9062 38.1875 71.3906 38.375C71.064 38.4857 70.7184 38.5289 70.3746 38.5021C70.0308 38.4752 69.6961 38.3788 69.3906 38.2188V37.0938Z" fill="#016BB1"/>
<path d="M24.0938 31.2344C24.1719 30.375 24.7344 29.75 25.1563 29.0469V31.2188L24.0938 31.2344Z" fill="#959A9B"/>
<path d="M25.1406 52.625C25.1562 51.7969 25.1719 50.9531 25.1563 50.125C25.1563 49.7344 25.2969 49.6094 25.6875 49.6094H42.9688C43.375 49.6094 43.5469 49.7188 43.5313 50.1562C43.5156 50.5938 43.5156 51.3594 43.5313 51.9531C43.5469 52.5469 43.7188 53.1875 44.2031 53.6406C43.6719 54.3594 42.9063 54.5312 42.0625 54.5H33.4063L28.9219 54.5312H28.7813C28.6094 54.5312 28.4219 54.4844 28.2344 54.5C26.7344 54.6562 25.7188 54 25.1406 52.625Z" fill="#959A9B"/>
<path d="M28.9218 54.5156L33.4062 54.4844H41.1718L41.1249 58.2031C37.2499 58.2031 33.3749 58.1875 29.5156 58.2187C28.9999 58.2187 28.8906 58.0156 28.9062 57.5625C28.9374 56.5625 28.9218 55.5469 28.9218 54.5156Z" fill="#EB6409"/>
<path d="M9.17188 54.5H21.5469C21.4375 55.7344 21.6406 56.9844 21.4375 58.2344H9.21875L9.17188 54.5Z" fill="#EB6409"/>
</svg>
