<svg width="80" height="80" viewBox="0 0 80 80" fill="none" xmlns="http://www.w3.org/2000/svg">
<path d="M69.1094 44.75L61.8437 44.7813H8.35938C5.5 44.7813 4.48438 44.1094 3.46875 41.5156V30.1094H11.3125V30.1406C11.3125 32.8594 11.3281 35.5938 11.3125 38.3125C11.3125 38.8594 11.2188 39.4375 12.0781 38.9688C12.2656 38.875 12.5469 38.9375 12.7812 38.9375H67.2656C68.4844 38.9375 69.125 39.5625 69.125 40.7656C69.125 41.9687 69.1094 43.4219 69.1094 44.75Z" fill="#EB6409"/>
<path d="M11.3125 30.0938H3.46875V7.46875C3.96875 5.96875 4.79687 4.8125 6.42187 4.42187C6.59924 4.36668 6.78313 4.33516 6.96875 4.32813C9.40625 4.29688 11.8437 4.375 14.2812 4.20312C14.2812 4.46875 14.0469 4.46875 13.8906 4.53125C13.1344 4.82115 12.4836 5.33291 12.0235 5.99935C11.5634 6.6658 11.3156 7.45579 11.3125 8.26563C11.2969 15.5312 11.3125 22.8125 11.3125 30.0938Z" fill="#1A87C9"/>
<path d="M11.3125 30.094C11.3125 22.8128 11.2969 15.5315 11.3125 8.26588C11.3156 7.45605 11.5634 6.66606 12.0235 5.99961C12.4836 5.33317 13.1344 4.82141 13.8906 4.53151C14.0469 4.46901 14.2812 4.46901 14.2812 4.20338C14.9531 4.12526 15.5937 4.34401 16.25 4.34401C34.9375 4.32838 53.6094 4.34401 72.2969 4.29713C72.8377 4.29297 73.3739 4.39642 73.8744 4.60147C74.3748 4.80651 74.8295 5.10904 75.2119 5.49147C75.5943 5.87389 75.8969 6.32856 76.1019 6.82901C76.307 7.32946 76.4104 7.8657 76.4062 8.40651C76.3594 15.6409 76.375 22.8753 76.375 30.1253L61.8594 30.094C61.8594 29.3596 61.8125 28.6253 61.875 27.8909C62 26.2815 60.25 24.7971 58.8281 24.8128C49.0156 24.8596 39.2031 24.8284 29.4062 24.844C28.9688 24.8596 28.5469 24.5784 28.1094 24.8284H21.2344C19.2187 24.8284 18 26.0471 18 28.0315C18 28.719 17.9844 29.4065 17.9844 30.094L11.2969 30.1253L11.3125 30.094ZM63.5938 13.7346H68.3594C68.9688 13.719 69.5469 13.5784 70.0156 13.1878C70.9687 12.4065 71.2812 11.3909 70.9219 10.3596C70.5625 9.32838 69.5938 8.62526 68.3906 8.60963C65.25 8.59401 62.0938 8.57838 58.9375 8.60963C57.5313 8.60963 56.2969 9.85963 56.2969 11.1721C56.2969 12.4846 57.5 13.7346 58.9844 13.7346H63.5938Z" fill="#76CBEE"/>
<path d="M61.8595 30.0938L76.3751 30.125C76.3751 33.7187 76.3907 37.3125 76.3751 40.9062C76.3595 42.9844 74.6563 44.6875 72.5157 44.75C71.3751 44.7969 70.2344 44.75 69.1095 44.75C69.1095 43.4219 69.1251 42.0937 69.1251 40.7656C69.1251 39.4375 68.4845 38.9375 67.2657 38.9375H12.7657C12.5313 38.9375 12.2501 38.875 12.0626 38.9687C11.2032 39.4375 11.297 38.8594 11.297 38.3125C11.3126 35.5937 11.297 32.8594 11.297 30.1406L17.9845 30.1094H61.8595V30.0938ZM39.9845 33.5156H38.1251C37.5157 33.5312 37.1563 33.875 37.0938 34.4688C37.0741 34.6104 37.0841 34.7545 37.1231 34.8921C37.1621 35.0296 37.2293 35.1576 37.3204 35.2678C37.4115 35.378 37.5245 35.468 37.6523 35.5322C37.7801 35.5964 37.9198 35.6333 38.0626 35.6406C39.297 35.6875 40.5313 35.6719 41.7657 35.6406C42.3751 35.625 42.7969 35.0937 42.7813 34.4844C42.7657 33.875 42.2969 33.5312 41.6876 33.5156H39.9845Z" fill="#F08137"/>
<path d="M26.4062 72.3594C26.4062 73.125 26.4062 73.875 26.3905 74.625C26.3749 75.375 25.9843 75.8281 25.3124 75.8281C24.6405 75.8281 24.2499 75.4688 24.2499 74.625C24.2499 73.7812 24.2343 73.3437 24.2499 72.7031C24.2499 72.3437 24.1405 72.2031 23.7968 72.4219L23.6874 72.5C22.828 72.9844 22.203 72.9062 21.8437 72.2656C21.4843 71.625 21.703 71.1094 22.5624 70.6094L23.3593 70.1406C24.2968 69.6406 24.3905 69.4375 24.2499 68.3906C24.203 68.0938 24.0312 67.9531 23.7968 67.8125C23.1631 67.4869 22.5476 67.127 21.953 66.7344C21.3437 66.3281 20.8593 66.3125 20.2499 66.75C19.8749 67.0156 19.6562 67.2187 19.703 67.7031C19.7499 68.1875 19.7187 68.7812 19.703 69.3281C19.6874 69.875 19.2499 70.4062 18.6249 70.4062C17.9999 70.4062 17.5937 70.0625 17.5624 69.3594C17.4999 68.375 17.4999 68.375 16.6249 68.8594C16.2187 69.0938 15.8124 69.3438 15.3905 69.5625C14.6718 69.9219 14.078 69.7656 13.7499 69.1562C13.4218 68.5469 13.6562 68.0469 14.3437 67.625C15.0312 67.2031 15.3749 67.0312 15.8905 66.7344C16.4062 66.4375 16.4062 66.4219 15.9218 66.1406C14.9843 65.5937 14.7812 65.0312 15.1718 64.3906C15.5624 63.75 16.1249 63.7344 17.0312 64.2344C17.3925 64.4154 17.7421 64.6189 18.078 64.8437C18.4687 65.1406 18.7812 65.0469 19.1718 64.8594C19.8124 64.5625 20.0937 64.1562 20.0155 63.4219C19.9374 62.6875 19.9999 62.0937 19.9999 61.4219C19.9843 60.4844 18.8905 59.8594 18.078 60.3125L16.5937 61.1406C16.3522 61.2722 16.0691 61.305 15.8039 61.2321C15.5388 61.1593 15.3122 60.9865 15.1718 60.75C14.8437 60.2187 14.9843 59.6406 15.4999 59.25C16.328 58.6562 16.328 58.6562 15.453 58.1562C14.9947 57.9119 14.5512 57.6406 14.1249 57.3437C13.6562 56.9844 13.4218 56.5156 13.7812 55.9219C14.1405 55.3281 14.7187 55.2187 15.3124 55.5469C15.9062 55.875 16.4687 56.1875 17.0312 56.5312C17.5937 56.875 17.5937 56.6875 17.5468 56.2187C17.5468 56.0625 17.5468 55.8906 17.5624 55.7187C17.6093 55.0781 17.9687 54.7344 18.6093 54.7344C18.8834 54.7256 19.1503 54.8231 19.3541 55.0066C19.558 55.19 19.683 55.4452 19.703 55.7187C19.7343 56.1244 19.7343 56.5318 19.703 56.9375C19.5937 57.7344 19.7968 58.2812 20.6093 58.5937C20.953 58.7344 21.1874 58.8594 21.5624 58.6094C22.2655 58.1406 23.0312 57.7656 23.7812 57.3281C24.5312 56.8906 24.4687 55.6562 23.8124 55.25C23.1562 54.8437 22.8124 54.7031 22.328 54.4062C21.8437 54.1094 21.5312 53.4687 21.828 52.8906C22.1249 52.3125 22.7343 52.1406 23.4218 52.4687C23.5533 52.5298 23.6789 52.6031 23.7968 52.6875C24.203 52.9844 24.2499 52.75 24.2499 52.3906C24.2343 51.7344 24.2343 51.0625 24.2499 50.3906C24.2655 49.7187 24.6718 49.25 25.2499 49.25C25.828 49.25 26.3905 49.7812 26.3905 50.4531C26.3905 51.125 26.3905 52 26.3905 52.7969C26.8124 52.7812 27.0468 52.5312 27.3593 52.4062C27.9218 52.1875 28.5312 52.375 28.7812 52.8594C29.0312 53.3437 28.9687 53.9219 28.4374 54.2812C27.9834 54.5864 27.5141 54.8681 27.0312 55.125C26.8232 55.2319 26.6481 55.3931 26.5242 55.5914C26.4004 55.7898 26.3325 56.0179 26.3277 56.2516C26.3229 56.4854 26.3814 56.7161 26.4969 56.9194C26.6125 57.1226 26.7809 57.2909 26.9843 57.4062L29.078 58.625C29.6718 58.9688 30.9062 58.3125 30.9374 57.6094C30.9687 56.9062 30.9218 56.4219 30.9374 55.8281C30.953 55.2344 31.2968 54.75 31.9687 54.7344C32.6405 54.7187 33.0312 55.1406 33.0937 55.8437C33.1093 56.1094 33.0155 56.4062 33.203 56.7344L35.1562 55.5937C35.828 55.2187 36.453 55.3281 36.7812 55.8594C37.1093 56.3906 36.9687 57.0625 36.3124 57.4844C35.6562 57.9062 35.2499 58.125 34.7187 58.4062C34.1874 58.6875 34.2968 58.7656 34.6874 58.9844C34.8922 59.1017 35.0858 59.2377 35.2655 59.3906C35.6718 59.7812 35.7812 60.25 35.4218 60.7344C35.0624 61.2188 34.6405 61.4531 34.0624 61.1406L32.3905 60.2187C31.7343 59.875 30.6562 60.5312 30.6562 61.2656C30.6562 62 30.6405 63.0156 30.6562 63.8906C30.6718 64.7656 31.7655 65.25 32.3905 64.9219C33.0155 64.5937 33.4687 64.2969 34.0155 64.0312C34.1332 63.9614 34.2636 63.9156 34.3992 63.8966C34.5347 63.8777 34.6727 63.8859 34.805 63.9208C34.9374 63.9557 35.0615 64.0166 35.17 64.0999C35.2786 64.1833 35.3695 64.2874 35.4374 64.4062C35.7968 64.9688 35.6249 65.4375 35.1562 65.8437C34.9218 66.0781 34.3905 66.125 34.4687 66.5C34.5468 66.875 34.9843 66.8906 35.2655 67.0625C35.5468 67.2344 36.0624 67.4844 36.4218 67.7344C36.55 67.8095 36.6616 67.91 36.7497 68.0297C36.8378 68.1494 36.9005 68.2858 36.9342 68.4305C36.9678 68.5753 36.9716 68.7254 36.9453 68.8716C36.919 69.0179 36.8631 69.1573 36.7812 69.2812C36.4843 69.7656 35.9218 69.9219 35.3593 69.625C34.7968 69.3281 33.9218 68.8281 33.1874 68.4219C33.0312 68.75 33.1093 69.0312 33.0937 69.3125C33.0312 70 32.5937 70.4375 31.953 70.4062C31.3124 70.375 30.9687 70.0312 30.9374 69.2969C30.9062 68.5625 30.9374 68.2188 30.9374 67.6719C30.9218 66.8281 29.7343 66.125 29.0155 66.5469C28.2968 66.9687 27.5312 67.4062 26.7968 67.8438C26.0624 68.2812 26.2187 69.5625 26.8437 69.9219L28.2187 70.6875C28.9218 71.1094 29.1093 71.6719 28.7812 72.2969C28.453 72.9219 27.8437 72.9687 27.1562 72.6406C26.9374 72.5312 26.7343 72.3281 26.4062 72.3594ZM28.3124 62.5625C28.7812 61.1719 28.1093 60.375 26.8905 59.9062L26.7655 59.8281C25.7812 58.9844 24.9218 59.2031 23.8124 59.7969C22.703 60.3906 22.1874 61.2344 22.1874 62.6094C22.1874 63.9844 22.6093 64.625 23.7499 65.3125C24.8905 66 25.7812 65.9531 26.9062 65.2812C28.0312 64.6094 28.7812 63.9531 28.3124 62.5625Z" fill="#76CBEE"/>
<path d="M53.4531 52.8754V50.4847C53.4687 49.7504 53.9062 49.266 54.5469 49.2504C55.1875 49.2347 55.5937 49.7191 55.6094 50.5004V52.4847C55.5937 52.8597 55.75 52.891 56.0312 52.7347C56.3125 52.5785 56.3594 52.516 56.5156 52.4379C57.125 52.1566 57.7031 52.3129 58 52.8597C58.2969 53.4066 58.2031 53.9222 57.6719 54.2816C57.1406 54.641 56.6562 54.891 56.1406 55.1879C55.3437 55.6566 55.3594 56.9066 56.1562 57.3754C56.9531 57.8441 57.6406 58.2347 58.3906 58.641C59.1406 59.0472 60.125 58.2816 60.1406 57.6254C60.1562 56.9691 60.1406 56.4379 60.1562 55.8441C60.1719 55.2504 60.6094 54.7191 61.2656 54.7347C61.9219 54.7504 62.2656 55.1097 62.2969 55.8129C62.3437 56.7816 62.3437 56.7816 63.1875 56.2972C63.6406 56.0316 64.0937 55.766 64.5625 55.5316C65.0312 55.2972 65.7031 55.3754 66.0469 55.891C66.3906 56.4066 66.25 56.9535 65.7656 57.3129C65.2812 57.6722 64.4687 58.1097 63.8281 58.5004C63.7337 58.5658 63.6448 58.639 63.5625 58.7191L64.3906 59.2816C64.6372 59.4287 64.8152 59.6678 64.8855 59.9461C64.9559 60.2245 64.9127 60.5194 64.7656 60.766C64.6185 61.0126 64.3795 61.1906 64.1011 61.2609C63.8227 61.3312 63.5278 61.2881 63.2812 61.141C62.75 60.8754 62.25 60.5629 61.7344 60.266C61.2187 59.9691 59.875 60.5004 59.8594 61.266C59.8437 62.0316 59.8437 63.0316 59.8594 63.9066C59.875 64.7816 61.0781 65.266 61.7031 64.9066C62.3281 64.5472 62.7187 64.2972 63.2344 64.016C63.75 63.7347 64.4062 63.9066 64.7031 64.4379C65 64.9691 64.8594 65.5316 64.3125 65.9222C63.5 66.5004 63.5 66.4847 64.3906 66.9847C64.8526 67.226 65.3011 67.492 65.7344 67.7816C66.1875 68.1097 66.4062 68.5785 66.1094 69.141C66.0507 69.2708 65.9665 69.3875 65.8618 69.4842C65.7571 69.5808 65.634 69.6554 65.4999 69.7035C65.3658 69.7516 65.2234 69.7722 65.0811 69.7642C64.9389 69.7561 64.7997 69.7195 64.6719 69.6566C64.0511 69.3581 63.4509 69.0188 62.875 68.641C62.4062 68.3441 62.2969 68.4691 62.2969 68.9847C62.2969 70.0472 62 70.4066 61.2344 70.4066C61.0989 70.4129 60.9635 70.3924 60.836 70.3463C60.7085 70.3003 60.5913 70.2295 60.4911 70.138C60.391 70.0466 60.3099 69.9363 60.2524 69.8135C60.1949 69.6907 60.1623 69.5577 60.1562 69.4222C60.125 68.9535 60.1406 68.4691 60.1406 68.0004C60.1406 67.141 59.6875 66.5472 58.875 66.3441C58.8081 66.3287 58.7386 66.3277 58.6713 66.3412C58.6039 66.3546 58.5402 66.3823 58.4844 66.4222C57.6562 66.9066 56.8281 67.3597 56.0156 67.8441C55.4375 68.2035 55.4062 69.4847 55.9844 69.8441C56.5625 70.2035 56.9687 70.4066 57.4531 70.7035C58.1719 71.141 58.3437 71.7191 57.9844 72.3129C57.625 72.9066 57.0156 73.0004 56.3125 72.5941C55.6094 72.1879 55.6094 72.1879 55.6094 73.0316C55.6094 73.6254 55.625 74.2191 55.6094 74.8129C55.5937 75.4066 55.2187 75.8129 54.5781 75.8285C53.9375 75.8441 53.4844 75.4379 53.4687 74.7972C53.4531 74.1566 53.4531 73.1879 53.4531 72.3754C53.0625 72.3285 52.8281 72.6097 52.5312 72.7191C51.9531 72.9379 51.3594 72.7972 51.0937 72.3129C51.0147 72.1941 50.9607 72.0604 50.9351 71.92C50.9096 71.7796 50.913 71.6355 50.9452 71.4965C50.9774 71.3575 51.0377 71.2265 51.1224 71.1116C51.207 70.9968 51.3142 70.9004 51.4375 70.8285C51.9531 70.4847 52.5 70.2035 53.0312 69.891C53.5625 69.5785 53.6562 68.2191 53.0781 67.8597C52.5 67.5004 51.5781 66.9535 50.8125 66.5316C50.0469 66.1097 48.9375 66.8285 48.9219 67.641C48.9062 68.2035 48.9375 68.7816 48.9062 69.3441C48.875 69.9066 48.5469 70.3754 47.9219 70.4066C47.7802 70.4173 47.6378 70.3998 47.5029 70.3552C47.3681 70.3107 47.2433 70.2399 47.1359 70.147C47.0284 70.054 46.9404 69.9408 46.8768 69.8137C46.8133 69.6867 46.7755 69.5483 46.7656 69.4066C46.7344 69.1097 46.7656 68.7972 46.7656 68.3597C45.9687 68.8129 45.2812 69.2035 44.5781 69.5785C43.875 69.9535 43.3594 69.7816 43.0469 69.2504C42.7344 68.7191 42.875 68.0941 43.5312 67.6879C44.1875 67.2816 44.625 67.016 45.1875 66.7191C45.75 66.4222 45.5469 66.3754 45.2031 66.1722C45.0143 66.0707 44.8363 65.9503 44.6719 65.8129C44.1719 65.391 44.0781 64.8754 44.4531 64.3754C44.8281 63.8754 45.25 63.7191 45.8125 64.016C46.375 64.3129 46.9219 64.641 47.5 64.9379C48.0781 65.2347 49.1875 64.6097 49.2031 63.9222C49.2187 63.2347 49.2187 62.1254 49.2031 61.2191C49.1875 60.3129 48.1094 59.891 47.5 60.2035C46.8906 60.516 46.4219 60.8129 45.875 61.0941C45.7533 61.1665 45.6184 61.2139 45.4782 61.2335C45.3379 61.253 45.1952 61.2443 45.0584 61.208C44.9216 61.1716 44.7934 61.1082 44.6814 61.0216C44.5694 60.9349 44.4758 60.8268 44.4062 60.7035C44.0781 60.2191 44.2031 59.6879 44.7187 59.266C45.5 58.641 45.5156 58.641 44.625 58.1097C44.2344 57.8754 43.8281 57.6722 43.4531 57.4222C43.0781 57.1722 42.7344 56.4535 43.0469 55.891C43.3594 55.3285 43.9844 55.2035 44.5937 55.5472C45.2031 55.891 45.9375 56.3285 46.6719 56.7347C46.8125 56.4222 46.75 56.141 46.7656 55.8754C46.8125 55.1722 47.2187 54.7347 47.8594 54.7347C48.5 54.7347 48.8906 55.0941 48.9219 55.8754C48.9401 56.2034 48.9349 56.5324 48.9062 56.8597C48.7969 57.7191 49.0469 58.2972 49.9219 58.641C50.2656 58.766 50.5 58.8129 50.8125 58.6254C51.5625 58.1722 52.3281 57.7504 53.0781 57.2816C53.8281 56.8129 53.625 55.5941 53.0469 55.2504C52.4687 54.9066 51.9687 54.641 51.4531 54.2972C50.9375 53.9535 50.7656 53.3754 51.0937 52.8285C51.4219 52.2816 51.9531 52.1879 52.5312 52.4222L53.4531 52.8754ZM57.5312 62.5785C57.9844 61.1722 57.2344 60.516 56.0937 59.8285C54.9531 59.141 54.1094 59.2035 52.9844 59.8441C51.8594 60.4847 51.4062 61.1722 51.3906 62.5316C51.375 63.891 51.8281 64.6566 53.0312 65.3285C54.2344 66.0004 54.9375 66.016 56.0625 65.3285C57.1875 64.641 58 64.016 57.5312 62.5785Z" fill="#76CBEE"/>
<path d="M61.8595 30.0933H25.8282C25.8282 29.3589 25.8126 28.6245 25.8282 27.9058C25.8751 26.3589 26.7501 25.4058 28.1095 24.8276C28.547 24.5776 28.9689 24.8589 29.4064 24.8433C39.2032 24.8276 49.0157 24.8589 58.8282 24.812C60.2501 24.7964 62.0001 26.2808 61.8751 27.8901C61.8126 28.6245 61.8595 29.3589 61.8595 30.0933Z" fill="#46AFE4"/>
<path d="M63.5939 13.7348H58.9845C57.5001 13.7348 56.3126 12.5942 56.297 11.1723C56.2814 9.75046 57.5314 8.60984 58.9376 8.60984C62.0939 8.57859 65.2501 8.59421 68.3908 8.60984C69.5939 8.62546 70.5783 9.34421 70.922 10.3598C71.2658 11.3755 70.9689 12.4067 70.0158 13.188C69.547 13.5786 68.9689 13.7192 68.3595 13.7348H63.5939Z" fill="#46AFE4"/>
<path d="M28.1094 24.8281C26.75 25.4062 25.875 26.3594 25.8281 27.9063C25.8125 28.625 25.8281 29.3594 25.8281 30.0938H17.9844C17.9844 29.4063 18 28.7188 18 28.0312C18 26.0469 19.2187 24.8281 21.2344 24.8281H28.1094Z" fill="#1A87C9"/>
<path d="M39.9844 33.5156H41.6876C42.2969 33.5312 42.7501 33.9375 42.7813 34.4844C42.8126 35.0312 42.3751 35.625 41.7657 35.6406C40.5313 35.6719 39.2969 35.6875 38.0626 35.6406C37.9198 35.6333 37.78 35.5964 37.6523 35.5322C37.5245 35.468 37.4115 35.378 37.3204 35.2678C37.2293 35.1576 37.1621 35.0296 37.1231 34.8921C37.0841 34.7545 37.0741 34.6104 37.0938 34.4688C37.1563 33.875 37.5157 33.5312 38.1251 33.5156H39.9844Z" fill="#DCEDFB"/>
</svg>
