<svg width="80" height="80" viewBox="0 0 80 80" fill="none" xmlns="http://www.w3.org/2000/svg">
<path d="M69.0156 14.5938C66.5625 14.5938 64.4375 16.0938 63.4218 18.25C62.2472 17.7676 60.9476 17.6799 59.7187 18L38.7343 23.6094C37.2475 24.0086 35.9798 24.9814 35.2094 26.3142C34.439 27.6471 34.2288 29.2311 34.625 30.7188C35.0242 32.2056 35.997 33.4733 37.3298 34.2437C38.6627 35.0141 40.2467 35.2243 41.7343 34.8281L62.7031 29.2344C64.0415 28.8788 65.2066 28.0521 65.9843 26.9062C66.9026 27.4481 67.9493 27.734 69.0156 27.7344C72.4687 27.7344 75.2656 24.7969 75.2656 21.1719C75.2656 17.5469 72.4687 14.5938 69.0156 14.5938Z" fill="#1A87C9"/>
<path d="M49.5469 41.2969C56.0794 41.2969 61.375 35.2038 61.375 27.6875C61.375 20.1712 56.0794 14.0781 49.5469 14.0781C43.0144 14.0781 37.7188 20.1712 37.7188 27.6875C37.7188 35.2038 43.0144 41.2969 49.5469 41.2969Z" fill="#504F4F"/>
<path d="M49.0312 39.0156C54.6231 39.0156 59.1562 33.9648 59.1562 27.7344C59.1562 21.5039 54.6231 16.4531 49.0312 16.4531C43.4394 16.4531 38.9062 21.5039 38.9062 27.7344C38.9062 33.9648 43.4394 39.0156 49.0312 39.0156Z" fill="#D0D8DA"/>
<path d="M48.875 35.8437C52.9826 35.8437 56.3125 32.1361 56.3125 27.5625C56.3125 22.9889 52.9826 19.2812 48.875 19.2812C44.7674 19.2812 41.4375 22.9889 41.4375 27.5625C41.4375 32.1361 44.7674 35.8437 48.875 35.8437Z" fill="#504F4F"/>
<path d="M43.1876 64.0312L29.9532 66.7031C26.0939 66.1406 22.0626 65.4688 17.8595 64.625C14.172 63.8906 10.6407 63.0781 7.29699 62.2344C7.20324 60.7656 7.20324 59.4531 7.20324 58.1406C7.21887 55.8281 7.12512 54.0469 7.12512 54.0469L4.39074 51.3594C4.39074 51.3594 4.17199 48.3906 4.78137 43.9219C5.07824 41.6875 5.75012 38.0937 6.76574 35.2187C8.43762 30.5 8.98449 28 10.8751 26.3281C12.3126 25.0156 13.8751 24.3906 15.547 23.7344C18.1407 22.7031 20.3907 22.3906 22.047 22.1719C23.5245 21.9899 25.0115 21.896 26.5001 21.8906C28.4376 22.1406 27.4689 22 32.8595 22.7187L43.2814 24.0937L48.9532 24.75L49.0001 27.4219H49.4376L49.5782 60.3281C49.5782 60.3281 44.2189 64.0312 43.1876 64.0312Z" fill="#F08137"/>
<path d="M55.2812 56.7812L49.4219 60.3125V36.8906H50.0781C53.2969 36.8906 55.625 39.5625 55.5938 42.7812V46.5938L55.3281 46.8594L55.2812 56.7812Z" fill="#EB6409"/>
<path d="M49.4219 27.609C46.7032 27.2965 39.8438 26.9059 36.0157 31.109C34.4844 32.7965 33.5782 35.0778 31.7813 39.6559C31.0299 41.5869 30.3883 43.5588 29.8594 45.5622C28.7501 49.7809 28.2032 51.8903 28.9063 53.3747C30.3751 56.4215 34.9219 57.0153 36.4063 57.2028C38.2527 57.4336 40.1265 57.3009 41.9219 56.8122L42.0001 60.3122L49.4219 57.0465V27.609Z" fill="#EB6409"/>
<path d="M10.6875 26.25C10.6875 26.25 16.5938 28.1875 21.9531 28.875C29.8438 29.8906 33.8281 29.5937 33.8281 29.5937C33.2344 30.7187 32.5 32.1875 31.7031 33.9062C31.3125 34.7656 30.1875 37.2031 28.7969 40.8437C26.7188 46.25 26.2969 48.4062 26.1562 49.1875C25.4688 53.0156 25.9531 54.2187 26.3594 54.8906C27.5156 56.7812 29.6562 57.0312 29.5312 57.625C29.4062 58.2187 26.4063 58.3125 22.3906 58.1094C19.6875 57.9688 18.1406 57.8906 15.9531 57.3594C12.9844 56.6562 11.0156 55.6406 8.78125 54.4844C4.73438 52.4063 4.09375 50.9219 4.09375 50.9219C4.125 49.5312 4.21875 47.7344 4.4375 45.6406C4.62996 43.5443 4.95351 41.4621 5.40625 39.4062C6.00559 36.6848 6.86366 34.0269 7.96875 31.4687C8.75178 29.6677 9.66026 27.9238 10.6875 26.25Z" fill="#EB6409"/>
</svg>
