<svg width="116" height="115" viewBox="0 0 116 115" fill="none" xmlns="http://www.w3.org/2000/svg">
<path d="M85.6493 108.441H90.748C91.4667 108.441 92.163 108.464 92.4325 109.317C92.7021 110.171 92.2304 110.553 91.6689 110.957H24.5331C23.9716 110.553 23.5448 110.081 23.7919 109.317C24.039 108.554 24.7353 108.441 25.4765 108.441H85.6493Z" fill="#696F7A"/>
<path d="M34.5283 36.3867L35.3594 36.3418H80.8428L81.6738 36.3867C82.1006 37.2178 82.1006 38.1162 82.1006 39.0146C82.0706 53.4495 82.0706 67.8994 82.1006 82.3643H79.6074C79.6074 80.8594 79.5625 79.377 79.6074 77.8721C79.6299 77.2207 79.4502 76.9512 78.7314 76.9736C77.249 77.0186 75.7666 77.0186 74.2617 76.9736C73.5879 76.9512 73.3408 77.1982 73.3408 77.8721C73.3857 79.377 73.3633 80.8594 73.3857 82.3643H70.8701C70.8477 80.8594 70.8252 79.377 70.8701 77.8721C70.8701 77.2207 70.7129 76.9512 69.9941 76.9736C68.2871 77.0186 66.6025 76.9961 64.8955 76.9736C64.2217 76.9512 63.9521 77.1982 63.9746 77.8721C64.0195 79.3545 63.9971 80.8594 63.9971 82.3418H61.4814C61.4814 80.8145 61.459 79.2871 61.4814 77.7822C61.5039 77.1309 61.2793 76.9287 60.6504 76.9512H55.5518C54.9453 76.9287 54.6982 77.1309 54.7207 77.7822C54.7432 79.2871 54.7207 80.8145 54.7207 82.3418H52.2051C52.2051 80.8594 52.2051 79.3545 52.2275 77.8721C52.25 77.1982 52.0029 76.9512 51.3066 76.9736C49.6221 76.9961 47.915 77.0186 46.208 76.9736C45.5117 76.9512 45.332 77.2207 45.3545 77.8721C45.377 79.377 45.3545 80.8594 45.3545 82.3643H42.8389C42.8389 80.8594 42.8164 79.377 42.8613 77.8721C42.8838 77.1982 42.6367 76.9512 41.9404 76.9736C40.458 77.0186 38.9531 77.0186 37.4707 76.9736C36.752 76.9512 36.5947 77.2207 36.5947 77.8721C36.6396 79.377 36.6172 80.8594 36.6172 82.3643H34.1016C34.1315 67.9294 34.139 53.4795 34.124 39.0146C34.124 38.1162 34.124 37.2178 34.5283 36.3867ZM70.8477 60.667C70.8477 59.6338 70.8252 58.5781 70.8477 57.5449C70.8701 57.0283 70.7129 56.7813 70.1514 56.7813H64.7383C64.1992 56.7813 63.9746 57.0059 63.9746 57.5225C63.9971 59.5889 63.9971 61.6328 63.9746 63.6768C63.9746 64.2607 64.1992 64.4854 64.7832 64.4854C66.5576 64.4629 68.332 64.4629 70.084 64.4854C70.6904 64.4854 70.8701 64.2607 70.8701 63.6992C70.8252 62.6885 70.8477 61.6777 70.8477 60.667ZM52.2275 60.5996C52.2275 59.5889 52.2051 58.5781 52.2275 57.5898C52.25 57.0059 52.0029 56.7813 51.4189 56.7813H46.1182C45.6016 56.7813 45.332 56.916 45.3545 57.4775C45.3844 59.5589 45.3844 61.6478 45.3545 63.7441C45.332 64.373 45.624 64.4854 46.1631 64.4854C47.915 64.4629 49.6445 64.4629 51.374 64.4854C52.0254 64.4854 52.25 64.2383 52.2275 63.6318C52.2051 62.6211 52.2275 61.6103 52.2275 60.5996ZM52.2275 70.8193C52.2275 69.8311 52.2051 68.8203 52.2275 67.8096C52.25 67.2031 52.0928 66.9336 51.4189 66.9561C49.667 67.001 47.8926 66.9785 46.1182 66.9561C45.5342 66.9561 45.332 67.1582 45.3545 67.7422C45.377 69.7412 45.377 71.7627 45.3545 73.7617C45.3545 74.2783 45.4893 74.5254 46.0508 74.5029H51.5537C52.0479 74.5254 52.25 74.3232 52.2275 73.8291C52.2051 72.8408 52.2275 71.8301 52.2275 70.8193ZM63.9746 70.6396C63.9746 71.6504 63.9971 72.6387 63.9746 73.6494C63.9521 74.2334 64.0869 74.5254 64.7607 74.5254C66.5352 74.4805 68.3096 74.4805 70.0615 74.5029C70.6455 74.5254 70.8701 74.3457 70.8701 73.7393C70.8252 71.7402 70.8252 69.7412 70.8701 67.7197C70.8701 67.1133 70.623 66.9561 70.0615 66.9561C68.3096 66.9785 66.5352 67.001 64.7607 66.9561C64.0869 66.9561 63.9521 67.248 63.9746 67.832C63.9971 68.7754 63.9746 69.6963 63.9746 70.6396ZM70.8477 50.5371C70.8477 49.5264 70.8252 48.5156 70.8701 47.5049C70.8926 46.9209 70.6455 46.7412 70.084 46.7412H64.7832C64.2217 46.7412 63.9521 46.876 63.9746 47.5049C63.9971 49.5039 63.9971 51.5254 63.9746 53.5244C63.9746 54.1084 64.1768 54.3105 64.7607 54.3105C66.5352 54.2656 68.2871 54.2656 70.0615 54.3105C70.7354 54.3105 70.8701 54.041 70.8701 53.4346C70.8252 52.4687 70.8477 51.5029 70.8477 50.5371ZM45.3545 50.4922C45.3545 51.5029 45.377 52.5137 45.3545 53.5244C45.332 54.0859 45.5342 54.3105 46.1182 54.3105C47.8926 54.2656 49.667 54.2881 51.4189 54.3105C51.9805 54.3105 52.25 54.1758 52.2275 53.5469C52.2051 51.5479 52.2051 49.5264 52.2275 47.5273C52.25 46.9434 52.0478 46.7412 51.4639 46.7412C49.6895 46.7637 47.915 46.7861 46.1631 46.7412C45.4893 46.7188 45.332 46.9883 45.3545 47.5947C45.377 48.5605 45.3545 49.5264 45.3545 50.4922ZM61.4814 60.6445C61.4814 59.5889 61.459 58.5557 61.4814 57.5225C61.5039 56.9834 61.3018 56.7813 60.7627 56.7813H55.4619C54.9228 56.7813 54.7207 56.9834 54.7207 57.5225C54.7432 59.5889 54.7432 61.6777 54.7207 63.7441C54.7207 64.2832 54.9004 64.4854 55.4395 64.4854C57.2064 64.4554 58.9808 64.4554 60.7627 64.4854C61.2793 64.4854 61.5039 64.3057 61.4814 63.7666C61.459 62.7109 61.4814 61.6777 61.4814 60.6445ZM61.4814 70.8193C61.4814 69.7861 61.459 68.7305 61.4814 67.6973C61.4814 67.248 61.3916 66.9561 60.8525 66.9785H55.3496C54.9004 66.9785 54.7207 67.1582 54.7207 67.585C54.7432 69.6738 54.7432 71.7627 54.7207 73.8291C54.7207 74.3232 54.9004 74.5029 55.3945 74.5029H60.8076C61.3018 74.5029 61.5039 74.3232 61.4814 73.8291C61.459 72.8408 61.4814 71.8301 61.4814 70.8193ZM61.4814 50.5371C61.4814 49.5264 61.459 48.5156 61.4814 47.5049C61.5039 47.0107 61.3691 46.7412 60.7852 46.7412H55.3721C54.8779 46.7412 54.7207 46.9658 54.7207 47.4375C54.7432 49.4814 54.7432 51.5254 54.7207 53.5918C54.7207 54.1309 54.9453 54.3105 55.4619 54.2881C57.1914 54.2881 58.9434 54.2656 60.6728 54.3105C61.3242 54.3105 61.5039 54.0635 61.4814 53.4346C61.459 52.4687 61.4814 51.5029 61.4814 50.5371ZM36.6172 60.6445C36.6172 61.6553 36.6396 62.666 36.5947 63.6768C36.5947 64.2383 36.7295 64.4854 37.3584 64.4854C38.9082 64.4404 40.4805 64.4629 42.0527 64.4854C42.6143 64.4854 42.8613 64.2832 42.8613 63.6992C42.8389 61.6328 42.8389 59.5889 42.8613 57.5449C42.8613 57.0283 42.6592 56.7813 42.1201 56.7813H37.3135C36.7744 56.7813 36.5947 57.0059 36.5947 57.5225C36.6396 58.5781 36.6172 59.6113 36.6172 60.6445ZM79.585 60.7344C79.585 59.6787 79.585 58.6455 79.6074 57.6123C79.6074 57.0508 79.4951 56.7588 78.8662 56.7813C77.2939 56.8262 75.7441 56.8037 74.1719 56.7813C73.6104 56.7813 73.3408 56.9834 73.3633 57.5674V63.7217C73.3408 64.3281 73.6328 64.4854 74.1943 64.4854C75.7441 64.4629 77.3164 64.4629 78.8887 64.4854C79.4277 64.4854 79.6074 64.2832 79.6074 63.7441C79.585 62.7559 79.585 61.7451 79.585 60.7344ZM79.585 50.5371C79.585 49.5039 79.585 48.4707 79.6074 47.415C79.6074 46.9434 79.4502 46.7412 78.9336 46.7412H74.0596C73.498 46.7412 73.3408 46.9658 73.3408 47.4824C73.3633 49.5039 73.3633 51.5029 73.3408 53.502C73.3408 54.0859 73.5205 54.3105 74.1269 54.3105C75.6768 54.2656 77.249 54.2656 78.7988 54.3105C79.4502 54.3105 79.6299 54.0635 79.6074 53.457C79.5625 52.4912 79.585 51.5029 79.585 50.5371ZM42.8389 50.5596C42.8389 49.5488 42.8164 48.5381 42.8613 47.5498C42.8838 46.9883 42.7041 46.7412 42.0977 46.7412C40.5029 46.7861 38.9082 46.7637 37.3135 46.7412C36.7744 46.7412 36.5947 46.9434 36.5947 47.4824C36.6172 49.5264 36.6172 51.5703 36.5947 53.5918C36.5947 54.1758 36.8418 54.3105 37.3584 54.2881H42.1426C42.6816 54.2881 42.8613 54.0859 42.8613 53.5469C42.8389 52.5586 42.8389 51.5479 42.8389 50.5596ZM73.3633 70.6846C73.3633 71.6953 73.3857 72.7061 73.3408 73.6943C73.3408 74.2559 73.4756 74.5254 74.1045 74.5254C75.6992 74.4805 77.2939 74.4805 78.8662 74.5254C79.5176 74.5254 79.6074 74.2334 79.6074 73.6943C79.5924 71.7178 79.5924 69.7412 79.6074 67.7647C79.6074 67.2256 79.4951 66.9561 78.8662 66.9561C77.279 67.001 75.6842 67.001 74.082 66.9561C73.4531 66.9561 73.3408 67.248 73.3408 67.7871C73.3857 68.7529 73.3633 69.7188 73.3633 70.6846ZM42.8389 70.8193C42.8389 69.7861 42.8389 68.7529 42.8613 67.7197C42.8613 67.2031 42.7041 66.9561 42.1426 66.9561C40.5254 67.001 38.9082 66.9785 37.2686 66.9785C36.7744 66.9561 36.5947 67.1582 36.6172 67.6299V73.874C36.5947 74.3906 36.8418 74.5029 37.3135 74.5029H42.1875C42.6816 74.5254 42.8613 74.3232 42.8613 73.8291C42.8389 72.8408 42.8389 71.8301 42.8389 70.8193ZM48.8135 44.248C49.7119 44.248 50.6104 44.2256 51.5088 44.2705C52.4072 44.3154 52.25 44.0684 52.2275 43.5293C52.1976 42.2415 52.1976 40.9613 52.2275 39.6885C52.2275 39.127 52.0703 38.835 51.4639 38.8574H46.0508C45.4893 38.835 45.332 39.1045 45.3545 39.5986C45.377 40.9238 45.377 42.249 45.3545 43.5518C45.332 44.1357 45.5791 44.2705 46.0957 44.2705L48.8135 44.248ZM67.4561 38.8574H64.7607C64.2441 38.835 63.9746 39.0371 63.9746 39.5762C63.9971 40.8789 63.9971 42.2041 63.9746 43.5293C63.9746 44.0459 64.1768 44.2705 64.7158 44.2705C66.5352 44.248 68.332 44.2256 70.1289 44.2705C70.7803 44.2705 70.8701 43.9785 70.8477 43.4395C70.8252 42.2715 70.8027 41.0811 70.8701 39.9131C70.9375 38.7451 70.5781 38.7676 69.7471 38.835C68.916 38.9023 68.2197 38.8574 67.4561 38.8574ZM58.1123 44.248H60.8076C61.3018 44.248 61.4814 44.0684 61.4814 43.5742C61.459 42.2266 61.459 40.8564 61.4814 39.5088C61.4814 39.0146 61.3018 38.8125 60.8076 38.835H55.3945C54.9004 38.8125 54.7207 39.0146 54.7207 39.5088C54.7432 40.8564 54.7432 42.2041 54.7207 43.5742C54.7207 44.0684 54.9004 44.248 55.3945 44.248H58.1123ZM39.5371 44.248C40.5029 44.248 41.2891 44.2256 42.0977 44.2705C42.9062 44.3154 42.8838 44.0459 42.8613 43.4844C42.8389 42.2266 42.8164 40.9687 42.8613 39.7334C42.8838 39.0146 42.5693 38.8125 41.918 38.835C41.2666 38.8574 39.9863 38.8574 38.998 38.8574C36.6172 38.8574 36.5947 38.8574 36.6172 41.2158C36.6396 42.1816 36.2129 43.4395 36.7969 44.0459C37.3809 44.6523 38.7061 44.1582 39.5371 44.248ZM76.2607 44.248C77.2266 44.248 78.0352 44.2256 78.8213 44.2705C79.6074 44.3154 79.6299 44.0684 79.6074 43.4844C79.5625 42.2116 79.5625 40.9313 79.6074 39.6436C79.6299 38.9473 79.3154 38.835 78.7314 38.835C77.7207 38.8799 76.7324 38.8574 75.7217 38.8574C73.3633 38.8574 73.3408 38.8574 73.3633 41.2158C73.3857 42.1816 72.959 43.417 73.543 44.0234C74.127 44.6299 75.4521 44.1357 76.2607 44.248Z" fill="#A9B1BD"/>
<path d="M61.4812 82.3867H87.4461C88.9509 82.4092 90.4783 82.4541 92.0056 82.4316C92.7693 82.4092 93.4207 82.5215 93.9822 83.0605C94.5437 83.5996 93.9373 84.4531 93.9373 85.1719C94.0046 89.8438 93.9822 94.5381 93.9822 99.2324C93.9822 100.692 93.6902 100.984 92.2078 100.984H23.7917C22.6013 100.984 22.2419 100.625 22.2419 99.4346C22.2419 94.6729 22.2195 89.9111 22.2644 85.1719C22.2644 84.4531 21.7029 83.7568 22.2195 83.0605C22.7361 82.3643 23.4548 82.4092 24.2185 82.4316C25.7234 82.4541 27.2507 82.4092 28.7781 82.3867H61.4812ZM57.9998 95.7061H67.905C69.1853 95.7061 69.5896 95.3018 69.5896 94.044C69.5896 92.7861 69.6121 90.8545 69.5896 89.2598C69.5896 88.0244 69.2078 87.6426 67.9949 87.6426H48.0945C46.8591 87.6426 46.4324 88.0918 46.4099 89.3496V94.044C46.4324 95.3018 46.8367 95.7061 48.0945 95.7061H57.9998ZM30.3728 91.6406C30.3547 92.4403 30.4974 93.2354 30.7924 93.9789C31.0874 94.7224 31.5286 95.3991 32.09 95.9689C32.6514 96.5386 33.3215 96.9899 34.0605 97.2958C34.7996 97.6018 35.5925 97.7562 36.3923 97.75C37.9912 97.7502 39.526 97.1212 40.665 95.9991C41.8039 94.8769 42.4556 93.3517 42.4792 91.7529C42.5017 88.3838 39.7839 85.5762 36.4822 85.5537C34.8658 85.5537 33.3152 86.1943 32.1701 87.3352C31.025 88.476 30.3787 90.0242 30.3728 91.6406ZM85.8289 91.708C85.8513 88.3838 83.0662 85.5537 79.7869 85.5537C78.1898 85.5653 76.6608 86.2018 75.5272 87.3269C74.3937 88.452 73.7459 89.9763 73.7224 91.5732C73.7 95.0547 76.3503 97.75 79.7869 97.75C81.3875 97.7441 82.9209 97.1056 84.0527 95.9738C85.1845 94.842 85.8229 93.3086 85.8289 91.708Z" fill="#1A87C9"/>
<path d="M93.9824 83.0376C93.4209 82.4986 92.7695 82.3863 92.0059 82.4087C90.4785 82.4312 88.9512 82.3863 87.4463 82.3638C87.4463 81.9146 87.4688 81.4654 87.4688 81.0161V38.2954C87.4688 37.5991 87.4688 36.9029 86.6826 36.5435L86.6152 36.3863C88.5693 36.3638 90.501 36.3413 92.4551 36.3638C93.5781 36.3638 93.9824 36.7906 93.9824 37.9585V83.0376Z" fill="#1A87C9"/>
<path d="M28.7783 82.3643C27.251 82.3867 25.7236 82.4316 24.2188 82.4092C23.4551 82.3867 22.7813 82.499 22.2197 83.0381V38.0713C22.2197 36.7236 22.6016 36.3418 23.9717 36.3418L29.5869 36.3867C29.5619 36.4357 29.5467 36.4891 29.542 36.5439C28.7334 36.8809 28.7334 37.5771 28.7334 38.2959V81.4434C28.7334 81.7578 28.7559 82.0723 28.7783 82.3643Z" fill="#1A87C9"/>
<path d="M28.7783 82.3643C28.7559 82.0723 28.7334 81.7578 28.7334 81.4434V38.2959C28.7334 37.5771 28.7334 36.8809 29.542 36.5439L29.7441 36.4316L34.5283 36.3867C34.124 37.2178 34.124 38.1162 34.124 39.0146C34.124 53.4495 34.1165 67.8994 34.1016 82.3643H28.7783Z" fill="#D0D8DA"/>
<path d="M86.6826 36.5439C87.4688 36.9033 87.4688 37.5996 87.4688 38.2959V81.0166C87.4688 81.4658 87.4463 81.915 87.4463 82.3643H82.1006C82.1006 67.9294 82.1006 53.4795 82.1006 39.0146C82.1006 38.1162 82.1006 37.2178 81.6738 36.3867L86.458 36.4316L86.6826 36.5439Z" fill="#D0D8DA"/>
<path d="M30.5527 100.984H44.5684C44.3662 101.568 44.1641 102.152 43.9844 102.736C43.4229 104.646 42.5693 106.465 42.2549 108.441H30.5527V100.984Z" fill="#1A87C9"/>
<path d="M71.6562 100.984H85.6494V108.441H73.9473C74.0147 107.947 73.79 107.498 73.6553 107.049C72.9815 105.027 72.3076 103.006 71.6562 100.984Z" fill="#1A87C9"/>
<path d="M78.5291 31.7593C78.3012 31.7756 78.0737 31.722 77.877 31.6056C77.6804 31.4892 77.5239 31.3156 77.4285 31.108C77.3063 30.8938 77.2536 30.6469 77.2777 30.4015C77.3019 30.156 77.4016 29.9241 77.5633 29.7379C78.282 28.7047 79.3152 27.9859 80.1912 27.0875C81.0672 26.189 81.1346 26.0318 80.1687 25.1109C79.2029 24.19 78.6189 23.7183 77.9451 22.9322C76.5974 21.3375 76.6199 20.0347 77.99 18.4849C78.6414 17.7662 79.4051 17.1597 80.1238 16.4859C80.8426 15.8121 81.1346 15.273 80.1238 14.3521C79.1131 13.4312 78.574 12.9595 77.8777 12.1959C76.6424 10.7808 76.6648 9.2984 77.9002 7.90583C79.1355 6.51325 80.1912 5.7945 81.2019 4.58161C81.6512 4.04255 82.2801 4.15485 82.7967 4.55915C83.0311 4.71134 83.1973 4.94866 83.2602 5.22104C83.323 5.49341 83.2776 5.77956 83.1336 6.01911C82.725 6.70991 82.2095 7.33156 81.6062 7.8609C81.0896 8.31012 80.5955 8.80426 80.0564 9.25348C79.5174 9.7027 79.4051 10.2867 80.034 10.8931C80.6629 11.4996 81.9207 12.4205 82.6619 13.4088C83.74 14.8687 83.7849 15.9019 82.6844 17.3619C81.9881 18.2828 81.0896 19.0015 80.2361 19.7652C79.3826 20.5289 79.3152 20.8209 80.1912 21.6744C81.0672 22.5279 81.7635 23.1343 82.4822 23.9205C83.8748 25.4478 83.8523 26.8404 82.4598 28.3453C81.4715 29.4009 80.3933 30.4117 79.3601 31.4224C79.258 31.5401 79.1295 31.632 78.985 31.6906C78.8406 31.7491 78.6844 31.7727 78.5291 31.7593Z" fill="#EB6409"/>
<path d="M34.2589 31.7602C33.2257 31.7153 32.7316 30.7045 33.2931 29.7836C33.8546 28.8627 35.0001 28.0541 35.8537 27.2006C36.7072 26.3471 36.9542 26.0326 35.8537 24.9994C34.7531 23.9662 34.0343 23.4946 33.3605 22.5063C32.6867 21.518 32.507 20.3276 33.2931 19.1371C34.0792 17.9467 34.8654 17.3627 35.7413 16.599C36.9767 15.5209 36.9767 15.3862 35.7863 14.2631C35.1349 13.6567 34.4386 13.0502 33.8322 12.3764C32.3273 10.7592 32.3497 9.3217 33.8322 7.72698C34.8429 6.64885 36.0109 5.77288 36.9318 4.60491C37.3361 4.06584 37.965 4.11077 38.504 4.53752C39.0431 4.96428 39.2003 5.57073 38.8185 6.19963C38.4367 6.82854 37.4933 7.68206 36.7521 8.37835C34.8878 10.1977 34.7531 9.88323 36.8195 11.7924C37.3519 12.2386 37.8476 12.7268 38.3019 13.2524C39.5822 14.892 39.5822 16.1498 38.1896 17.6996C37.4776 18.4565 36.72 19.1691 35.921 19.8334C35.2023 20.4623 35.1574 20.9789 35.8986 21.6303C36.6628 22.2858 37.3902 22.9832 38.0773 23.7192C39.6496 25.3588 39.6271 26.8862 38.0773 28.5483C37.1339 29.5365 35.9884 30.2778 35.1798 31.3783C35.0739 31.5179 34.9329 31.6268 34.7711 31.6939C34.6092 31.761 34.4325 31.7839 34.2589 31.7602Z" fill="#EB6409"/>
<path d="M53.957 15.2733C53.957 16.5985 53.2607 17.3847 52.542 18.1259C51.8859 18.7968 51.1963 19.4341 50.4756 20.0351C49.8691 20.5517 49.9141 21.0009 50.4756 21.495C51.0371 21.9892 52.0478 22.8876 52.7666 23.6288C54.4287 25.3583 54.3838 26.9081 52.7441 28.6376C51.8232 29.581 50.7226 30.3446 49.9141 31.4003C49.8169 31.5155 49.6979 31.6105 49.5639 31.6797C49.43 31.7488 49.2837 31.7909 49.1334 31.8034C48.9832 31.8159 48.832 31.7987 48.6884 31.7526C48.5448 31.7066 48.4118 31.6326 48.2969 31.5351C47.7129 31.1083 47.5781 30.5243 47.9824 29.8954C48.6562 28.8173 49.667 28.0536 50.5879 27.2001C51.5088 26.3466 51.7109 25.9872 50.6103 25.0214C49.5098 24.0556 48.8584 23.539 48.1846 22.5956C47.1963 21.203 47.1963 20.0575 48.3418 18.7323C49.1575 17.8343 50.0197 16.9796 50.9248 16.1718C51.5312 15.6327 51.5537 15.206 50.9473 14.622C50.3408 14.038 48.9482 13.0048 48.207 11.9491C47.4658 10.8935 47.2187 9.56826 48.1621 8.2206C48.8135 7.25478 49.8242 6.64833 50.6103 5.81728C50.8799 5.50283 51.1719 5.21083 51.4189 4.87392C51.666 4.53701 52.5195 4.0204 53.2158 4.51455C53.9121 5.00869 53.8896 5.68251 53.4629 6.33388C53.0361 6.98525 52.0928 7.8163 51.374 8.51259C51.1664 8.74665 50.9411 8.96441 50.7002 9.16396C49.8916 9.7704 49.8916 10.3095 50.6777 10.9833C51.5151 11.7081 52.31 12.4805 53.0586 13.2968C53.6201 13.8808 54.0019 14.577 53.957 15.2733Z" fill="#EB6409"/>
<path d="M68.7365 26.1891C68.714 27.3346 67.9728 28.1656 67.1642 28.9518C66.3556 29.7379 65.4572 30.4566 64.6935 31.3326C63.9298 32.2086 63.6154 31.9615 63.0314 31.5123C62.4474 31.0631 62.3126 30.3893 62.7843 29.7604C63.6154 28.6822 64.6486 27.8063 65.6593 26.8854C66.6701 25.9645 66.2433 25.7623 65.5919 25.2008C64.9406 24.6393 64.087 23.8756 63.3908 23.1568C61.8859 21.5621 61.8634 20.2594 63.2111 18.5524C63.9523 17.609 64.9406 16.9352 65.7716 16.1041C66.6027 15.2731 66.2882 15.1832 65.7716 14.7115C65.255 14.2399 64.2218 13.3414 63.5031 12.6002C61.7736 10.8258 61.796 9.27599 63.5031 7.52403C64.424 6.53575 65.5695 5.79454 66.3556 4.64903C66.7599 4.08751 67.3888 4.10997 67.9503 4.49181C68.5119 4.87364 68.714 5.45763 68.3322 6.10899C67.7257 7.16466 66.7824 7.88341 65.9288 8.692L65.0978 9.47813C64.671 9.90489 64.671 10.3092 65.1427 10.7135C65.6144 11.1178 66.6925 12.1061 67.4337 12.8473C69.1857 14.6441 69.1857 16.1715 67.3888 17.9908L65.5245 19.7877C64.5138 20.7311 64.5138 20.8209 65.4796 21.7418C66.4454 22.6627 66.8947 22.9772 67.546 23.651C68.1974 24.3248 68.7365 25.1109 68.7365 26.1891Z" fill="#EB6409"/>
<path d="M29.7441 36.4312L29.542 36.5435C29.5467 36.4887 29.5619 36.4353 29.5869 36.3862C29.6144 36.3755 29.6447 36.374 29.6731 36.3821C29.7015 36.3903 29.7265 36.4075 29.7441 36.4312Z" fill="#8B8D96"/>
<path d="M86.6826 36.5437L86.458 36.4314C86.4776 36.4102 86.5026 36.3948 86.5303 36.3869C86.558 36.379 86.5874 36.3788 86.6152 36.3865L86.6826 36.5437Z" fill="#8B8D96"/>
<path d="M70.8477 60.667C70.8477 61.6777 70.8252 62.6885 70.8701 63.6992C70.8701 64.2607 70.6904 64.4854 70.084 64.4854C68.332 64.4629 66.5576 64.4629 64.7832 64.4854C64.1992 64.4854 63.9746 64.2607 63.9746 63.6768C63.9971 61.6328 63.9971 59.5889 63.9746 57.5225C63.9746 57.0059 64.1992 56.7812 64.7383 56.7812H70.1514C70.7129 56.7812 70.8701 57.0283 70.8477 57.5449C70.8252 58.5781 70.8477 59.6338 70.8477 60.667Z" fill="#EB6409"/>
<path d="M52.2274 60.5996C52.2274 61.6103 52.2049 62.6211 52.2274 63.6318C52.2498 64.2383 52.0252 64.4854 51.3739 64.4854C49.6444 64.4629 47.9149 64.4629 46.1629 64.4854C45.6239 64.4854 45.3319 64.373 45.3543 63.7441C45.3843 61.6628 45.3843 59.5739 45.3543 57.4775C45.3319 56.916 45.6014 56.7812 46.118 56.7812H51.4188C52.0028 56.7812 52.2498 57.0059 52.2274 57.5898C52.2049 58.5781 52.2274 59.5889 52.2274 60.5996Z" fill="#EB6409"/>
<path d="M52.2277 70.8196C52.2277 71.8304 52.2053 72.8411 52.2277 73.8294C52.2502 74.3236 52.0481 74.5257 51.5539 74.5032H46.051C45.4895 74.5257 45.3547 74.2786 45.3547 73.762C45.3772 71.763 45.3772 69.7415 45.3547 67.7425C45.3322 67.1585 45.5344 66.9564 46.1184 66.9564C47.8928 66.9788 49.6672 67.0013 51.4191 66.9564C52.093 66.9339 52.2502 67.2034 52.2277 67.8099C52.2053 68.8206 52.2277 69.8314 52.2277 70.8196Z" fill="#EB6409"/>
<path d="M63.9745 70.6396C63.9745 69.6963 63.9969 68.7754 63.9745 67.832C63.952 67.248 64.0868 66.9561 64.7606 66.9561C66.535 67.001 68.3094 66.9785 70.0614 66.9561C70.6229 66.9561 70.87 67.1133 70.87 67.7197C70.825 69.7412 70.825 71.7402 70.87 73.7393C70.87 74.3457 70.6454 74.5254 70.0614 74.5029C68.3094 74.4805 66.535 74.4805 64.7606 74.5254C64.0868 74.5254 63.952 74.2334 63.9745 73.6494C63.9969 72.6387 63.9745 71.6504 63.9745 70.6396Z" fill="#EB6409"/>
<path d="M70.8475 50.5371C70.8475 51.5029 70.825 52.4687 70.8699 53.4346C70.8699 54.041 70.7352 54.3105 70.0614 54.3105C68.2869 54.2656 66.535 54.2656 64.7606 54.3105C64.1766 54.3105 63.9744 54.1084 63.9744 53.5244C63.9969 51.5254 63.9969 49.5039 63.9744 47.5049C63.952 46.876 64.2215 46.7412 64.783 46.7412H70.0838C70.6453 46.7412 70.8924 46.9209 70.8699 47.5049C70.825 48.5156 70.8475 49.5264 70.8475 50.5371Z" fill="#EB6409"/>
<path d="M45.3546 50.4925C45.3546 49.5267 45.377 48.5609 45.3546 47.595C45.3321 46.9886 45.4893 46.7191 46.1632 46.7415C47.9151 46.7864 49.6895 46.764 51.4639 46.7415C52.0479 46.7415 52.2501 46.9437 52.2276 47.5277C52.2052 49.5267 52.2052 51.5482 52.2276 53.5472C52.2501 54.1761 51.9805 54.3109 51.419 54.3109C49.6671 54.2884 47.8927 54.2659 46.1182 54.3109C45.5343 54.3109 45.3321 54.0863 45.3546 53.5247C45.377 52.514 45.3546 51.5032 45.3546 50.4925Z" fill="#EB6409"/>
<path d="M61.4814 60.6445C61.4814 61.6777 61.459 62.7109 61.4814 63.7666C61.5039 64.3057 61.2793 64.4854 60.7627 64.4854C58.9808 64.4554 57.2064 64.4554 55.4395 64.4854C54.9004 64.4854 54.7207 64.2832 54.7207 63.7441C54.7432 61.6777 54.7432 59.5889 54.7207 57.5225C54.7207 56.9834 54.9229 56.7812 55.4619 56.7812H60.7627C61.3018 56.7812 61.5039 56.9834 61.4814 57.5225C61.459 58.5557 61.4814 59.5889 61.4814 60.6445Z" fill="#EB6409"/>
<path d="M61.4814 70.8196C61.4814 71.8303 61.459 72.8411 61.4814 73.8293C61.5039 74.3235 61.3018 74.5032 60.8076 74.5032H55.3945C54.9004 74.5032 54.7207 74.3235 54.7207 73.8293C54.7432 71.7629 54.7432 69.6741 54.7207 67.5852C54.7207 67.1584 54.9004 66.9787 55.3496 66.9787H60.8525C61.3916 66.9563 61.4814 67.2483 61.4814 67.6975C61.459 68.7307 61.4814 69.7864 61.4814 70.8196Z" fill="#EB6409"/>
<path d="M61.4814 50.5371C61.4814 51.5029 61.459 52.4687 61.4814 53.4346C61.5039 54.0635 61.3242 54.3105 60.6729 54.3105C58.9434 54.2656 57.1914 54.2881 55.4619 54.2881C54.9453 54.3105 54.7207 54.1309 54.7207 53.5918C54.7432 51.5254 54.7432 49.4814 54.7207 47.4375C54.7207 46.9658 54.8779 46.7412 55.3721 46.7412H60.7852C61.3691 46.7412 61.5039 47.0107 61.4814 47.5049C61.459 48.5156 61.4814 49.5264 61.4814 50.5371Z" fill="#EB6409"/>
<path d="M36.6172 60.6445C36.6172 59.6113 36.6396 58.5781 36.5947 57.5225C36.5947 57.0059 36.7744 56.7812 37.3135 56.7812H42.1201C42.6592 56.7812 42.8613 57.0283 42.8613 57.5449C42.8389 59.5889 42.8389 61.6328 42.8613 63.6992C42.8613 64.2832 42.6143 64.4854 42.0527 64.4854C40.4805 64.4629 38.9082 64.4404 37.3584 64.4854C36.7295 64.4854 36.5947 64.2383 36.5947 63.6768C36.6396 62.666 36.6172 61.6553 36.6172 60.6445Z" fill="#EB6409"/>
<path d="M79.5848 60.7346C79.5848 61.7453 79.5848 62.7561 79.6073 63.7444C79.6073 64.2834 79.4276 64.4856 78.8885 64.4856C77.3162 64.4631 75.744 64.4631 74.1942 64.4856C73.6326 64.4856 73.3407 64.3284 73.3631 63.7219V57.5676C73.3407 56.9836 73.6102 56.7815 74.1717 56.7815C75.744 56.8039 77.2938 56.8264 78.866 56.7815C79.4949 56.759 79.6073 57.051 79.6073 57.6125C79.5848 58.6457 79.5848 59.6789 79.5848 60.7346Z" fill="#EB6409"/>
<path d="M79.585 50.5371C79.585 51.5029 79.5625 52.4912 79.6074 53.457C79.6299 54.0635 79.4502 54.3105 78.7988 54.3105C77.249 54.2656 75.6768 54.2656 74.127 54.3105C73.5205 54.3105 73.3408 54.0859 73.3408 53.502C73.3633 51.5029 73.3633 49.5039 73.3408 47.4824C73.3408 46.9658 73.498 46.7412 74.0596 46.7412H78.9336C79.4502 46.7412 79.6074 46.9434 79.6074 47.415C79.585 48.4707 79.585 49.5039 79.585 50.5371Z" fill="#EB6409"/>
<path d="M42.8389 50.5596C42.8389 51.5479 42.8389 52.5586 42.8613 53.5693C42.8613 54.1084 42.6816 54.3105 42.1426 54.3105H37.3584C36.8418 54.333 36.5947 54.1982 36.5947 53.6143C36.6172 51.5928 36.6172 49.5488 36.5947 47.5049C36.5947 46.9658 36.7744 46.7637 37.3135 46.7637C38.9082 46.7861 40.5029 46.8086 42.0977 46.7637C42.7041 46.7637 42.8838 47.0107 42.8613 47.5723C42.8164 48.5381 42.8389 49.5488 42.8389 50.5596Z" fill="#EB6409"/>
<path d="M73.3633 70.6846C73.3633 69.7188 73.3857 68.7529 73.3408 67.7871C73.3408 67.248 73.4531 66.9561 74.082 66.9561C75.6693 67.001 77.264 67.001 78.8662 66.9561C79.4951 66.9561 79.6074 67.2256 79.6074 67.7646C79.5925 69.7412 79.5925 71.7178 79.6074 73.6943C79.6074 74.2334 79.5176 74.5254 78.8662 74.5254C77.2939 74.4805 75.6992 74.4805 74.1045 74.5254C73.4756 74.5254 73.3408 74.2559 73.3408 73.6943C73.3857 72.7061 73.3633 71.6953 73.3633 70.6846Z" fill="#EB6409"/>
<path d="M42.8388 70.8193C42.8388 71.8301 42.8388 72.8408 42.8612 73.8291C42.8612 74.3232 42.6815 74.5254 42.1874 74.5029H37.3134C36.8417 74.5029 36.5946 74.3906 36.6171 73.874V67.6299C36.5946 67.1582 36.7743 66.9561 37.2685 66.9785C38.9081 66.9785 40.5253 67.001 42.1425 66.9561C42.704 66.9561 42.8612 67.2031 42.8612 67.7197C42.8388 68.7529 42.8388 69.7861 42.8388 70.8193Z" fill="#EB6409"/>
<path d="M48.8136 44.2484H46.0958C45.5792 44.2484 45.3321 44.1136 45.3546 43.5296C45.3771 42.2269 45.3771 40.9017 45.3546 39.5765C45.3321 39.0824 45.4894 38.8128 46.0509 38.8353H51.464C52.0704 38.8128 52.2276 39.1048 52.2276 39.6663C52.1977 40.9541 52.1977 42.2344 52.2276 43.5072C52.2501 44.0462 52.0704 44.2708 51.5089 44.2484C50.9474 44.2259 49.712 44.2484 48.8136 44.2484Z" fill="#EB6409"/>
<path d="M52.2049 82.3647H45.3544C45.3544 80.8598 45.3768 79.3774 45.3544 77.8725C45.3319 77.2211 45.5116 76.9516 46.2079 76.974C47.9149 77.019 49.6219 76.9965 51.3065 76.974C52.0028 76.9516 52.2499 77.1987 52.2274 77.8725C52.2049 79.3774 52.2049 80.8823 52.2049 82.3647Z" fill="#EB6409"/>
<path d="M70.8699 82.3871H63.9969C63.9969 80.9047 64.0194 79.3998 63.9744 77.9174C63.952 77.2436 64.2215 76.9965 64.8953 77.019C66.6024 77.0414 68.2869 77.0639 69.994 77.019C70.7127 76.9965 70.8699 77.266 70.8699 77.9174C70.825 79.3998 70.8475 80.8823 70.8699 82.3871Z" fill="#EB6409"/>
<path d="M67.4561 38.8578C68.2197 38.8578 68.9834 38.9027 69.7471 38.8353C70.5107 38.7679 70.9375 38.9926 70.8701 39.9135C70.8027 40.8343 70.8252 42.2718 70.8477 43.4398C70.8701 43.9789 70.7803 44.2709 70.1289 44.2709C68.332 44.226 66.5352 44.2484 64.7158 44.2709C64.1768 44.2709 63.9746 44.0463 63.9746 43.5297C63.9971 42.2045 63.9971 40.8793 63.9746 39.5765C63.9746 39.0375 64.2441 38.8353 64.7607 38.8578H67.4561Z" fill="#EB6409"/>
<path d="M58.1123 44.2478H55.3945C54.9004 44.2478 54.7207 44.0681 54.7207 43.5739C54.7432 42.2038 54.7432 40.8562 54.7207 39.5085C54.7207 39.0144 54.9004 38.8122 55.3945 38.8347H60.8076C61.3018 38.8122 61.4814 39.0144 61.4814 39.5085C61.459 40.8562 61.459 42.2263 61.4814 43.5739C61.4814 44.0681 61.3018 44.2478 60.8076 44.2478H58.1123Z" fill="#EB6409"/>
<path d="M61.4814 82.3864H54.7206C54.7206 80.8591 54.7431 79.3317 54.7206 77.8269C54.6982 77.1755 54.9452 76.9733 55.5517 76.9958H60.6503C61.2792 76.9733 61.5038 77.1755 61.4814 77.8269C61.4589 79.3317 61.4814 80.8591 61.4814 82.3864Z" fill="#EB6409"/>
<path d="M39.537 44.2477C38.7059 44.1578 37.4257 44.6969 36.7968 44.0455C36.1678 43.3942 36.6395 42.1813 36.6171 41.2155C36.5946 38.8571 36.6171 38.8571 38.9979 38.8571C39.9862 38.8571 40.952 38.8795 41.9178 38.8346C42.8837 38.7897 42.8837 39.0143 42.8612 39.733C42.8163 40.9684 42.8387 42.2262 42.8612 43.484C42.8837 44.0455 42.704 44.2926 42.0975 44.2701C41.4911 44.2477 40.5028 44.2477 39.537 44.2477Z" fill="#EB6409"/>
<path d="M76.2606 44.248C75.452 44.1357 74.1718 44.7197 73.5428 44.0234C72.9139 43.3271 73.3856 42.1816 73.3632 41.2158C73.3407 38.8574 73.3632 38.8574 75.7216 38.8574C76.7323 38.8574 77.7206 38.8799 78.7313 38.835C79.3153 38.835 79.6298 38.9473 79.6073 39.6436C79.5624 40.9163 79.5624 42.1966 79.6073 43.4844C79.6298 44.0684 79.4276 44.293 78.8212 44.2705C78.2147 44.248 77.2264 44.248 76.2606 44.248Z" fill="#EB6409"/>
<path d="M42.8389 82.3871H36.6172C36.6172 80.8823 36.6396 79.3998 36.5947 77.8949C36.5947 77.2436 36.752 76.974 37.4707 76.9965C38.9531 77.0414 40.458 77.0414 41.9404 76.9965C42.6367 76.974 42.8838 77.2211 42.8613 77.8949C42.8164 79.3998 42.8389 80.8823 42.8389 82.3871Z" fill="#EB6409"/>
<path d="M79.6074 82.3871H73.3857C73.3633 80.8823 73.3857 79.3998 73.3408 77.8949C73.3408 77.2211 73.5879 76.974 74.2617 76.9965C75.7666 77.0414 77.249 77.0414 78.7314 76.9965C79.4502 76.974 79.6299 77.2436 79.6074 77.8949C79.5625 79.3998 79.6074 80.8823 79.6074 82.3871Z" fill="#EB6409"/>
<path d="M58 95.7061H48.0947C46.8369 95.7061 46.4326 95.3018 46.4102 94.0439V89.3496C46.4326 88.0918 46.8594 87.6426 48.0947 87.6426H67.9951C69.208 87.6426 69.5898 88.0244 69.5898 89.2598C69.6048 90.862 69.6048 92.4567 69.5898 94.0439C69.5898 95.3018 69.1855 95.7061 67.9053 95.7061H58Z" fill="#D0D8DA"/>
<path d="M30.3731 91.6406C30.379 90.0242 31.0253 88.476 32.1704 87.3352C33.3155 86.1943 34.8661 85.5537 36.4825 85.5537C39.7842 85.5762 42.502 88.3838 42.4796 91.7529C42.456 93.3517 41.8042 94.8769 40.6653 95.9991C39.5263 97.1212 37.9915 97.7502 36.3926 97.75C35.5928 97.7562 34.7999 97.6018 34.0608 97.2958C33.3218 96.9898 32.6517 96.5386 32.0903 95.9689C31.5289 95.3991 31.0877 94.7224 30.7927 93.9789C30.4977 93.2354 30.355 92.4403 30.3731 91.6406Z" fill="#D0D8DA"/>
<path d="M85.8292 91.708C85.8233 93.3086 85.1849 94.842 84.053 95.9738C82.9212 97.1056 81.3879 97.7441 79.7873 97.75C76.3507 97.75 73.7003 95.0547 73.7228 91.5732C73.7462 89.9763 74.3941 88.452 75.5276 87.3269C76.6611 86.2018 78.1902 85.5653 79.7873 85.5537C83.0665 85.5537 85.8517 88.3838 85.8292 91.708Z" fill="#D0D8DA"/>
</svg>
