<svg width="116" height="116" viewBox="0 0 116 116" fill="none" xmlns="http://www.w3.org/2000/svg">
<path d="M5.89062 51.5312C6.33934 51.0359 6.91364 50.6712 7.55273 50.4756L19.7266 45.916C19.9062 46.3203 20.2881 46.208 20.6025 46.2305H24.1738C24.668 46.2305 25.1396 46.2305 25.4541 46.6572C24.3535 46.9268 24.1064 47.6455 24.1963 48.7236C24.2713 49.9427 24.2788 51.1649 24.2188 52.3848C24.1963 53.4404 23.4775 54.2041 22.5566 54.1816C21.6357 54.1592 20.9844 53.4629 20.9619 52.3398V48.4766C17.8174 49.7344 14.6953 50.7002 11.6182 52.1152C11.7494 52.2153 11.8928 52.2983 12.0449 52.3623C17.5703 54.4736 23.1182 56.5625 28.6436 58.6963C29.1377 58.876 29.4971 58.7187 29.9014 58.5615L43.625 53.3506L46.8145 52.1377L45.7139 51.7109L30.5303 45.8711C30.665 45.624 30.9121 45.6465 31.1367 45.6016C33.3154 45.2197 35.4941 45.5117 37.6953 45.3994L50.7227 50.4756C52.25 51.082 52.3398 51.2393 52.3398 52.8789V61.9082C53.4404 61.5264 54.4062 61.1445 55.417 60.875C56.4277 60.6055 56.4502 60.291 56.4502 59.46C56.4053 53.9121 56.4502 48.3418 56.4502 42.7939H59.4375C59.46 48.3193 59.4824 53.8447 59.46 59.3701C59.4375 60.2686 59.707 60.6953 60.5605 60.9424C61.3444 61.1554 62.0988 61.4648 62.8066 61.8633C63.5928 62.3125 63.5479 61.9082 63.5479 61.3467V52.7891C63.5479 51.4189 63.8174 51.0146 65.0977 50.5205C69.0059 48.9932 72.9141 47.4434 76.8447 46.0059C77.9004 45.6016 78.4395 45.1299 78.2598 44.0068H81.2471C81.6738 44.793 82.0781 43.7598 82.4824 43.9844C82.8867 44.209 83.1338 44.3887 83.5381 44.3887H90.2539C90.7031 44.3887 91.1299 44.3438 91.4668 43.9844L92.0283 44.1416L94.9033 44.1865C94.7012 45.1748 95.2627 45.5566 96.1387 45.8711C100.519 47.4434 104.876 49.083 109.256 50.7227C109.952 50.9922 110.199 51.5537 110.199 52.25C110.199 56.54 110.199 60.8525 110.177 65.1426H107.189V54.541L106.987 54.4961L88.8613 61.3467C88.457 61.4814 88.3896 61.7734 88.3896 62.1328H85.582C85.6719 61.4814 85.2002 61.3691 84.751 61.1895L70.0615 55.6641L66.6025 54.4062C66.6025 57.2363 66.625 59.9092 66.6025 62.582C66.586 62.758 66.6276 62.9345 66.7209 63.0846C66.8142 63.2347 66.9541 63.35 67.1191 63.4131C68.0625 63.9297 69.1855 63.9522 70.1064 64.5586C69.7025 64.8685 69.1993 65.0203 68.6914 64.9854C67.4785 64.9554 66.2656 64.9554 65.0527 64.9854C64.7383 64.9854 64.3564 64.873 64.1543 65.2324C62.4023 64.5811 60.6279 63.9521 58.8984 63.2559C58.6423 63.1381 58.365 63.0734 58.0832 63.0657C57.8014 63.058 57.521 63.1074 57.2588 63.2109C54.8105 64.1543 52.4297 65.2324 49.9141 65.9961C49.5547 65.5918 49.1055 65.5693 48.6113 65.5918H44.9951C44.7031 65.5693 44.2988 65.7041 44.209 65.21C45.1074 64.8506 46.0059 64.4687 46.9268 64.1318C49.4873 63.166 49.4873 63.166 49.4873 60.4258V54.4287L48.7686 54.6533C43.5801 56.6074 38.4141 58.6514 33.1582 60.4707C31.2266 61.1445 30.0586 61.9531 30.5078 64.1543H27.7227C27.6813 63.6462 27.6738 63.136 27.7002 62.627C27.79 61.8184 27.5205 61.3916 26.6895 61.0996C22.9385 59.7295 19.21 58.2695 15.4814 56.8545L8.90039 54.3838V64.3564H5.89062V51.5312ZM94.9258 48.4541V52.1602C94.9258 53.5078 94.4316 54.1816 93.4658 54.1816C92.5 54.1816 92.0732 53.4854 92.0732 52.2051C92.0732 50.9248 92.0508 49.5547 92.0957 48.252C92.1182 47.623 91.8936 47.3311 91.332 47.1289C90.1191 46.7021 88.9287 46.208 87.7607 45.6914C87.5161 45.5857 87.2524 45.5312 86.9858 45.5312C86.7193 45.5312 86.4556 45.5857 86.2109 45.6914L70.9824 51.4863L69.3652 52.1152C69.9043 52.3398 70.1963 52.4971 70.5107 52.6094C75.6543 54.5859 80.8203 56.54 85.9639 58.5391C86.2215 58.6532 86.4996 58.7141 86.7814 58.7179C87.0632 58.7218 87.3428 58.6686 87.6035 58.5615L100.99 53.4853L104.494 52.1377L94.9258 48.4541Z" fill="#1A87C9"/>
<path d="M110.177 78.2148C110.267 78.9785 109.952 79.3828 109.233 79.6748C102.046 82.415 94.8734 85.1852 87.7158 87.9854C87.4549 88.0942 87.1738 88.1465 86.8912 88.1388C86.6085 88.1311 86.3308 88.0634 86.0762 87.9404C84.5713 87.2891 82.999 86.7949 81.2695 86.166V89.8945C81.2695 91.7139 81.2246 93.5557 81.292 95.3975C81.3369 96.5654 80.8428 97.1719 79.7646 97.5762C74.0596 99.7324 68.3769 101.934 62.6719 104.112C61.0771 104.719 59.4375 105.774 57.8203 105.774C56.2031 105.774 54.6758 104.674 53.1035 104.067C47.4434 101.889 41.7832 99.71 36.1006 97.5762C35.1572 97.2168 34.7754 96.7002 34.7979 95.6895C34.8652 92.5674 34.8203 89.4453 34.8203 86.1885C33.3828 86.75 32.0127 87.2441 30.71 87.8281C29.7666 88.2549 28.958 88.21 27.9922 87.8281C21.179 85.2227 14.3659 82.6471 7.55273 80.1016C6.92174 79.8887 6.35152 79.5266 5.89062 79.0459V78.0127H8.7207C9.03516 78.0127 9.43945 78.1475 9.55176 77.6533L27.7227 84.5488V78.8213H30.5078V84.5264L34.4834 83.0439C34.8428 82.9092 34.8203 82.5723 34.8203 82.2803C34.8203 81.4043 34.8428 80.5059 34.8428 79.6299H37.6279C37.6504 81.5615 37.6729 83.4707 37.6729 85.4023C37.6729 88.21 37.7178 91.04 37.6504 93.8477C37.6279 94.6563 37.875 95.0381 38.6387 95.3301C42.4795 96.7676 46.2754 98.2725 50.1162 99.7549L56.6299 102.248V101.013C56.6299 94.0947 56.6074 87.1543 56.6523 80.2363C56.6523 79.3604 56.4727 78.8213 55.5967 78.5967C55.6021 78.5384 55.6194 78.4817 55.6476 78.4304C55.6758 78.3791 55.7143 78.3341 55.7607 78.2983C55.807 78.2625 55.8603 78.2366 55.9171 78.2222C55.9739 78.2079 56.033 78.2053 56.0908 78.2148H59.999C60.0568 78.2053 60.116 78.2079 60.1728 78.2222C60.2296 78.2366 60.2828 78.2625 60.3292 78.2983C60.3755 78.3341 60.414 78.3791 60.4422 78.4304C60.4704 78.4817 60.4878 78.5384 60.4932 78.5967C59.6172 78.8213 59.4375 79.3604 59.46 80.2363C59.5049 86.1885 59.4824 92.1182 59.4824 98.0478V102.181C59.7343 102.132 59.9821 102.065 60.2236 101.979L77.4512 95.3301C78.1924 95.0381 78.4619 94.7012 78.4395 93.8701C78.417 89.4004 78.4395 84.9307 78.4619 80.4609H81.2471C81.2471 81.0674 81.2695 81.6738 81.2695 82.2803C81.2695 82.8867 81.2471 82.8867 81.6289 83.0215L85.582 84.5264V76.3955H88.3672V84.5039L89.5576 84.0996L106.538 77.6758C106.583 77.9004 106.74 77.9678 106.965 78.0352C108.021 78.3496 109.099 78.1699 110.177 78.2148Z" fill="#1A87C9"/>
<path d="M9.55176 77.6533C9.43945 78.1475 9.03516 78.0127 8.7207 78.0127H5.89062V64.3564H8.90039C8.92285 64.7383 8.94531 65.0977 8.94531 65.4795V76.6201C8.94531 77.0918 8.90039 77.5859 9.55176 77.6533Z" fill="#1A87C9"/>
<path d="M37.6281 28.8457L46.1632 25.6113C44.1417 24.5557 42.5695 23.0508 40.1662 23.3877C38.9083 23.5674 37.6056 23.4326 36.3029 23.4102C35.7413 23.3877 35.4269 23.5225 35.1798 24.1289C34.0792 26.8691 31.0695 28.3291 28.3742 27.4756C25.6788 26.6221 23.7697 23.7021 24.2863 20.9844C24.8703 17.9072 27.588 15.751 30.5753 16.1104C32.7316 16.3574 34.3038 17.5479 35.1349 19.5469C35.4269 20.1982 35.7413 20.3779 36.4152 20.3779C38.2794 20.333 40.1437 20.3779 42.0079 20.333C42.8169 20.3126 43.6138 20.5313 44.299 20.9619C45.9611 21.9727 47.6681 22.8936 49.3302 23.8818C49.5056 24.0045 49.7109 24.0775 49.9243 24.0933C50.1378 24.1092 50.3515 24.0671 50.5431 23.9717C52.2277 23.2529 53.9122 22.5566 55.6193 21.9053C56.2257 21.6807 56.4503 21.3662 56.4279 20.7373C56.4054 18.1543 56.4279 15.5713 56.4279 12.9883V12.2695C56.4953 11.3711 57.2365 10.585 58.0226 10.585C58.8087 10.585 59.4376 11.3037 59.4601 12.2695C59.4826 13.7969 59.4601 15.3242 59.4601 16.8516C59.4601 18.3789 59.505 19.5693 59.4601 20.917C59.4376 21.501 59.5949 21.8379 60.2013 22.04C62.0206 22.6689 63.84 23.3428 65.6369 24.0166C65.8205 24.089 66.0194 24.1146 66.2154 24.0911C66.4115 24.0676 66.5986 23.9957 66.7599 23.8818C68.5119 22.8486 70.2863 21.8604 72.0382 20.8047C72.5611 20.4931 73.1591 20.33 73.7677 20.333C75.7667 20.3779 77.7658 20.333 79.7648 20.3555C80.3263 20.3779 80.6632 20.2656 80.9103 19.6592C81.8761 17.2109 84.257 15.7959 86.7052 16.1104C87.9951 16.2892 89.1927 16.88 90.1196 17.7947C91.0464 18.7094 91.6529 19.8991 91.8488 21.1865C92.1857 23.6572 90.7257 26.1504 88.3673 27.1836C86.0089 28.2168 83.2912 27.5879 81.629 25.4766C81.46 25.308 81.3364 25.0993 81.2697 24.8701C80.9552 23.3877 79.922 23.2754 78.6867 23.3877C77.9113 23.4888 77.1261 23.4888 76.3507 23.3877C74.1271 23.0732 72.3527 24.0615 70.6232 25.1846C70.421 25.3193 70.1066 25.3418 70.174 25.6338C70.2414 25.9258 70.5333 25.8809 70.7355 25.9707L79.6974 29.3174C80.6408 29.6543 81.4494 30.126 81.2472 31.3613H76.3732C76.0138 31.3613 75.6095 31.4961 75.34 31.1143C75.0705 30.7324 75.2052 30.8447 75.0255 30.7549L67.0744 27.6777C66.6701 27.498 66.4005 27.6328 66.0636 27.835C64.8283 28.5986 63.5705 29.3848 62.3126 30.1035C61.4142 30.6426 60.381 30.3955 59.9093 29.6094C59.4376 28.8232 59.6847 27.835 60.7179 27.251L62.8742 26.0605L58.3146 24.3535C58.2419 24.3171 58.1623 24.2964 58.0811 24.2925C57.9999 24.2886 57.9188 24.3018 57.8429 24.3311L53.216 26.0381C54.1144 26.5771 54.8331 27.0039 55.5294 27.4531C56.2257 27.9023 56.6076 28.8232 56.2033 29.542C55.799 30.2607 54.9005 30.5303 54.0021 30.0361C53.1037 29.542 51.5538 28.7334 50.3859 27.9697C49.7345 27.5654 49.1954 27.5879 48.5216 27.8574C46.9718 28.4414 45.4445 29.1377 43.8497 29.542C42.2326 28.7783 40.5255 29.25 38.8634 29.1152C38.4367 29.0703 37.965 29.2949 37.6281 28.8457ZM32.1701 23.5449C31.7433 23.3203 31.3615 23.4102 31.0021 23.4102C29.2052 23.4102 28.5538 23.0059 28.5089 21.9053C28.464 20.8047 29.1828 20.3555 30.9572 20.3555H32.1027C31.1144 18.9404 29.5646 18.7383 28.3068 19.7266C27.049 20.7148 26.9142 22.6689 27.8576 23.6572C29.1154 24.9824 30.9347 24.96 32.1701 23.5449ZM83.8302 23.4102C84.8185 24.6006 85.8292 24.8926 87.0421 24.4209C87.5702 24.229 88.0252 23.8769 88.3433 23.4138C88.6615 22.9506 88.8269 22.3997 88.8166 21.8379C88.7897 21.2382 88.5729 20.6626 88.1974 20.1942C87.8219 19.7259 87.3072 19.389 86.7277 19.2324C85.672 18.9404 84.7511 19.2773 84.0099 20.3555H85.0431C85.4176 20.3403 85.7926 20.3478 86.1662 20.3779C87.0421 20.5127 87.6935 21.2764 87.5812 22.085C87.4689 22.8936 86.8624 23.3652 86.0314 23.4102H83.8302Z" fill="#1A87C9"/>
<path d="M37.628 28.8457C37.9649 29.2949 38.4366 29.0703 38.8633 29.1152C40.5254 29.25 42.2325 28.7783 43.8496 29.542C42.8389 30.1709 41.5586 30.1934 40.5254 31.0244C45.5342 32.9561 50.4756 34.7529 55.3272 36.752C57.0791 37.4482 58.5616 37.5156 60.336 36.7969C65.2998 34.7754 70.3311 32.9785 75.3399 31.0918C75.6094 31.4736 76.0137 31.3389 76.3731 31.3389H81.2471V43.9844H78.2598V33.248L77.3838 33.5176L61.0323 39.6943C59.4824 40.2783 59.4825 40.2783 59.4825 41.873C59.4825 42.1875 59.46 42.4795 59.4375 42.7939H56.4502C56.4502 42.21 56.3828 41.626 56.4278 41.0645C56.4727 40.5029 56.2256 40.2334 55.709 40.0312C51.9356 38.6387 48.1846 37.1787 44.4112 35.7412L37.6953 33.2031V45.3994C35.4942 45.5117 33.3155 45.2197 31.1367 45.6016C30.9121 45.6465 30.6651 45.624 30.5303 45.8711C29.5196 45.4219 28.5537 45.5117 27.543 45.9834C26.9141 46.3203 26.2178 46.6348 25.4541 46.6572C25.1397 46.2305 24.668 46.2305 24.1739 46.2305H20.6026C20.2881 46.208 19.9063 46.3203 19.7266 45.916C20.8272 45.6914 21.1192 44.9727 20.9619 43.9395C20.8047 42.9062 21.3438 41.873 20.7598 41.2891C20.1758 40.7051 19.0977 41.1543 18.2217 41.1543H12.1123C10.9444 41.1543 10.3828 40.5928 10.3828 39.4248C10.3604 35.9209 10.3828 32.4395 10.4053 28.958H13.3926C13.4151 31.7432 13.4375 34.5059 13.4151 37.291C13.3926 38.0771 13.5723 38.3467 14.4033 38.3242C17.0088 38.2568 19.6367 38.3018 22.2422 38.3018C23.7696 38.3018 24.2188 38.7734 24.2188 40.3232C24.2188 41.873 24.2188 42.8164 24.2188 44.1865C25.499 43.6475 26.667 43.1758 27.7901 42.6592C28.1738 42.4841 28.59 42.3916 29.0118 42.3878C29.4336 42.3839 29.8514 42.4687 30.2383 42.6367L34.8203 44.3887V41.9629C34.8203 38.3467 34.8203 34.7529 34.7979 31.1592C34.7754 30.3057 35.0899 29.7217 35.8985 29.4297L37.628 28.8457Z" fill="#1A87C9"/>
<path d="M102.697 30.5527C102.679 30.4188 102.671 30.2836 102.675 30.1484C102.832 29.1826 102.473 28.6884 101.552 28.2392C100.324 27.677 99.3495 26.6778 98.818 25.4363C98.2865 24.1948 98.2363 22.7999 98.6769 21.5234C99.5754 18.9404 102.405 17.2783 105.056 17.7724C107.706 18.2666 110.02 20.7597 109.773 23.6123C109.593 25.6338 108.717 27.4306 106.673 28.2168C105.37 28.7109 105.864 29.6992 105.707 30.5527H102.697ZM102.675 25.5439C102.675 24.7129 102.653 24.084 102.675 23.455C102.697 22.3994 103.281 21.7705 104.18 21.7929C105.078 21.8154 105.707 22.4668 105.73 23.455C105.752 24.084 105.73 24.7129 105.73 25.4316C107.167 24.1963 107.302 22.6015 106.224 21.4336C105.146 20.2656 103.169 20.2881 102.136 21.456C101.103 22.624 101.26 24.3984 102.675 25.5439Z" fill="#1A87C9"/>
<path d="M13.3925 28.9356H10.4052C9.61903 28.3067 8.63075 27.9922 7.912 27.2285C6.02528 25.207 5.73329 22.1524 7.35048 20.041C8.96766 17.9297 12.247 17.0313 14.7177 18.3789C17.1884 19.7266 18.3563 22.5567 17.3231 25.2295C17.0526 25.9443 16.6406 26.5972 16.1119 27.149C15.5831 27.7009 14.9485 28.1405 14.246 28.4414C13.954 28.5762 13.5722 28.5986 13.3925 28.9356ZM13.4374 25.3418C14.5829 24.6455 15.0097 23.8369 14.785 22.8936C14.638 22.2824 14.3074 21.7309 13.8376 21.3133C13.3678 20.8957 12.7813 20.632 12.1571 20.5576C11.5947 20.5095 11.032 20.6485 10.5568 20.9532C10.0815 21.2578 9.72025 21.711 9.52919 22.2422C9.31904 22.7835 9.28629 23.3776 9.43566 23.9387C9.58503 24.4999 9.90879 24.9991 10.3602 25.3643C10.3602 24.668 10.3602 24.0391 10.3827 23.4102C10.4052 22.7813 11.079 21.7705 11.955 21.793C12.8309 21.8154 13.3925 22.3994 13.4149 23.3877C13.4374 24.0166 13.4374 24.6455 13.4374 25.3418Z" fill="#1A87C9"/>
<path d="M102.697 30.5527H105.707C105.707 33.3828 105.752 36.2354 105.729 39.0654C105.707 40.7725 105.078 41.334 103.371 41.334H95.7793C95.1055 41.3115 94.8809 41.5137 94.9258 42.1875C94.9707 42.8613 94.9033 43.5352 94.9033 44.209L92.0283 44.1641C92.0508 42.749 92.0508 41.334 92.0732 39.9189C92.0957 38.5039 92.6123 38.3018 93.7129 38.2793C96.4082 38.2793 99.126 38.2568 101.821 38.3018C102.473 38.3018 102.697 38.1221 102.697 37.4482C102.652 35.1572 102.697 32.8438 102.697 30.5527Z" fill="#1A87C9"/>
<path d="M110.177 78.2148C109.099 78.1699 108.021 78.3496 106.965 78.0352C106.74 77.9678 106.583 77.9004 106.538 77.6758C107.145 77.5186 107.167 77.0693 107.167 76.5752C107.167 72.7793 107.167 68.9609 107.189 65.165H110.177V78.2148Z" fill="#1A87C9"/>
<path d="M91.4668 44.0064C91.1299 44.3657 90.7031 44.4107 90.2539 44.4107H83.5381C83.1338 44.4107 82.707 44.4781 82.4824 44.0064C83.6729 43.3325 84.9756 42.9507 86.2334 42.4341C86.6849 42.2724 87.1799 42.2804 87.626 42.4566C88.9062 42.9282 90.1865 43.4898 91.4668 44.0064Z" fill="#1A87C9"/>
<path d="M9.55176 77.6533C8.90039 77.5859 8.94531 77.0918 8.94531 76.6201V65.4795C8.94531 65.0977 8.92285 64.7383 8.90039 64.3564V54.3838L15.4814 56.8545C19.21 58.2695 22.9385 59.7295 26.6895 61.0996C27.5205 61.3916 27.79 61.8184 27.7002 62.627C27.6738 63.136 27.6813 63.6462 27.7227 64.1543V84.5488L9.55176 77.6533ZM17.8848 62.5371C16.7842 62.5371 15.9531 63.8174 16.4922 64.7383C18.1768 67.748 19.9287 70.7354 21.6807 73.7227C22.085 74.3965 22.7588 74.5313 23.4551 74.1943C23.7965 74.0293 24.0589 73.7361 24.1851 73.3785C24.3113 73.0209 24.2911 72.6279 24.1289 72.2852C22.4668 69.2754 20.7822 66.2656 19.0752 63.2559C18.9554 63.0437 18.7829 62.8661 18.5744 62.7402C18.3658 62.6142 18.1283 62.5443 17.8848 62.5371ZM20.1533 74.7109C20.1758 74.2617 19.9287 73.9248 19.7266 73.5879C18.4687 71.3867 17.1885 69.208 15.9082 67.0068C15.5713 66.4229 15.2568 65.8164 14.875 65.2549C14.4932 64.6934 13.5049 64.1992 12.876 64.5586C12.2471 64.918 12 65.8164 12.4717 66.6924C12.9434 67.5684 13.123 67.8828 13.46 68.4668C14.7627 70.7803 16.0879 73.0713 17.3906 75.3623C17.7949 76.1035 18.4238 76.3281 19.1875 76.1035C19.9512 75.8789 20.1084 75.3848 20.1533 74.7109Z" fill="#76CBEE"/>
<path d="M107.189 65.165C107.167 68.9609 107.167 72.7793 107.167 76.5752C107.167 77.0693 107.145 77.5186 106.538 77.6758L89.5576 84.0996L88.3672 84.5039V62.1328C88.3672 61.7734 88.4346 61.4814 88.8389 61.3467L106.965 54.4961L107.167 54.541L107.189 65.165ZM93.2637 74.3291C93.6034 74.3126 93.9244 74.1681 94.1621 73.9248C94.3355 73.7662 94.4866 73.5849 94.6113 73.3857L99.4854 65.1875C100.002 64.334 99.7773 63.458 99.0361 62.9639C98.8742 62.8539 98.692 62.7771 98.5003 62.7379C98.3085 62.6987 98.1108 62.6978 97.9187 62.7354C97.7266 62.773 97.5438 62.8483 97.3809 62.9569C97.218 63.0655 97.0783 63.2053 96.9697 63.3682C95.2402 66.3105 93.5107 69.2529 91.8486 72.2402C91.3096 73.2061 92.1631 74.374 93.2637 74.3291ZM97.2168 76.1709C97.5381 76.1921 97.8586 76.1182 98.1382 75.9584C98.4178 75.7986 98.6442 75.5601 98.7891 75.2725C99.5752 73.8125 100.406 72.375 101.237 70.9375C102.068 69.5 102.787 68.2422 103.528 66.8496C103.955 66.0859 103.708 64.9854 103.146 64.6484C102.585 64.3115 101.439 64.5361 101.058 65.1875C99.3206 68.1823 97.6136 71.1921 95.9365 74.2168C95.4648 75.0928 96.2061 76.1934 97.2168 76.1709Z" fill="#76CBEE"/>
<path d="M59.4375 42.7939C59.46 42.4795 59.4824 42.1875 59.4824 41.873C59.4824 40.2783 59.4824 40.2783 61.0322 39.6943L77.3838 33.5176L78.2598 33.248V44.0068C78.4395 45.1299 77.9004 45.6016 76.8447 46.0059C72.9141 47.4434 69.0059 48.9932 65.0977 50.5205C63.8174 51.0146 63.5479 51.4189 63.5479 52.7891V61.3467C63.5479 61.9082 63.5928 62.3125 62.8066 61.8633C62.0988 61.4648 61.3444 61.1554 60.5605 60.9424C59.707 60.6953 59.4375 60.2686 59.46 59.3701C59.4824 53.8447 59.46 48.3193 59.4375 42.7939Z" fill="#76CBEE"/>
<path d="M37.6953 45.3994V33.2031L44.4111 35.7412C48.1846 37.1787 51.9355 38.6387 55.709 40.0312C56.2256 40.2334 56.4727 40.4805 56.4277 41.0645C56.3828 41.6484 56.4502 42.21 56.4502 42.7939C56.4502 48.3418 56.4053 53.9121 56.4502 59.46C56.4502 60.291 56.1807 60.6728 55.417 60.875C54.6533 61.0771 53.4404 61.5264 52.3398 61.9082V52.8789C52.3398 51.2393 52.25 51.082 50.7227 50.4756L37.6953 45.3994Z" fill="#76CBEE"/>
<path d="M81.2471 80.4609H78.4619V71.9033L74.2617 73.4756L60.4932 78.5967C60.4878 78.5383 60.4704 78.4817 60.4422 78.4304C60.414 78.3791 60.3755 78.3341 60.3292 78.2983C60.2828 78.2624 60.2296 78.2366 60.1728 78.2222C60.116 78.2079 60.0568 78.2053 59.999 78.2148H56.0908C56.033 78.2053 55.9739 78.2079 55.9171 78.2222C55.8603 78.2366 55.807 78.2624 55.7607 78.2983C55.7143 78.3341 55.6758 78.3791 55.6476 78.4304C55.6194 78.4817 55.6021 78.5383 55.5967 78.5967L37.6279 71.9258V79.6299H34.8428C34.8203 76.3506 34.8203 73.0488 34.7754 69.7695C34.7754 69.1182 35.0449 68.6689 35.6514 68.4443L44.209 65.21C44.2988 65.7041 44.7031 65.5693 44.9951 65.5918H48.6113C49.1055 65.5693 49.5547 65.5918 49.9141 65.9961L40.6602 69.6572C43.625 70.8701 46.4102 72.0156 49.2402 73.1162C52.0703 74.2168 54.541 75.1152 57.1689 76.1484C57.3996 76.2365 57.6454 76.2779 57.8922 76.2702C58.139 76.2625 58.3818 76.2058 58.6064 76.1035L69.7021 71.8584L75.3398 69.6572C72.667 68.624 70.2637 67.7256 67.8828 66.7822C66.625 66.2881 65.3223 65.9287 64.1543 65.2324C64.3564 64.873 64.7383 64.9854 65.0527 64.9854C66.2656 64.9554 67.4785 64.9554 68.6914 64.9854C69.1993 65.0203 69.7025 64.8685 70.1064 64.5586H70.3086C73.6328 65.8164 76.9795 67.0518 80.3037 68.332C80.9775 68.5791 81.292 69.0957 81.292 69.8369C81.2695 73.3857 81.2471 76.9121 81.2471 80.4609Z" fill="#1A87C9"/>
<path d="M64.1543 65.2329C65.3223 65.9292 66.625 66.2886 67.8828 66.7827C70.2637 67.7261 72.667 68.6245 75.3398 69.6577L69.7022 71.8589L58.6064 76.104C58.3818 76.2063 58.139 76.263 57.8922 76.2707C57.6454 76.2784 57.3996 76.237 57.1689 76.1489C54.541 75.1157 51.8682 74.1499 49.2402 73.1167C46.6123 72.0835 43.625 70.8706 40.6602 69.6577L49.9141 65.9966C52.4297 65.2329 54.8105 64.1548 57.2588 63.2114C57.521 63.1079 57.8014 63.0585 58.0832 63.0662C58.365 63.0739 58.6423 63.1386 58.8984 63.2563C60.6279 63.9526 62.4023 64.5815 64.1543 65.2329Z" fill="#76CBEE"/>
<path d="M81.2472 80.4609C81.2472 76.9121 81.2697 73.3857 81.2921 69.8594C81.2921 69.1182 80.9777 68.6016 80.3038 68.3545C76.9796 67.0742 73.6329 65.8389 70.3087 64.581H70.1066C69.1857 63.9746 68.0626 63.9521 67.1193 63.4355C66.9542 63.3725 66.8143 63.2571 66.721 63.107C66.6277 62.9569 66.5861 62.7804 66.6027 62.6045C66.6251 59.9316 66.6027 57.2588 66.6027 54.4287L70.0617 55.6865L84.7511 61.2119C85.2003 61.3916 85.672 61.5039 85.5822 62.1553V84.5488L81.629 83.0439C81.2472 82.9092 81.2697 82.5947 81.2697 82.3027C81.2697 82.0107 81.2472 81.0674 81.2472 80.4609Z" fill="#76CBEE"/>
<path d="M44.2088 65.21L35.6512 68.4443C35.0447 68.6689 34.7752 69.1182 34.7752 69.7695C34.8201 73.0488 34.8201 76.3506 34.8426 79.6299C34.8426 80.5059 34.8201 81.4043 34.8201 82.2803C34.8201 82.5723 34.8426 82.9092 34.4832 83.0439L30.5076 84.5264V64.1543C30.0584 61.9531 31.2264 61.1445 33.158 60.4707C38.4139 58.6514 43.5799 56.6074 48.7684 54.6533L49.4871 54.4287V60.4258C49.4871 63.166 49.4871 63.166 46.9266 64.1318C46.0057 64.4687 45.1072 64.8506 44.2088 65.21Z" fill="#76CBEE"/>
<path d="M25.4541 46.6576C26.2178 46.6351 26.9141 46.3207 27.543 45.9837C28.5537 45.5121 29.5195 45.4222 30.5303 45.8714L45.7139 51.7113L46.8145 52.138L43.625 53.3509L29.9014 58.5619C29.4971 58.7191 29.1377 58.8763 28.6436 58.6966C23.1182 56.5629 17.5703 54.474 12.0449 52.3627C11.8928 52.2986 11.7494 52.2156 11.6182 52.1156C14.6953 50.7005 17.8174 49.7347 20.9619 48.4769V52.3402C20.9844 53.4632 21.5684 54.1595 22.5566 54.182C23.5449 54.2045 24.1963 53.4408 24.2188 52.3851C24.2788 51.1653 24.2713 49.943 24.1963 48.724C24.1064 47.6459 24.3535 46.9271 25.4541 46.6576Z" fill="#76CBEE"/>
<path d="M94.9258 48.4542L104.494 52.1377L100.99 53.4854L87.6035 58.5616C87.3428 58.6686 87.0632 58.7218 86.7814 58.718C86.4996 58.7141 86.2215 58.6533 85.9639 58.5391C80.8203 56.5401 75.6543 54.586 70.5107 52.6094C70.1963 52.4971 69.9043 52.3399 69.3652 52.1153L70.9824 51.4864L86.2109 45.6915C86.4556 45.5858 86.7193 45.5312 86.9858 45.5312C87.2524 45.5312 87.5161 45.5858 87.7607 45.6915C88.9287 46.2081 90.1191 46.7022 91.332 47.129C91.8936 47.3311 92.1182 47.6231 92.0957 48.252C92.0508 49.5547 92.0732 50.8799 92.0732 52.2051C92.0732 53.5303 92.5449 54.1592 93.4658 54.1817C94.3867 54.2042 94.9258 53.5079 94.9258 52.1602V48.4542Z" fill="#76CBEE"/>
<path d="M30.5078 64.1543V78.8213H27.7227V64.1543H30.5078Z" fill="#1A87C9"/>
<path d="M85.582 76.3955V62.1328H88.3896V76.3955H85.582Z" fill="#1A87C9"/>
<path d="M60.493 78.5967L74.2616 73.4756L78.4618 71.9033V80.4609C78.4393 84.9307 78.4168 89.4004 78.4393 93.8701C78.4618 94.7012 78.1922 95.0381 77.451 95.3301L60.2235 101.979C59.982 102.065 59.7342 102.132 59.4823 102.181V98.0478C59.4823 92.1182 59.5047 86.1885 59.4598 80.2363C59.4373 79.3604 59.617 78.8213 60.493 78.5967Z" fill="#76CBEE"/>
<path d="M37.6279 79.6299V71.9258L55.5967 78.5967C56.4727 78.8213 56.6523 79.3604 56.6523 80.2363C56.6074 87.1543 56.6299 94.0947 56.6299 101.013V102.248L50.1162 99.7549C46.2754 98.2725 42.4795 96.7676 38.6387 95.3301C37.875 95.0381 37.6279 94.6563 37.6504 93.8477C37.7178 91.04 37.6729 88.21 37.6729 85.4023C37.6729 83.4707 37.6504 81.5615 37.6279 79.6299Z" fill="#76CBEE"/>
<path d="M75.3398 31.092C70.3311 32.9787 65.2998 34.7756 60.3359 36.797C58.5615 37.5158 57.0791 37.4484 55.3272 36.7521C50.4756 34.7531 45.5342 32.9562 40.5254 31.0246C41.5586 30.1935 42.8389 30.1711 43.8496 29.5422C45.4443 29.1379 46.9717 28.4416 48.5215 27.8576C49.1953 27.5881 49.7344 27.5656 50.3857 27.9699C51.5537 28.7336 52.7891 29.3849 54.002 30.0363C55.2148 30.6877 55.7314 30.3283 56.2031 29.5422C56.6748 28.756 56.3604 27.9699 55.5293 27.4533C54.6982 26.9367 54.1143 26.5773 53.2158 26.0383L57.8428 24.3312C57.9186 24.3019 57.9998 24.2888 58.081 24.2927C58.1622 24.2965 58.2417 24.3173 58.3145 24.3537L62.874 26.0607L60.7178 27.2511C59.6846 27.8351 59.3926 28.6662 59.9092 29.6095C60.4258 30.5529 61.4141 30.6427 62.3125 30.1037C63.5703 29.3849 64.8281 28.5988 66.0635 27.8351C66.4004 27.633 66.6699 27.4982 67.0742 27.6779L75.0254 30.7326C75.2051 30.8224 75.3174 30.9123 75.3398 31.092Z" fill="#76CBEE"/>
<path d="M32.1702 23.5448C30.9348 24.9598 29.1155 24.9823 27.8577 23.6571C26.9143 22.6688 27.1614 20.6698 28.3069 19.7264C29.4524 18.7831 31.1145 18.9403 32.1028 20.3553H30.9573C29.1828 20.3553 28.4641 20.8046 28.509 21.9052C28.5539 23.0057 29.2053 23.41 31.0022 23.41C31.3616 23.41 31.7434 23.3202 32.1702 23.5448Z" fill="white"/>
<path d="M83.8301 23.4099H86.0312C86.8623 23.365 87.4688 22.9607 87.5811 22.0847C87.6934 21.2087 87.042 20.5124 86.166 20.3777C85.7925 20.3475 85.4174 20.34 85.043 20.3552H84.0098C84.751 19.2771 85.6719 18.9402 86.7275 19.2321C87.307 19.3888 87.8217 19.7256 88.1972 20.1939C88.5727 20.6623 88.7896 21.2379 88.8164 21.8376C88.8268 22.3994 88.6613 22.9504 88.3432 23.4135C88.025 23.8766 87.5701 24.2287 87.042 24.4206C85.8291 24.8923 84.8184 24.6003 83.8301 23.4099Z" fill="white"/>
<path d="M102.675 25.5435C101.26 24.398 101.103 22.6236 102.136 21.4556C103.169 20.2877 105.123 20.2652 106.224 21.4332C107.324 22.6012 107.167 24.1959 105.73 25.4312C105.73 24.7125 105.752 24.0836 105.73 23.4547C105.707 22.4664 105.078 21.815 104.18 21.7926C103.281 21.7701 102.697 22.399 102.675 23.4547C102.652 24.0836 102.675 24.7125 102.675 25.5435Z" fill="white"/>
<path d="M13.4377 25.3414C13.4377 24.6451 13.4377 24.0162 13.4152 23.3873C13.3928 22.399 12.8088 21.7925 11.9553 21.7925C11.1017 21.7925 10.4055 22.4439 10.383 23.4097C10.3605 24.3756 10.3605 24.6675 10.3605 25.3638C9.90909 24.9986 9.58533 24.4994 9.43596 23.9383C9.28659 23.3772 9.31934 22.7831 9.52948 22.2418C9.72055 21.7106 10.0818 21.2574 10.5571 20.9527C11.0323 20.6481 11.5949 20.509 12.1574 20.5572C12.7816 20.6315 13.368 20.8952 13.8379 21.3129C14.3077 21.7305 14.6383 22.282 14.7853 22.8931C15.01 23.8365 14.5832 24.6451 13.4377 25.3414Z" fill="white"/>
<path d="M17.8849 62.5371C18.1285 62.5443 18.366 62.6142 18.5745 62.7402C18.7831 62.8661 18.9556 63.0437 19.0754 63.2559C20.7824 66.2656 22.467 69.2754 24.1291 72.2852C24.2913 72.6279 24.3115 73.0209 24.1853 73.3785C24.0591 73.7361 23.7967 74.0293 23.4553 74.1943C22.759 74.5312 22.0851 74.3965 21.6808 73.7227C19.9289 70.7353 18.1769 67.748 16.4924 64.7383C15.9533 63.8174 16.7844 62.5371 17.8849 62.5371Z" fill="#EB6409"/>
<path d="M20.1532 74.7114C20.1083 75.3852 19.8612 75.9243 19.1874 76.104C18.5135 76.2836 17.7948 76.104 17.3905 75.3627C16.0877 73.0717 14.7626 70.7807 13.4598 68.4672C13.1229 67.8833 12.786 67.2993 12.4715 66.6928C12.1571 66.0864 12.1795 64.9409 12.8758 64.559C13.5721 64.1772 14.3583 64.4916 14.8749 65.2553C15.3915 66.019 15.5711 66.4233 15.9081 67.0073C17.1883 69.2084 18.4686 71.3872 19.7264 73.5883C19.9286 73.9252 20.1756 74.2622 20.1532 74.7114Z" fill="#EB6409"/>
<path d="M93.2636 74.3293C92.1631 74.3742 91.3095 73.2062 91.8486 72.2404C93.5107 69.2531 95.2402 66.3107 96.9697 63.3683C97.0783 63.2054 97.218 63.0657 97.3809 62.9571C97.5438 62.8485 97.7265 62.7732 97.9187 62.7356C98.1108 62.698 98.3084 62.6988 98.5002 62.7381C98.692 62.7773 98.8742 62.8541 99.0361 62.9641C99.7773 63.4582 100.002 64.3342 99.4853 65.1877L94.6113 73.3859C94.4866 73.585 94.3354 73.7664 94.1621 73.925C93.9244 74.1683 93.6034 74.3127 93.2636 74.3293Z" fill="#EB6409"/>
<path d="M97.2167 76.1711C96.206 76.1935 95.4648 75.093 95.9365 74.217C97.6285 71.1922 99.3355 68.1825 101.058 65.1877C101.439 64.5363 102.562 64.3117 103.146 64.6486C103.73 64.9855 103.955 66.0861 103.528 66.8498C102.787 68.2424 102.001 69.5676 101.237 70.9377C100.474 72.3078 99.5751 73.8127 98.789 75.2726C98.6441 75.5603 98.4178 75.7988 98.1381 75.9586C97.8585 76.1184 97.5381 76.1923 97.2167 76.1711Z" fill="#EB6409"/>
</svg>
