<svg width="116" height="116" viewBox="0 0 116 116" fill="none" xmlns="http://www.w3.org/2000/svg">
<path d="M81.4492 7.82227H77.6084C74.8049 7.82227 72.5322 10.0949 72.5322 12.8984V21.2876C72.5322 24.0911 74.8049 26.3638 77.6084 26.3638H81.4492C84.2527 26.3638 86.5254 24.0911 86.5254 21.2876V12.8984C86.5254 10.0949 84.2527 7.82227 81.4492 7.82227Z" fill="#D0D8DA"/>
<path d="M78.709 109.885H26.1504C18.4238 109.885 13.1006 105.931 12.4043 95.4422V31.406C12.4043 29.9236 14.8525 27.7449 16.6943 27.2283L65.21 15.8406C67.3862 15.6925 69.5699 15.6925 71.7461 15.8406C73.6328 15.9754 74.958 16.0877 76.665 16.5818C78.1132 17.0234 79.5013 17.642 80.7978 18.4236C82.5498 19.5242 84.2119 21.0965 87.042 25.948C88.9575 29.1698 90.6389 32.5252 92.0732 35.9881C91.9385 56.1879 91.8112 76.3803 91.6914 96.5652C91.7363 97.3738 91.8711 102.091 88.1875 105.954C84.5039 109.817 79.4951 109.907 78.709 109.885Z" fill="#EB6409"/>
<path d="M80.416 18.5588C79.5176 18.1096 77.8555 16.9865 75.6992 16.6945C69.7471 15.8859 65.5244 15.9758 62.9414 16.4924C56.3828 17.7951 39.6719 21.4787 17.4355 27.2736C14.2461 28.2844 12.5166 30.8898 12.5166 30.8898C12.9622 28.9754 13.5324 27.0922 14.2236 25.2521L17.166 18.6711C18.0645 16.8967 22.04 14.9875 23.9043 14.6506L55.1475 7.01386C57.9975 6.87997 60.8539 7.00024 63.6826 7.37324C66.2568 7.70388 68.8022 8.22948 71.2969 8.9455C73.8507 9.87007 76.2625 11.1478 78.4619 12.7414C85.2227 17.6828 88.0078 24.3537 89.0859 27.4982C89.8047 28.7336 92.0732 35.9885 92.0732 35.9885C90.1641 33.0012 87.2217 26.9367 86.2559 25.2746C85.29 23.6125 84.6387 22.4221 83.1338 20.7824C82.1006 19.6594 81.1123 19.0978 80.416 18.5588Z" fill="#D0D8DA"/>
<path d="M41.289 38.1896V32.7092C41.289 32.1701 41.2666 31.5861 42.0302 31.5861C43.3105 31.6086 44.456 30.9348 45.7138 30.8225C46.9716 30.7102 47.8027 31.1144 48.0947 32.4846C48.3867 33.8547 48.5439 35.8762 47.3535 37.3586C46.9267 37.8752 46.9716 38.3244 47.1962 38.9084C47.623 40.0314 47.9375 41.2219 48.3417 42.3449C48.5888 43.0637 48.5439 43.4455 47.6455 43.6027C46.0058 43.8498 46.0732 43.8947 45.624 42.2551C45.3544 41.3117 44.9277 40.3908 44.5683 39.4699C44.4785 39.2678 44.3437 39.1105 44.1191 39.1555C43.8945 39.2004 43.8271 39.5148 43.8046 39.7394V43.1535C43.7822 44.2092 43.2656 44.5686 41.9179 44.5236C40.9521 44.5012 41.3115 43.76 41.289 43.2883C41.2441 41.5812 41.2666 39.8967 41.2666 38.1896H41.289ZM43.8945 35.3146C43.9843 35.5168 43.4228 36.3254 44.3886 36.258C45.3544 36.1906 45.8935 35.9211 45.8486 35.0676C45.8261 34.6633 45.9834 33.7199 44.9951 33.7873C44.0068 33.8547 43.6025 34.1467 43.8945 35.3146Z" fill="white"/>
<path d="M36.1681 30.6201C36.4152 31.541 35.8761 31.6758 35.3146 31.6982C34.7531 31.7207 34.9777 31.1143 34.9103 30.7998C34.7755 30.0811 35.2247 29.8564 35.8087 29.8564C36.3927 29.8564 36.1007 30.4404 36.1681 30.6201Z" fill="white"/>
<path d="M38.2793 30.2835C38.459 31.1595 37.875 31.2044 37.4258 31.2493C36.9766 31.2942 37.0889 30.7776 37.0439 30.4857C36.8867 29.7894 37.2236 29.3626 37.9199 29.4075C38.6162 29.4524 37.9199 30.1712 38.2793 30.2835Z" fill="white"/>
<path d="M51.9129 36.8195V41.7833C51.8905 42.7941 50.4305 43.6251 49.5321 43.1535C49.1727 42.9738 49.2176 42.6369 49.2176 42.3224C49.2176 38.549 49.2401 34.7755 49.2176 31.0246C49.1952 29.6095 50.3182 29.9015 51.0819 29.632C51.8455 29.3624 52.2498 29.6095 52.4969 30.4181C52.8788 31.6085 53.3954 32.754 53.9344 34.1242C54.3836 32.507 54.7879 31.0919 55.2147 29.6544C55.4393 28.8458 57.5282 27.88 58.2694 28.2394C58.6288 28.4191 58.6063 28.7785 58.6063 29.0929C58.5838 33.0236 58.5614 36.9542 58.5614 40.8624C58.5389 42.3224 57.326 41.8956 56.5848 42.0529C55.8436 42.2101 55.8661 41.424 55.8436 40.9298C55.8211 39.3576 55.8436 37.7628 55.8436 36.0558C55.2371 36.8419 54.8329 37.5607 54.7655 38.4142C54.6981 39.2677 54.1815 39.2228 53.6649 39.3351C53.1483 39.4474 53.036 38.9308 52.8788 38.5939C52.7215 38.257 52.3397 37.381 52.0702 36.7521L51.9129 36.8195Z" fill="white"/>
<path d="M26.2628 42.1429C26.8917 39.8744 27.5206 38.0101 27.004 35.9437C26.6896 34.7308 27.004 34.4388 28.4864 34.3041C29.4747 34.2142 29.3624 35.1127 29.3175 35.5843C29.1827 37.0668 29.879 38.3695 30.0812 40.0541L31.2941 34.641C31.4737 33.8549 32.9562 33.0687 33.6749 33.3158C33.9444 33.4056 33.9444 33.5853 33.8995 33.7875C33.4728 35.6517 33.0011 37.516 32.5968 39.4027C32.1925 41.2894 31.878 43.1761 31.4288 45.0629C31.3165 45.6019 31.4064 46.3207 30.463 46.5228C28.9132 46.8148 28.8683 46.8373 28.6212 45.2875C28.5538 44.8832 28.5089 44.4789 28.4415 44.0746C28.3741 43.6703 28.3292 43.3109 28.1944 42.6146C27.8575 44.097 27.5655 45.265 27.3185 46.4554C27.0714 47.6459 26.173 47.1742 25.5441 47.3539C24.9151 47.5336 24.8253 46.8148 24.7355 46.4105C24.0616 43.1986 23.3878 39.9867 22.7589 36.7748C22.7037 36.5382 22.7135 36.2911 22.7871 36.0597C22.8608 35.8282 22.9957 35.6209 23.1775 35.4598C23.3594 35.2987 23.5813 35.1898 23.82 35.1445C24.0587 35.0992 24.3051 35.1192 24.5333 35.2025C24.8702 35.3148 24.8702 35.6068 24.9376 35.8763C25.3419 37.8529 25.7687 39.8295 26.2628 42.1429Z" fill="white"/>
<path d="M59.415 34.6632C59.415 32.754 59.4375 30.8673 59.3926 28.9581C59.3926 28.2394 59.5723 27.8351 60.3584 27.7003C61.9307 27.4083 63.5029 27.0714 65.0527 26.7345C65.8838 26.5548 66.2207 26.8019 66.2207 27.7003C66.1982 29.632 66.2207 29.6544 64.3789 29.9913C63.9072 30.0812 63.4355 30.1935 62.9414 30.2609C61.9531 30.3732 62.1553 31.1368 62.2002 31.7433C62.2451 32.3497 62.8291 32.1027 63.2109 32.0802H63.3457C65.1875 31.7882 65.7041 32.3722 65.2549 34.2589C65.2098 34.4531 65.1057 34.6286 64.9569 34.7613C64.8081 34.894 64.6219 34.9775 64.4238 35.0001L63.458 35.1573C62.29 35.4718 61.8184 36.3702 62.1777 37.5831C62.3125 38.0323 62.582 37.9874 62.9189 37.92L65.6592 37.4259C66.2656 37.3361 66.6025 37.4933 66.5576 38.1671C66.5127 38.5702 66.5127 38.9769 66.5576 39.38C66.6475 40.1661 66.2656 40.4806 65.5469 40.5929C63.8174 40.84 62.1104 41.087 60.4033 41.4464C59.5049 41.6261 59.3926 41.2892 59.3926 40.503C59.4375 38.5714 59.415 36.6398 59.415 34.6857V34.6632Z" fill="white"/>
<path d="M32.7763 45.3316C33.5399 41.94 33.7646 38.4585 34.8427 35.1343C34.955 34.7525 34.7528 34.3257 35.0448 33.9664C35.3368 33.607 35.0224 33.0679 35.5839 32.8658C36.1454 32.6636 37.2235 32.6861 38.0546 32.7085C38.369 32.731 38.4364 33.2251 38.4813 33.5171C38.9755 36.9312 40.1659 40.1656 40.8173 43.5347C40.9745 44.4332 40.8622 44.8374 39.9413 44.9048C39.5772 44.9318 39.2163 44.9919 38.8632 45.0845C38.369 45.2193 38.0995 45.0845 38.0321 44.5455C37.9647 44.0064 37.8749 43.6695 37.7851 43.2203C37.6952 42.771 37.6952 42.1871 36.954 42.3218C36.2128 42.4566 35.6962 42.4791 35.6737 43.3101C35.6513 43.5572 35.6063 43.8042 35.5614 44.0513C35.3368 45.8033 35.2021 45.9156 33.3827 46.0054C32.7763 46.0503 32.6415 45.8707 32.7763 45.3316ZM36.7069 36.6167H36.5048L36.1679 39.1773C36.123 39.4019 36.0331 39.7164 36.3026 39.8062C36.5319 39.8808 36.7811 39.8647 36.9989 39.7613C37.3583 39.649 37.2685 39.3345 37.2011 39.065C37.0438 38.2564 36.8642 37.4253 36.7069 36.6167Z" fill="white"/>
</svg>
