<svg width="116" height="116" viewBox="0 0 116 116" fill="none" xmlns="http://www.w3.org/2000/svg">
<path d="M107.392 110.244H102.293C99.9346 109.301 99.3281 107.437 99.4629 105.078C99.5977 102.72 99.4629 100.878 99.5078 98.7666C99.5303 97.8906 99.3057 97.5986 98.3848 97.5986C94.5439 97.666 90.7031 97.6211 86.8623 97.6436V86.8174C90.7256 86.8174 94.5889 86.7949 98.4521 86.8398C99.2607 86.8398 99.5078 86.6152 99.5078 85.8066C99.4779 77.4961 99.4779 69.1855 99.5078 60.875C99.5078 60.0664 99.2607 59.8418 98.4521 59.8418C94.5889 59.8867 90.7256 59.8643 86.8623 59.8643C86.8398 59.2353 86.8174 58.584 86.8174 57.9326C86.8174 54.9453 87.0195 51.9131 85.6943 49.083C89.917 49.083 94.1172 49.0381 98.3398 49.083C99.3057 49.083 99.5078 48.7686 99.5078 47.8701C99.4779 42.165 99.4704 36.46 99.4854 30.7549C99.4854 29.2725 99.4854 29.2725 98.0029 29.2725H17.4131C16.8066 29.2051 16.582 29.4521 16.582 30.0811C16.612 36.1305 16.612 42.1725 16.582 48.207C16.582 48.791 16.7393 49.0605 17.3906 49.0605L28.6885 49.0156L39.9189 49.0605C43.1533 49.083 45.3994 51.3291 45.4219 54.5859C45.4443 55.8213 45.4219 57.0342 45.4219 58.2695C45.4219 59.9316 45.4219 59.9316 43.7598 59.9316H27.4531C24.1963 59.9092 20.9395 59.9316 17.6826 59.8643C16.8291 59.8418 16.582 60.0889 16.582 60.9424C16.612 69.223 16.612 77.5036 16.582 85.7842C16.582 86.6602 16.874 86.8623 17.7051 86.8623H45.3994V97.7334L17.3906 97.6885C16.7617 97.6885 16.582 97.958 16.582 98.542C16.612 100.683 16.612 102.817 16.582 104.943C16.6122 105.692 16.5972 106.442 16.5371 107.189C16.335 108.829 15.1445 109.638 13.7969 110.312H8.69824C6.33984 109.368 5.86816 107.504 5.86816 105.146C5.91309 73.7152 5.92806 42.2998 5.91309 10.8994V9.70898C5.93555 7.41797 7.39551 5.93555 9.66406 5.91309C10.6523 5.88314 11.6406 5.88314 12.6289 5.91309C15.167 5.91309 16.582 7.35059 16.582 9.91113C16.582 12.4717 16.627 14.875 16.582 17.3457C16.5596 18.1543 16.7393 18.4688 17.6377 18.4688H98.4521C99.3281 18.4688 99.5303 18.1543 99.5078 17.3457C99.4629 14.7702 99.4629 12.1872 99.5078 9.59668C99.5303 7.44043 101.013 5.95801 103.146 5.91309C104.314 5.89063 105.46 5.89063 106.628 5.91309C107.484 5.93 108.308 6.2391 108.964 6.78906C109.593 7.2832 109.795 8.06934 110.244 8.69824V107.392C109.981 108.032 109.593 108.614 109.104 109.104C108.614 109.593 108.032 109.981 107.392 110.244Z" fill="#1A87C9"/>
<path d="M110.244 8.69824C109.795 8.06934 109.593 7.2832 108.964 6.78906C108.308 6.2391 107.484 5.93 106.628 5.91309C105.46 5.89063 104.314 5.89063 103.146 5.91309C101.013 5.95801 99.5303 7.44043 99.5078 9.59668C99.4629 12.1872 99.4629 14.7702 99.5078 17.3457C99.5303 18.1543 99.3281 18.4687 98.4522 18.4687H17.6377C16.7393 18.4687 16.5596 18.1543 16.582 17.3457C16.627 14.875 16.6045 12.3818 16.582 9.91113C16.5596 7.44043 15.167 5.91309 12.6289 5.91309C11.6406 5.88314 10.6523 5.88314 9.66406 5.91309C7.39551 5.93555 5.93555 7.41797 5.91309 9.70898V10.832C5.91309 42.2624 5.89811 73.6777 5.86816 105.078C5.86816 107.437 6.33984 109.301 8.69824 110.244C7.82227 110.244 6.94629 110.222 6.04785 110.244C5.71094 110.267 5.57617 110.199 5.64355 109.84C5.6548 109.705 5.6548 109.57 5.64355 109.436C5.64355 75.1152 5.63607 40.8024 5.62109 6.49707C5.62109 5.77832 5.77832 5.62109 6.51953 5.62109H109.436C110.132 5.62109 110.334 5.75586 110.267 6.45215C110.214 7.19972 110.207 7.94977 110.244 8.69824Z" fill="white"/>
<path d="M13.7969 110.244C15.1445 109.57 16.335 108.762 16.5371 107.122C16.5972 106.375 16.6122 105.625 16.582 104.876C16.612 102.75 16.612 100.616 16.582 98.4746C16.582 97.8906 16.7617 97.6211 17.3906 97.6211L45.3994 97.666C45.3994 98.6768 45.3994 99.6875 45.4219 100.721C45.4219 103.416 46.8594 104.854 49.5771 104.876H82.1006C82.5723 104.876 83.0439 104.876 83.5156 104.831C85.4922 104.606 86.7725 103.214 86.8174 101.215C86.8398 100.024 86.8398 98.834 86.8623 97.666C90.7031 97.6436 94.5439 97.6885 98.3848 97.6211C99.3057 97.6211 99.5303 97.9131 99.5078 98.7891C99.4629 100.9 99.5977 103.012 99.4629 105.101C99.3281 107.189 99.9346 109.323 102.293 110.267L13.7969 110.244Z" fill="white"/>
<path d="M107.392 110.244C108.032 109.981 108.614 109.593 109.104 109.104C109.593 108.614 109.981 108.032 110.244 107.392C110.244 108.335 110.604 109.66 110.132 110.132C109.66 110.604 108.335 110.244 107.392 110.244Z" fill="white"/>
<path d="M86.8625 97.644C86.8401 98.812 86.8401 100.002 86.8176 101.193C86.7727 103.192 85.4924 104.584 83.5158 104.809C83.0442 104.854 82.5725 104.854 82.1008 104.854H49.5774C46.8596 104.831 45.4221 103.394 45.4221 100.699C45.3996 99.6655 45.3996 98.6547 45.3996 97.644V86.7954C45.3996 84.2123 45.3772 81.6293 45.4221 79.0463C45.4446 78.1479 45.2649 77.8334 44.2766 77.8334C39.9192 77.9008 35.5842 77.8784 31.2268 77.8334C28.9358 77.8334 27.4533 76.351 27.4533 74.0825C27.4309 69.3657 27.4533 64.6264 27.4533 59.9096H43.76C45.4221 59.9096 45.4221 59.9096 45.4221 58.2475C45.4221 57.0122 45.4446 55.7993 45.4221 54.5639C45.3996 51.3071 43.1535 49.061 39.9192 49.0385L28.6887 48.9936C31.092 44.2768 34.9778 41.851 40.2336 41.8286C51.3742 41.7836 62.5149 41.8286 73.6555 41.8286C75.1515 41.7971 76.6436 41.994 78.0803 42.4125C81.5617 43.5581 84.01 45.8715 85.6945 49.061C87.0197 51.8911 86.8176 54.9233 86.8176 57.9106C86.8176 58.562 86.8401 59.2133 86.8625 59.8422C86.8401 63.3237 86.8176 66.8276 86.8176 70.309C86.8401 75.812 86.8401 81.2924 86.8625 86.7954V97.644Z" fill="#EB6409"/>
<path d="M85.6943 49.083C84.0098 45.8936 81.5615 43.5801 78.0801 42.4346C76.6434 42.016 75.1513 41.8191 73.6553 41.8506C62.5146 41.8506 51.374 41.8057 40.2334 41.8506C34.9775 41.8731 31.0918 44.2988 28.6885 49.0156L17.3906 49.0606C16.7393 49.0606 16.582 48.791 16.582 48.207C16.612 42.1725 16.612 36.1305 16.582 30.0811C16.582 29.4522 16.8066 29.2051 17.4131 29.2725H98.0029C99.4853 29.2725 99.4853 29.2725 99.4853 30.7549C99.4853 36.46 99.4928 42.165 99.5078 47.8701C99.5078 48.7686 99.3057 49.083 98.3398 49.083C94.1172 49.0381 89.917 49.083 85.6943 49.083Z" fill="white"/>
<path d="M27.4531 59.9096C27.4531 64.6264 27.4307 69.3656 27.4531 74.0824C27.4531 76.351 28.9355 77.8334 31.2266 77.8334C35.584 77.8783 39.9189 77.9008 44.2764 77.8334C45.2646 77.8334 45.4443 78.1479 45.4219 79.0463C45.377 81.6293 45.3994 84.2123 45.3994 86.7953H17.7051C16.874 86.7953 16.582 86.5932 16.582 85.7172C16.612 77.4516 16.612 69.171 16.582 60.8754C16.582 60.0219 16.8291 59.7748 17.6826 59.7973C20.9395 59.9096 24.1963 59.8871 27.4531 59.9096Z" fill="white"/>
<path d="M86.8623 86.8174C86.8398 81.3144 86.8398 75.834 86.8174 70.3311C86.8174 66.8496 86.8398 63.3457 86.8623 59.8643C90.7256 59.8643 94.5889 59.8867 98.4522 59.8418C99.2607 59.8418 99.5078 60.0664 99.5078 60.875C99.4779 69.1855 99.4779 77.4961 99.5078 85.8066C99.5078 86.6152 99.2607 86.8398 98.4522 86.8398C94.5889 86.7949 90.7256 86.8174 86.8623 86.8174Z" fill="white"/>
</svg>
