<svg width="116" height="116" viewBox="0 0 116 116" fill="none" xmlns="http://www.w3.org/2000/svg">
<path d="M80.7979 61.2567C83.5156 61.2567 86.2334 61.1893 88.9512 61.2342C91.6689 61.2791 93.1514 63.3455 93.2188 66.1531C93.2412 66.8494 93.2188 67.5457 93.2188 68.242C93.2188 68.9383 93.1289 69.4324 93.0615 70.0164H8.49609V64.6258C9.59668 62.0203 10.7871 61.2342 13.6172 61.2342H65.0527C65.1201 62.4695 65.6816 63.0086 67.0518 63.0086H78.6416C79.9219 63.0086 80.416 62.5818 80.7979 61.2567Z" fill="#D0D8DA"/>
<path d="M52.4746 110.581H49.0605C48.8584 110.312 48.5439 110.312 48.252 110.222C46.7508 109.788 45.3985 108.949 44.3438 107.796C42.502 105.864 41.9404 103.483 41.918 100.923C41.8955 93.5781 41.8955 86.2334 41.873 78.8887H42.0752C42.0752 80.3711 42.0977 81.8311 42.0527 83.291C42.0303 83.9424 42.1875 84.2344 42.9287 84.2344C48.4766 84.1895 54.0469 84.2119 59.6172 84.1895C59.6172 90.1191 59.6846 96.0264 59.6172 101.934C59.6203 103.216 59.333 104.482 58.7767 105.638C58.2204 106.793 57.4097 107.807 56.4053 108.604C55.2373 109.57 53.8447 110.042 52.4746 110.581Z" fill="#F08137"/>
<path d="M87.8283 84.1895C87.8283 90.209 87.8732 96.2285 87.8058 102.248C87.7609 105.909 85.2453 109.054 81.7189 110.177C81.4269 110.289 81.0675 110.289 80.8429 110.581H77.4513C77.0695 110.446 76.7101 110.289 76.3283 110.177C72.8693 109.076 70.3088 105.864 70.2638 102.226C70.1965 96.2285 70.2638 90.209 70.2638 84.1895H87.8283Z" fill="#F08137"/>
<path d="M24.0841 110.581H20.8946C20.7235 110.487 20.5428 110.412 20.3556 110.356C16.3351 109.144 13.8194 106.089 13.7521 101.911C13.6398 96.0039 13.7296 90.0967 13.7521 84.1895H31.3165C31.3165 90.209 31.339 96.2285 31.2941 102.248C31.2716 104.696 30.1935 106.718 28.3966 108.38C27.1612 109.548 25.6339 110.064 24.0841 110.581Z" fill="#F08137"/>
<path d="M19.0527 40.0088C19.0527 34.9326 19.0752 29.834 19.0527 24.7578C19.0527 23.0283 18.4238 22.4443 16.6719 22.4443H8.49609V15.2568H18.4912C20.5801 15.2793 22.4893 15.8184 23.9941 17.3906C25.499 18.9629 26.083 20.6475 26.083 22.7139V39.9639L19.0527 40.0088Z" fill="#1A87C9"/>
<path d="M13.6846 78.8437C13.2129 78.8437 12.7637 78.8213 12.292 78.8437C10.4277 78.9561 9.28223 77.9678 8.49609 76.418V71.8135H33.5625C34.8877 71.8135 34.8652 71.8135 34.8877 73.1611C34.9102 74.5088 34.6182 76.3057 35.6963 77.6758C35.0225 78.6191 34.0342 78.8437 32.9336 78.8437H13.6846Z" fill="#959A9B"/>
<path d="M35.6963 77.6758C34.6182 76.3057 34.9102 74.7109 34.8877 73.1611C34.8652 71.6113 34.8877 71.8135 33.5625 71.8135H8.49609V70.0166H93.0391C93.376 70.5781 93.1064 71.207 93.2187 71.8135H79.1133C74.666 71.8135 70.2187 71.8359 65.749 71.8135C65.0752 71.791 64.8057 71.9707 64.8281 72.6895C64.8955 73.7451 64.873 74.8232 64.8955 75.8789C64.8168 76.536 64.5156 77.1463 64.042 77.6084C63.3457 76.957 63.0986 76.1035 63.0762 75.1826C63.0537 74.2617 63.0312 73.4531 63.0762 72.5996C63.1211 71.7461 62.8516 71.8135 62.2676 71.8135H37.4258C36.8643 71.8135 36.6621 71.9932 36.6621 72.5547C36.6846 73.7451 36.6621 74.958 36.6396 76.1484C36.3701 76.6875 36.2803 77.3389 35.6963 77.6758Z" fill="#696F7A"/>
<path d="M98.4296 40.0085C98.4296 35.4265 98.452 30.8445 98.4296 26.24C98.4071 21.0515 94.9481 16.7615 89.8944 15.5935C84.8407 14.4255 79.0907 17.7947 77.788 22.8933C76.9344 26.24 76.7098 25.9031 73.8348 25.9031H72.1278C70.9149 25.8581 70.1737 24.9597 70.3534 23.7693C71.6337 14.4255 79.6073 7.70971 88.951 8.33862C96.745 8.87768 103.124 14.4929 105.011 22.0173C105.378 23.6385 105.559 25.2964 105.55 26.9587C105.595 31.3162 105.572 35.696 105.572 40.0535L98.4296 40.0085Z" fill="#1A87C9"/>
<path d="M81.2021 47.084C80.708 50.3408 80.2363 53.6201 79.7422 56.877C79.5176 58.3145 79.293 59.752 79.0459 61.1895H66.6475L64.4912 47.084H81.2021Z" fill="#1A87C9"/>
<path d="M64.8953 75.8788C64.8729 74.8231 64.8953 73.745 64.8279 72.6893C64.8055 71.9706 65.075 71.7909 65.7488 71.8133C70.2186 71.8358 74.6658 71.8133 79.1131 71.8133H93.1961V74.7782C93.1737 77.451 91.826 78.8212 89.1756 78.8436H69.1854C66.6473 78.8436 65.7489 78.2147 64.8953 75.8788Z" fill="#959A9B"/>
<path d="M98.4294 40.0084H108.739C110.087 40.0309 110.783 40.6823 110.805 42.0075C110.828 43.3327 110.828 44.1413 110.805 45.1969C110.783 46.2526 110.109 46.9713 109.009 47.0163C107.908 47.0612 106.74 47.0612 105.617 47.0612H94.8582C94.4988 44.9499 93.8699 42.9059 93.241 40.862V47.1286C93.2185 48.611 93.2185 50.1159 93.196 51.5983C93.1857 51.9983 93.1407 52.3966 93.0613 52.7887C92.9707 53.1945 92.7369 53.5541 92.4028 53.8016C92.0687 54.0491 91.6566 54.168 91.2419 54.1364C90.8201 54.0989 90.4262 53.9098 90.133 53.6042C89.8398 53.2987 89.6673 52.8973 89.6472 52.4743C89.6023 51.4411 89.6248 50.4079 89.6248 49.3971V35.0221C89.6472 33.652 90.4333 32.8883 91.6462 33.0231C92.8591 33.1579 93.1511 33.8766 93.196 35.0221C93.241 36.1676 93.2185 37.7624 93.1736 39.11C93.1511 39.7838 93.3084 40.0758 94.0496 40.0309C95.5095 40.0084 96.9695 40.0309 98.4294 40.0084Z" fill="#959A9B"/>
<path d="M81.2024 47.084H64.4915C64.177 44.9951 63.885 42.9062 63.5256 40.8174C63.2561 39.2676 63.9749 38.2568 65.5696 38.2568H80.1243C81.7415 38.2568 82.4827 39.29 82.1907 40.9072C81.8313 42.9512 81.5393 45.0176 81.2024 47.084Z" fill="#D0D8DA"/>
<path d="M19.053 40.0088H26.0832L27.6555 40.0537C29.1604 40.0088 30.1936 40.75 31.0246 41.8955C31.4065 43.0859 31.4739 44.2764 30.8899 45.4443C29.7219 47.2412 27.9026 47.1289 26.1057 47.084H17.2336C15.2571 47.0391 13.7297 45.5342 13.7073 43.625C13.6848 41.7158 15.2571 40.1436 17.2561 40.0762L19.053 40.0088Z" fill="#959A9B"/>
<path d="M105.415 47.084H105.617C105.55 48.4092 105.64 49.7568 105.46 51.082C105.384 51.8802 105.007 52.6194 104.404 53.1484C104.196 53.3065 104.033 53.516 103.931 53.7562C103.828 53.9964 103.79 54.2591 103.82 54.5186C103.82 58.3145 103.798 62.1104 103.798 65.8838C103.798 69.6572 101.597 71.791 97.913 71.791H93.2187C93.1064 71.1846 93.3759 70.5557 93.039 69.9941C93.1288 69.4102 92.8818 68.7813 93.2187 68.2197H98.0029C99.5976 68.2197 100.204 67.5908 100.226 65.9736C100.226 62.4473 100.249 58.9209 100.249 55.417C100.688 55.6471 101.169 55.7857 101.663 55.8243C102.158 55.8629 102.654 55.8007 103.124 55.6416C103.865 55.3721 103.596 54.7207 103.618 54.1816C103.641 53.6426 103.371 53.8447 103.124 53.957C102.136 54.4287 101.192 54.1143 100.249 53.7998C98.497 52.5645 98.2499 50.7676 98.4745 48.8135C100.226 48.8135 101.978 48.8359 103.73 48.8135C105.482 48.791 105.437 49.2178 105.415 47.084Z" fill="#1A87C9"/>
<path d="M15.5039 61.2344V56.4727C15.5039 54.8105 16.0879 54.2041 17.75 54.2041H27.498C28.958 54.2266 29.6094 54.8555 29.6318 56.3379C29.6543 57.8203 29.6318 59.5947 29.6318 61.2119L15.5039 61.2344Z" fill="#959A9B"/>
<path d="M70.1963 78.8438H87.8955L87.8281 84.1895H70.2637L70.1963 78.8438Z" fill="#EB6409"/>
<path d="M30.8896 45.4443C31.4736 44.2764 31.4062 43.0859 31.0244 41.8955C32.5967 41.8731 34.1465 41.8281 35.7188 41.8506C36.4375 41.8731 36.752 41.6934 36.6846 40.9072C36.6172 40.1211 36.6621 39.1777 36.6846 38.3242C36.707 37.4707 37.3584 36.5723 38.3467 36.5498C39.335 36.5274 39.874 36.8867 40.1211 37.8301C40.2175 38.2198 40.2702 38.6191 40.2783 39.0205C40.2559 42.0303 40.2559 45.0625 40.2783 48.0947C40.279 48.5221 40.2107 48.9469 40.0762 49.3525C39.7842 50.2285 39.2227 50.7002 38.3018 50.6328C37.8683 50.5799 37.4676 50.3747 37.1714 50.0538C36.8752 49.7329 36.7027 49.3172 36.6846 48.8809C36.6621 47.7129 36.6621 46.5449 36.6621 45.377V42.2549C36.0557 43.2656 35.2471 44.1641 35.1348 45.3994L30.8896 45.4443Z" fill="#D0D8DA"/>
<path d="M26.083 54.1816H19.0303C19.0527 52.4072 19.0527 50.6328 19.0752 48.8359H26.0605C26.0605 50.6104 26.083 52.3848 26.083 54.1816Z" fill="#1A87C9"/>
<path d="M66.6475 61.1895H79.0459L80.7979 61.2568C80.416 62.582 79.9219 63.0088 78.6416 63.0088H67.0518C65.6816 63.0088 65.1201 62.4697 65.0527 61.2344L66.6475 61.1895Z" fill="#959A9B"/>
<path d="M26.0605 48.8359H19.0752C18.8281 48.2744 19.0527 47.668 18.918 47.084H26.1055C26.083 47.668 26.083 48.252 26.0605 48.8359Z" fill="#016BB1"/>
<path d="M105.415 47.084C105.438 49.2178 105.595 48.8135 103.73 48.8359C101.866 48.8584 100.227 48.8359 98.4746 48.8359L98.4072 47.0615L105.415 47.084Z" fill="#016BB1"/>
<path d="M93.2412 47.1514V40.8848C93.8701 42.9287 94.499 44.9727 94.8584 47.084L93.2412 47.1514Z" fill="#696F7A"/>
<path d="M100.249 53.8223C101.192 54.1367 102.136 54.4512 103.124 53.9795C103.371 53.8672 103.618 53.8672 103.618 54.2041C103.618 54.541 103.865 55.3945 103.124 55.6641C102.655 55.8232 102.158 55.8854 101.663 55.8467C101.169 55.8081 100.688 55.6696 100.249 55.4395V53.8223Z" fill="#016BB1"/>
<path d="M35.1348 45.3994C35.2471 44.1641 36.0557 43.2656 36.6621 42.2549V45.377L35.1348 45.3994Z" fill="#959A9B"/>
<path d="M36.6396 76.1484C36.6621 74.958 36.6846 73.7451 36.6621 72.5547C36.6621 71.9932 36.8643 71.8135 37.4258 71.8135H62.2676C62.8516 71.8135 63.0986 71.9707 63.0762 72.5996C63.0537 73.2285 63.0537 74.3291 63.0762 75.1826C63.0986 76.0361 63.3457 76.957 64.042 77.6084C63.2783 78.6416 62.1777 78.8887 60.9648 78.8437H48.5215L42.0752 78.8887H41.873C41.626 78.8887 41.3564 78.8213 41.0869 78.8437C38.9307 79.0684 37.4707 78.125 36.6396 76.1484Z" fill="#959A9B"/>
<path d="M42.0753 78.8662L48.5215 78.8213H59.6846L59.6173 84.167C54.0469 84.167 48.4766 84.1445 42.9288 84.1895C42.1876 84.1895 42.0303 83.8975 42.0528 83.2461C42.0977 81.8086 42.0753 80.3486 42.0753 78.8662Z" fill="#EB6409"/>
<path d="M13.6846 78.8438H31.4736C31.3164 80.6182 31.6084 82.415 31.3164 84.2119H13.752L13.6846 78.8438Z" fill="#EB6409"/>
</svg>
