<svg width="116" height="115" viewBox="0 0 116 115" fill="none" xmlns="http://www.w3.org/2000/svg">
<path d="M28.2168 91.6855C27.7451 89.7539 27.2285 89.3047 25.5664 89.3047H21.9053C20.4678 89.2598 19.6367 88.2939 19.6367 86.6094V55.9277C19.6367 55.209 19.7266 54.917 20.4453 54.9395H35.1123C35.7861 54.9395 35.9658 55.1416 35.9658 55.9053C35.9209 59.791 35.9434 63.6543 35.9434 67.5176C35.9434 69.4717 36.707 70.3477 38.3691 70.3477H54.9902C56.6074 70.3477 57.3711 69.4941 57.3711 67.6299C57.3711 63.7441 57.3936 59.8809 57.3486 56.0176C57.3262 55.0967 57.5732 54.917 58.3145 54.9395C63.1061 54.9844 67.8978 54.9769 72.6895 54.917C73.5879 54.917 73.7227 55.2539 73.7002 56.1748C73.6553 59.9707 73.6777 63.7666 73.6777 67.5625C73.6777 69.4717 74.4414 70.3477 76.126 70.3477H87.042C88.6592 70.3477 89.3779 69.4941 89.3779 67.585C89.4004 63.7217 89.4004 59.8584 89.3779 55.9727C89.3555 55.1641 89.5127 54.917 90.2539 54.9395C95.1055 54.9844 99.9795 54.9619 104.831 54.9395C105.55 54.917 105.729 55.1416 105.707 55.9727C105.685 66.125 105.707 76.2773 105.707 86.4072C105.707 88.4287 104.966 89.3047 103.214 89.3047H80.0791C76.3057 89.3047 73.6777 92.3594 73.6777 96.7393C73.6777 101.119 73.6553 104.87 73.7002 108.936C73.7002 109.677 73.5654 109.946 72.8691 109.924H58.2021C57.4834 109.946 57.3711 109.654 57.3711 108.913C57.3936 104.893 57.3936 100.872 57.3936 96.8291C57.3711 92.2471 54.833 89.3047 50.9023 89.3047H44.8828C43.3106 89.3047 42.7041 89.8887 42.3897 91.708H37.3809C36.9316 90.0459 36.3701 89.3945 35.3369 89.3271C34.3037 89.2598 33.585 89.9561 33.1133 91.708L28.2168 91.6855Z" fill="#1A87C9"/>
<path d="M47.8252 30.6592C47.8252 41.5303 38.8184 50.4024 27.8125 50.4024C16.8067 50.4024 7.68754 41.4629 7.71 30.5694C7.73246 19.6758 16.8067 10.8038 27.8799 10.8262C38.9532 10.8487 47.8477 19.7432 47.8252 30.6592ZM34.4385 31.1084C34.461 26.0997 29.9463 22.8653 25.5889 24.4151C24.7803 24.7071 24.3536 24.5498 23.8145 23.9659C22.4893 22.4834 21.0743 21.0909 19.7041 19.6534C19.358 19.2606 18.8771 19.0121 18.3565 18.9571C17.3682 18.9122 16.627 19.3164 16.1778 20.17C15.7286 21.0235 15.8858 21.9668 16.5821 22.708C17.9522 24.1905 19.3223 25.6729 20.7598 27.1104C21.3213 27.6719 21.5459 28.1436 21.2989 28.9971C20.5801 31.6475 21.3663 33.9385 23.5 35.668C25.6338 37.3975 28.0372 37.7344 30.5528 36.5664C33.0684 35.3985 34.2588 33.3321 34.4385 31.1084ZM16.1553 40.003C16.1493 40.2987 16.2024 40.5927 16.3115 40.8677C16.4206 41.1427 16.5834 41.3932 16.7905 41.6044C16.9976 41.8157 17.2447 41.9835 17.5175 42.0981C17.7902 42.2126 18.0831 42.2716 18.3789 42.2715C18.9561 42.2612 19.5081 42.0334 19.9246 41.6336C20.341 41.2338 20.5912 40.6916 20.625 40.1153C20.625 39.5196 20.3884 38.9483 19.9672 38.527C19.546 38.1058 18.9746 37.8692 18.3789 37.8692C17.8028 37.863 17.2472 38.0831 16.8314 38.482C16.4157 38.881 16.1729 39.427 16.1553 40.003ZM43.3555 31.0411C43.3585 30.7549 43.3051 30.471 43.1983 30.2056C43.0915 29.9401 42.9335 29.6983 42.7333 29.4939C42.5331 29.2895 42.2945 29.1265 42.0313 29.0143C41.7681 28.9021 41.4854 28.8428 41.1993 28.8399C40.9042 28.8181 40.6078 28.8578 40.329 28.9567C40.0501 29.0555 39.7949 29.2113 39.5794 29.414C39.364 29.6168 39.1931 29.8622 39.0775 30.1345C38.962 30.4069 38.9043 30.7003 38.9082 30.9961C38.936 31.5867 39.1846 32.1454 39.6047 32.5614C40.0249 32.9774 40.586 33.2204 41.1768 33.2422C42.2999 33.2647 43.333 32.1866 43.3555 31.0411ZM36.8418 37.8692C36.547 37.8719 36.2556 37.9339 35.9852 38.0515C35.7147 38.169 35.4706 38.3397 35.2674 38.5534C35.0642 38.7671 34.906 39.0194 34.8022 39.2955C34.6984 39.5715 34.6511 39.8655 34.6631 40.1602C34.6922 40.7381 34.9454 41.2819 35.369 41.6761C35.7926 42.0704 36.3532 42.2839 36.9317 42.2715C37.5079 42.2543 38.0555 42.0162 38.4611 41.6065C38.8666 41.1967 39.0991 40.6468 39.1104 40.0704C39.1075 39.7764 39.0463 39.486 38.9305 39.2158C38.8146 38.9457 38.6463 38.7012 38.4353 38.4965C38.2244 38.2918 37.9749 38.131 37.7014 38.0233C37.4279 37.9156 37.1357 37.8632 36.8418 37.8692ZM27.9473 15.2286C27.6623 15.2165 27.3777 15.2612 27.11 15.36C26.8423 15.4587 26.597 15.6096 26.388 15.8039C26.1791 15.9982 26.0108 16.232 25.8929 16.4918C25.775 16.7516 25.7099 17.0323 25.7012 17.3174C25.6861 17.6121 25.7304 17.9067 25.8314 18.1839C25.9324 18.4611 26.0881 18.7151 26.2893 18.9309C26.4904 19.1467 26.7329 19.3199 27.0023 19.4402C27.2717 19.5604 27.5625 19.6253 27.8575 19.6309C28.4536 19.6312 29.0263 19.3991 29.4541 18.9839C29.8819 18.5687 30.1309 18.0031 30.1485 17.4073C30.1259 16.8328 29.8861 16.2883 29.4775 15.8838C29.0689 15.4794 28.522 15.2452 27.9473 15.2286ZM12.1573 30.5694C12.1482 30.863 12.1985 31.1555 12.3054 31.4291C12.4122 31.7028 12.5732 31.952 12.7789 32.1618C12.9845 32.3716 13.2304 32.5377 13.5019 32.65C13.7733 32.7624 14.0647 32.8186 14.3584 32.8155C14.9331 32.822 15.488 32.6058 15.9067 32.2122C16.3255 31.8186 16.5755 31.2781 16.6045 30.7041C16.6495 29.5137 15.5938 28.458 14.3809 28.4356C13.8064 28.4351 13.254 28.657 12.8395 29.0548C12.425 29.4526 12.1805 29.9953 12.1573 30.5694ZM39.5821 21.4278C39.5706 20.8535 39.3374 20.306 38.9312 19.8999C38.5251 19.4938 37.9776 19.2606 37.4034 19.2491C36.1905 19.2491 35.1123 20.3047 35.1348 21.4952C35.1578 22.0713 35.4016 22.6165 35.8155 23.0179C36.2294 23.4193 36.7819 23.6461 37.3584 23.6514C37.653 23.6608 37.9463 23.6096 38.2203 23.5012C38.4944 23.3928 38.7432 23.2293 38.9516 23.0209C39.16 22.8126 39.3234 22.5637 39.4319 22.2897C39.5403 22.0157 39.5914 21.7223 39.5821 21.4278Z" fill="#76CBEE"/>
<path d="M74.8906 34.4555C74.8906 39.4418 74.8682 44.4057 74.9131 49.392C74.9131 50.268 74.666 50.515 73.79 50.4926C68.2422 50.4701 62.6719 50.4477 57.1016 50.4926C56.2256 50.515 56.001 50.2455 56.001 49.392C56.0459 39.3295 56.0459 29.282 56.001 19.2494C56.001 18.3734 56.248 18.1264 57.124 18.1488C62.6719 18.1713 68.2422 18.1713 73.79 18.1488C74.6885 18.1264 74.9131 18.3959 74.8906 19.2494C74.8682 24.3256 74.8906 29.3793 74.8906 34.4555Z" fill="#EB6409"/>
<path d="M97.3963 36.005C94.8357 36.005 92.2976 35.9826 89.7371 36.0275C88.951 36.0499 88.5691 35.9152 88.6365 34.9943C89.0183 29.6486 89.3328 24.3029 89.6472 18.9572C89.6922 18.2384 89.9168 17.924 90.7254 17.9464C95.24 17.9914 99.7322 17.9689 104.247 17.9464C104.943 17.9464 105.168 18.1261 105.213 18.8673C105.505 24.213 105.797 29.5587 106.179 34.9044C106.246 35.9152 105.954 36.0499 105.055 36.0275C102.517 35.9826 99.9568 36.005 97.3963 36.005Z" fill="#D0D8DA"/>
<path d="M103.483 48.8526C103.478 49.649 103.315 50.4364 103.005 51.17C102.694 51.9035 102.243 52.5687 101.675 53.1277C101.108 53.6867 100.436 54.1284 99.6983 54.4277C98.9602 54.727 98.1705 54.878 97.3741 54.8721C94.0948 54.8272 91.3096 51.9971 91.3545 48.7403C91.384 47.1297 92.0461 45.5953 93.1977 44.4689C94.3494 43.3426 95.898 42.7146 97.5088 42.7207C98.3042 42.7295 99.09 42.8953 99.8212 43.2085C100.552 43.5217 101.214 43.9762 101.77 44.5459C102.325 45.1156 102.762 45.7893 103.056 46.5283C103.35 47.2674 103.495 48.0573 103.483 48.8526Z" fill="#D0D8DA"/>
<path d="M106.201 36.0498C105.482 38.6104 104.831 40.9688 104.157 43.3496C103.977 44.0234 103.82 44.4277 102.877 43.9785C99.1931 42.2266 95.4646 42.249 91.7586 43.9785C91.1072 44.293 90.7928 44.3604 90.5681 43.4395C90.0515 41.3057 89.3777 39.2168 88.7488 37.1279C88.5467 36.4316 88.5467 36.0273 89.49 36.0273C94.9929 36.0723 100.496 36.0498 106.201 36.0498Z" fill="#76CBEE"/>
<path d="M61.998 54.9167C62.29 53.614 62.5596 52.3786 62.8066 51.1657C62.9189 50.6491 63.1436 50.447 63.6377 50.4694C64.8506 50.5144 66.0635 50.4919 67.2988 50.4919C67.6357 50.4919 67.9502 50.4694 68.04 50.986C68.3096 52.2888 68.6016 53.5691 68.916 54.9167H61.998Z" fill="#D0D8DA"/>
<path d="M65.5918 10.6465C69.1631 10.6465 69.1631 10.6465 69.1631 14.1953C69.1631 18.1484 69.1631 18.1484 65.2324 18.1484C61.6611 18.1484 61.6611 18.1484 61.6611 14.5771C61.6611 10.6465 61.6611 10.6465 65.5918 10.6465Z" fill="#D0D8DA"/>
<path d="M20.0635 52.5811C20.0635 50.4023 20.0635 50.4023 27.5654 50.4023C35.4941 50.4023 35.4941 50.4023 35.4941 52.8057C35.4941 55.209 35.4941 54.9619 28.1494 54.9619C20.0635 54.9619 20.0635 54.9619 20.0635 52.5811Z" fill="#D0D8DA"/>
<path d="M34.4383 31.1084C34.2586 33.332 33.0906 35.3985 30.5525 36.5664C28.0144 37.7344 25.6111 37.3975 23.4998 35.668C21.3884 33.9385 20.5799 31.6475 21.2986 28.9971C21.5457 28.1436 21.3211 27.6719 20.7595 27.1104C19.322 25.6729 17.9519 24.1904 16.5818 22.708C15.8855 21.9668 15.7058 21.0908 16.1775 20.1699C16.6492 19.249 17.3679 18.9121 18.3562 18.957C18.8768 19.0121 19.3578 19.2606 19.7039 19.6533C21.074 21.0908 22.489 22.4834 23.8142 23.9658C24.3533 24.5498 24.78 24.707 25.5886 24.4151C29.9461 22.8653 34.4607 26.0996 34.4383 31.1084ZM29.9685 30.6592C29.991 29.5361 28.9578 28.458 27.7898 28.4356C27.2183 28.4398 26.6695 28.6597 26.2531 29.0511C25.8366 29.4426 25.5833 29.9767 25.5437 30.5469C25.554 31.1241 25.7819 31.6761 26.1817 32.0925C26.5814 32.509 27.1237 32.7591 27.7 32.793C28.823 32.8379 29.9236 31.8047 29.9685 30.6592Z" fill="#EB6409"/>
<path d="M16.1552 40.0031C16.1728 39.4271 16.4156 38.881 16.8313 38.4821C17.2471 38.0831 17.8027 37.8631 18.3789 37.8693C18.9746 37.8693 19.5459 38.1059 19.9671 38.5271C20.3883 38.9484 20.625 39.5197 20.625 40.1154C20.5911 40.6916 20.3409 41.2339 19.9245 41.6337C19.5081 42.0334 18.9561 42.2613 18.3789 42.2716C18.083 42.2717 17.7902 42.2127 17.5174 42.0982C17.2447 41.9836 16.9975 41.8158 16.7904 41.6045C16.5833 41.3933 16.4205 41.1428 16.3114 40.8678C16.2024 40.5928 16.1493 40.2988 16.1552 40.0031Z" fill="#EB6409"/>
<path d="M43.3557 31.041C43.3332 32.1865 42.3 33.2646 41.1769 33.2421C40.5861 33.2203 40.025 32.9773 39.6049 32.5613C39.1847 32.1453 38.9361 31.5866 38.9084 30.9961C38.9045 30.7002 38.9621 30.4068 39.0777 30.1344C39.1932 29.8621 39.3641 29.6167 39.5796 29.4139C39.795 29.2112 40.0503 29.0554 40.3291 28.9566C40.608 28.8577 40.9044 28.818 41.1994 28.8398C41.4855 28.8427 41.7683 28.902 42.0315 29.0142C42.2947 29.1264 42.5332 29.2894 42.7334 29.4938C42.9337 29.6982 43.0917 29.94 43.1984 30.2055C43.3052 30.471 43.3586 30.7549 43.3557 31.041Z" fill="#EB6409"/>
<path d="M36.8417 37.8696C37.1356 37.8636 37.4277 37.916 37.7012 38.0237C37.9748 38.1314 38.2242 38.2922 38.4352 38.4969C38.6461 38.7016 38.8144 38.9461 38.9303 39.2162C39.0462 39.4864 39.1073 39.7768 39.1102 40.0708C39.099 40.6472 38.8665 41.1972 38.4609 41.6069C38.0554 42.0166 37.5078 42.2548 36.9315 42.2719C36.353 42.2844 35.7924 42.0708 35.3689 41.6766C34.9453 41.2823 34.6921 40.7385 34.663 40.1606C34.6509 39.866 34.6982 39.5719 34.802 39.2959C34.9058 39.0198 35.064 38.7675 35.2672 38.5538C35.4705 38.3401 35.7145 38.1694 35.985 38.0519C36.2555 37.9343 36.5468 37.8724 36.8417 37.8696Z" fill="#EB6409"/>
<path d="M27.9472 15.2285C28.5219 15.2451 29.0688 15.4793 29.4774 15.8838C29.8861 16.2882 30.1259 16.8327 30.1484 17.4072C30.1309 18.003 29.8818 18.5686 29.454 18.9838C29.0262 19.399 28.4535 19.6311 27.8574 19.6308C27.5624 19.6252 27.2716 19.5603 27.0022 19.4401C26.7328 19.3198 26.4903 19.1466 26.2892 18.9308C26.0881 18.715 25.9323 18.461 25.8313 18.1838C25.7303 17.9066 25.686 17.612 25.7011 17.3173C25.7098 17.0322 25.775 16.7516 25.8929 16.4918C26.0108 16.232 26.179 15.9981 26.388 15.8039C26.5969 15.6096 26.8423 15.4587 27.1099 15.3599C27.3776 15.2611 27.6622 15.2165 27.9472 15.2285Z" fill="#EB6409"/>
<path d="M12.1573 30.5693C12.1805 29.9953 12.425 29.4525 12.8395 29.0548C13.254 28.657 13.8064 28.4351 14.3809 28.4355C15.5938 28.458 16.6495 29.5137 16.6046 30.7041C16.5756 31.2781 16.3255 31.8185 15.9067 32.2121C15.488 32.6058 14.9331 32.822 14.3585 32.8154C14.0647 32.8186 13.7733 32.7623 13.5019 32.65C13.2304 32.5377 12.9845 32.3716 12.7789 32.1618C12.5733 31.952 12.4122 31.7027 12.3054 31.4291C12.1986 31.1554 12.1482 30.863 12.1573 30.5693Z" fill="#EB6409"/>
<path d="M39.5819 21.4277C39.5912 21.7223 39.5401 22.0156 39.4317 22.2896C39.3233 22.5636 39.1598 22.8125 38.9514 23.0209C38.743 23.2293 38.4942 23.3927 38.2201 23.5012C37.9461 23.6096 37.6528 23.6607 37.3583 23.6514C36.7817 23.6461 36.2292 23.4192 35.8153 23.0178C35.4014 22.6164 35.1577 22.0712 35.1346 21.4951C35.1122 20.3047 36.1903 19.249 37.4032 19.249C37.9774 19.2605 38.5249 19.4937 38.931 19.8999C39.3372 20.306 39.5704 20.8535 39.5819 21.4277Z" fill="#EB6409"/>
<path d="M29.9687 30.6592C29.9238 31.8047 28.8232 32.8379 27.7002 32.793C27.1239 32.7591 26.5817 32.5089 26.1819 32.0925C25.7821 31.6761 25.5543 31.1241 25.5439 30.5469C25.5835 29.9767 25.8369 29.4425 26.2533 29.0511C26.6697 28.6597 27.2185 28.4398 27.79 28.4355C28.958 28.458 29.9912 29.5361 29.9687 30.6592Z" fill="#D0D8DA"/>
</svg>
