<svg width="116" height="116" viewBox="0 0 116 116" fill="none" xmlns="http://www.w3.org/2000/svg">
<path d="M58.3369 50.9248C62.3799 50.9248 66.4228 50.9023 70.4658 50.9473C71.1172 50.9473 71.4092 50.8574 71.4092 50.0713C71.3643 46.5449 71.3643 43.0186 71.3643 39.4922H83.6504L83.1113 39.7393C81.7187 40.4131 80.9326 41.918 81.2471 43.3555C81.3961 44.0865 81.7901 44.7449 82.3638 45.2219C82.9375 45.6988 83.6567 45.9659 84.4027 45.979C85.1487 45.9921 85.8768 45.7504 86.4669 45.2938C87.057 44.8373 87.4738 44.1931 87.6484 43.4678C88.0527 41.8057 87.1992 40.3682 85.2676 39.4922H97.5537V50.9023C97.5537 52.1152 97.4639 53.3506 97.5537 54.5635C97.6435 55.7764 97.3291 55.8213 96.3184 55.8213C88.1875 55.7764 80.0566 55.7988 71.9258 55.7988C69.7246 55.7988 69.7695 55.7988 69.7246 57.9775C69.7021 58.8535 69.9268 59.123 70.8477 59.123C79.001 59.0781 87.1768 59.1006 95.3525 59.1006C97.5312 59.1006 97.4863 59.1006 97.5312 61.2793C97.5537 62.1328 97.3066 62.3574 96.4531 62.3574C88.2549 62.3125 80.0566 62.335 71.8584 62.335C69.7246 62.335 69.792 62.335 69.7246 64.4687C69.6797 65.4346 69.9941 65.6592 70.915 65.6592C79.1133 65.6143 87.3115 65.6367 95.5098 65.6367C97.5312 65.6367 97.4639 65.6367 97.5537 67.6807C97.5986 68.7139 97.2393 68.8936 96.2959 68.8936C88.165 68.8486 80.0117 68.8711 71.8809 68.8711C69.7246 68.8711 69.792 68.8711 69.7021 70.9824C69.6797 72.0156 70.0391 72.1953 70.9824 72.1953C79.1133 72.1504 87.2441 72.1729 95.375 72.1729C97.5312 72.1729 97.4863 72.1729 97.5537 74.2842C97.5762 75.1826 97.3291 75.4297 96.4307 75.4297C88.2549 75.3848 80.0791 75.4072 71.9258 75.4072C69.7246 75.4072 69.7695 75.4072 69.7246 77.5859C69.7021 78.4844 69.9492 78.7314 70.8477 78.7314C78.3721 78.6865 85.8965 78.709 93.4209 78.709C94.5439 78.709 95.667 78.7314 96.79 78.6865C97.374 78.6641 97.5537 78.8887 97.5312 79.4727C97.5088 80.0566 97.5312 81.292 97.5312 82.2129C97.5312 83.6279 97.5312 83.6279 98.9912 83.5605C101.462 83.5605 103.955 83.6055 106.426 83.5605C107.122 83.5605 107.369 83.7178 107.347 84.459C107.302 87.1693 107.302 89.887 107.347 92.6123C107.347 93.2412 107.167 93.4209 106.538 93.3984C104.472 93.376 102.405 93.376 100.316 93.3984C99.9795 93.3984 99.5752 93.2188 99.3057 93.623C99.0137 93.3535 98.6768 93.3984 98.3398 93.3984H46.5674L45.2422 93.3535C45.2422 91.2422 45.2646 89.1309 45.2422 87.0195C45.2197 84.9082 43.8721 83.6055 41.9854 83.6055C40.0986 83.6055 38.7285 85.0205 38.7061 87.0195V93.3535H32.1924C32.1699 91.2197 32.1924 89.0635 32.1699 86.9297C32.1475 84.7959 30.7549 83.6055 28.9131 83.6055C27.0713 83.6055 25.6562 84.998 25.6562 86.9297C25.6562 88.8613 25.6562 91.2197 25.6562 93.3535L18.4912 93.3984C18.0869 93.3984 17.6826 93.3086 17.3457 93.623C17.0762 93.2188 16.6494 93.3984 16.3125 93.3984C14.2236 93.376 12.1572 93.3535 10.0908 93.3984C9.43945 93.4209 9.28223 93.1963 9.28223 92.5898C9.32715 89.8271 9.32715 87.0869 9.30469 84.3242C9.28223 83.7402 9.46191 83.5605 10.0459 83.583C11.6406 83.6055 13.2354 83.5381 14.8301 83.6055C15.6611 83.6504 15.8408 83.3809 15.8408 82.5947C15.8258 72.2178 15.8184 61.8333 15.8184 51.4414C15.8146 51.2764 15.8221 51.1113 15.8408 50.9473V37.8076C15.8184 36.999 15.8633 36.168 15.7959 35.3594C15.7285 34.5508 16.043 34.5283 16.6719 34.5283H32.1699V50.8799C30.373 50.8799 28.5762 50.9248 26.7793 50.8799C25.9258 50.835 25.6113 51.0147 25.6338 51.958C25.6787 58.876 25.6787 65.779 25.6338 72.667C25.6113 73.6103 25.9033 73.7676 26.7568 73.7676C35.0973 73.7376 43.4303 73.7376 51.7559 73.7676C51.782 73.9687 51.797 74.1712 51.8008 74.374C51.8008 78.2148 51.8008 82.0557 51.7559 85.8965C51.7559 86.6602 51.9805 86.8848 52.7441 86.8398C54.2715 86.7949 55.7988 86.7949 57.3262 86.8623C58.1572 86.8848 58.3369 86.6152 58.3369 85.8291C58.3144 81.8086 58.3369 77.8105 58.3594 73.79H64.0644C64.6709 73.79 64.8955 73.6104 64.873 72.9814C64.8431 69.1331 64.8431 65.2923 64.873 61.459C64.8955 60.8301 64.6709 60.6504 64.0644 60.6728C62.1553 60.6953 60.2461 60.6728 58.3594 60.6504L58.3369 50.9248Z" fill="#016BB1"/>
<path d="M98.9912 83.5605C97.5313 83.6279 97.5313 83.6279 97.5313 82.2129C97.5313 81.292 97.4863 80.3711 97.5313 79.4727C97.5762 78.5742 97.374 78.6641 96.7901 78.6865C95.667 78.7314 94.544 78.709 93.4209 78.709C85.8965 78.709 78.3721 78.6865 70.8477 78.7314C69.9492 78.7314 69.7022 78.4844 69.7246 77.5859C69.7695 75.4072 69.7246 75.4072 71.9258 75.4072C80.0791 75.4072 88.2549 75.3848 96.4307 75.4297C97.3291 75.4297 97.5762 75.1826 97.5537 74.2842C97.4863 72.1729 97.5313 72.1729 95.375 72.1729C87.2441 72.1729 79.1133 72.1504 70.9824 72.1953C70.0391 72.1953 69.6797 72.0156 69.7022 70.9824C69.792 68.8711 69.7246 68.8711 71.8809 68.8711C80.0117 68.8711 88.165 68.8486 96.2959 68.8936C97.2393 68.8936 97.5986 68.7139 97.5537 67.6807C97.4639 65.6367 97.5313 65.6367 95.5098 65.6367C87.3115 65.6367 79.1133 65.6143 70.915 65.6592C69.9941 65.6592 69.6797 65.4346 69.7246 64.4688C69.792 62.335 69.7246 62.335 71.8584 62.335C80.0567 62.335 88.2549 62.3125 96.4531 62.3574C97.3067 62.3574 97.5537 62.1328 97.5313 61.2793C97.4863 59.1006 97.5313 59.1006 95.3525 59.1006C87.1768 59.1006 79.001 59.0781 70.8477 59.123C69.9268 59.123 69.7022 58.8535 69.7246 57.9775C69.7695 55.7988 69.7246 55.7988 71.9258 55.7988C80.0566 55.7988 88.1875 55.7764 96.3184 55.8213C97.3291 55.8213 97.5986 55.5293 97.5537 54.5635C97.5088 53.5977 97.5537 52.1152 97.5537 50.9023C103.146 51.0371 107.324 55.3047 107.324 60.9199C107.347 65.0752 107.257 69.2305 107.347 73.3857C107.481 78.2822 103.955 82.6846 99.1485 83.4482C99.0811 83.4482 99.0361 83.5156 98.9912 83.5605Z" fill="#76CBEE"/>
<path d="M32.1699 50.9023V34.5508C32.1924 33.3379 32.2148 32.125 32.2148 30.9121C32.3859 30.912 32.5547 30.8737 32.709 30.7998C36.0557 28.5312 38.3916 25.499 39.335 21.501L45.085 21.5684C44.3887 23.4775 43.333 25.2295 42.457 27.0713C42.1387 27.698 41.9696 28.3899 41.9629 29.0928C42.0078 30.6201 41.9854 32.1475 41.9854 33.6748C41.9854 34.0566 41.9404 34.4385 42.21 34.7529C41.8281 34.9775 41.9629 35.3594 41.9629 35.6738V50.0488C41.9629 50.4307 41.9404 50.79 42.165 51.127C41.8281 51.4189 41.9854 51.8232 41.9854 52.1826C41.9629 54.1367 41.9404 56.1133 41.9854 58.0898C42.0078 58.8311 41.8281 59.1006 41.042 59.0781C38.3916 59.0332 35.7412 59.0557 33.0908 59.0781C32.3496 59.1006 32.1699 58.8311 32.1699 58.1572C32.2148 55.7314 32.1699 53.3281 32.1699 50.9023Z" fill="#A9B1BD"/>
<path d="M58.3594 73.8127C58.3369 77.8332 58.3145 81.8312 58.3369 85.8517C58.3369 86.6378 58.1572 86.9074 57.3262 86.8849C55.7988 86.8175 54.2715 86.8175 52.7441 86.8625C51.9805 86.9074 51.7559 86.6828 51.7559 85.9191C51.8008 82.0783 51.8008 78.2375 51.8008 74.3966C51.797 74.1938 51.782 73.9914 51.7559 73.7902C51.7559 69.3878 51.7559 65.008 51.7334 60.6281C51.7559 60.2687 51.8008 59.8869 51.8008 59.5275C51.8008 55.8664 51.8232 52.2052 51.7783 48.5666C51.7783 47.8703 51.9355 47.6007 52.6768 47.6457C53.418 47.6906 54.2266 47.6232 55.0127 47.6232C55.7988 47.6232 56.7197 47.6681 57.5508 47.6232C58.3818 47.5783 58.3594 47.7804 58.3369 48.3869C58.3145 48.9933 58.3369 50.0714 58.3369 50.925C58.3369 54.1818 58.3594 57.4386 58.3594 60.673V73.8127Z" fill="#EB6409"/>
<path d="M83.6504 39.5145H68.085C68.9609 38.369 69.7021 37.3358 70.4658 36.325C71.2295 35.3143 71.9482 33.6971 73.0713 33.1356C74.1943 32.5741 75.7891 32.9559 77.1816 32.9559C83.0889 32.9559 88.9961 32.9784 94.9033 32.9334C95.6221 32.9334 96.0938 33.1131 96.498 33.7196C97.8682 35.6063 99.2832 37.4706 100.833 39.5145H83.6504Z" fill="#696F7A"/>
<path d="M55.0128 47.623C54.2267 47.623 53.4406 47.7129 52.6769 47.6455C51.9132 47.5781 51.7784 47.8701 51.7784 48.5664C51.8234 52.2051 51.8009 55.8662 51.8009 59.5273C51.8009 59.8867 51.756 60.2686 51.7335 60.6279L42.1652 51.127C41.9406 50.79 41.963 50.4307 41.963 50.0488V35.6738C41.963 35.3594 41.8282 34.9775 42.2101 34.7529L55.0128 47.623Z" fill="#016BB1"/>
<path d="M45.085 21.5684L39.335 21.501L28.9356 21.4561C28.9356 19.5693 28.9581 17.6602 28.9131 15.751C28.8907 15.0996 29.1153 14.9648 29.7217 14.9648C34.6182 14.9798 39.5147 14.9723 44.4112 14.9424C45.085 14.9424 45.3096 15.1221 45.2647 15.7959C45.1299 17.7275 45.4444 19.6592 45.085 21.5684Z" fill="#768291"/>
<path d="M15.8408 37.8076V50.9473C13.8867 50.9248 11.9551 50.9023 10.0234 50.9248C9.43945 50.9248 9.28223 50.7676 9.28223 50.1836C9.32715 46.3203 9.32715 42.4346 9.28223 38.5488C9.28223 37.9873 9.43945 37.8076 10.0234 37.8301C11.9551 37.8525 13.8867 37.8076 15.8408 37.8076Z" fill="#696F7A"/>
<path d="M17.3457 93.623C17.6826 93.3086 18.0869 93.3984 18.4912 93.3984L25.6562 93.3535C27.251 93.4883 28.8457 93.2412 30.4404 93.5107C27.4531 95.4873 24.4434 97.4639 21.4561 99.4854C21.0197 99.801 20.4892 99.9594 19.9512 99.9346H14.2012L17.3457 93.623Z" fill="#696F7A"/>
<path d="M86.2334 93.3983H98.3398C98.6768 93.3983 99.0137 93.3534 99.3057 93.6229L102.45 99.9344H96.1387C95.9718 99.9354 95.8082 99.8886 95.667 99.7997C92.5225 97.6434 89.2881 95.6444 86.2334 93.3983Z" fill="#696F7A"/>
<path d="M30.4406 93.5107C28.8459 93.2412 27.2512 93.4883 25.6565 93.3535C25.6565 91.2197 25.634 89.0635 25.6565 86.9297C25.6789 84.7959 27.049 83.6055 28.9133 83.6055C30.7776 83.6055 32.1477 84.998 32.1701 86.9297C32.1926 88.8613 32.1701 91.2197 32.1926 93.3535C31.6086 93.4658 31.0022 93.2861 30.4406 93.5107Z" fill="#EB6409"/>
<path d="M38.7061 93.3535V87.0195C38.7285 85.0205 40.0762 83.6055 41.9853 83.6055C43.8945 83.6055 45.2422 85.0205 45.2422 87.0195C45.2422 89.0186 45.2422 91.2422 45.2422 93.3535H38.7061Z" fill="#EB6409"/>
<path d="M28.9355 21.4561L39.335 21.501C38.3916 25.499 36.0557 28.5312 32.709 30.7998C32.5547 30.8737 32.3859 30.912 32.2148 30.9121C32.6191 28.2393 31.1143 26.1729 30.0586 23.9492C29.6768 23.1406 29.0928 22.3994 28.9355 21.4561Z" fill="#D0D8DA"/>
<path d="M42.1653 51.1274L51.7336 60.6284C51.7561 65.0082 51.7561 69.3881 51.7561 73.7905C43.4306 73.7605 35.0975 73.7605 26.7571 73.7905C25.9035 73.7905 25.6115 73.6332 25.634 72.6899C25.6789 65.8019 25.6789 58.8989 25.634 51.9809C25.6115 51.0375 25.926 50.8578 26.7795 50.9028C28.5764 50.9477 30.3733 50.9028 32.1701 50.9028C32.1701 53.3285 32.2151 55.7319 32.1701 58.1576C32.1701 58.8315 32.3498 59.101 33.091 59.0785C35.7414 59.0561 38.3918 59.0336 41.0422 59.0785C41.8283 59.101 42.008 58.8315 41.9856 58.0903C41.9406 56.1137 41.9631 54.1371 41.9856 52.183C41.9856 51.8237 41.8283 51.4194 42.1653 51.1274Z" fill="#76CBEE"/>
<path d="M58.3594 73.8125V60.6729C60.2461 60.6953 62.1553 60.7178 64.0645 60.6953C64.6709 60.6729 64.8955 60.8525 64.873 61.4814C64.8431 65.3298 64.8431 69.1706 64.873 73.0039C64.8955 73.6328 64.6709 73.8125 64.0645 73.8125H58.3594Z" fill="#76CBEE"/>
<path d="M83.6504 39.5146H85.2676C87.1993 40.3906 88.0528 41.8281 87.6485 43.4902C87.4739 44.2156 87.0571 44.8597 86.467 45.3163C85.8769 45.7729 85.1487 46.0146 84.4028 46.0015C83.6568 45.9884 82.9376 45.7213 82.3638 45.2443C81.7901 44.7673 81.3962 44.109 81.2471 43.3779C80.9327 41.9404 81.7188 40.4355 83.1114 39.7617L83.6504 39.5146Z" fill="#EB6409"/>
</svg>
