<svg width="116" height="116" viewBox="0 0 116 116" fill="none" xmlns="http://www.w3.org/2000/svg">
<path d="M30.9346 78.6412C30.957 71.4986 30.957 64.356 30.9795 57.2134V46.9713C31.0693 44.7701 30.7773 42.5465 31.1816 40.3453C31.5859 38.1441 34.1465 35.8306 36.6621 35.6734C39.5596 35.4713 42.0527 37.1783 43.0186 39.941C43.1084 40.1881 43.1758 40.4127 43.4678 40.4127C43.2207 41.4459 43.2656 42.5015 43.2656 43.5572V97.3287C43.2656 98.3843 43.2207 99.44 43.4678 100.473C42.9736 100.496 43.0186 100.945 42.9287 101.237C42.6651 101.977 42.2575 102.658 41.7294 103.24C41.2012 103.823 40.563 104.294 39.8516 104.628C35.584 106.583 31.2041 103.775 30.9795 99.2828C30.9346 98.564 30.957 97.8453 30.9346 97.1265V78.6412Z" fill="#76CBEE"/>
<path d="M92.2754 40.4127C92.8369 40.3453 92.7695 39.8063 92.9043 39.4694C93.5781 37.8971 94.6562 36.6842 96.2734 36.0778C100.586 34.5055 104.696 37.3356 104.719 41.5582C104.809 60.8073 104.764 80.0788 104.764 99.3502C104.764 102.472 102.001 105.123 98.8564 105.213C95.7119 105.302 94.0049 103.842 92.8369 101.237C92.7021 100.945 92.7695 100.496 92.2754 100.473C92.5225 99.4176 92.4775 98.317 92.4775 97.2389C92.4476 79.3899 92.4476 61.5335 92.4775 43.6696C92.4775 42.569 92.5225 41.4909 92.2754 40.4127Z" fill="#46AFE4"/>
<path d="M43.4676 100.473C43.2205 99.4403 43.2654 98.3846 43.2654 97.3289V43.5575C43.2654 42.5018 43.2205 41.4461 43.4676 40.4129C43.9842 38.077 45.4217 36.4823 47.6902 35.8983C49.9588 35.3143 51.7781 35.5838 53.4851 37.1786C54.254 37.9427 54.8646 38.851 55.282 39.8514C55.3943 40.0985 55.3943 40.4129 55.7761 40.4129C55.5291 41.4911 55.574 42.5692 55.574 43.6698V97.2391C55.574 98.3172 55.5291 99.4178 55.7761 100.496C55.1023 100.676 55.1697 101.327 54.9451 101.776C53.3279 105.28 49.0828 106.134 46.2752 104.404C44.8377 103.528 43.7595 102.248 43.4676 100.473Z" fill="#46AFE4"/>
<path d="M55.7761 100.496C55.5291 99.4179 55.574 98.3173 55.574 97.2392V43.6698C55.574 42.5692 55.5291 41.4911 55.7761 40.413C56.2703 37.7626 58.6736 35.786 61.2791 35.6737C64.3562 35.539 66.2879 36.9765 67.5008 39.6718C67.6355 39.9413 67.5681 40.413 68.0623 40.413C67.7927 41.536 67.8601 42.704 67.8601 43.872V97.037C67.8601 98.1825 67.7927 99.3505 68.0623 100.496C67.3884 100.653 67.4783 101.327 67.2537 101.776C65.5916 105.056 61.7508 106.291 58.5838 104.404C57.1238 103.551 56.0681 102.248 55.7761 100.496Z" fill="#1A87C9"/>
<path d="M92.2754 40.4133C92.5225 41.4915 92.4775 42.5696 92.4775 43.6702C92.4476 61.5341 92.4476 79.3906 92.4775 97.2395C92.4775 98.3176 92.5225 99.4182 92.2754 100.474C91.7588 102.675 90.4561 104.27 88.3447 104.921C86.2334 105.573 84.0322 105.393 82.2578 103.708C81.4741 102.996 80.8666 102.112 80.4834 101.125C80.3936 100.878 80.4385 100.474 79.9668 100.496C80.2363 99.3508 80.169 98.1829 80.169 97.0374V43.8723C80.169 42.7044 80.2363 41.5364 79.9668 40.4133C80.5508 40.346 80.4609 39.8069 80.5957 39.47C80.9247 38.6449 81.4291 37.9011 82.0739 37.2901C82.7187 36.6791 83.4886 36.2156 84.3302 35.9315C85.1719 35.6473 86.0652 35.5495 86.9484 35.6447C87.8316 35.7398 88.6835 36.0258 89.4453 36.4827C90.1795 36.8864 90.8144 37.4487 91.304 38.1286C91.7935 38.8085 92.1254 39.589 92.2754 40.4133Z" fill="#1A87C9"/>
<path d="M79.967 40.4131C80.2365 41.5361 80.1691 42.7041 80.1691 43.8721V97.0371C80.1691 98.1826 80.2365 99.3506 79.967 100.496C79.4054 103.326 76.9572 105.235 73.9025 105.213C72.5311 105.234 71.1956 104.774 70.1286 103.912C69.0616 103.05 68.3305 101.841 68.0627 100.496C67.7931 99.3506 67.8605 98.1826 67.8605 97.0371V43.8721C67.8605 42.7041 67.7931 41.5361 68.0627 40.4131C68.3771 38.0996 71.0949 35.6064 74.0148 35.6064C76.9347 35.6064 79.675 38.0996 79.967 40.4131Z" fill="#016BB1"/>
<path d="M30.9347 78.6416V97.127C27.8126 97.127 24.6681 97.1045 21.5235 97.1494C20.9171 97.1494 20.67 97.0146 20.7149 96.3633C20.7598 95.7119 20.67 94.6563 20.7374 93.8027C20.8048 92.9492 20.5352 92.9492 19.8839 92.9492C17.0538 92.9941 14.2237 92.9492 11.3712 92.9941C10.6524 92.9941 10.4727 92.792 10.4952 92.0732C10.5401 89.9395 10.5177 87.7832 10.4952 85.627C10.4727 84.998 10.63 84.8184 11.2813 84.8184C14.1339 84.8633 17.0089 84.8184 19.8839 84.8633C20.5128 84.8633 20.7598 84.7285 20.7374 84.0322C20.6925 82.4824 20.7598 80.9551 20.7149 79.4053C20.6925 78.7764 20.8946 78.6191 21.5235 78.6191L30.9347 78.6416Z" fill="#EB6409"/>
<path d="M74.4415 22.7813C74.2618 21.0519 74.8458 19.6368 76.0137 18.4015C77.1817 17.1661 77.0245 15.4366 76.71 13.8644C76.5528 13.0782 76.1709 12.337 75.834 11.5958C75.4971 10.8546 75.542 10.5626 76.0586 10.2481C76.5752 9.93369 77.2491 9.91123 77.586 10.5177C78.8887 12.8536 79.7872 16.4024 78.1475 19.0304C78.1087 19.1275 78.0558 19.2183 77.9903 19.2999C75.7442 21.3663 76.2833 23.7247 77.2266 26.128L77.3165 26.3302C77.6534 27.004 78.125 27.7227 77.1592 28.2394C76.1934 28.756 75.834 28.2618 75.4073 27.1837C74.9805 26.1056 74.2393 24.3311 74.4415 22.7813Z" fill="#EB6409"/>
<path d="M55.372 22.7368C55.2148 21.0522 55.8437 19.6821 56.9443 18.3794C58.4717 16.605 57.9101 14.561 57.2363 12.6069C57.1015 12.2026 56.9219 11.8433 56.7646 11.4614C56.6074 11.0796 56.5176 10.4282 57.1015 10.1811C57.6855 9.93407 58.2695 10.0015 58.6064 10.6304C59.178 11.5993 59.5663 12.6653 59.7519 13.7749C60.0664 15.9536 60.0888 18.0874 58.4043 19.9067C56.7197 21.7261 57.3037 23.7475 58 25.769C58.1309 26.114 58.2808 26.4515 58.4492 26.7798C58.6738 27.3638 58.831 27.9702 58.0898 28.2397C57.3486 28.5093 56.832 28.2622 56.5176 27.5434C55.8437 26.0161 55.1924 24.4663 55.372 22.7368Z" fill="#EB6409"/>
<path d="M69.5223 15.8411C69.6122 17.5256 68.8485 18.8958 67.7928 20.0862C66.7372 21.2766 66.7147 22.4446 66.9618 23.7922C67.1588 24.7983 67.4912 25.773 67.9501 26.6897C68.1971 27.2288 68.2421 27.8577 67.6132 28.217C67.4906 28.2853 67.3551 28.3273 67.2154 28.3404C67.0757 28.3534 66.9348 28.3373 66.8017 28.2929C66.6686 28.2485 66.5462 28.1769 66.4423 28.0827C66.3384 27.9884 66.2552 27.8735 66.1981 27.7454C64.9403 25.2297 64.1542 22.6243 65.4569 19.8616C65.7113 19.3038 66.0609 18.7945 66.4901 18.3567C67.5233 17.2786 67.5907 15.9758 67.3661 14.6506C67.224 13.7072 66.92 12.7954 66.4677 11.9553C66.1083 11.3264 65.951 10.5627 66.7372 10.1809C67.5233 9.79908 68.0175 10.3831 68.3319 11.0344C69.0473 12.5405 69.4522 14.1752 69.5223 15.8411Z" fill="#EB6409"/>
<path d="M88.5918 16.0881C88.6015 17.3143 88.1529 18.4998 87.334 19.4124C85.4472 21.4788 85.6494 23.7249 86.7275 26.0608C86.8871 26.3533 87.0151 26.662 87.1093 26.9817C87.2216 27.5208 87.1543 28.0374 86.5478 28.262C86.4286 28.3129 86.3004 28.3394 86.1708 28.3397C86.0412 28.3401 85.9128 28.3144 85.7933 28.2641C85.6738 28.2137 85.5657 28.1399 85.4754 28.0469C85.3851 27.954 85.3144 27.8438 85.2675 27.7229C84.167 25.387 83.3134 23.0286 84.2568 20.3782C84.5713 19.5471 85.1103 18.9182 85.6494 18.2668C86.6826 17.0315 86.6826 15.6614 86.3457 14.2463C86.1837 13.4457 85.9036 12.6736 85.5146 11.9553C85.1777 11.304 85.0205 10.5627 85.8291 10.1809C86.6377 9.79908 87.1093 10.3831 87.4013 11.0344C88.179 12.606 88.5862 14.3348 88.5918 16.0881Z" fill="#EB6409"/>
<path d="M30.9793 46.9717V49.0156H21.95C21.4803 48.994 21.0139 48.9262 20.5574 48.8135C19.9285 48.7012 19.6365 48.3418 19.7264 47.7354C19.8162 47.1289 20.1756 46.9492 20.7371 46.9492H30.9793V46.9717Z" fill="#76CBEE"/>
<path d="M30.9793 55.1699V57.2139H21.95C21.4803 57.1922 21.0139 57.1245 20.5574 57.0117C19.9285 56.8994 19.6365 56.54 19.7264 55.9336C19.8162 55.3271 20.1756 55.1475 20.7371 55.1475H30.9793V55.1699Z" fill="#76CBEE"/>
</svg>
