<svg width="116" height="116" viewBox="0 0 116 116" fill="none" xmlns="http://www.w3.org/2000/svg">
<path d="M110.873 66.6928C108.605 68.2876 106.112 69.5454 103.708 70.938L51.801 100.878C50.7678 101.462 50.094 101.417 49.1955 100.654C34.9104 88.4799 20.6027 76.3361 6.27267 64.2221L5.71114 63.7504C5.01485 63.0991 5.05978 62.6274 5.89083 62.1557L8.72091 60.6508L5.95821 58.3374C4.90255 57.4389 4.94747 57.0346 6.16036 56.3833L30.9348 43.1538C31.676 42.7719 31.8332 42.5922 31.2717 41.8061C28.4641 37.853 29.0031 33.81 31.1369 29.7895C32.1774 27.9123 33.6007 26.2747 35.3147 24.9829C35.6965 24.6684 36.1008 24.354 36.5949 24.6684C37.0891 24.9829 36.9543 25.4995 36.7971 25.9711C36.2805 27.6333 35.7414 29.2954 35.719 31.0922C35.6889 31.6746 35.7951 32.256 36.029 32.7901C36.263 33.3243 36.6182 33.7965 37.0666 34.1694C38.2795 35.2026 39.5149 36.1909 40.3459 37.5835C40.5705 37.9428 40.7951 37.8754 41.1096 37.6958C42.5246 36.9321 43.9397 36.1684 45.3772 35.4272C45.759 35.2251 45.8264 35.0004 45.7141 34.5961C45.5109 33.6838 45.0867 32.8354 44.4787 32.1254C43.824 31.332 43.1267 30.5747 42.3899 29.8569C38.6164 26.1284 38.4367 21.6137 40.301 17.3237C41.3566 14.9204 43.0412 12.9887 45.0852 11.3491C45.467 11.0346 45.8713 10.7202 46.3654 11.0571C46.8596 11.394 46.7024 11.8881 46.5451 12.3598C46.1339 13.6007 45.8111 14.8692 45.5793 16.1557C45.2199 18.0649 45.6018 19.6821 47.2414 20.895C49.5832 22.6404 51.1923 25.1942 51.7561 28.06C52.0119 29.255 52.11 30.4782 52.0481 31.6987C52.5197 31.6987 52.8342 31.4067 53.1711 31.227C55.5969 29.9467 58.0002 28.6215 60.4484 27.3637C60.965 27.0942 61.1447 26.8247 61.0998 26.1958C60.718 20.9174 63.2336 17.0542 67.1418 13.8872C67.5012 13.6176 67.883 13.4829 68.2873 13.7749C68.6916 14.0669 68.6018 14.4936 68.467 14.8979C68.0335 16.1678 67.6883 17.4662 67.4338 18.7836C67.0744 20.7378 67.4563 22.3774 69.1408 23.6352C72.3977 26.0835 73.7902 29.4751 73.9025 33.4506C73.925 33.9448 74.1496 34.1694 74.509 34.4389L97.217 50.6782C98.2277 51.3969 99.2385 52.0932 100.227 52.8344C101.215 53.5756 101.058 53.7778 100.384 54.5639C99.7102 55.3501 98.9465 56.3159 98.2053 57.1918L110.873 65.8618V66.6928Z" fill="#EB6409"/>
<path d="M45.6465 37.1566C44.2539 37.6508 43.041 38.5268 41.7158 39.1557C41.2666 39.3578 41.3789 39.6498 41.4912 40.0092C41.8075 40.8436 42.0334 41.7096 42.165 42.5922C42.2549 43.4457 42.3447 44.3217 42.4346 45.31C42.9287 45.0404 43.2881 44.8832 43.625 44.6586C43.9619 44.434 44.5459 44.3666 44.8604 44.8832C45.1748 45.3998 44.8604 45.7816 44.3887 46.0512C43.917 46.3207 42.9961 46.7924 42.3223 47.1967C41.6484 47.601 41.3789 48.4096 42.165 49.0385C42.9512 49.6674 43.917 50.3861 44.7705 51.06C45.2197 51.4418 45.8262 51.8236 45.3096 52.4975C44.793 53.1713 44.2764 52.6996 43.8271 52.3402C43.0186 51.7113 42.1875 51.0824 41.4014 50.4086C40.9522 50.0492 40.7051 50.1166 40.3906 50.5883C39.4972 52.0201 38.3012 53.239 36.8867 54.1596C36.5273 54.4066 36.1904 54.6537 35.7637 54.3393C35.3369 54.0248 35.3818 53.6205 35.5166 53.1488C35.6514 52.6771 36.1006 51.6889 35.9209 50.8578C35.5166 50.8129 35.2471 51.06 34.9551 51.2172L31.3389 53.2162C30.8223 53.4857 30.1934 53.8451 29.8115 53.1488C29.4297 52.4525 30.0586 52.1381 30.5527 51.8461C32.0576 51.015 33.54 50.1391 35.0898 49.3978C36.0332 48.9486 36.123 48.3871 35.7637 47.5111C35.4043 46.6352 34.4609 45.4223 33.6748 44.4789C33.2031 43.9398 32.7764 43.9174 32.1475 44.2543C27.7227 46.6576 23.2529 49.0385 18.8057 51.3969C18.1768 51.7338 18.1543 51.9584 18.6934 52.4076C19.9287 53.3734 21.1641 54.3617 22.377 55.3725C22.8711 55.7992 23.2754 56.0687 23.9043 55.5971C24.0498 55.5023 24.2239 55.4617 24.3963 55.4822C24.5687 55.5027 24.7285 55.5831 24.8477 55.7094C25.1172 56.0014 25.1846 56.4057 24.9375 56.6527C24.6904 56.8998 24.8252 57.3715 25.1621 57.6186L28.8906 60.6957C29.3174 61.0551 29.834 61.4369 29.3398 62.0434C28.8457 62.6498 28.3516 62.268 27.9023 61.9086C26.5098 60.7855 25.1172 59.6625 23.7695 58.517C23.2305 58.0453 22.7813 57.9105 22.1299 58.3148C20.8047 59.1234 19.4346 59.8197 18.0645 60.5609C17.5703 60.8529 17.0986 61.0102 16.7393 60.3812C16.3799 59.7523 16.8516 59.4603 17.3232 59.1908L21.0293 57.1469C21.4336 56.9223 21.6357 56.765 21.1416 56.3832L16.9863 52.9916C16.7393 52.7894 16.5146 52.6322 16.1553 52.8344L7.41797 57.4838C8.65332 58.517 9.79883 59.4379 10.877 60.4486C11.9551 61.4594 12.9658 62.2006 14.3584 60.9877C14.504 60.8915 14.6797 60.8516 14.8525 60.8754C14.9893 60.8686 15.125 60.9036 15.2413 60.9759C15.3577 61.0481 15.4493 61.1541 15.5039 61.2797C15.5645 61.4073 15.5862 61.5499 15.5662 61.6897C15.5462 61.8295 15.4855 61.9603 15.3916 62.0658C15.2037 62.2599 14.9832 62.4195 14.7402 62.5375C13.999 62.8295 14.0889 63.1439 14.6279 63.5932C16.7168 65.3227 18.8057 67.0521 20.8721 68.8266C21.2764 69.1859 21.5684 69.1859 22.0176 68.8715C24.3941 67.2919 26.9796 66.052 29.6992 65.1879C31.1367 64.7162 31.1592 64.6937 30.0361 63.6381C29.6543 63.2562 29.5195 62.8969 29.8564 62.4701C30.1934 62.0434 30.6201 62.1107 31.0244 62.4252C31.4287 62.7396 32.125 63.2562 32.6416 63.7279C33.1582 64.1996 33.4502 64.1771 34.0117 64.0648C36.0953 63.6237 38.2163 63.383 40.3457 63.3461C41.1992 63.3236 42.0752 63.3686 42.8613 62.9418L50.7451 58.6742C51.374 58.3373 51.2842 58.1352 50.7676 57.7758C50.251 57.4164 49.5996 56.8324 48.9707 56.3832C48.3418 55.934 48.0723 55.6195 48.4766 55.0355C48.8809 54.4516 49.4199 54.6986 49.8916 55.1029C50.3633 55.5072 50.4981 55.5297 50.7676 55.7992C52.0254 56.9896 53.2832 57.933 54.9678 56.4057C55.3496 56.0463 55.7988 56.2709 56.0459 56.7426C56.293 57.2143 56.0234 57.5287 55.6641 57.7758L54.4063 58.4945C54.4651 58.5975 54.5328 58.6952 54.6084 58.7865L61.167 63.9301C61.4707 64.1546 61.8468 64.2586 62.2227 64.2221C64.6035 64.2221 66.9844 64.2894 69.3428 64.1547C70.7803 64.0873 72.3076 64.3568 73.6104 63.7055C76.0811 62.515 78.4395 61.1225 80.9551 59.7523L77.5635 57.2367L74.3516 54.8334C74.0371 54.5863 73.835 54.2719 74.127 53.8451C74.419 53.4184 74.7559 53.3734 75.2051 53.5756C75.3784 53.6748 75.5436 53.7874 75.6992 53.9125C77.7656 55.4174 79.8096 56.9223 81.8311 58.4496C82.2803 58.7865 82.6172 58.8764 83.1113 58.5844L88.165 55.7992C88.8153 55.4105 89.4906 55.0653 90.1865 54.766C90.5459 54.6088 90.9502 54.6312 91.1748 55.0355C91.3994 55.4398 91.2422 55.7768 90.9053 56.0238C90.5998 56.2445 90.2768 56.4399 89.9395 56.6078L83.9199 59.9545C84.167 60.1342 84.2793 60.2689 84.4141 60.3588C85.1553 60.808 85.6719 61.6391 86.7725 61.2123C88.6143 60.4935 90.4336 59.7748 92.1406 58.8314C94.4201 57.6214 96.5213 56.1022 98.3848 54.3168C98.7441 54.0023 98.9014 53.8227 98.4072 53.4184C97.9131 53.0141 96.9922 52.5199 96.1387 53.1937C96.058 53.2744 95.9599 53.3353 95.8518 53.3718C95.7438 53.4082 95.6288 53.4193 95.5158 53.4041C95.4028 53.3889 95.2948 53.3478 95.2003 53.284C95.1057 53.2203 95.0272 53.1356 94.9707 53.0365C94.7461 52.6996 94.7236 52.3178 95.0606 52.1156C95.9815 51.5316 95.3525 51.2621 94.8809 50.9252C88.0527 46.0587 81.2321 41.1771 74.419 36.2807C73.7676 35.809 73.6553 35.9662 73.4531 36.6625C72.616 39.3862 70.8415 41.7256 68.4443 43.266C67.7705 43.6928 67.0967 43.4906 67.0518 42.8393C67.0572 42.5314 67.118 42.2271 67.2315 41.9408C67.9502 39.515 68.1074 37.1566 66.4902 34.9555C66.041 34.349 65.6816 34.2367 64.9854 34.641C62.4024 36.1234 59.7744 37.5609 57.1465 38.976C56.4277 39.3578 56.3154 39.5824 57.0566 40.1215C60.6504 42.7269 64.2217 45.3549 67.7256 48.0277C68.5791 48.6791 69.1856 48.7465 70.084 48.2074C72.1953 46.9721 74.3516 45.849 76.5078 44.6811C77.0918 44.3441 77.5859 44.3666 77.8106 45.0629C78.0352 45.7592 77.5186 45.9164 77.0918 46.141L71.0274 49.4652C70.8252 49.5775 70.1963 49.6225 70.668 50.1391C71.1397 50.6557 71.252 50.9477 70.8027 51.3744C70.3535 51.8012 69.9043 51.6215 69.5225 51.2621C69.1406 50.9027 68.4443 50.8129 67.7705 51.1947C64.7607 52.8793 61.6836 54.5189 58.6514 56.181C58.1123 56.473 57.5283 56.765 57.1465 56.0463C56.7646 55.3275 57.3711 55.0805 57.8652 54.8109L60.3135 53.4857L67.3213 49.6674L55.2373 40.683C54.7881 40.3461 54.4287 40.5033 54.0244 40.7279L49.8691 43.0189C49.375 43.3109 48.8135 43.6029 48.4541 42.9291C48.0947 42.2553 48.5889 41.9408 49.1055 41.6488L53.3281 39.3129C52.4072 38.6166 51.5537 38.0551 50.79 37.3812C50.0264 36.7074 50.0938 37.0668 49.7568 37.5385C48.895 38.7418 47.8127 39.7708 46.5674 40.5707C46.2305 40.7953 45.9385 40.9975 45.5342 40.7279C45.1299 40.4584 45.1074 40.0766 45.2422 39.6273C45.377 39.1781 45.7588 38.0551 45.7139 37.224L45.7813 37.0893L45.6465 37.1566Z" fill="#B7531B"/>
<path d="M39.0205 64.9851L39.6719 65.5915L56.7646 80.0114C57.9551 80.9997 58.9209 82.1452 59.2803 83.6726C59.8867 86.1657 58.9658 88.2097 57.3262 89.9841C53.6875 93.9597 49.3525 94.364 45.085 91.197L44.3438 90.6355C37.1562 85.0427 30.2607 79.0681 23.3428 73.1609C19.0752 69.5446 14.9424 65.7487 10.585 62.2224C10.3154 61.9978 10.1133 61.6609 9.6416 61.9304C9.16992 62.1999 8.22656 62.6941 7.44043 63.1208L7.97949 63.615C21.9951 75.4743 35.9958 87.3337 49.9814 99.1931C50.4756 99.6198 50.8125 99.5749 51.3291 99.2829C55.5518 96.8122 59.8193 94.3864 64.0645 91.9382L88.6592 77.7429C95.0381 74.0892 101.41 70.4431 107.773 66.8044C108.582 66.3327 108.492 66.153 107.796 65.6814C105.572 64.1989 103.394 62.6491 101.192 61.1218C99.7998 60.1784 98.4072 59.2351 97.0371 58.2468C96.2285 57.6628 95.8916 58.4714 95.3975 58.7634C94.9033 59.0554 95.4199 59.3923 95.5771 59.6394C95.9141 60.2458 96.2734 60.8298 96.4531 61.5036C97.2393 64.4011 96.251 66.8269 94.3418 68.9831C90.7031 73.1384 86.1211 73.7448 81.6514 70.6228C79.4951 69.1179 77.4062 67.4782 75.2725 65.9284C74.9355 65.6814 74.666 65.3669 74.1719 65.4118C73.3184 65.5241 72.4424 65.5691 71.3193 65.6589C72.7344 66.8269 73.9922 67.8151 75.1826 68.8708C77.1367 70.5778 78.0801 72.7341 77.5186 75.3171C76.6875 78.9782 74.1943 81.2243 70.8701 82.6394C67.5459 84.0544 65.165 83.2009 62.582 81.2693C55.9111 76.3054 49.4648 71.0495 43.0859 65.7263C41.7832 64.6482 40.5479 64.8503 39.0205 64.9851Z" fill="white"/>
<path d="M25.3643 68.736L25.9033 69.2526C30.0811 72.8014 34.2139 76.3502 38.4141 79.8541C41.7832 82.6842 45.1523 85.5143 48.6787 88.1198C49.3076 88.5914 49.959 88.9284 50.79 88.7262C52.13 88.3812 53.3208 87.6083 54.1816 86.525C55.0576 85.3795 54.9902 84.6159 53.8897 83.6725L33.4053 66.3776C33.2639 66.2291 33.0838 66.1231 32.8854 66.0715C32.6869 66.02 32.478 66.0248 32.2822 66.0856C29.8864 66.714 27.5666 67.6027 25.3643 68.736Z" fill="white"/>
<path d="M50.498 65.457L54.002 68.2871C57.9775 71.4541 61.8857 74.6885 66.041 77.6309C66.8047 78.1924 67.6133 78.5068 68.5342 78.1924C70.0166 77.7207 71.252 76.8896 72.1055 75.5645C72.959 74.2393 72.8916 73.3857 71.6338 72.3525C69.1855 70.3086 66.6924 68.3096 64.2217 66.2881C63.9622 66.0169 63.6083 65.856 63.2334 65.8389C59.0107 65.8164 54.7881 65.5469 50.498 65.457Z" fill="white"/>
<path d="M34.9775 65.6363C36.2353 66.7145 37.4033 67.7701 38.6162 68.7809L55.0576 82.5943C55.8886 83.2906 56.4951 84.2115 56.3378 85.2897C55.956 87.6481 54.2714 88.9733 52.205 89.9166C50.1386 90.86 48.8359 90.3209 47.3535 89.108C45.1972 87.3336 42.9511 85.6266 40.7949 83.8522C37.0439 80.7301 33.3378 77.5856 29.6093 74.4635L24.1962 69.859C23.5449 69.2975 23.1855 69.9938 22.8486 70.2858C22.5117 70.5777 23.0283 70.8024 23.2304 70.982L34.5732 80.6402C38.5263 84.0094 42.5244 87.3561 46.7021 90.4781C47.8476 91.3317 49.1054 92.0279 50.5878 91.8258C53.4853 91.4664 55.7314 89.984 57.2363 87.4684C58.3818 85.5817 58.1123 83.4479 56.4726 81.943C54.833 80.4381 52.6093 78.5514 50.6328 76.9117C46.3652 73.2955 42.0527 69.7467 37.83 66.0856C36.9316 65.2994 36.1455 65.0299 34.9775 65.6363Z" fill="#B7531B"/>
<path d="M37.6505 51.2842C38.0997 51.1943 38.2794 50.8799 38.4815 50.6328C41.7384 46.6123 41.1768 41.3564 38.5264 37.7402C37.7178 36.6396 36.5948 35.8984 35.6514 34.9551C34.2589 33.54 33.9444 31.8779 34.2139 30.0137C34.3038 29.3848 34.4161 28.7334 34.5733 27.8125C33.1807 29.3623 32.17 30.8223 31.6085 32.5518C30.5977 35.6514 30.6202 38.6387 32.7989 41.2891C33.6524 42.3223 34.6182 43.2656 35.5167 44.2539C36.8868 45.7588 37.7403 47.4434 37.6505 49.5322C37.628 50.1162 37.6505 50.6777 37.6505 51.2842Z" fill="#B7531B"/>
<path d="M66.0635 17.166C65.3941 17.7389 64.8379 18.4322 64.4238 19.21C62.4922 22.4668 61.7735 25.8135 63.7276 29.3398C64.4238 30.5752 65.502 31.4961 66.4678 32.5068C67.4336 33.5176 68.7139 35.1123 69.1182 36.8418C69.4404 37.9896 69.4942 39.1962 69.2754 40.3682C69.7023 40.0679 70.081 39.7043 70.3985 39.29C73.8799 34.8203 72.3076 27.8125 68.2871 24.9375C67.6104 24.4928 67.0375 23.9075 66.6072 23.2214C66.177 22.5354 65.8996 21.7648 65.794 20.9619C65.6143 19.7041 66.086 18.5361 66.0635 17.166Z" fill="#B7531B"/>
<path d="M47.3761 37.6504C47.6906 37.6729 47.7804 37.4482 47.9152 37.3135C52.048 33.0908 50.7902 25.6562 46.7248 22.5566C44.6584 20.9619 43.423 19.0078 44.007 16.2676C44.1193 15.7285 44.1418 15.1895 44.2316 14.4707C43.5374 15.0308 42.9642 15.7262 42.547 16.5146C40.6378 19.7715 39.8966 23.1182 41.8507 26.6445C42.547 27.8799 43.6252 28.8232 44.591 29.834C46.0509 31.3164 47.174 33.001 47.466 35.1572C47.5783 36.0107 47.3761 36.8193 47.3761 37.6504Z" fill="#B7531B"/>
<path d="M44.8154 65.1646L45.7139 65.9507C48.5215 68.2193 51.2842 70.5103 54.1143 72.7339C57.5283 75.4292 60.8975 78.1919 64.4687 80.6626C65.6143 81.4488 66.8721 81.9429 68.2422 81.7183C71.3418 81.2242 73.7002 79.562 75.3174 76.8892C75.9385 75.8726 76.1926 74.6739 76.0373 73.4928C75.882 72.3117 75.3267 71.2194 74.4639 70.398C73.2285 69.1402 71.7012 68.2193 70.4883 66.9839C69.2754 65.7486 67.9502 65.7486 66.3105 65.9283C68.3994 67.6577 70.3535 69.3199 72.3525 70.9146C74.3516 72.5093 74.7783 74.1265 73.4082 76.44C71.3418 79.899 67.5459 80.73 64.3115 78.3492C59.168 74.5308 54.1816 70.5103 49.2627 66.3999C47.96 65.3218 46.6797 64.6929 44.8154 65.1646Z" fill="#B7531B"/>
<path d="M64.5811 32.8885L64.2667 32.5291C63.8175 32.0125 63.3907 31.4735 62.919 30.9793C62.4473 30.4852 62.2452 28.868 61.3018 28.8231C60.3585 28.7782 59.6173 29.5868 58.7637 30.036L52.4073 33.4276C50.8575 34.2586 50.7677 35.4715 52.1602 36.4823L54.3165 38.077C54.6309 38.3016 54.9229 38.4588 55.3497 38.2342L64.2442 33.2703C64.3297 33.2433 64.4063 33.1934 64.4656 33.1262C64.525 33.0589 64.5649 32.9767 64.5811 32.8885Z" fill="#B7531B"/>
<path d="M76.8896 65.2324C79.248 66.9394 81.4492 68.7363 83.875 70.2412C84.8184 70.8252 85.8066 71.2969 86.8623 71.1845C90.6357 70.7353 93.376 68.7588 94.8584 65.2324C95.5772 63.5254 95.2627 61.8633 94.1396 60.3584C93.5332 59.5273 92.9941 60.1787 92.4775 60.4482C91.9609 60.7177 92.4551 61.0996 92.6123 61.3467C93.3984 62.5371 93.5781 63.7275 92.9268 65.0527C92.3189 66.3285 91.3507 67.3983 90.1416 68.1299C87.2217 69.8594 86.0986 69.7021 83.9199 68.1074C82.9541 67.3886 81.8984 66.7822 81.0225 65.9961C80.1465 65.2099 78.5293 64.4687 76.8896 65.2324Z" fill="#B7531B"/>
<path d="M81.3369 64.3117C82.6621 65.2551 83.8525 66.0187 84.9307 66.8947C86.0088 67.7707 87.6035 67.8381 88.9961 67.007C89.9815 66.4516 90.8029 65.6458 91.377 64.6711C91.6437 64.2252 91.7617 63.706 91.7139 63.1886C91.5791 62.0207 90.5684 61.3918 89.4902 61.841C86.8571 62.9215 84.127 63.7488 81.3369 64.3117Z" fill="white"/>
<path d="M58.9658 64.1993L53.2158 59.6847C53.1047 59.5763 52.9616 59.5069 52.8077 59.4866C52.6539 59.4664 52.4976 59.4965 52.3623 59.5724L45.377 63.3907L58.9658 64.1993Z" fill="#B7531B"/>
<path d="M78.3496 62.9643L78.4395 63.2338C80.3278 62.9799 82.1912 62.5667 84.0098 61.9985C83.2012 61.5717 82.8418 60.6508 82.0107 61.0102C80.7529 61.5717 79.585 62.3129 78.3496 62.9643Z" fill="#B7531B"/>
<path d="M45.7139 37.224C45.7588 38.0551 45.4893 38.8412 45.2422 39.6273C44.9951 40.4135 45.1299 40.4359 45.5342 40.7279C45.9385 41.0199 46.2305 40.7953 46.5674 40.5707C47.8127 39.7708 48.895 38.7418 49.7568 37.5385C50.0938 37.0668 50.3184 36.9994 50.79 37.3812C51.2617 37.7631 52.4072 38.6166 53.3281 39.3129L49.1055 41.6488C48.5889 41.9408 48.0947 42.2777 48.4541 42.9291C48.8135 43.5805 49.375 43.3109 49.8691 43.0189L54.0244 40.7279C54.4287 40.5033 54.7881 40.3461 55.2373 40.683L67.3213 49.6674L60.3135 53.4857L57.8652 54.8109C57.3711 55.0805 56.7871 55.3725 57.1465 56.0463C57.5059 56.7201 58.1123 56.473 58.6514 56.181C61.6836 54.5189 64.7607 52.8793 67.7705 51.1947C68.4443 50.8129 68.9385 50.723 69.5225 51.2621C70.1064 51.8012 70.3535 51.8461 70.8027 51.3744C71.252 50.9027 71.0498 50.5434 70.668 50.1391C70.2861 49.7348 70.8252 49.5775 71.0274 49.4652L77.0918 46.141C77.5186 45.9164 78.0127 45.6693 77.8106 45.0629C77.6084 44.4564 77.0918 44.3441 76.5078 44.6811C74.3516 45.849 72.1953 46.9721 70.084 48.2074C69.1856 48.7465 68.5791 48.6791 67.7256 48.0277C64.2217 45.3549 60.6504 42.7269 57.0566 40.1215C56.3154 39.5824 56.4277 39.3578 57.1465 38.976C59.7744 37.5609 62.4024 36.1234 64.9854 34.641C65.6816 34.2367 66.041 34.349 66.4902 34.9555C68.1074 37.1566 67.9502 39.515 67.2315 41.9408C67.118 42.2271 67.0572 42.5314 67.0518 42.8393C67.0967 43.4906 67.7705 43.6928 68.4443 43.266C70.8415 41.7256 72.616 39.3862 73.4531 36.6625C73.6553 35.9662 73.7676 35.809 74.419 36.2807C81.2171 41.1771 88.0378 46.0587 94.8809 50.9252C95.3525 51.2621 95.9815 51.5316 95.0606 52.1156C94.7236 52.3178 94.7461 52.6996 94.9707 53.0365C95.0272 53.1356 95.1057 53.2203 95.2003 53.284C95.2948 53.3478 95.4028 53.3889 95.5158 53.4041C95.6288 53.4193 95.7438 53.4082 95.8518 53.3718C95.9599 53.3353 96.058 53.2744 96.1387 53.1937C96.9922 52.5199 97.6436 52.8119 98.4072 53.4184C99.1709 54.0248 98.7441 54.0023 98.3848 54.3168C96.5213 56.1022 94.4201 57.6214 92.1406 58.8314C90.4336 59.7748 88.6143 60.4935 86.7725 61.2123C85.6719 61.6391 85.1553 60.808 84.4141 60.3588C84.2793 60.2689 84.167 60.1342 83.9199 59.9545L89.9395 56.6078C90.2768 56.4399 90.5998 56.2445 90.9053 56.0238C91.2422 55.7768 91.3994 55.4398 91.1748 55.0355C90.9502 54.6312 90.5459 54.6088 90.1865 54.766C89.4906 55.0653 88.8153 55.4105 88.165 55.7992L83.1113 58.5844C82.6172 58.8764 82.2803 58.7865 81.8311 58.4496C79.8096 56.9223 77.7656 55.4174 75.6992 53.9125C75.5436 53.7874 75.3784 53.6748 75.2051 53.5756C74.7559 53.3734 74.3965 53.4408 74.127 53.8451C73.8574 54.2494 74.0371 54.5863 74.3516 54.8334L77.5635 57.2367L80.9551 59.7523C78.4395 61.1225 76.0811 62.515 73.6104 63.7055C72.3076 64.3568 70.7803 64.0873 69.3428 64.1547C66.9844 64.2894 64.6035 64.2221 62.2227 64.2221C61.8468 64.2586 61.4707 64.1546 61.167 63.9301L54.6084 58.7865C54.5328 58.6952 54.4651 58.5975 54.4063 58.4945L55.6641 57.7758C56.0234 57.5287 56.3154 57.2367 56.0459 56.7426C55.7764 56.2484 55.3496 56.0463 54.9678 56.4057C53.2832 57.933 52.0254 56.9896 50.7676 55.7992C50.4981 55.5297 50.1836 55.35 49.8916 55.1029C49.5996 54.8559 48.9033 54.4066 48.4766 55.0355C48.0498 55.6644 48.4766 56.0238 48.9707 56.3832C49.4648 56.7426 50.1611 57.349 50.7676 57.7758C51.374 58.2025 51.374 58.3373 50.7451 58.6742L42.8613 62.9418C42.0752 63.3686 41.1992 63.3236 40.3457 63.3461C38.2163 63.383 36.0953 63.6237 34.0117 64.0648C33.4502 64.1771 33.0459 64.1322 32.6416 63.7279C32.2373 63.3236 31.5635 62.852 31.0244 62.4252C30.4854 61.9984 30.2158 62.0209 29.8564 62.4701C29.4971 62.9193 29.6543 63.2562 30.0361 63.6381C31.1592 64.6937 31.1367 64.7162 29.6992 65.1879C26.9796 66.052 24.3941 67.2919 22.0176 68.8715C21.5684 69.1859 21.2764 69.1859 20.8721 68.8266C18.8057 67.0521 16.7168 65.3227 14.6279 63.5932C14.0889 63.1439 13.999 62.8295 14.7402 62.5375C14.9832 62.4195 15.2037 62.2599 15.3916 62.0658C15.4855 61.9603 15.5462 61.8295 15.5662 61.6897C15.5862 61.5499 15.5645 61.4073 15.5039 61.2797C15.4493 61.1541 15.3577 61.0481 15.2413 60.9759C15.125 60.9036 14.9893 60.8686 14.8525 60.8754C14.6797 60.8516 14.504 60.8915 14.3584 60.9877C12.9658 62.2006 11.9326 61.4594 10.877 60.4486C9.82129 59.4379 8.65332 58.517 7.41797 57.4838L16.1553 52.8344C16.5146 52.6322 16.7393 52.7894 16.9863 52.9916L21.1416 56.3832C21.6357 56.765 21.4336 56.9223 21.0293 57.1469L17.3232 59.1908C16.8516 59.4603 16.3799 59.7523 16.7393 60.3812C17.0986 61.0102 17.5703 60.8529 18.0645 60.5609C19.4346 59.8197 20.8047 59.1234 22.1299 58.3148C22.7813 57.9105 23.2305 58.0453 23.7695 58.517C25.1172 59.6625 26.5098 60.7855 27.9023 61.9086C28.3516 62.268 28.8232 62.6498 29.3398 62.0434C29.8564 61.4369 29.3174 61.0551 28.8906 60.6957L25.1621 57.6186C24.8252 57.3715 24.4658 57.1469 24.9375 56.6527C25.4092 56.1586 25.1172 56.0014 24.8477 55.7094C24.7285 55.5831 24.5687 55.5027 24.3963 55.4822C24.2239 55.4617 24.0498 55.5023 23.9043 55.5971C23.2754 56.0687 22.8711 55.7992 22.377 55.3725C21.1641 54.3617 19.9287 53.3734 18.6934 52.4076C18.1543 51.9584 18.1768 51.7338 18.8057 51.3969C23.2529 49.0385 27.7227 46.6576 32.1475 44.2543C32.7764 43.9174 33.2031 43.9398 33.6748 44.4789C34.4609 45.4223 35.292 46.3432 35.7637 47.5111C36.2354 48.6791 36.0332 48.9486 35.0898 49.3978C33.54 50.1391 32.0576 51.015 30.5527 51.8461C30.0586 52.1381 29.3848 52.4076 29.8115 53.1488C30.2383 53.89 30.8223 53.4857 31.3389 53.2162L34.9551 51.2172C35.2471 51.06 35.5166 50.8129 35.9209 50.8578C36.1006 51.6889 35.7188 52.4076 35.5166 53.1488C35.3145 53.89 35.3145 54.0248 35.7637 54.3393C36.2129 54.6537 36.5273 54.4066 36.8867 54.1596C38.3012 53.239 39.4972 52.0201 40.3906 50.5883C40.7051 50.1166 40.9522 50.0492 41.4014 50.4086C42.1875 51.0824 43.0186 51.7113 43.8271 52.3402C44.2764 52.6996 44.793 53.1937 45.3096 52.4975C45.8262 51.8012 45.2197 51.4418 44.7705 51.06C43.917 50.3861 43.0186 49.7348 42.165 49.0385C41.3115 48.3422 41.4238 47.7357 42.3223 47.1967C43.2207 46.6576 43.7148 46.433 44.3887 46.0512C45.0625 45.6693 45.1748 45.4447 44.8604 44.8832C44.5459 44.3217 44.1191 44.3441 43.625 44.6586C43.1309 44.973 42.9287 45.0404 42.4346 45.31C42.3447 44.3217 42.2549 43.4457 42.165 42.5922C42.0334 41.7096 41.8075 40.8436 41.4912 40.0092C41.3789 39.6498 41.2666 39.3578 41.7158 39.1557C43.041 38.5268 44.2539 37.6508 45.6465 37.1566L45.7139 37.224ZM82.1231 42.8842C81.9883 42.3451 81.6738 41.9633 81.1123 42.1879C80.5203 42.4445 79.9559 42.7605 79.4277 43.1312C79.2842 43.2323 79.1825 43.3823 79.142 43.5532C79.1015 43.724 79.1249 43.9037 79.2078 44.0585C79.2907 44.2132 79.4274 44.3323 79.592 44.3932C79.7567 44.4541 79.9379 44.4526 80.1016 44.3891C80.6936 44.1267 81.2643 43.8188 81.8086 43.4682C81.9121 43.4119 81.9969 43.3267 82.0527 43.223C82.1086 43.1193 82.133 43.0015 82.1231 42.8842ZM28.666 54.2494C28.5313 53.6654 28.1943 53.3061 27.6328 53.5082C27.0664 53.7467 26.5248 54.0401 26.0156 54.3842C25.9389 54.4284 25.8716 54.4873 25.8177 54.5575C25.7637 54.6277 25.7242 54.7079 25.7012 54.7934C25.6783 54.8789 25.6724 54.9682 25.684 55.0559C25.6955 55.1437 25.7243 55.2284 25.7686 55.3051C25.9707 55.6869 26.3076 55.8891 26.7119 55.7094C27.2926 55.4304 27.8552 55.1154 28.3965 54.766C28.4812 54.7095 28.5503 54.6325 28.5974 54.5422C28.6445 54.4519 28.6681 54.3512 28.666 54.2494ZM46.5674 52.6996C46.3709 52.7221 46.1901 52.8178 46.061 52.9677C45.932 53.1175 45.8642 53.3105 45.8711 53.5082C45.8486 53.9574 46.8145 54.9008 47.3086 54.9008C47.4119 54.9068 47.5153 54.8925 47.613 54.8585C47.7107 54.8245 47.8008 54.7715 47.878 54.7027C47.9552 54.6338 48.018 54.5504 48.063 54.4572C48.1079 54.364 48.1339 54.2629 48.1397 54.1596C48.1846 53.7103 47.1289 52.7221 46.5674 52.6996ZM46.6123 43.1537C46.1631 43.3334 45.5791 43.4457 45.4893 44.1195C45.4711 44.2229 45.4773 44.329 45.5074 44.4296C45.5375 44.5301 45.5906 44.6222 45.6626 44.6986C45.7346 44.7749 45.8234 44.8334 45.922 44.8694C46.0206 44.9053 46.1262 44.9177 46.2305 44.9057C46.792 44.9057 47.3535 44.6586 47.4209 44.0072C47.4883 43.3559 47.1963 43.2211 46.6123 43.1537ZM72.9365 52.2279C72.8691 51.6664 72.4424 51.3744 71.9258 51.307C71.8149 51.296 71.703 51.3101 71.5983 51.3483C71.4936 51.3865 71.3989 51.4479 71.3212 51.5277C71.2435 51.6076 71.1848 51.7039 71.1495 51.8096C71.1142 51.9153 71.1031 52.0275 71.1172 52.1381C71.1546 52.3922 71.2815 52.6245 71.4751 52.7934C71.6686 52.9622 71.9161 53.0564 72.1729 53.059C72.667 53.0814 72.9141 52.767 72.9365 52.2279ZM94.3418 53.7777C94.252 53.3285 94.0274 52.9467 93.5781 52.9691C93.1289 52.9916 92.5674 53.2387 92.5225 53.8676C92.501 53.9705 92.504 54.077 92.5311 54.1786C92.5582 54.2802 92.6087 54.374 92.6785 54.4526C92.7484 54.5312 92.8356 54.5923 92.9333 54.6311C93.0311 54.67 93.1365 54.6854 93.2412 54.6762C93.5001 54.6762 93.7511 54.5868 93.9516 54.4231C94.1522 54.2594 94.29 54.0314 94.3418 53.7777Z" fill="#76CBEE"/>
<path d="M34.9777 65.6363C36.1457 65.0299 36.9318 65.2994 37.8302 66.0856C42.0529 69.7467 46.3654 73.2955 50.633 76.9117C52.6095 78.5514 54.5861 80.191 56.4728 81.943C58.3595 83.6949 58.382 85.5817 57.2365 87.4684C55.7316 89.984 53.4855 91.4664 50.588 91.8258C49.1056 92.0279 47.8478 91.3317 46.7023 90.4781C42.5246 87.3561 38.5265 84.0094 34.5734 80.6402L23.2306 70.982C23.0285 70.8024 22.3546 70.7125 22.8488 70.2858C23.3429 69.859 23.5451 69.2975 24.1964 69.859L29.6095 74.4635C33.338 77.5856 37.0441 80.7301 40.7951 83.8522C42.9513 85.6266 45.1974 87.3336 47.3537 89.108C48.8361 90.3209 50.4083 90.7701 52.2052 89.9166C54.0021 89.0631 55.9562 87.6481 56.338 85.2897C56.4953 84.2115 55.8888 83.2906 55.0578 82.5943L38.6164 68.7809C37.4035 67.7701 36.2355 66.7145 34.9777 65.6363Z" fill="#EF7C30"/>
<path d="M37.6505 51.2842C37.6505 50.6777 37.628 50.1162 37.6505 49.5322C37.7403 47.4434 36.8868 45.7588 35.5167 44.2539C34.6182 43.2656 33.6524 42.3223 32.7989 41.2891C30.6202 38.6387 30.5977 35.6514 31.6085 32.5518C32.17 30.8223 33.1807 29.3623 34.5733 27.8125C34.4161 28.7334 34.3038 29.3848 34.2139 30.0137C33.9444 31.8779 34.2589 33.54 35.6514 34.9551C36.5948 35.8984 37.7178 36.6396 38.5264 37.7402C41.1768 41.3564 41.7384 46.6123 38.4815 50.6328C38.2794 50.8799 38.0997 51.1943 37.6505 51.2842Z" fill="#F08137"/>
<path d="M66.0635 17.166C66.086 18.5361 65.6143 19.7041 65.794 20.9619C65.8996 21.7648 66.177 22.5354 66.6072 23.2214C67.0375 23.9075 67.6104 24.4928 68.2871 24.9375C72.3076 27.8125 73.8799 34.8203 70.3985 39.29C70.081 39.7043 69.7023 40.0679 69.2754 40.3682C69.4942 39.1962 69.4404 37.9896 69.1182 36.8418C68.7139 35.1123 67.6582 33.7646 66.4678 32.5068C65.2774 31.249 64.4238 30.5752 63.7276 29.3398C61.7735 25.8135 62.4922 22.4668 64.4238 19.21C64.8379 18.4322 65.3941 17.7389 66.0635 17.166Z" fill="#F08137"/>
<path d="M47.3761 37.6504C47.3761 36.8193 47.5783 36.0107 47.466 35.1572C47.174 33.001 46.0509 31.3164 44.591 29.834C43.6252 28.8232 42.547 27.8799 41.8507 26.6445C39.8966 23.1182 40.6378 19.7715 42.547 16.5146C42.9642 15.7262 43.5374 15.0308 44.2316 14.4707C44.1418 15.1895 44.1193 15.7285 44.007 16.2676C43.423 19.0078 44.6584 20.9619 46.7248 22.5566C50.7902 25.6562 52.048 33.0908 47.9152 37.3135C47.7804 37.4482 47.6906 37.6729 47.3761 37.6504Z" fill="#F08137"/>
<path d="M44.8154 65.1646C46.6797 64.6929 47.96 65.3218 49.2627 66.3999C54.1816 70.5103 59.168 74.5308 64.3115 78.3492C67.5459 80.73 71.3418 79.899 73.4082 76.44C74.7783 74.1265 74.4414 72.5992 72.3525 70.9146C70.2637 69.23 68.3994 67.6577 66.3105 65.9283C67.9502 65.7486 69.2978 65.7486 70.4883 66.9839C71.6787 68.2193 73.2285 69.1402 74.4639 70.398C75.3267 71.2194 75.882 72.3117 76.0373 73.4928C76.1926 74.6739 75.9385 75.8726 75.3174 76.8892C73.7002 79.562 71.3418 81.2242 68.2422 81.7183C66.8721 81.9429 65.6143 81.4488 64.4687 80.6626C60.8975 78.1919 57.5283 75.4292 54.1143 72.7339C51.2842 70.5103 48.5215 68.2193 45.7139 65.9507L44.8154 65.1646Z" fill="#EF7C30"/>
<path d="M64.5811 32.8885C64.5649 32.9767 64.525 33.0589 64.4656 33.1262C64.4063 33.1934 64.3297 33.2433 64.2442 33.2703L55.3497 38.2342C54.9229 38.4588 54.6309 38.3016 54.3165 38.077L52.1602 36.4823C50.7677 35.4715 50.8575 34.2586 52.4073 33.4276L58.7637 30.036C59.6173 29.5868 60.4932 28.7782 61.3018 28.8231C62.1104 28.868 62.2677 30.3055 62.919 30.9793C63.5704 31.6532 63.8175 32.0125 64.2667 32.5291L64.5811 32.8885Z" fill="#76CBEE"/>
<path d="M76.8896 65.2327C78.5293 64.469 79.8096 64.8958 81.0225 65.9964C82.2354 67.097 82.9541 67.3889 83.9199 68.1077C86.0986 69.7024 87.2217 69.8597 90.1416 68.1302C91.3507 67.3986 92.3189 66.3288 92.9268 65.053C93.5781 63.7278 93.3984 62.5374 92.6123 61.347C92.4551 61.0999 91.7139 60.8304 92.4775 60.4485C93.2412 60.0667 93.5332 59.5276 94.1396 60.3587C95.2627 61.8636 95.5772 63.5257 94.8584 65.2327C93.376 68.7591 90.6357 70.7356 86.8623 71.1849C85.8066 71.2972 84.8184 70.8255 83.875 70.2415C81.4492 68.7366 79.248 66.9397 76.8896 65.2327Z" fill="#EF7C30"/>
<path d="M58.9658 64.1993L45.377 63.3907L52.3623 59.5724C52.4976 59.4965 52.6539 59.4664 52.8077 59.4866C52.9616 59.5069 53.1047 59.5763 53.2158 59.6847L58.9658 64.1993Z" fill="#76CBEE"/>
<path d="M78.3496 62.9643C79.585 62.3129 80.7529 61.5717 82.0107 61.0102C82.8418 60.6508 83.2012 61.5717 84.0098 61.9985C82.1912 62.5667 80.3278 62.9799 78.4395 63.2338L78.3496 62.9643Z" fill="#76CBEE"/>
<path d="M45.6465 37.1563L45.7813 37.0889L45.7139 37.2236L45.6465 37.1563Z" fill="#FBBD4E"/>
<path d="M82.123 42.8839C82.133 43.0013 82.1086 43.119 82.0527 43.2227C81.9969 43.3264 81.912 43.4116 81.8086 43.4679C81.2643 43.8186 80.6935 44.1265 80.1015 44.3888C79.9379 44.4524 79.7566 44.4539 79.592 44.393C79.4273 44.3321 79.2906 44.213 79.2077 44.0583C79.1248 43.9035 79.1014 43.7238 79.142 43.5529C79.1825 43.3821 79.2841 43.232 79.4277 43.131C79.9558 42.7603 80.5203 42.4442 81.1123 42.1877C81.6738 41.963 81.9883 42.3449 82.123 42.8839Z" fill="#B7531B"/>
<path d="M28.666 54.2491C28.6681 54.3509 28.6445 54.4516 28.5974 54.5419C28.5503 54.6322 28.4812 54.7092 28.3965 54.7657C27.8553 55.1151 27.2926 55.4301 26.7119 55.7091C26.3076 55.8888 25.9707 55.6866 25.7686 55.3048C25.7243 55.2281 25.6955 55.1434 25.684 55.0556C25.6724 54.9678 25.6783 54.8786 25.7012 54.7931C25.7242 54.7076 25.7638 54.6274 25.8177 54.5572C25.8717 54.487 25.9389 54.4281 26.0156 54.3839C26.5248 54.0398 27.0665 53.7464 27.6328 53.5079C28.1944 53.3057 28.5313 53.6651 28.666 54.2491Z" fill="#B7531B"/>
<path d="M46.5674 52.6992C47.1289 52.7217 48.1846 53.71 48.1396 54.1592C48.1339 54.2625 48.1078 54.3636 48.0629 54.4568C48.018 54.55 47.9552 54.6334 47.878 54.7023C47.8008 54.7712 47.7107 54.8241 47.613 54.8581C47.5153 54.8921 47.4119 54.9065 47.3086 54.9004C46.8144 54.9004 45.8486 53.957 45.8711 53.5078C45.8642 53.3102 45.932 53.1172 46.061 52.9673C46.1901 52.8174 46.3709 52.7217 46.5674 52.6992Z" fill="#B7531B"/>
<path d="M46.6122 43.1533C47.1962 43.2207 47.4658 43.5801 47.4208 44.0068C47.3759 44.4336 46.7919 44.9053 46.2304 44.9053C46.1262 44.9174 46.0205 44.9049 45.922 44.869C45.8234 44.833 45.7345 44.7745 45.6626 44.6982C45.5906 44.6218 45.5374 44.5297 45.5073 44.4292C45.4772 44.3287 45.471 44.2225 45.4892 44.1191C45.579 43.4453 46.163 43.333 46.6122 43.1533Z" fill="#B7531B"/>
<path d="M72.9366 52.2273C72.9141 52.7663 72.6671 53.0808 72.1729 53.0583C71.9161 53.0557 71.6687 52.9615 71.4751 52.7927C71.2816 52.6239 71.1547 52.3915 71.1172 52.1374C71.1032 52.0269 71.1142 51.9146 71.1496 51.8089C71.1849 51.7033 71.2436 51.6069 71.3213 51.5271C71.399 51.4472 71.4937 51.3859 71.5984 51.3477C71.703 51.3095 71.815 51.2953 71.9258 51.3064C72.4424 51.3738 72.8692 51.6657 72.9366 52.2273Z" fill="#B7531B"/>
<path d="M94.3418 53.7773C94.29 54.031 94.1522 54.259 93.9516 54.4227C93.7511 54.5864 93.5001 54.6758 93.2412 54.6757C93.1365 54.685 93.031 54.6695 92.9333 54.6307C92.8356 54.5919 92.7483 54.5308 92.6785 54.4522C92.6087 54.3736 92.5582 54.2798 92.5311 54.1782C92.504 54.0766 92.501 53.9701 92.5224 53.8672C92.5674 53.2382 93.0615 52.9912 93.5781 52.9687C94.0947 52.9463 94.2519 53.3281 94.3418 53.7773Z" fill="#B7531B"/>
</svg>
