<svg width="116" height="116" viewBox="0 0 116 116" fill="none" xmlns="http://www.w3.org/2000/svg">
<path d="M26.9814 26.3077H29.0928C29.542 26.2853 29.6768 26.4425 29.6543 26.8917C29.6318 28.3068 29.6543 29.7443 29.6543 31.1593C29.6768 31.5636 29.542 31.7433 29.1377 31.6984H28.9805C28.3291 31.7433 27.5205 31.4288 27.1162 31.8331C26.7119 32.2374 26.959 33.0909 26.959 33.7648C26.9365 38.1447 26.959 42.547 26.9365 46.9493C26.9365 47.6232 27.0713 47.8702 27.79 47.8478C29.6543 47.8029 29.6543 47.8478 29.6543 49.712C29.6543 50.6554 29.6768 51.5988 29.6543 52.5646C29.6318 53.0587 29.7666 53.3058 30.3057 53.2159C30.8447 53.1261 31.002 53.3732 31.002 53.9122C30.9795 56.1359 30.9795 58.337 31.002 60.5607C31.002 61.0773 30.9121 61.3693 30.3281 61.2794C29.7441 61.1896 29.6318 61.504 29.6543 61.9982C29.6768 63.256 29.6318 64.5138 29.6768 65.7716C29.6992 66.4454 29.5645 66.7374 28.8232 66.67C28.082 66.6027 27.8574 66.67 28.2393 67.546C30.0137 71.4093 33.0908 73.5656 37.2012 74.3966C38.0322 74.5538 38.9082 74.5988 39.7617 74.7111C40.1885 74.7784 40.4805 74.6661 40.4131 74.1495C40.4026 74.1247 40.3972 74.0979 40.3972 74.0709C40.3972 74.0439 40.4026 74.0172 40.4131 73.9923C40.4355 72.0382 40.4355 72.0382 42.3447 72.0382C43.2656 72.0382 44.209 72.0158 45.1299 72.0382C45.624 72.0607 45.8711 71.9484 45.8037 71.3868C45.7363 70.8253 45.9385 70.6681 46.4775 70.6906C48.7236 70.713 50.9697 70.713 53.1934 70.6906C53.7324 70.6906 53.8447 70.8478 53.8447 71.3644C53.8447 77.3989 53.8372 83.4409 53.8223 89.4904H46.5449C45.9609 89.4904 45.7588 89.3331 45.7812 88.7267C45.8037 87.4689 45.7588 86.2111 45.8037 84.9533C45.8262 84.3243 45.6689 84.0548 44.9727 84.0773C43.7148 84.1447 42.457 84.1447 41.1992 84.0997C40.5703 84.0773 40.3906 84.2794 40.3906 84.9083C40.4131 87.7833 40.3906 90.6583 40.3906 93.5333C35.2471 93.4884 30.2607 92.5675 25.6113 90.2765C16.3799 85.7618 10.8994 78.2824 8.81055 68.2648C8.69824 67.7482 8.65332 67.2316 8.56348 66.6925C11.3262 66.6925 14.0664 66.6476 16.8066 66.67C17.3906 66.67 17.5928 66.5128 17.5703 65.9064C17.5254 64.6486 17.5254 63.3907 17.5703 62.1329C17.5928 61.4816 17.4355 61.2345 16.7393 61.257C15.4814 61.3243 14.2236 61.257 12.9658 61.2794C12.4043 61.3019 12.1572 61.1671 12.1797 60.5607C12.2021 58.337 12.2021 56.1134 12.1797 53.9122C12.1797 53.3507 12.3594 53.1935 12.8984 53.1935C14.2236 53.2384 15.5264 53.1935 16.8516 53.2159C17.3906 53.2384 17.5928 53.0587 17.5703 52.4972C17.5479 51.2394 17.5254 49.9816 17.5703 48.7238C17.5928 48.0275 17.4131 47.8029 16.6943 47.8253C13.8418 47.8478 10.9893 47.8253 8.13672 47.8253V31.7208C11.0117 31.6984 13.8867 31.6759 16.7617 31.7208C17.3906 31.7208 17.5928 31.5187 17.5703 30.8898C17.5254 29.632 17.5928 28.3741 17.5479 27.1163C17.5254 26.5099 17.7051 26.3077 18.3564 26.3077C21.2314 26.3527 24.1064 26.3302 26.9814 26.3077Z" fill="#F08137"/>
<path d="M8.58594 47.8254C11.4385 47.8254 14.3135 47.8479 17.166 47.8254C17.8848 47.803 18.0645 48.0276 18.042 48.7239C17.9971 49.9817 17.9971 51.2395 18.042 52.4973C18.042 53.0588 17.8623 53.2385 17.3232 53.2161C15.998 53.1936 14.6729 53.2385 13.3701 53.1936C12.8086 53.1936 12.6289 53.3508 12.6514 53.9124C12.6738 56.1135 12.6738 58.3372 12.6514 60.5608C12.6289 61.1672 12.8535 61.302 13.415 61.2795C14.6953 61.2571 15.9531 61.3245 17.2109 61.2571C17.9072 61.2346 18.0645 61.4817 18.042 62.1331C17.9971 63.3909 17.9971 64.6487 18.042 65.9065C18.0645 66.5129 17.8623 66.6702 17.2783 66.6702C14.5381 66.6477 11.7754 66.6926 9.03516 66.6926C8.2041 66.6926 7.37305 66.6477 6.51953 66.6702C6.07031 66.6702 5.89063 66.5354 5.91309 66.0637C5.93555 64.7161 5.89063 63.3684 5.93555 62.0432C5.95801 61.4817 5.82324 61.1897 5.2168 61.2795C4.61035 61.3694 4.54297 61.1672 4.54297 60.6506C4.56543 58.3821 4.56543 56.136 4.54297 53.8674C4.54297 53.3958 4.63281 53.0813 5.17187 53.1936C5.71094 53.3059 5.95801 52.969 5.93555 52.4075C5.89063 51.1497 5.95801 49.8918 5.89062 48.634C5.86816 47.9377 6.11523 47.7805 6.74414 47.8254C7.37305 47.8704 7.97949 47.8254 8.58594 47.8254Z" fill="#EB6409"/>
<path d="M27.4532 26.3076C24.5782 26.3301 21.7032 26.3525 18.8057 26.3076C18.1768 26.3076 17.9971 26.5098 18.0196 27.1162C18.0645 28.374 17.9971 29.6318 18.0421 30.8896C18.0645 31.5186 17.8624 31.7207 17.2335 31.7207C14.3585 31.6758 11.4835 31.6982 8.58601 31.7207C7.88972 31.6982 7.19343 31.6758 6.49714 31.6982C5.80085 31.7207 5.8907 31.6084 5.91316 31.1367C5.93562 29.7217 5.93562 28.2842 5.91316 26.8691C5.8907 26.4199 6.07038 26.2852 6.49714 26.3076H7.50788C8.20417 26.3525 8.81062 26.3525 8.60847 25.3418C8.49616 24.8252 8.94538 24.9375 9.21491 24.9375C9.48445 24.9375 9.97859 24.915 9.97859 24.2861C9.97859 23.6572 9.77644 23.5449 9.25984 23.6123C8.74323 23.6797 8.58601 23.4102 8.58601 22.916C8.58601 22.4219 8.67585 22.1523 9.21491 22.2422C9.75398 22.332 9.97859 22.2197 9.97859 21.6133C9.97859 21.0068 9.77644 20.8496 9.25984 20.9395C8.74323 21.0293 8.58601 20.7148 8.58601 20.2207C8.58601 19.7266 8.69831 19.457 9.21491 19.5693C9.73152 19.6816 10.046 19.4121 9.95612 18.8281C9.86628 18.2441 10.0909 18.2217 10.5626 18.2217H18.0196C18.0645 19.7041 17.8175 19.5244 19.2999 19.5469H26.1055C26.2696 19.5656 26.4346 19.5731 26.5997 19.5693C27.1387 19.5244 27.4757 19.5693 27.4532 20.2881C27.4307 21.0068 27.0489 20.917 26.5997 20.917H18.7383C18.2667 20.917 18.0196 20.9844 18.0196 21.5459C18.0196 22.1074 18.1768 22.2646 18.7383 22.2646H26.5997C27.1387 22.2197 27.4757 22.2422 27.4532 22.9834C27.4307 23.7246 27.0489 23.6123 26.5997 23.6123H18.7383C18.2667 23.6123 18.0196 23.6797 18.0196 24.2412C18.0196 24.8027 18.1768 24.96 18.7383 24.96C21.1866 24.915 23.6348 24.9375 26.1055 24.9375C27.3858 25.0049 27.3858 25.0049 27.4532 26.3076Z" fill="#EB6409"/>
<path d="M40.4129 93.556C40.4129 90.681 40.4353 87.806 40.4129 84.931C40.4129 84.3021 40.5701 84.0999 41.2215 84.1224C42.4793 84.1673 43.7371 84.1673 44.9949 84.0999C45.6912 84.0775 45.826 84.347 45.8035 84.9759C45.7811 86.2337 45.826 87.4915 45.7811 88.7493C45.7811 89.3558 45.9607 89.513 46.5447 89.513H53.8445C53.867 92.0511 53.867 94.5892 53.8895 97.1497C53.8895 97.5091 53.7771 97.6214 53.4178 97.6214C51.0369 97.6214 48.6561 97.5989 46.2977 97.6214C45.8709 97.6214 45.7137 97.4642 45.8035 97.0823C45.9383 96.3187 45.5564 96.2288 44.9051 96.2513C43.7146 96.2962 42.5018 96.2064 41.3113 96.2737C40.5252 96.3411 40.3455 96.0491 40.4129 95.3528C40.4803 94.6566 40.4129 94.14 40.4129 93.556Z" fill="#EB6409"/>
<path d="M26.1055 19.5693H19.2998C17.8174 19.5469 18.0645 19.7266 18.0195 18.2441H25.5439C25.9932 18.2441 26.1279 18.4014 26.1055 18.8281C26.083 19.2549 26.1055 19.3223 26.1055 19.5693Z" fill="#F08137"/>
<path d="M26.1055 22.2646H18.7383C18.1768 22.2646 18.0195 22.1074 18.0195 21.5459C18.0195 20.9844 18.2666 20.9395 18.7383 20.9395H26.1055V22.2646Z" fill="#F08137"/>
<path d="M26.1055 24.96C23.6348 24.96 21.1865 24.9375 18.7383 24.9824C18.1768 24.9824 18.0195 24.8027 18.0195 24.2637C18.0195 23.7246 18.2666 23.6348 18.7383 23.6348H26.1055V24.96Z" fill="#F08137"/>
<path d="M110.514 73.0938C110.064 72.8691 109.975 72.5996 109.975 72.1504C109.975 68.5117 109.997 64.873 109.975 61.2119C109.952 57.8877 109.211 54.7432 107.481 51.8682C103.708 45.6016 98.1152 42.502 90.8154 42.457C87.289 42.4121 83.7627 42.4346 80.2363 42.4346C79.8769 42.457 79.5849 42.457 79.3603 42.0078C78.5966 40.458 77.2939 39.6045 75.5644 39.6045C73.8349 39.6045 72.4648 40.458 71.6787 42.0527C71.6309 42.1785 71.544 42.2857 71.4308 42.3585C71.3176 42.4313 71.1841 42.4658 71.0498 42.457H68.4443C67.5234 42.4346 66.9843 41.8955 66.9619 40.9746C66.9394 40.0537 66.9843 39.4023 66.9394 38.6162C66.9115 38.4185 66.9519 38.2172 67.0541 38.0457C67.1562 37.8741 67.3138 37.7426 67.5009 37.6729C69.0283 36.8643 69.8144 35.5615 69.7919 33.8545C69.7695 32.1475 69.0058 30.9121 67.5234 30.126C67.3345 30.0568 67.1743 29.9263 67.0684 29.7552C66.9625 29.5842 66.9171 29.3825 66.9394 29.1826C66.9544 23.5674 66.9619 17.9671 66.9619 12.3818H41.0869V29.1826C41.0869 29.6094 41.0195 29.8564 40.5927 30.0811C39.0654 30.8672 38.2568 32.1475 38.2343 33.8545C38.2119 35.5615 39.0429 36.8643 40.5253 37.6729C40.7119 37.75 40.8678 37.8864 40.9693 38.0609C41.0707 38.2354 41.1121 38.4384 41.0869 38.6387C41.0644 42.21 41.0869 45.8037 41.0869 49.375C41.0509 50.7491 41.1867 52.1224 41.4912 53.4629C43.4677 62.3574 50.9472 68.3096 60.0664 68.332C63.5927 68.332 67.1191 68.3545 70.6455 68.332C71.1845 68.332 71.5214 68.4219 71.8134 68.9834C73.2509 71.6562 77.1142 72.0605 78.7988 69.5449C79.5849 68.377 80.3935 68.2646 81.5166 68.332C81.8759 68.3545 82.2578 68.332 82.6171 68.332C83.538 68.377 84.0771 68.916 84.0996 69.8145C84.122 70.7129 84.0771 71.3193 84.122 72.083C84.1669 72.8467 84.0097 72.9141 83.4931 73.1836C82.7973 73.5242 82.2162 74.0606 81.8212 74.727C81.4261 75.3934 81.2344 76.1607 81.2695 76.9346C81.2695 78.5742 82.0107 79.8545 83.4707 80.6182C84.0097 80.9102 84.122 81.2246 84.122 81.7861C84.0996 87.0645 84.122 92.3652 84.0996 97.666C84.0996 98.2725 84.2119 98.4521 84.8632 98.4521C92.9641 98.4072 101.088 98.4072 109.233 98.4521C109.862 98.4521 109.997 98.2725 109.997 97.666C109.967 92.3503 109.96 87.027 109.975 81.6963C109.975 81.2695 109.997 80.9551 110.491 80.708C111.996 79.9443 112.827 78.6416 112.827 76.9346C112.827 75.2275 112.019 73.9023 110.514 73.0938ZM41.2216 34.1689C41.1715 33.9801 41.1638 33.7825 41.1989 33.5904C41.2341 33.3982 41.3113 33.2161 41.4251 33.0573C41.5389 32.8985 41.6863 32.7668 41.857 32.6716C42.0276 32.5764 42.2171 32.5202 42.4121 32.5068H64.8281C66.2207 32.5068 66.872 32.9336 66.8945 33.877C66.917 34.8203 66.2207 35.2695 64.8281 35.2695H42.8388C42.0302 35.2471 41.4013 35.0449 41.2216 34.1689ZM75.8339 68.1748C75.6467 68.229 75.4496 68.2404 75.2573 68.2083C75.065 68.1762 74.8824 68.1014 74.7229 67.9893C74.5634 67.8772 74.4311 67.7307 74.3357 67.5607C74.2403 67.3907 74.1843 67.2014 74.1718 67.0068C74.1494 66.7148 74.1494 66.4453 74.1494 66.1533V44.5908C74.1494 43.1758 74.5761 42.5244 75.5195 42.5244C76.4628 42.5244 76.9121 43.1758 76.9121 44.5459V66.5576C76.9121 67.3438 76.7099 67.9727 75.8339 68.1748ZM108.47 78.2598C106.089 78.3047 103.708 78.2822 101.327 78.2822H85.8066C84.6611 78.2598 84.0322 77.5859 84.2343 76.6426C84.4365 75.6992 84.7285 75.6094 85.4023 75.5195H108.155C108.762 75.5195 109.323 75.5869 109.683 76.1709C110.267 77.1143 109.66 78.2373 108.47 78.2598Z" fill="#1A87C9"/>
<path d="M65.6143 29.6094H42.4121C40.1048 29.6094 38.2344 31.4798 38.2344 33.7871V34.1105C38.2344 36.4178 40.1048 38.2883 42.4121 38.2883H65.6143C67.9216 38.2883 69.792 36.4178 69.792 34.1105V33.7871C69.792 31.4798 67.9216 29.6094 65.6143 29.6094Z" fill="#016BB1"/>
<path d="M108.649 72.5547H85.4473C83.14 72.5547 81.2695 74.4251 81.2695 76.7324V77.0559C81.2695 79.3632 83.14 81.2336 85.4473 81.2336H108.649C110.957 81.2336 112.827 79.3632 112.827 77.0559V76.7324C112.827 74.4251 110.957 72.5547 108.649 72.5547Z" fill="#016BB1"/>
<path d="M79.877 66.9844V43.7822C79.877 41.4749 78.0065 39.6045 75.6992 39.6045H75.3758C73.0685 39.6045 71.198 41.4749 71.198 43.7822V66.9844C71.198 69.2917 73.0685 71.1621 75.3758 71.1621H75.6992C78.0065 71.1621 79.877 69.2917 79.877 66.9844Z" fill="#016BB1"/>
</svg>
