<svg width="116" height="116" viewBox="0 0 116 116" fill="none" xmlns="http://www.w3.org/2000/svg">
<path d="M85.2451 53.3277C90.1191 53.3501 94.9707 53.395 99.8223 53.3501C101.619 53.3501 103.034 51.8452 103.169 50.0034C103.191 49.6665 103.169 49.3296 103.169 48.9927C103.169 35.3364 103.191 21.6802 103.146 8.0464C103.146 7.1255 103.371 6.83351 104.314 6.87843C106.313 6.94582 108.313 6.87843 110.312 6.87843V51.7329C109.975 51.9351 110.02 52.3169 109.952 52.6089C108.717 57.1685 104.719 60.4029 100.002 60.4927C95.2852 60.5825 90.1865 60.5376 85.2676 60.5601C85.2676 58.1568 85.2676 55.731 85.2451 53.3277Z" fill="#EB6409"/>
<path d="M85.2451 53.3281C85.2676 55.7314 85.2676 58.1572 85.2676 60.5605C85.2676 65.3971 85.2751 70.2262 85.29 75.0478C85.3125 75.9014 84.9756 76.7549 85.2227 77.6084C84.7734 78.0801 84.8408 78.7314 84.7061 79.3154C83.6504 83.4033 81.3144 86.6152 78.0801 89.2432C74.2842 91.9385 70.0391 92.9941 65.4346 92.7246C64.918 92.7021 64.3564 92.7471 63.8174 92.7471H53.0137C50.7451 92.6572 48.4766 92.8594 46.2305 92.4551C43.5127 91.9385 41.0645 90.7705 38.7734 89.2432L38.2568 88.749C35.7174 86.7374 33.795 84.0522 32.709 81C32.2598 79.7646 31.9678 78.4844 31.6084 77.2266C31.6084 72.0306 31.6009 66.8421 31.5859 61.6611C31.5859 57.7305 31.5635 53.7773 31.5635 49.8467C31.5859 45.1074 31.5859 40.3682 31.6084 35.6064L32.5293 35.5615H85.2002C85.2227 36.1455 85.2676 36.7295 85.29 37.291C85.2676 42.6367 85.2676 47.9824 85.2451 53.3281ZM58.4043 57.0117H73.3857C74.2842 57.0117 74.6211 56.8545 74.6211 55.8437C74.5537 51.8232 74.5762 47.7803 74.6211 43.7373C74.6211 42.9062 74.3965 42.6367 73.543 42.6367C63.4805 42.6667 53.4255 42.6667 43.3779 42.6367C42.4795 42.6367 42.2998 42.9287 42.3223 43.7373C42.3672 47.7803 42.3672 51.8232 42.2998 55.8662C42.2998 56.8545 42.6367 57.0342 43.5127 57.0117H58.4043Z" fill="#EB6409"/>
<path d="M44.8154 8.83301H42.6816C42.2847 8.83301 41.9629 9.1548 41.9629 9.55176V14.273C41.9629 14.67 42.2847 14.9918 42.6816 14.9918H44.8154C45.2124 14.9918 45.5342 14.67 45.5342 14.273V9.55176C45.5342 9.1548 45.2124 8.83301 44.8154 8.83301Z" fill="#504F4F"/>
<path d="M73.8125 8.83301H71.6787C71.2818 8.83301 70.96 9.1548 70.96 9.55176V14.0237C70.96 14.4207 71.2818 14.7425 71.6787 14.7425H73.8125C74.2095 14.7425 74.5312 14.4207 74.5312 14.0237V9.55176C74.5312 9.1548 74.2095 8.83301 73.8125 8.83301Z" fill="#504F4F"/>
<path d="M85.2002 35.5618H32.5293L31.6084 35.6067C31.5635 35.5618 31.5635 35.5169 31.541 35.472C31.5635 30.5755 31.5635 25.7015 31.5859 20.8274C31.5859 17.638 34.4609 14.4261 37.4932 14.2239H50.1162C50.4756 14.2239 50.8574 14.3587 51.1719 14.0442C51.1968 14.0337 51.2235 14.0283 51.2505 14.0283C51.2775 14.0283 51.3042 14.0337 51.3291 14.0442H65.8613C66.1084 14.2913 66.4229 14.2015 66.7373 14.2015C70.9375 14.2239 75.1377 14.2015 79.3379 14.2015C82.2354 14.4261 85.1553 17.4358 85.2227 20.3782C85.29 22.4222 85.2676 24.4886 85.29 26.555C85.2451 29.5647 85.2227 32.5745 85.2002 35.5618ZM36.9092 24.4661V25.5892C36.9092 28.3968 36.9092 28.3743 39.6943 28.3294C40.3457 28.3294 40.5928 28.1497 40.5703 27.4759C40.5254 26.3304 40.5928 25.1624 40.5479 24.0169C40.5029 23.2308 40.7051 22.9612 41.5361 22.9612C44.209 23.0061 44.209 22.9612 44.0742 20.2435C44.0518 19.6595 43.8721 19.4573 43.3105 19.4798H39.0205C37.6504 19.5022 36.9766 20.1311 36.9316 21.5237C36.8867 22.512 36.9092 23.5003 36.9092 24.4661ZM58.4717 28.3294C58.9403 28.3356 59.4053 28.2471 59.8389 28.0693C60.2725 27.8914 60.6658 27.6279 60.9951 27.2944C61.3243 26.9609 61.5829 26.5644 61.7553 26.1285C61.9276 25.6927 62.0102 25.2266 61.998 24.7581C61.9907 24.2891 61.891 23.8262 61.7047 23.3957C61.5184 22.9652 61.2492 22.5757 60.9123 22.2493C60.5755 21.9229 60.1777 21.666 59.7416 21.4933C59.3054 21.3207 58.8396 21.2356 58.3706 21.243C57.9016 21.2503 57.4387 21.35 57.0082 21.5363C56.5777 21.7226 56.1882 21.9918 55.8618 22.3287C55.5354 22.6655 55.2785 23.0633 55.1058 23.4995C54.9332 23.9356 54.8481 24.4014 54.8555 24.8704C54.8779 26.8245 56.4727 28.3294 58.4717 28.3294Z" fill="#1A87C9"/>
<path d="M31.6083 77.2266C31.9677 78.4844 32.2596 79.7646 32.7089 81C33.7948 84.0522 35.7173 86.7374 38.2567 88.749L38.7733 89.2432C38.7509 93.7578 38.7509 98.2725 38.7284 102.787C38.7284 103.371 38.8856 103.551 39.4696 103.528C41.3114 103.506 43.1532 103.551 44.9725 103.506C45.6014 103.506 45.8934 103.618 45.871 104.337C45.8036 106.156 45.8036 107.998 45.871 109.84C45.871 110.491 45.6239 110.604 45.0399 110.604H25.2518C24.6229 110.604 24.4432 110.424 24.4657 109.817C24.5106 107.931 24.5106 106.066 24.4657 104.202C24.4657 103.663 24.6229 103.506 25.162 103.506C27.0038 103.551 28.8231 103.483 30.6649 103.551C31.4511 103.573 31.6083 103.304 31.6083 102.585C31.5933 94.499 31.5858 86.4131 31.5858 78.3271C31.5858 77.9678 31.6083 77.5859 31.6083 77.2266Z" fill="#504F4F"/>
<path d="M78.08 89.2432C81.3144 86.6152 83.6503 83.4033 84.706 79.3154C84.8408 78.7314 84.7734 78.0801 85.2226 77.6084C85.2451 81.8086 85.2451 86.0088 85.2675 90.2314C85.29 94.4541 85.29 98.4522 85.2451 102.563C85.2226 103.394 85.4921 103.573 86.2783 103.551C88.0302 103.483 89.8046 103.551 91.579 103.506C92.1855 103.506 92.3876 103.686 92.3652 104.314C92.3427 106.134 92.3427 107.976 92.3652 109.817C92.3876 110.446 92.1855 110.604 91.579 110.604H71.791C71.207 110.604 70.9599 110.491 70.9824 109.817C71.0273 107.998 71.0273 106.156 70.9824 104.337C70.9599 103.596 71.2519 103.506 71.8583 103.506C73.7001 103.551 75.5195 103.506 77.3613 103.528C77.9228 103.551 78.1249 103.394 78.1249 102.787C78.08 98.2725 78.08 93.7578 78.08 89.2432Z" fill="#504F4F"/>
<path d="M31.541 35.4717C31.5635 35.5166 31.5635 35.5615 31.6084 35.6064C31.5859 40.3682 31.5859 45.1074 31.5635 49.8467C29.4521 49.8467 27.3408 49.8242 25.252 49.8691C24.6455 49.8691 24.4209 49.7344 24.4209 49.083C24.4658 44.8154 24.4658 40.5479 24.4209 36.2578C24.4209 35.6289 24.623 35.4717 25.2295 35.4717C27.3408 35.4941 29.4521 35.4717 31.541 35.4717Z" fill="#504F4F"/>
<path d="M65.5469 14.0219H51.3291C51.8682 11.8657 52.4072 9.68695 52.9238 7.5307C53.0361 7.0141 53.2832 6.9018 53.7549 6.9018C56.8695 6.93174 59.9915 6.93174 63.1211 6.9018C63.7051 6.87934 63.8623 7.12641 63.9746 7.62055C64.4912 9.75434 65.0303 11.8881 65.5469 14.0219Z" fill="#EB6409"/>
<path d="M27.4309 16.3573L27.1164 16.7392C25.1623 19.0975 25.1623 19.0975 23.0285 16.9638C22.3322 16.2675 21.6584 15.122 20.8947 15.0321C20.1311 14.9423 19.5022 16.2225 18.7834 16.8964C18.0647 17.5702 17.009 17.9071 15.9084 17.0311C13.2356 14.8974 10.5627 12.7411 7.8674 10.6298C7.28342 10.1806 7.28342 9.8661 7.77756 9.37196C8.169 8.99958 8.50892 8.57657 8.7883 8.11415C9.25998 7.26063 9.68674 7.44032 10.3381 7.97938C12.3596 9.66395 14.4709 11.2811 16.5149 12.9657C17.009 13.37 17.301 13.3925 17.7278 12.8983C18.3148 12.2364 18.9371 11.6066 19.592 11.0116C20.3557 10.3153 21.344 10.2704 22.0852 10.9891C23.7922 12.6288 25.4543 14.3358 27.1389 16.0204L27.4309 16.3573Z" fill="#EB6409"/>
<path d="M26.8918 25.2518C26.465 26.1053 26.0158 27.0486 25.4768 27.9695C25.2971 28.3064 24.9826 27.9471 24.7805 27.8572C23.2307 27.0936 21.6584 26.3299 20.1535 25.5213C19.592 25.2068 19.2551 25.2967 18.8508 25.7459C18.4465 26.1951 17.6379 26.9363 17.0764 27.5428C16.5148 28.1492 15.5041 28.5311 14.4934 28.1043C11.8654 27.0262 9.21503 25.993 6.56464 24.9598C6.04804 24.7576 5.86836 24.5555 6.11543 24.0164C6.4482 23.3436 6.72612 22.6451 6.94648 21.9275C7.12617 21.3885 7.3957 21.3885 7.84492 21.5906C10.0236 22.4666 12.2023 23.3201 14.3586 24.2186C14.8752 24.4207 15.2121 24.4207 15.5939 23.9715C15.9758 23.5223 16.9865 22.5789 17.6828 21.8826C18.3791 21.1863 19.1203 21.0291 19.9963 21.4559L26.4426 24.6902C26.6447 24.7801 26.9367 24.825 26.8918 25.2518Z" fill="#EB6409"/>
<path d="M53.0137 92.7471H63.8174C63.8174 94.8584 63.7949 96.9473 63.8174 99.0586C63.8398 99.6875 63.6152 99.8672 63.0088 99.8672H53.8447C53.1035 99.8896 53.0137 99.5527 53.0137 98.9463C53.0361 96.8799 53.0137 94.8135 53.0137 92.7471Z" fill="#1A87C9"/>
<path d="M85.2002 35.5615C85.2227 32.5742 85.2451 29.5645 85.29 26.5547C87.3789 26.5771 89.4678 26.5996 91.5791 26.5771C92.2305 26.5547 92.4326 26.7568 92.4326 27.4307C92.4027 30.4404 92.4027 33.4502 92.4326 36.46C92.4326 37.1113 92.2529 37.3135 91.5791 37.3135C89.4902 37.2686 87.3789 37.291 85.29 37.291C85.2676 36.7295 85.2227 36.1455 85.2002 35.5615Z" fill="#504F4F"/>
<path d="M58.4043 57.0117H43.5127C42.6367 57.0342 42.2998 56.8545 42.2998 55.8662C42.3672 51.8232 42.3672 47.7803 42.3223 43.7373C42.2998 42.9287 42.4795 42.6367 43.3779 42.6367C53.4105 42.6667 63.4655 42.6667 73.543 42.6367C74.3965 42.6367 74.6211 42.9062 74.6211 43.7373C74.5762 47.7803 74.5537 51.8232 74.6211 55.8437C74.6211 56.8545 74.2842 57.0117 73.3857 57.0117H58.4043ZM58.4268 51.5537H59.3477C62.1104 51.5537 62.0879 51.5537 61.998 48.791C61.9756 48.207 61.7734 48.0498 61.2119 48.0498C59.9541 48.0947 58.6963 48.0723 57.4385 48.0723C54.6982 48.0723 54.6982 48.0723 54.8555 50.8574C54.8779 51.3965 55.0576 51.5537 55.5742 51.5537C56.5176 51.5312 57.4834 51.5312 58.4268 51.5537ZM47.7129 49.8018C47.7129 51.6436 47.7129 51.6436 49.5098 51.6436C51.3066 51.6436 51.2842 51.8906 51.3066 49.8916C51.3291 47.8926 51.3066 48.0723 49.4873 48.0723C47.668 48.0723 47.7129 48.0723 47.7129 49.8018ZM67.2988 51.5537C69.1182 51.5537 69.1182 51.5537 69.1182 49.7344C69.1182 47.915 69.1182 48.0723 67.4561 48.0723C65.7939 48.0723 65.6367 48.0723 65.6367 49.8691C65.6367 51.666 65.6367 51.5537 67.2988 51.5537Z" fill="#1A87C9"/>
<path d="M36.9089 24.4655C36.9089 23.4997 36.8865 22.5114 36.9314 21.5231C36.9763 20.1306 37.6501 19.5017 39.0203 19.4792H43.3103C43.8718 19.4567 44.0515 19.6589 44.074 20.2429C44.2087 22.9607 44.2087 23.0056 41.5359 22.9606C40.7048 22.9606 40.5027 23.2302 40.5476 24.0163C40.5925 25.1618 40.5251 26.3298 40.5701 27.4753C40.5925 28.1491 40.3455 28.3288 39.6941 28.3288C36.9089 28.3737 36.9089 28.3962 36.9089 25.5886V24.4655Z" fill="#EB6409"/>
<path d="M58.4716 28.3291C56.4726 28.3291 54.8779 26.8242 54.8554 24.8701C54.8405 23.9229 55.2025 23.0086 55.8617 22.3283C56.5209 21.6481 57.4234 21.2575 58.3706 21.2426C59.3177 21.2277 60.232 21.5897 60.9123 22.2489C61.5926 22.9081 61.9831 23.8106 61.998 24.7578C62.0101 25.2263 61.9276 25.6924 61.7552 26.1282C61.5829 26.564 61.3243 26.9606 60.995 27.294C60.6657 27.6275 60.2725 27.8911 59.8389 28.0689C59.4053 28.2468 58.9403 28.3353 58.4716 28.3291Z" fill="#EB6409"/>
<path d="M58.427 51.5537C57.4836 51.5313 56.5178 51.5313 55.5744 51.5537C55.0578 51.5537 54.8781 51.3965 54.8557 50.8574C54.6984 48.0723 54.6985 48.0723 57.4387 48.0723C58.6965 48.0723 59.9543 48.0947 61.2121 48.0498C61.7736 48.0498 61.9758 48.207 61.9983 48.791C62.0881 51.5537 62.1106 51.5537 59.3479 51.5537H58.427Z" fill="#EA7525"/>
<path d="M47.7127 49.8018C47.7127 48.0723 47.7127 48.0723 49.4871 48.0723C51.2615 48.0723 51.3065 48.0723 51.3065 49.8916C51.3065 51.7109 51.576 51.6211 49.5096 51.6436C47.4432 51.666 47.7127 51.6436 47.7127 49.8018Z" fill="#EA7525"/>
<path d="M67.2988 51.5537C65.6367 51.5537 65.6367 51.5537 65.6367 49.8691C65.6367 48.1846 65.6367 48.0723 67.4561 48.0723C69.2754 48.0723 69.1182 48.0723 69.1182 49.7344C69.1182 51.3965 69.1182 51.5537 67.2988 51.5537Z" fill="#EA7525"/>
</svg>
