<svg width="116" height="116" viewBox="0 0 116 116" fill="none" xmlns="http://www.w3.org/2000/svg">
<path d="M17.6602 101.147C15.751 101.394 13.8418 101.394 12.0898 100.631C8.81055 99.1707 6.69922 96.7 5.89062 93.1512C5.8457 92.949 5.89062 92.7469 5.68848 92.6121V89.1531C6.18262 87.8953 6.3623 86.5027 7.14844 85.3348C9.79883 81.3592 13.5723 79.6521 18.2666 80.8201H18.6709C18.6673 80.8809 18.6749 80.9418 18.6934 80.9998C18.4912 81.3142 18.1318 81.3592 17.8623 81.5388C16.3574 82.5496 15.0098 83.6951 14.0439 85.2224C12.6405 87.4208 12.1265 90.071 12.6064 92.6346C12.9883 94.656 13.7295 96.5428 15.2793 98.0701C16.3125 99.0808 17.5703 99.7771 18.6709 100.698C18.3789 100.99 17.9072 100.81 17.6602 101.147Z" fill="#016BB1"/>
<path d="M87.3118 18.7383C87.6936 19.1201 87.5139 19.5693 87.5139 19.9961V61.2344C87.5139 62.582 87.5139 62.6045 88.9065 62.582C91.3323 62.4922 93.6682 62.8965 95.5774 64.4238C97.0373 65.5693 98.3625 66.9394 98.9016 68.8486C98.6545 69.3877 98.5198 69.9717 98.1828 70.4209C96.0266 73.3857 93.1741 75.1377 89.4231 75.1602H54.8332C55.0354 73.79 55.1477 72.4199 54.8332 71.0498C53.9797 67.3438 52.093 64.5137 48.3196 63.2109C48.1399 62.8965 47.6907 63.1211 47.511 62.7842C47.3313 62.4473 47.8928 62.6045 48.1174 62.6045C50.4758 62.6045 52.8342 62.5596 55.2151 62.627C56.0686 62.6494 56.2707 62.3574 56.2707 61.5264C56.2258 55.9336 56.2483 50.3408 56.2483 44.748H58.9885C61.3694 44.793 63.6379 44.2764 65.8616 43.4678C66.6329 43.212 67.3123 42.7356 67.8157 42.0977C67.8157 48.5439 67.8381 55.0127 67.7932 61.459C67.7932 62.4248 68.0852 62.6494 69.0061 62.627C70.8479 62.5596 72.7121 62.6045 74.5764 62.6045C75.9465 62.6045 75.9465 62.6045 75.9465 61.2344V20.7822C77.9006 20.7598 79.8772 20.8721 81.8088 20.5576C83.7405 20.2432 85.6721 19.9512 87.3118 18.7383ZM62.425 70.084H64.4465C65.4797 70.0615 65.9963 69.4775 65.9963 68.377C66.0057 68.1758 65.9734 67.9749 65.9014 67.7868C65.8294 67.5987 65.7193 67.4276 65.5779 67.2842C65.4366 67.1407 65.2671 67.0281 65.0801 66.9533C64.8931 66.8785 64.6927 66.8432 64.4914 66.8496H60.426C59.3703 66.8496 58.6741 67.501 58.719 68.4219C58.7527 68.8708 58.9538 69.2908 59.2824 69.5986C59.611 69.9064 60.0432 70.0796 60.4934 70.084H62.425ZM80.0119 29.1152C80.0119 29.8564 79.9895 30.5977 80.0119 31.3389C79.9792 31.5518 79.9919 31.7693 80.0491 31.9769C80.1064 32.1846 80.2069 32.3779 80.3442 32.5439C80.4814 32.71 80.6522 32.8452 80.8454 32.9406C81.0386 33.0359 81.2497 33.0894 81.465 33.0973C81.6803 33.1053 81.8948 33.0677 82.0945 32.9868C82.2943 32.906 82.4746 32.7838 82.6237 32.6284C82.7729 32.4729 82.8874 32.2876 82.9599 32.0848C83.0324 31.8819 83.0611 31.6659 83.0442 31.4512C83.0891 29.8564 83.0891 28.2617 83.0442 26.6895C83.0328 26.4867 82.9811 26.2883 82.8922 26.1058C82.8032 25.9233 82.6788 25.7604 82.5261 25.6265C82.3734 25.4927 82.1956 25.3906 82.003 25.3263C81.8105 25.262 81.607 25.2367 81.4045 25.252C80.6409 25.2744 80.0344 25.9258 80.0119 26.7793C79.9895 27.6328 80.0119 28.3291 80.0119 29.1152Z" fill="#D0D8DA"/>
<path d="M96.835 80.4389C98.6992 80.4164 100.563 80.349 102.36 80.8656C105.55 81.7641 107.661 83.8754 108.829 86.9301C106.65 91.0404 103.326 93.0844 98.5645 93.0394C87.3115 92.9496 76.0361 93.017 64.7832 93.017C64.7832 92.141 64.7607 91.265 64.7832 90.3891C64.9629 86.6381 61.8184 82.1908 58.2695 81.0678C57.7035 80.8081 57.0943 80.6558 56.4727 80.6186C56.8096 80.3041 57.2363 80.4389 57.6406 80.4389H96.835ZM72.2627 87.9408H74.3965C74.5971 87.9438 74.7963 87.9072 74.9827 87.8332C75.1692 87.7592 75.3392 87.6491 75.4831 87.5094C75.627 87.3696 75.742 87.2029 75.8215 87.0187C75.9009 86.8346 75.9434 86.6365 75.9463 86.4359C75.9912 85.56 75.4297 84.7738 74.5762 84.7289C73.0488 84.6615 71.5439 84.6615 70.0166 84.7289C69.1182 84.7738 68.6016 85.5375 68.624 86.5258C68.6465 87.5141 69.2979 87.9408 70.2412 87.9408H72.2627Z" fill="#D0D8DA"/>
<path d="M64.7832 93.0166C76.0361 93.0166 87.3115 92.9492 98.5644 93.0391C103.326 93.084 106.65 91.04 108.829 86.9297C109.93 89.2881 109.952 91.7363 109.144 94.1397C107.976 97.6436 105.617 100.047 101.979 100.99C101.165 101.207 100.327 101.312 99.4854 101.305H57.8652L57.4609 100.945C57.7754 100.878 58.0674 100.811 58.2695 100.519C60.2236 100.092 61.4814 98.6992 62.7168 97.3066C63.9521 95.9141 64.1543 94.4766 64.7832 93.0166Z" fill="#46AFE4"/>
<path d="M75.9463 20.7822V61.2119C75.9463 62.582 75.9463 62.582 74.5762 62.582C72.7119 62.582 70.8477 62.5371 69.0059 62.6045C68.085 62.6269 67.793 62.4023 67.793 61.4365C67.8379 54.9902 67.8154 48.5215 67.8154 42.0752V19.7266C67.8154 19.3896 67.8604 19.0527 67.8828 18.7158C70.1738 20.0635 72.6895 20.5576 75.3398 20.6025C75.4971 20.8271 75.7441 20.7598 75.9463 20.7822Z" fill="#46AFE4"/>
<path d="M96.8347 80.4385H57.6404C57.2361 80.4385 56.8094 80.3037 56.4724 80.6182C54.7879 80.1689 53.1707 80.6182 51.576 81.0449C51.4187 80.9326 51.4861 80.8203 51.5984 80.7305C53.3728 79.2705 54.2039 77.2715 54.8328 75.1377H89.4226C93.1736 75.1152 96.0261 73.3633 98.1824 70.3984C98.5193 69.9492 98.6541 69.3652 98.9011 68.8262C99.4627 69.6348 99.575 70.5781 99.6873 71.499C100.069 74.8906 99.1482 77.9004 96.8347 80.4385Z" fill="#46AFE4"/>
<path d="M56.248 44.7256C56.248 50.3184 56.2256 55.9111 56.2705 61.5039C56.2705 62.335 56.0684 62.627 55.2148 62.6045C52.834 62.5371 50.4756 62.582 48.1172 62.582V43.3555C48.1172 42.9961 48.1621 42.6143 48.1846 42.2549C50.498 43.8047 53.0811 44.501 55.8437 44.5234C55.8808 44.5958 55.9401 44.6544 56.0128 44.6908C56.0855 44.7271 56.1679 44.7393 56.248 44.7256Z" fill="#46AFE4"/>
<path d="M18.6708 80.8426C18.7158 80.4832 18.4462 80.3035 18.2441 80.1013C14.6503 76.1482 14.6503 70.0838 18.0644 66.0408C20.6249 63.0535 23.7919 62.2 27.5205 62.7615H27.8124C27.9697 63.031 28.4638 62.9412 28.5087 63.3455C27.1909 63.9111 26.0053 64.7449 25.0273 65.7937C21.3437 69.7244 21.3886 76.6873 25.499 80.4607C26.2177 81.1345 26.9589 81.7634 27.8798 82.1004C28.0532 82.1694 28.2094 82.2756 28.3374 82.4114C28.4655 82.5472 28.5623 82.7094 28.621 82.8865V83.0886H28.6435C26.3749 83.3582 24.1289 83.5154 21.9052 82.8865C21.2089 81.9656 20.0859 81.6511 19.1425 81.0672C19.0918 80.9915 19.0203 80.9322 18.9366 80.8963C18.8529 80.8605 18.7606 80.8496 18.6708 80.865V80.8426Z" fill="#016BB1"/>
<path d="M37.1564 101.17C35.8757 101.361 34.5738 101.361 33.2931 101.17C31.9455 100.608 30.5978 100.136 29.4298 99.1706C27.2287 97.3064 25.8136 95.1277 25.5666 92.2302C25.2296 91.2644 25.4093 90.2986 25.5666 89.3327C25.589 89.0632 25.6115 88.7937 25.6564 88.5466C26.0382 86.3904 27.2736 84.6833 28.6437 83.0661H28.8009C29.7443 82.3698 30.6203 81.5837 31.6759 81.0671C33.3605 80.7077 35.0226 80.1238 36.7746 80.6179C37.4259 80.7527 38.0998 80.7527 38.6164 81.2468C38.0773 81.2019 37.6281 81.4489 37.2238 81.7409C36.0141 82.5952 34.9455 83.6335 34.0568 84.8181C33.6947 85.2633 33.3927 85.7542 33.1584 86.278C31.9904 89.3777 31.7882 92.4548 33.2931 95.5544C34.4162 97.9128 36.2355 99.4851 38.5714 100.518C38.3244 100.855 37.9425 100.923 37.5607 100.967C37.4802 100.945 37.3943 100.953 37.3196 100.991C37.2449 101.028 37.1868 101.092 37.1564 101.17Z" fill="#016BB1"/>
<path d="M51.5762 81.045C53.1709 80.6183 54.7881 80.1691 56.4727 80.6183C57.0943 80.6555 57.7035 80.8079 58.2695 81.0675C57.416 81.7189 56.4053 82.0558 55.5742 82.797C52.4072 85.6944 51.374 89.2657 52.2275 93.3536C52.9463 96.7452 55.0801 99.1261 58.2695 100.519C58.0674 100.811 57.7754 100.878 57.4609 100.945C57.1465 101.013 56.9893 100.923 56.8545 101.17C55.5738 101.361 54.2719 101.361 52.9912 101.17C52.9609 101.092 52.9027 101.028 52.828 100.991C52.7533 100.954 52.6674 100.945 52.5869 100.968C51.2393 100.676 50.1611 99.9571 49.1055 99.1036C46.9043 97.3068 45.5342 95.0831 45.2871 92.2081C45.2646 91.3097 45.2646 90.4337 45.2646 89.5353C45.3096 89.1759 45.3545 88.8165 45.4219 88.4571C45.8262 86.3009 46.9941 84.5714 48.5215 83.0665C49.4873 82.3253 50.4082 81.4943 51.5762 81.045Z" fill="#016BB1"/>
<path d="M47.5107 62.7622C47.6904 63.0991 48.1396 62.8745 48.3193 63.1889C48.1467 63.3364 47.9584 63.4644 47.7578 63.5708C44.748 64.9634 43.1309 67.4341 42.3223 70.5561C41.1992 74.8686 43.3555 80.2143 47.5107 82.0561C47.6966 82.1297 47.8647 82.2418 48.0041 82.385C48.1434 82.5283 48.2509 82.6994 48.3193 82.8872C47.0615 83.2915 45.7812 83.2915 44.4785 83.3139C43.1758 83.3364 42.5918 82.8872 41.626 82.8647L41.4238 82.6626C40.8848 81.8764 39.9414 81.7192 39.1777 81.2475C38.9563 80.8629 38.6064 80.5686 38.1895 80.4165C36.46 78.3725 35.3369 76.0815 35.3145 73.3637V71.8813C35.8086 67.9057 37.8076 65.0083 41.4463 63.2788C41.8955 63.0766 42.4346 63.0991 42.8389 62.7622C44.3854 62.5038 45.9642 62.5038 47.5107 62.7622Z" fill="#016BB1"/>
<path d="M56.248 44.7252C56.1678 44.7389 56.0854 44.7267 56.0127 44.6904C55.94 44.654 55.8808 44.5954 55.8437 44.5231C55.664 44.0738 55.3271 43.7369 55.0351 43.3776C54.0019 42.1647 54.0468 41.4684 54.8329 40.0983C55.1923 39.4694 55.9111 39.3121 56.2255 38.7057C59.1477 38.5007 62.0837 38.7738 64.9179 39.5143C66.0185 39.7838 66.9394 40.525 67.8154 41.2662V42.0748C67.312 42.7128 66.6326 43.1891 65.8613 43.4449C63.6376 44.2535 61.3691 44.7701 58.9882 44.7252H56.248Z" fill="#46AFE4"/>
<path d="M75.9461 20.7825C75.7439 20.76 75.4969 20.8274 75.3396 20.6028C75.3324 20.4018 75.2526 20.2103 75.115 20.0637C73.3631 17.885 73.4978 16.8967 75.7439 15.302L75.9461 15.0774C78.7321 14.8694 81.5336 15.0814 84.2566 15.7063C84.8167 15.8418 85.365 16.022 85.8963 16.2453C87.3338 16.8518 87.5808 17.2786 87.3113 18.7385C85.6717 19.9514 83.74 20.2659 81.8084 20.5579C79.8767 20.8498 77.9002 20.76 75.9461 20.7825Z" fill="#46AFE4"/>
<path d="M25.5664 92.2305C25.8135 95.1279 27.2285 97.3066 29.4297 99.1709C30.5977 100.137 31.9453 100.608 33.293 101.17C33.0459 101.417 32.7314 101.327 32.417 101.327H18.5137C18.2217 101.327 17.9072 101.417 17.6602 101.147C17.9072 100.811 18.3789 100.99 18.6709 100.721C19.0893 100.593 19.4953 100.428 19.8838 100.227C22.624 98.4971 24.623 96.2285 25.1621 92.9043C25.207 92.6123 25.0947 92.2754 25.5664 92.2305Z" fill="#D0D8DA"/>
<path d="M45.287 92.208C45.534 95.083 46.9042 97.3066 49.1053 99.1035C50.161 99.957 51.2391 100.676 52.5868 100.968V101.17C47.5888 101.428 42.5808 101.428 37.5829 101.17C37.5645 101.104 37.5569 101.036 37.5604 100.968C37.9422 100.923 38.3241 100.855 38.5712 100.519C39.6493 100.519 40.2782 99.6875 41.0643 99.1484C43.2655 97.6436 44.411 95.5098 44.8602 92.9492C44.9276 92.6348 44.9501 92.3428 45.287 92.208Z" fill="#D0D8DA"/>
<path d="M42.8389 62.7614C42.4346 63.0984 41.8955 63.0759 41.4463 63.278C37.8076 65.0075 35.8086 67.905 35.3145 71.8806C34.8877 69.5446 34.0566 67.3884 32.3945 65.6364C31.3164 64.4909 30.1709 63.5027 28.5088 63.3679C28.4639 62.9636 27.9697 63.0534 27.8125 62.7839C28.0371 62.4919 28.374 62.5818 28.666 62.5818H41.9854C42.2773 62.5818 42.5918 62.4919 42.8389 62.7614Z" fill="#D0D8DA"/>
<path d="M56.2258 38.7061C55.9113 39.3125 55.1926 39.4697 54.8332 40.0986C54.0471 41.4687 54.0022 42.165 55.0354 43.3779C55.3273 43.7373 55.6643 44.0742 55.8439 44.5234C53.0813 44.501 50.4982 43.8047 48.1848 42.2549C47.9602 41.3789 48.4094 40.9072 49.1057 40.458C50.8801 39.3125 52.8791 38.9531 54.923 38.8408L56.2258 38.7061Z" fill="#016BB1"/>
<path d="M75.9464 15.0771L75.7443 15.3018C73.4982 16.8965 73.3634 17.8848 75.1154 20.0635C75.253 20.2101 75.3328 20.4016 75.34 20.6025C72.6896 20.5576 70.174 20.0635 67.883 18.7158C67.7707 17.2334 67.9279 16.8965 69.2755 16.3125C71.4093 15.3916 73.6554 15.0771 75.9464 15.0771Z" fill="#016BB1"/>
<path d="M56.8545 101.169C56.9893 100.922 57.2363 100.945 57.4609 100.945L57.8652 101.304C57.5283 101.304 57.1689 101.439 56.8545 101.169Z" fill="#BBDEF6"/>
<path d="M37.5605 100.967C37.557 101.036 37.5646 101.104 37.583 101.17C37.4258 101.327 37.291 101.349 37.1562 101.17C37.1866 101.092 37.2448 101.028 37.3195 100.991C37.3942 100.953 37.4801 100.945 37.5605 100.967Z" fill="#BBDEF6"/>
<path d="M52.5869 101.17V100.967C52.6674 100.945 52.7533 100.953 52.828 100.991C52.9027 101.028 52.9609 101.092 52.9912 101.17C52.8564 101.349 52.7217 101.327 52.5869 101.17Z" fill="#BBDEF6"/>
<path d="M25.5664 92.2305C25.0947 92.2754 25.207 92.6123 25.1621 92.9043C24.623 96.2285 22.624 98.4971 19.8838 100.227C19.4953 100.428 19.0893 100.593 18.6709 100.721C17.5703 99.7998 16.3125 99.1035 15.2793 98.0928C13.7295 96.5654 12.9883 94.6787 12.6064 92.6572C12.1265 90.0936 12.6405 87.4435 14.0439 85.2451C15.0098 83.7178 16.3574 82.5723 17.8623 81.5615C18.1318 81.3818 18.4912 81.3369 18.6934 81.0225H19.1426C20.0859 81.6064 21.209 81.9209 21.9053 82.8418C22.0625 83.0215 22.1973 83.2236 22.3545 83.3809C23.6123 84.5938 24.4209 86.0986 24.96 87.7383C25.1396 88.2773 24.8926 88.9736 25.5664 89.3105C25.4092 90.2988 25.2295 91.2646 25.5664 92.2305Z" fill="#46AFE4"/>
<path d="M19.1425 81.0446H18.6933C18.6748 80.9866 18.6672 80.9257 18.6708 80.8649C18.7584 80.8471 18.8492 80.8546 18.9327 80.8864C19.0162 80.9182 19.089 80.9731 19.1425 81.0446Z" fill="white"/>
<path d="M48.3192 82.8867C48.2507 82.6989 48.1433 82.5278 48.0039 82.3846C47.8645 82.2413 47.6964 82.1292 47.5106 82.0557C43.3553 80.2139 41.199 74.8682 42.3221 70.5557C43.1307 67.4336 44.7479 64.9629 47.7576 63.5703C47.9582 63.464 48.1465 63.3359 48.3192 63.1885C52.0926 64.4912 53.9793 67.3213 54.8328 71.0273C55.1473 72.3975 55.035 73.7676 54.8328 75.1377C54.2039 77.2715 53.3729 79.2705 51.5985 80.7305C51.4861 80.8203 51.4188 80.9326 51.576 81.0449C50.408 81.4941 49.4871 82.3252 48.5213 83.0664L48.3192 82.8867Z" fill="#46AFE4"/>
<path d="M62.4249 70.0837H60.4933C60.043 70.0794 59.6109 69.9062 59.2823 69.5984C58.9537 69.2906 58.7526 68.8706 58.7188 68.4216C58.6739 67.5007 59.3702 66.8494 60.4259 66.8494H64.4913C64.6926 66.843 64.893 66.8783 65.08 66.953C65.267 67.0278 65.4364 67.1405 65.5778 67.2839C65.7191 67.4274 65.8293 67.5985 65.9013 67.7866C65.9733 67.9746 66.0056 68.1756 65.9962 68.3767C65.9962 69.4773 65.4796 70.0613 64.4464 70.0837H62.4249Z" fill="#46AFE4"/>
<path d="M80.0119 29.1156C80.0119 28.3295 79.9894 27.5658 80.0119 26.7797C80.0344 25.9936 80.6408 25.2748 81.4045 25.2524C81.6069 25.2371 81.8104 25.2624 82.003 25.3267C82.1956 25.391 82.3734 25.4931 82.526 25.6269C82.6787 25.7608 82.8032 25.9237 82.8921 26.1062C82.9811 26.2887 83.0327 26.4871 83.0441 26.6899C83.089 28.2621 83.089 29.8569 83.0441 31.4516C83.061 31.6664 83.0323 31.8823 82.9598 32.0852C82.8874 32.288 82.7728 32.4733 82.6237 32.6288C82.4745 32.7843 82.2942 32.9064 82.0945 32.9872C81.8948 33.0681 81.6802 33.1057 81.465 33.0977C81.2497 33.0898 81.0385 33.0363 80.8453 32.941C80.6521 32.8456 80.4813 32.7104 80.3441 32.5444C80.2069 32.3783 80.1063 32.185 80.0491 31.9774C79.9918 31.7697 79.9791 31.5522 80.0119 31.3393C79.9894 30.5981 80.0119 29.8569 80.0119 29.1156Z" fill="#46AFE4"/>
<path d="M58.2697 100.519C55.0802 99.126 52.9465 96.7451 52.2277 93.3535C51.3742 89.2656 52.4074 85.6943 55.5744 82.7969C56.4054 82.0557 57.4162 81.7188 58.2697 81.0674C61.8185 82.1904 64.9631 86.6377 64.7834 90.3887C64.7609 91.2646 64.7834 92.1406 64.7834 93.0166C64.1545 94.4766 63.8175 96.0937 62.717 97.3066C61.6164 98.5195 60.2238 100.092 58.2697 100.519Z" fill="#46AFE4"/>
<path d="M72.2629 87.9402H70.2414C69.298 87.9402 68.6691 87.3562 68.6242 86.5251C68.5793 85.6941 69.1183 84.7732 70.0168 84.7283C71.5441 84.6609 73.049 84.6609 74.5763 84.7283C75.4299 84.7732 75.9914 85.5593 75.9465 86.4353C75.9435 86.6359 75.9011 86.8339 75.8216 87.0181C75.7422 87.2023 75.6272 87.369 75.4833 87.5088C75.3394 87.6485 75.1693 87.7585 74.9829 87.8326C74.7964 87.9066 74.5972 87.9432 74.3967 87.9402H72.2629Z" fill="#1A87C9"/>
<path d="M28.5089 63.3682C30.1711 63.5029 31.3166 64.4912 32.3947 65.6367C34.0568 67.3887 34.8879 69.5449 35.3146 71.8809V73.3408C34.9328 74.3291 35.1349 75.3848 34.7531 76.373C34.0793 78.1924 33.0011 79.6973 31.6759 81.0674C30.6203 81.584 29.7443 82.3701 28.8009 83.0664C28.7468 83.001 28.6867 82.9408 28.6213 82.8867C28.5625 82.7096 28.4657 82.5474 28.3376 82.4116C28.2096 82.2758 28.0534 82.1697 27.88 82.1006C26.9591 81.7637 26.2179 81.1348 25.4992 80.4609C21.3888 76.6875 21.3439 69.7246 25.0275 65.8164C26.0055 64.7676 27.1911 63.9338 28.5089 63.3682Z" fill="#46AFE4"/>
<path d="M25.5664 89.333C24.8926 88.9961 25.1396 88.2998 24.96 87.7607C24.4209 86.1211 23.6123 84.6162 22.3545 83.4033C22.1973 83.2461 22.0625 83.0439 21.9053 82.8643C24.1289 83.4932 26.375 83.3359 28.6436 83.0664C27.2734 84.6836 26.0381 86.3906 25.6562 88.5469C25.6113 88.7939 25.5889 89.0635 25.5664 89.333Z" fill="#D0D8DA"/>
<path d="M28.6211 82.8867C28.6865 82.9408 28.7467 83.001 28.8008 83.0664H28.6211V82.8867Z" fill="#DFEBF9"/>
<path d="M45.2871 92.2084C44.9502 92.3432 44.9278 92.6352 44.8604 92.9496C44.4112 95.5102 43.2657 97.644 41.0645 99.1489C40.2784 99.6879 39.6495 100.519 38.5713 100.519C36.2354 99.4858 34.4161 97.9135 33.293 95.5551C31.7881 92.4555 31.9903 89.3783 33.1582 86.2787C33.3926 85.7549 33.6946 85.264 34.0567 84.8188C34.9454 83.6341 36.014 82.5959 37.2237 81.7416C37.628 81.4496 38.0772 81.2026 38.6162 81.2475H39.1778C39.9414 81.7192 40.8848 81.8764 41.4239 82.6625L41.626 82.8647C42.9288 84.3246 44.1641 85.7846 44.6807 87.7612C44.8379 88.3451 44.7256 89.0639 45.2647 89.5356C45.2647 90.434 45.2647 91.31 45.2871 92.2084Z" fill="#46AFE4"/>
<path d="M31.6758 81.0674C33.001 79.6973 34.0791 78.1924 34.7529 76.373C35.1348 75.3848 34.9326 74.3291 35.3145 73.3408C35.3369 76.0811 36.46 78.3721 38.1895 80.416C37.7178 80.5283 37.2012 80.2588 36.7744 80.6182C35.0225 80.124 33.3604 80.708 31.6758 81.0674Z" fill="#D0D8DA"/>
<path d="M36.7744 80.6182C37.2012 80.2588 37.7178 80.5283 38.1895 80.416C38.6064 80.5682 38.9563 80.8624 39.1777 81.2471H38.6162C38.0996 80.7529 37.4258 80.7529 36.7744 80.6182Z" fill="#DFEBF9"/>
<path d="M45.2646 89.5352C44.7256 89.0635 44.8379 88.3447 44.6807 87.7607C44.1641 85.7842 42.9287 84.3242 41.626 82.8643C42.5918 82.8867 43.4902 83.3359 44.4785 83.3135C45.4668 83.291 47.0615 83.291 48.3193 82.8867L48.5215 83.0664C46.9941 84.5713 45.8262 86.3008 45.4219 88.457C45.3545 88.8164 45.3096 89.1758 45.2646 89.5352Z" fill="#D0D8DA"/>
</svg>
