<svg width="116" height="115" viewBox="0 0 116 115" fill="none" xmlns="http://www.w3.org/2000/svg">
<path d="M89.8048 4.02051C91.6017 5.39062 91.3097 7.34473 91.2423 9.23144H39.9864C39.6344 9.2464 39.2818 9.2389 38.9308 9.20898C38.2345 9.1416 37.7628 8.7373 37.6954 8.04102C37.5382 6.55859 37.5607 5.09863 39.1105 4.22266C39.3351 4.2002 39.6046 4.26758 39.7618 4.02051H89.8048Z" fill="#D0D8DA"/>
<path d="M71.0275 110.979C70.5783 110.036 70.6008 109.003 70.6008 107.97C70.6232 105.656 70.6008 103.343 70.6008 101.029H77.2941C77.2941 103.253 77.2717 105.477 77.2941 107.7C77.3166 108.868 77.2717 109.991 76.6652 111.002L71.0275 110.979Z" fill="#D0D8DA"/>
<path d="M51.8459 101.007C51.8459 103.388 51.8235 105.791 51.8684 108.172C51.8908 109.183 51.8235 110.126 51.217 110.979H45.8039C45.0627 109.924 45.175 108.733 45.175 107.521V101.029L51.8459 101.007Z" fill="#D0D8DA"/>
<path d="M39.1104 4.22266C37.5605 5.09863 37.5381 6.55859 37.6953 8.04102C37.7627 8.7373 38.2344 9.1416 38.9307 9.20898C39.2817 9.2389 39.6343 9.2464 39.9863 9.23145H91.2422V12.5557H39.8516C37.9648 12.5557 37.6729 12.8477 37.6729 14.7119V77.041C37.6729 79.04 37.9424 79.2871 39.9639 79.2871H91.2422V82.5889H39.2227C38.167 82.6113 37.7852 83.0605 37.6504 84.0938C37.5655 84.7089 37.6204 85.3354 37.811 85.9264C38.0015 86.5175 38.3228 87.058 38.751 87.5078L37.5605 87.5977H33.6074C32.1025 87.5752 31.2041 86.6992 31.2041 85.1943V6.94043C31.2041 4.98633 31.9678 4.22266 33.8994 4.22266H39.1104Z" fill="#959A9B"/>
<path d="M37.5605 87.6426L38.751 87.5527C39.0205 87.5752 39.29 87.6201 39.5596 87.6201H84.8408C84.7061 89.3496 84.2119 91.0117 83.875 92.6963C83.6729 93.6846 82.7969 94.2686 81.7412 94.3135H42.5469C38.9531 94.3359 38.8857 94.2686 38.1221 90.7647C37.9199 89.7539 37.7402 88.6982 37.5605 87.6426Z" fill="#504F4F"/>
<path d="M31.2041 57.6123V70.9541H26.5322C25.1621 70.9316 24.5332 70.3477 24.5332 69V59.5439C24.5332 58.1963 25.1396 57.6123 26.5322 57.6123C27.9248 57.6123 29.6543 57.6123 31.2041 57.6123Z" fill="#504F4F"/>
<path d="M42.5469 94.3359H54.5635C54.541 95.8408 54.541 97.3232 54.541 98.8057C54.541 100.288 54.2041 100.962 52.3623 100.984L51.8457 101.029H45.1748L44.4561 100.984C43.0635 100.962 42.6143 100.535 42.6143 99.0977L42.5469 94.3359Z" fill="#EB6409"/>
<path d="M91.2422 79.3096H39.9639C37.9424 79.3096 37.6729 79.0625 37.6729 77.0635V14.7119C37.6729 12.8477 37.9648 12.5557 39.8516 12.5557H91.2422C91.2422 25.8525 91.2497 39.1494 91.2646 52.4463C91.2646 61.3857 91.2422 70.3477 91.2422 79.3096ZM61.2568 17.5645C59.9386 17.5585 58.6322 17.8134 57.4129 18.3145C56.1935 18.8155 55.0854 19.5528 54.1522 20.4839C53.219 21.415 52.4792 22.5216 51.9754 23.7398C51.4716 24.958 51.2138 26.2638 51.2168 27.582C51.2168 33.1074 55.6865 37.4873 61.1895 37.6221C65.9961 37.7344 71.2744 33.4668 71.252 27.5596C71.2295 21.6523 66.0186 17.3398 61.2568 17.5645ZM66.2432 62.6885V56.1299C66.2207 53.1875 64.0869 50.9414 61.2793 50.9414C58.4717 50.9414 56.2256 53.1426 56.2256 56.1299V69.0449C56.2256 72.0322 58.3818 74.2783 61.2344 74.2783C64.0869 74.2783 66.2432 72.0322 66.2432 69.0225V62.6885Z" fill="#D0D8DA"/>
<path d="M84.841 87.6201H39.5597C39.2902 87.6201 39.0207 87.5752 38.7512 87.5527C38.323 87.1029 38.0017 86.5624 37.8112 85.9713C37.6206 85.3803 37.5657 84.7539 37.6506 84.1387C37.7853 83.1055 38.1672 82.6563 39.2228 82.6338H91.2424C91.2424 83.5322 91.2648 84.4307 91.2648 85.3291C91.2424 86.7441 90.3215 87.6426 88.9064 87.6426L84.841 87.6201Z" fill="#D0D8DA"/>
<path d="M67.8828 94.3359H79.877C79.8545 95.8633 79.8545 97.3682 79.832 98.8955C79.8096 100.423 79.5176 100.962 77.8105 100.984H69.5674C68.4668 100.939 67.9053 100.4 67.9053 99.2998C67.8828 97.6602 67.8828 95.998 67.8828 94.3359Z" fill="#016BB1"/>
<path d="M61.2569 17.564C66.0186 17.3394 71.252 21.6519 71.252 27.5592C71.252 33.4664 65.9961 37.734 61.1895 37.6217C55.6866 37.4869 51.2168 33.107 51.2168 27.5816C51.2138 26.2634 51.4717 24.9576 51.9755 23.7394C52.4792 22.5212 53.219 21.4146 54.1522 20.4835C55.0854 19.5524 56.1936 18.8151 57.4129 18.3141C58.6322 17.813 59.9386 17.5581 61.2569 17.564ZM61.3018 25.942C60.583 26.0318 60.044 26.3238 59.752 27.0201C59.46 27.7164 59.6846 28.2555 60.1787 28.7047C61.0996 29.5357 62.2002 30.1422 63.3008 30.7262C64.4014 31.3101 64.8281 30.7486 65.2549 30.0523C65.6817 29.356 65.5694 28.525 64.8731 28.0084C64.1768 27.4918 62.9414 26.773 61.9756 26.1666C61.7595 26.0683 61.5336 25.9931 61.3018 25.942Z" fill="#016BB1"/>
<path d="M66.2432 62.6886V69.0226C66.2432 72.0324 64.0869 74.2785 61.2344 74.2785C58.3818 74.2785 56.2256 72.0324 56.2256 69.0451V56.13C56.2256 53.1427 58.4043 50.9191 61.2793 50.9416C64.1543 50.964 66.2207 53.1877 66.2432 56.13V62.6886ZM62.874 59.0051C62.877 58.5702 62.7071 58.152 62.4017 57.8424C62.0963 57.5328 61.6805 57.3572 61.2456 57.3542C60.8107 57.3512 60.3925 57.5211 60.0829 57.8265C59.7733 58.1319 59.5977 58.5477 59.5947 58.9826C59.5723 59.7912 60.4258 60.6896 61.2119 60.6896C61.998 60.6896 62.874 59.8361 62.874 59.0051ZM62.874 66.2599C62.8965 65.4289 62.0654 64.5529 61.2568 64.5304C60.4482 64.508 59.5947 65.384 59.5947 66.215C59.5888 66.6499 59.7558 67.0693 60.0591 67.381C60.3624 67.6927 60.777 67.8712 61.2119 67.8771C61.6468 67.8831 62.0662 67.716 62.3779 67.4128C62.6896 67.1095 62.8681 66.6948 62.874 66.2599Z" fill="#EB6409"/>
<path d="M61.3019 25.9424C61.5337 25.9935 61.7596 26.0687 61.9757 26.167C62.9415 26.7734 63.9298 27.3574 64.8732 28.0088C65.8165 28.6602 65.7267 29.2891 65.255 30.0527C64.7833 30.8164 64.1095 31.1758 63.3009 30.7266C62.4923 30.2773 61.0997 29.5361 60.1788 28.7051C59.6847 28.2559 59.4601 27.7168 59.7521 27.0205C60.0441 26.3242 60.5831 26.0322 61.3019 25.9424Z" fill="#E7E6E6"/>
<path d="M62.874 59.0044C62.874 59.8355 62.0205 60.689 61.2119 60.689C60.4033 60.689 59.5722 59.7906 59.5947 58.982C59.5977 58.5471 59.7733 58.1312 60.0829 57.8259C60.3925 57.5205 60.8107 57.3506 61.2456 57.3536C61.6804 57.3565 62.0963 57.5321 62.4017 57.8417C62.7071 58.1513 62.877 58.5696 62.874 59.0044Z" fill="#E7E6E6"/>
<path d="M62.8742 66.2602C62.8682 66.6951 62.6898 67.1097 62.3781 67.413C62.0663 67.7163 61.6469 67.8833 61.2121 67.8774C60.7772 67.8714 60.3625 67.693 60.0592 67.3813C59.756 67.0696 59.5889 66.6501 59.5949 66.2153C59.5949 65.3842 60.4709 64.5082 61.257 64.5307C62.0431 64.5532 62.8966 65.4291 62.8742 66.2602Z" fill="#E7E6E6"/>
</svg>
