<svg width="116" height="116" viewBox="0 0 116 116" fill="none" xmlns="http://www.w3.org/2000/svg">
<path d="M99.8447 64.8281L89.4004 64.873H12.5166C8.40625 64.873 6.94629 63.9072 5.48633 60.1787V43.7822H16.7617V43.8271C16.7617 47.7354 16.7842 51.666 16.7617 55.5742C16.7617 56.3604 16.627 57.1914 17.8623 56.5176C18.1318 56.3828 18.5361 56.4727 18.873 56.4727H97.1943C98.9463 56.4727 99.8672 57.3711 99.8672 59.1006C99.8672 60.8301 99.8447 62.9189 99.8447 64.8281Z" fill="#EB6409"/>
<path d="M16.7617 43.7598H5.48633V11.2363C6.20508 9.08008 7.39551 7.41797 9.73145 6.85645C9.98641 6.7771 10.2507 6.73179 10.5176 6.72168C14.0215 6.67676 17.5254 6.78906 21.0293 6.54199C21.0293 6.92383 20.6924 6.92383 20.4678 7.01367C19.3808 7.4304 18.4452 8.16606 17.7838 9.12407C17.1224 10.0821 16.7661 11.2177 16.7617 12.3818C16.7393 22.8262 16.7617 33.293 16.7617 43.7598Z" fill="#1A87C9"/>
<path d="M16.7617 43.7596C16.7617 33.2928 16.7393 22.826 16.7617 12.3817C16.7661 11.2175 17.1224 10.0819 17.7838 9.12389C18.4452 8.16588 19.3808 7.43022 20.4678 7.01349C20.6924 6.92365 21.0293 6.92365 21.0293 6.54181C21.9951 6.42951 22.916 6.74396 23.8594 6.74396C50.7227 6.7215 77.5635 6.74396 104.427 6.67658C105.204 6.6706 105.975 6.81931 106.694 7.11406C107.414 7.40881 108.067 7.8437 108.617 8.39343C109.167 8.94317 109.602 9.59675 109.896 10.3162C110.191 11.0355 110.34 11.8064 110.334 12.5838C110.267 22.9832 110.289 33.3826 110.289 43.8045L89.4228 43.7596C89.4228 42.7039 89.3555 41.6483 89.4453 40.5926C89.625 38.2791 87.1094 36.1453 85.0654 36.1678C70.96 36.2352 56.8545 36.1903 42.7715 36.2127C42.1426 36.2352 41.5361 35.8309 40.9072 36.1903H31.0244C28.127 36.1903 26.375 37.9422 26.375 40.7947C26.375 41.783 26.3525 42.7713 26.3525 43.7596L16.7393 43.8045L16.7617 43.7596ZM91.916 20.243H98.7666C99.6426 20.2205 100.474 20.0184 101.147 19.4569C102.518 18.3338 102.967 16.8738 102.45 15.3914C101.934 13.909 100.541 12.8983 98.8115 12.8758C94.2969 12.8533 89.7598 12.8309 85.2227 12.8758C83.2012 12.8758 81.4268 14.6727 81.4268 16.5594C81.4268 18.4461 83.1562 20.243 85.29 20.243H91.916Z" fill="#76CBEE"/>
<path d="M89.4228 43.7598L110.289 43.8047C110.289 48.9707 110.311 54.1367 110.289 59.3027C110.267 62.29 107.818 64.7383 104.741 64.8281C103.101 64.8955 101.462 64.8281 99.8447 64.8281C99.8447 62.9189 99.8671 61.0098 99.8671 59.1006C99.8671 57.1914 98.9462 56.4727 97.1943 56.4727H18.8505C18.5136 56.4727 18.1093 56.3828 17.8398 56.5176C16.6044 57.1914 16.7392 56.3603 16.7392 55.5742C16.7616 51.666 16.7392 47.7353 16.7392 43.8271L26.3525 43.7822H89.4228V43.7598ZM57.9775 48.6787H55.3046C54.4286 48.7012 53.912 49.1953 53.8222 50.0488C53.7939 50.2524 53.8082 50.4596 53.8643 50.6574C53.9204 50.8551 54.017 51.039 54.1479 51.1974C54.2789 51.3558 54.4414 51.4853 54.625 51.5776C54.8087 51.6698 55.0095 51.7229 55.2148 51.7334C56.9892 51.8008 58.7636 51.7783 60.538 51.7334C61.414 51.7109 62.0204 50.9473 61.998 50.0713C61.9755 49.1953 61.3017 48.7012 60.4257 48.6787H57.9775Z" fill="#F08137"/>
<path d="M38.459 104.517C38.459 105.617 38.459 106.695 38.4365 107.773C38.414 108.852 37.8525 109.503 36.8867 109.503C35.9209 109.503 35.3594 108.986 35.3594 107.773C35.3594 106.561 35.3369 105.932 35.3594 105.011C35.3594 104.494 35.2021 104.292 34.708 104.606L34.5508 104.719C33.3154 105.415 32.417 105.303 31.9004 104.382C31.3838 103.461 31.6982 102.72 32.9336 102.001L34.0791 101.327C35.4267 100.608 35.5615 100.316 35.3594 98.8115C35.292 98.3848 35.0449 98.1826 34.708 97.9805C33.797 97.5124 32.9123 96.995 32.0576 96.4307C31.1816 95.8467 30.4853 95.8242 29.6094 96.4531C29.0703 96.835 28.7558 97.1269 28.8232 97.8232C28.8906 98.5195 28.8457 99.373 28.8232 100.159C28.8008 100.945 28.1719 101.709 27.2734 101.709C26.375 101.709 25.791 101.215 25.7461 100.204C25.6562 98.7891 25.6562 98.7891 24.3984 99.4853C23.8144 99.8223 23.2305 100.182 22.624 100.496C21.5908 101.013 20.7373 100.788 20.2656 99.9121C19.7939 99.0361 20.1308 98.3174 21.1191 97.7109C22.1074 97.1045 22.6015 96.8574 23.3428 96.4307C24.084 96.0039 24.084 95.9814 23.3877 95.5771C22.04 94.791 21.748 93.9824 22.3096 93.0615C22.8711 92.1406 23.6797 92.1182 24.9824 92.8369C25.5018 93.0972 26.0045 93.3897 26.4873 93.7129C27.0488 94.1396 27.498 94.0049 28.0596 93.7353C28.9805 93.3086 29.3848 92.7246 29.2724 91.6689C29.1601 90.6133 29.25 89.7598 29.25 88.7939C29.2275 87.4463 27.6553 86.5478 26.4873 87.1992L24.3535 88.3896C24.0064 88.5787 23.5994 88.6259 23.2183 88.5212C22.8371 88.4164 22.5114 88.168 22.3096 87.8281C21.8379 87.0644 22.04 86.2334 22.7812 85.6719C23.9717 84.8184 23.9717 84.8184 22.7139 84.0996C22.055 83.7483 21.4175 83.3583 20.8047 82.9316C20.1308 82.415 19.7939 81.7412 20.3105 80.8877C20.8271 80.0342 21.6582 79.877 22.5117 80.3486C23.3652 80.8203 24.1738 81.2695 24.9824 81.7637C25.791 82.2578 25.791 81.9883 25.7236 81.3144C25.7236 81.0898 25.7236 80.8428 25.7461 80.5957C25.8135 79.6748 26.3301 79.1807 27.251 79.1807C27.645 79.168 28.0287 79.3082 28.3217 79.572C28.6147 79.8357 28.7944 80.2025 28.8232 80.5957C28.8681 81.1788 28.8681 81.7645 28.8232 82.3477C28.666 83.4932 28.958 84.2793 30.126 84.7285C30.6201 84.9307 30.957 85.1103 31.4961 84.751C32.5068 84.0771 33.6074 83.5381 34.6855 82.9092C35.7637 82.2803 35.6738 80.5059 34.7305 79.9219C33.7871 79.3379 33.293 79.1357 32.5967 78.709C31.9004 78.2822 31.4512 77.3613 31.8779 76.5303C32.3047 75.6992 33.1806 75.4521 34.1689 75.9238C34.358 76.0116 34.5385 76.1169 34.708 76.2383C35.292 76.665 35.3594 76.3281 35.3594 75.8115C35.3369 74.8682 35.3369 73.9023 35.3594 72.9365C35.3818 71.9707 35.9658 71.2969 36.7969 71.2969C37.6279 71.2969 38.4365 72.0605 38.4365 73.0264C38.4365 73.9922 38.4365 75.25 38.4365 76.3955C39.043 76.373 39.3799 76.0137 39.8291 75.834C40.6377 75.5195 41.5137 75.7891 41.873 76.4853C42.2324 77.1816 42.1426 78.0127 41.3789 78.5293C40.7263 78.968 40.0516 79.3728 39.3574 79.7422C39.0585 79.8959 38.8067 80.1276 38.6287 80.4127C38.4507 80.6978 38.3531 81.0257 38.3462 81.3617C38.3393 81.6978 38.4233 82.0294 38.5895 82.3216C38.7556 82.6138 38.9977 82.8556 39.29 83.0215L42.2998 84.7734C43.1533 85.2676 44.9277 84.3242 44.9726 83.3135C45.0176 82.3027 44.9502 81.6064 44.9726 80.7529C44.9951 79.8994 45.4892 79.2031 46.4551 79.1807C47.4209 79.1582 47.9824 79.7646 48.0723 80.7754C48.0947 81.1572 47.9599 81.584 48.2295 82.0557L51.0371 80.416C52.0029 79.8769 52.9014 80.0342 53.373 80.7978C53.8447 81.5615 53.6426 82.5273 52.6992 83.1338C51.7558 83.7402 51.1719 84.0547 50.4082 84.459C49.6445 84.8633 49.8017 84.9756 50.3633 85.29C50.6577 85.4587 50.9359 85.6542 51.1943 85.874C51.7783 86.4355 51.9355 87.1094 51.4189 87.8057C50.9023 88.502 50.2959 88.8389 49.4648 88.3896L47.0615 87.0644C46.1182 86.5703 44.5683 87.5137 44.5683 88.5693C44.5683 89.625 44.5459 91.085 44.5683 92.3428C44.5908 93.6006 46.1631 94.2969 47.0615 93.8252C47.9599 93.3535 48.6113 92.9268 49.3974 92.5449C49.5666 92.4445 49.7541 92.3787 49.949 92.3514C50.1438 92.3242 50.3421 92.336 50.5324 92.3861C50.7226 92.4363 50.901 92.5239 51.057 92.6437C51.2131 92.7635 51.3438 92.9132 51.4414 93.084C51.958 93.8926 51.7109 94.5664 51.0371 95.1504C50.7002 95.4873 49.9365 95.5547 50.0488 96.0937C50.1611 96.6328 50.79 96.6553 51.1943 96.9023C51.5986 97.1494 52.3398 97.5088 52.8564 97.8682C53.0408 97.9762 53.2011 98.1206 53.3278 98.2927C53.4544 98.4647 53.5446 98.6608 53.593 98.8689C53.6413 99.077 53.6468 99.2927 53.6089 99.503C53.5711 99.7132 53.4909 99.9136 53.373 100.092C52.9463 100.788 52.1377 101.013 51.3291 100.586C50.5205 100.159 49.2627 99.4404 48.207 98.8564C47.9824 99.3281 48.0947 99.7324 48.0723 100.137C47.9824 101.125 47.3535 101.754 46.4326 101.709C45.5117 101.664 45.0176 101.17 44.9726 100.114C44.9277 99.0586 44.9726 98.5644 44.9726 97.7783C44.9502 96.5654 43.2432 95.5547 42.2099 96.1611C41.1767 96.7676 40.0762 97.3965 39.0205 98.0254C37.9648 98.6543 38.1894 100.496 39.0879 101.013L41.0644 102.113C42.0752 102.72 42.3447 103.528 41.873 104.427C41.4014 105.325 40.5254 105.393 39.5371 104.921C39.2226 104.764 38.9307 104.472 38.459 104.517ZM41.1992 90.4336C41.873 88.4346 40.9072 87.2891 39.1553 86.6152L38.9756 86.5029C37.5605 85.29 36.3252 85.6045 34.7305 86.458C33.1357 87.3115 32.3945 88.5244 32.3945 90.501C32.3945 92.4775 33.001 93.3984 34.6406 94.3867C36.2803 95.375 37.5605 95.3076 39.1777 94.3418C40.7949 93.376 41.873 92.4326 41.1992 90.4336Z" fill="#76CBEE"/>
<path d="M77.3387 76.5074V73.0708C77.3611 72.0152 77.99 71.3189 78.9109 71.2964C79.8318 71.274 80.4158 71.9703 80.4383 73.0933V75.9458C80.4158 76.4849 80.6404 76.5298 81.0447 76.3052C81.449 76.0806 81.5164 75.9908 81.741 75.8785C82.617 75.4742 83.448 75.6988 83.8748 76.4849C84.3016 77.271 84.1668 78.0122 83.4031 78.5288C82.6394 79.0454 81.9431 79.4048 81.2019 79.8316C80.0564 80.5054 80.0789 82.3023 81.2244 82.9761C82.3699 83.6499 83.3582 84.2115 84.4363 84.7954C85.5144 85.3794 86.9295 84.2788 86.9519 83.3355C86.9744 82.3921 86.9519 81.6285 86.9744 80.7749C86.9969 79.9214 87.6258 79.1577 88.5691 79.1802C89.5125 79.2027 90.0066 79.7193 90.0515 80.73C90.1189 82.1226 90.1189 82.1226 91.3318 81.4263C91.9832 81.0445 92.6346 80.6626 93.3084 80.3257C93.9822 79.9888 94.948 80.1011 95.4422 80.8423C95.9363 81.5835 95.7342 82.3697 95.0379 82.8863C94.3416 83.4029 93.1736 84.0318 92.2527 84.5933C92.117 84.6874 91.9893 84.7926 91.8709 84.9078L93.0613 85.7163C93.4158 85.9278 93.6717 86.2714 93.7728 86.6716C93.8739 87.0718 93.8119 87.4957 93.6004 87.8501C93.3889 88.2046 93.0453 88.4605 92.6451 88.5616C92.245 88.6627 91.821 88.6007 91.4666 88.3892C90.7029 88.0074 89.9842 87.5581 89.243 87.1314C88.5017 86.7046 86.5701 87.4683 86.5476 88.5689C86.5252 89.6695 86.5252 91.107 86.5476 92.3648C86.5701 93.6226 88.2996 94.3189 89.198 93.8023C90.0965 93.2857 90.658 92.9263 91.3992 92.522C92.1404 92.1177 93.0838 92.3648 93.5105 93.1285C93.9373 93.8921 93.7351 94.7007 92.949 95.2622C91.781 96.0933 91.781 96.0708 93.0613 96.7896C93.7254 97.1364 94.3702 97.5187 94.993 97.9351C95.6443 98.4068 95.9588 99.0806 95.532 99.8892C95.4477 100.076 95.3266 100.244 95.1761 100.383C95.0256 100.521 94.8487 100.629 94.6559 100.698C94.4631 100.767 94.2584 100.797 94.0539 100.785C93.8494 100.773 93.6494 100.721 93.4656 100.63C92.5733 100.201 91.7105 99.7136 90.8826 99.1704C90.2088 98.7437 90.0515 98.9234 90.0515 99.6646C90.0515 101.192 89.6248 101.709 88.5242 101.709C88.3295 101.718 88.1349 101.688 87.9516 101.622C87.7682 101.556 87.5998 101.454 87.4558 101.322C87.3119 101.191 87.1952 101.032 87.1126 100.856C87.03 100.679 86.983 100.488 86.9744 100.293C86.9295 99.6197 86.9519 98.9234 86.9519 98.2496C86.9519 97.0142 86.3006 96.1607 85.1326 95.8687C85.0364 95.8465 84.9366 95.8451 84.8398 95.8644C84.743 95.8838 84.6514 95.9235 84.5711 95.981C83.3806 96.6773 82.1902 97.3287 81.0223 98.0249C80.1912 98.5415 80.1463 100.383 80.9773 100.9C81.8084 101.417 82.3924 101.709 83.0887 102.135C84.1219 102.764 84.3689 103.595 83.8523 104.449C83.3357 105.302 82.4597 105.437 81.449 104.853C80.4383 104.269 80.4383 104.269 80.4383 105.482C80.4383 106.335 80.4607 107.189 80.4383 108.043C80.4158 108.896 79.8767 109.48 78.9558 109.502C78.0349 109.525 77.3836 108.941 77.3611 108.02C77.3387 107.099 77.3387 105.707 77.3387 104.539C76.7771 104.471 76.4402 104.876 76.0135 105.033C75.1824 105.347 74.3289 105.145 73.9471 104.449C73.8334 104.278 73.7558 104.086 73.7191 103.884C73.6824 103.682 73.6873 103.475 73.7336 103.275C73.7799 103.075 73.8665 102.887 73.9882 102.722C74.1099 102.557 74.264 102.418 74.4412 102.315C75.1824 101.821 75.9685 101.417 76.7322 100.967C77.4959 100.518 77.6307 98.564 76.7996 98.0474C75.9685 97.5308 74.6433 96.7447 73.5428 96.1382C72.4422 95.5318 70.8474 96.565 70.825 97.7329C70.8025 98.5415 70.8474 99.3726 70.8025 100.181C70.7576 100.99 70.2859 101.664 69.3875 101.709C69.1839 101.724 68.9792 101.699 68.7853 101.635C68.5914 101.571 68.4121 101.469 68.2576 101.335C68.1032 101.202 67.9766 101.039 67.8853 100.856C67.7939 100.674 67.7396 100.475 67.7254 100.271C67.6805 99.8443 67.7254 99.3951 67.7254 98.7662C66.5799 99.4175 65.5916 99.979 64.5808 100.518C63.5701 101.057 62.8289 100.81 62.3797 100.046C61.9305 99.2828 62.1326 98.3843 63.076 97.8003C64.0193 97.2164 64.6482 96.8345 65.4568 96.4078C66.2654 95.981 65.9734 95.9136 65.4793 95.6216C65.2079 95.4757 64.9521 95.3026 64.7156 95.105C63.9969 94.4986 63.8621 93.7574 64.4012 93.0386C64.9402 92.3199 65.5467 92.0953 66.3553 92.522C67.1639 92.9488 67.95 93.4205 68.781 93.8472C69.6121 94.274 71.2068 93.3755 71.2293 92.3872C71.2517 91.399 71.2517 89.8042 71.2293 88.5015C71.2068 87.1988 69.657 86.5923 68.781 87.0415C67.9051 87.4908 67.2312 87.9175 66.4451 88.3218C66.2702 88.4259 66.0763 88.494 65.8747 88.5221C65.6731 88.5502 65.4679 88.5378 65.2712 88.4855C65.0745 88.4331 64.8903 88.342 64.7293 88.2175C64.5683 88.093 64.4338 87.9375 64.3338 87.7603C63.8621 87.064 64.0418 86.3003 64.783 85.6939C65.906 84.7954 65.9285 84.7954 64.6482 84.0318C64.0867 83.6949 63.5027 83.4029 62.9637 83.0435C62.4246 82.6841 61.9305 81.6509 62.3797 80.8423C62.8289 80.0337 63.7273 79.854 64.6033 80.3482C65.4793 80.8423 66.535 81.4712 67.5906 82.0552C67.7928 81.606 67.7029 81.2017 67.7254 80.8199C67.7928 79.8091 68.3767 79.1802 69.2976 79.1802C70.2185 79.1802 70.7801 79.6968 70.825 80.8199C70.8512 81.2915 70.8437 81.7644 70.8025 82.2349C70.6453 83.4703 71.0047 84.3013 72.2625 84.7954C72.7566 84.9751 73.0935 85.0425 73.5428 84.773C74.6209 84.1216 75.7215 83.5152 76.7996 82.8413C77.8777 82.1675 77.5857 80.4156 76.7547 79.9214C75.9236 79.4273 75.2049 79.0454 74.4637 78.5513C73.7224 78.0572 73.4754 77.2261 73.9471 76.44C74.4187 75.6538 75.1824 75.5191 76.0135 75.856L77.3387 76.5074ZM83.201 90.4556C83.8523 88.4341 82.7742 87.4908 81.1346 86.5025C79.4949 85.5142 78.282 85.604 76.6648 86.5249C75.0476 87.4458 74.3963 88.4341 74.3738 90.3882C74.3514 92.3423 75.0027 93.4429 76.7322 94.4087C78.4617 95.3746 79.4724 95.397 81.0896 94.4087C82.7068 93.4205 83.8748 92.522 83.201 90.4556Z" fill="#76CBEE"/>
<path d="M89.4231 43.7599H37.6281C37.6281 42.7042 37.6057 41.6485 37.6281 40.6153C37.6955 38.3917 38.9533 37.0216 40.9074 36.1905C41.5363 35.8312 42.1428 36.2355 42.7717 36.213C56.8547 36.1905 70.9602 36.2355 85.0657 36.1681C87.1096 36.1456 89.6252 38.2794 89.4455 40.5929C89.3557 41.6485 89.4231 42.7042 89.4231 43.7599Z" fill="#46AFE4"/>
<path d="M91.9162 20.2427H85.2903C83.1565 20.2427 81.4494 18.6031 81.427 16.5591C81.4045 14.5152 83.2014 12.8755 85.2229 12.8755C89.76 12.8306 94.2971 12.8531 98.8117 12.8755C100.541 12.898 101.956 13.9312 102.45 15.3912C102.945 16.8511 102.518 18.3336 101.148 19.4566C100.474 20.0181 99.6428 20.2203 98.7668 20.2427H91.9162Z" fill="#46AFE4"/>
<path d="M40.9072 36.1904C38.9531 37.0215 37.6953 38.3916 37.6279 40.6152C37.6055 41.6484 37.6279 42.7041 37.6279 43.7598H26.3525C26.3525 42.7715 26.375 41.7832 26.375 40.7949C26.375 37.9424 28.127 36.1904 31.0244 36.1904H40.9072Z" fill="#1A87C9"/>
<path d="M57.9775 48.6787H60.4257C61.3017 48.7012 61.9531 49.2852 61.998 50.0713C62.0429 50.8574 61.414 51.7109 60.538 51.7334C58.7636 51.7783 56.9892 51.8008 55.2148 51.7334C55.0095 51.7229 54.8087 51.6698 54.625 51.5776C54.4414 51.4853 54.2789 51.3558 54.148 51.1974C54.017 51.039 53.9204 50.8551 53.8643 50.6574C53.8083 50.4596 53.7939 50.2524 53.8222 50.0488C53.9121 49.1953 54.4287 48.7012 55.3046 48.6787H57.9775Z" fill="#DCEDFB"/>
</svg>
