<svg width="116" height="116" viewBox="0 0 116 116" fill="none" xmlns="http://www.w3.org/2000/svg">
<path d="M11.7529 102.899C12.4043 98.6992 13.0781 94.5215 13.6846 90.3213C14.7627 83.0439 15.8633 75.7441 16.5596 68.3994C17.458 58.6514 18.1094 48.8809 15.7734 39.2002C15.6162 38.5488 15.8633 38.4365 16.4473 38.4365H43.1533C42.8164 40.3008 42.4795 42.0527 42.1875 43.8496C41.1992 50.3184 41.3789 56.8096 41.873 63.3008C42.8164 76.2607 45.0176 89.0635 46.9268 101.911C46.9717 102.226 47.0166 102.562 47.0391 102.899C47.0615 103.236 46.4775 102.967 46.1855 102.967C35.0449 102.997 23.8968 102.997 12.7412 102.967C12.4043 102.967 12.0898 102.922 11.7529 102.899Z" fill="#016BB1"/>
<path d="M68.9609 102.899C70.0166 95.6445 71.1172 88.4121 72.1504 81.1572C73.4756 71.6113 74.6436 62.0654 74.4863 52.4072C74.3965 47.7354 73.9697 43.1084 72.7344 38.4365H73.9473C82.3252 38.4365 90.7256 38.459 99.1035 38.4141C100.227 38.4141 100.339 38.6611 100.092 39.7393C98.7891 45.2422 98.5195 50.8574 98.6768 56.4951C99.0137 69.3203 101.058 81.9434 102.967 94.5889C103.394 97.3291 103.798 100.092 104.225 102.854C103.77 102.915 103.313 102.953 102.854 102.967C91.9834 102.997 81.0973 102.997 70.1963 102.967C69.7695 102.967 69.3652 102.922 68.9609 102.899Z" fill="#016BB1"/>
<path d="M51.6211 102.899C53.3057 91.5337 55.2598 80.2134 56.1807 68.7358C56.7871 61.3911 57.0117 54.0015 55.5068 46.7017C55.1025 44.7251 55.1025 44.7026 57.1689 44.7026C61.4141 44.7026 65.6816 44.7476 69.9268 44.6802C71.0498 44.6577 71.4316 44.8823 71.5664 46.1177C72.4873 55.147 71.6562 64.1089 70.623 73.0483C69.4775 83.021 67.793 92.9263 66.4004 102.854C61.4814 103.101 56.54 103.011 51.6211 102.899Z" fill="#016BB1"/>
<path d="M51.6212 102.899C56.5401 103.012 61.4815 103.102 66.4005 102.854C67.254 103.034 68.1075 102.967 68.961 102.899C69.3653 102.922 69.7696 102.967 70.1964 102.967C81.0974 102.997 91.9835 102.997 102.855 102.967C103.313 102.953 103.77 102.915 104.225 102.854C105.797 103.102 107.369 102.899 108.964 102.967C110.559 103.034 111.48 103.865 111.502 105.123C111.525 106.381 110.536 107.347 109.054 107.437H7.86728C7.32578 107.456 6.78373 107.418 6.2501 107.324C5.69689 107.247 5.19453 106.96 4.84677 106.523C4.49902 106.086 4.33244 105.532 4.38145 104.975C4.43047 104.419 4.69132 103.903 5.11014 103.533C5.52895 103.163 6.07373 102.969 6.63193 102.989C8.33896 102.922 10.046 102.922 11.753 102.899C12.0899 102.922 12.4044 102.967 12.7413 102.967C23.8819 102.997 35.03 102.997 46.1856 102.967C46.4776 102.967 46.7472 102.922 47.0392 102.899H51.6212Z" fill="#EB6409"/>
<path d="M30.7324 16.38C30.7604 18.1712 30.4321 19.9501 29.7666 21.6134C28.9356 23.6124 29.4073 25.6339 29.834 27.6329C30.0137 28.5314 30.3506 29.3849 30.5977 30.2609C30.8448 31.1368 30.418 32.3722 29.4297 32.7091C28.4414 33.046 27.3633 32.6417 27.0039 31.5636C25.6787 27.6105 24.7129 23.6798 26.3975 19.5021C27.3858 17.0538 26.8018 14.4034 26.3526 11.8653C26.3076 11.6183 26.2403 11.3712 26.1953 11.1241C25.9707 9.75402 26.4873 8.87804 27.6104 8.63097C28.7334 8.3839 29.6543 9.01281 29.9463 10.3155C30.4327 12.3016 30.6964 14.3356 30.7324 16.38Z" fill="#EB6409"/>
<path d="M40.2333 16.3798C40.2719 18.2157 39.9436 20.0407 39.2675 21.748C38.4364 23.9941 39.0428 26.2626 39.5819 28.5087C39.7391 29.1152 39.9862 29.6767 40.1659 30.2832C40.4354 31.3837 39.9413 32.372 38.953 32.7089C37.9647 33.0458 36.8866 32.6191 36.5272 31.541C35.2245 27.5878 34.2362 23.6572 35.9432 19.4794C36.954 16.9638 36.3026 14.3134 35.8758 11.708C35.7923 11.3833 35.7323 11.053 35.6962 10.7197C35.6063 9.5517 36.2128 8.69819 37.2909 8.58588C38.369 8.47358 39.1776 9.01264 39.4471 10.0908C39.9749 12.1453 40.2391 14.2586 40.2333 16.3798Z" fill="#EB6409"/>
<path d="M80.7306 8.54137C81.0246 8.5357 81.3159 8.59801 81.5818 8.72343C81.8477 8.84885 82.0811 9.034 82.2637 9.26444C82.4463 9.49488 82.5733 9.76438 82.6346 10.0519C82.6959 10.3395 82.69 10.6373 82.6173 10.9222C82.1456 13.1459 81.8536 15.347 81.9884 17.6156C82.0197 18.3635 82.1793 19.1004 82.4601 19.7943C84.1447 23.9047 83.0665 27.8353 81.7189 31.7211C81.382 32.6869 80.214 33.0463 79.2931 32.6869C78.8383 32.5149 78.4688 32.1721 78.2632 31.7315C78.0576 31.2909 78.0322 30.7875 78.1925 30.3285C78.7815 28.5538 79.1952 26.7258 79.4279 24.8705C79.5646 23.746 79.4259 22.6052 79.0236 21.5463C77.4064 17.683 78.0577 13.7748 78.9786 9.88903C79.1808 9.03551 79.8771 8.65368 80.7306 8.54137Z" fill="#EB6409"/>
<path d="M17.2784 15.7282C17.3009 14.448 16.9864 12.8083 16.672 11.1687C16.4474 9.86594 17.0314 8.92258 18.1319 8.69797C19.2325 8.47336 20.1759 9.16965 20.423 10.4499C21.2315 14.3581 21.6583 18.1989 20.0636 22.0847C19.1651 24.2859 20.0187 26.5993 20.5802 28.823C20.7149 29.3396 20.9396 29.8562 21.0743 30.3728C21.3214 31.3835 20.8273 32.3943 19.9064 32.6863C18.9855 32.9782 17.9298 32.7761 17.5929 31.7878C16.2003 27.9695 15.0997 24.0837 16.7169 20.0407C17.211 18.7605 17.2784 17.4577 17.2784 15.7282Z" fill="#EB6409"/>
<path d="M90.0519 8.69859C91.5568 8.65367 92.4103 9.75426 92.1183 11.1468C91.6366 13.2601 91.4327 15.4271 91.5119 17.5931C91.5409 18.3005 91.685 18.9985 91.9386 19.6595C93.6906 23.7699 92.6349 27.723 91.2648 31.6537C90.9054 32.6644 89.8722 33.0462 88.9064 32.7093C88.4456 32.555 88.0632 32.2267 87.8409 31.7946C87.6185 31.3625 87.5737 30.8606 87.716 30.3959C88.008 29.2279 88.4123 28.0824 88.6593 26.9144C89.0861 24.8705 89.0861 22.8714 88.3224 20.805C86.9748 17.2113 87.6037 13.5052 88.5246 9.88902C88.6098 9.54861 88.8064 9.24649 89.0832 9.03077C89.36 8.81504 89.701 8.69811 90.0519 8.69859Z" fill="#EB6409"/>
<path d="M67.5458 30.0135C67.6132 28.9803 67.3437 28.037 66.9843 27.0936C65.5693 23.2753 66.1532 19.4569 67.1191 15.661C67.3661 14.6727 68.287 14.2684 69.3202 14.493C70.3534 14.7176 70.915 15.661 70.7353 16.8065C70.5556 17.952 70.2636 19.3446 70.1288 20.6249C69.9042 22.5341 69.9716 24.4432 70.7802 26.2626C71.5888 28.0819 71.4989 30.2606 71.2294 32.2821C70.9847 33.935 70.5784 35.56 70.0165 37.1337C69.5448 38.3915 68.579 38.9755 67.5458 38.6161C66.5126 38.2567 65.9511 37.201 66.3778 35.8534C66.8503 34.4313 67.2108 32.9743 67.456 31.496C67.5234 31.0018 67.5234 30.5077 67.5458 30.0135Z" fill="#EB6409"/>
<path d="M61.8184 30.0814C61.8184 32.5296 61.2344 34.8656 60.4483 37.1791C60.0215 38.4144 58.9883 38.9759 57.9551 38.6166C56.9219 38.2572 56.3829 37.2015 56.8096 35.9437C57.3139 34.4848 57.675 32.9804 57.8878 31.4515C58.1309 29.9702 57.9759 28.4509 57.4385 27.0492C56.0235 23.2982 56.6075 19.5023 57.5284 15.7513C57.7755 14.7406 58.876 14.2464 59.8194 14.4935C60.3102 14.6304 60.728 14.9536 60.984 15.3941C61.2399 15.8347 61.3137 16.3578 61.1895 16.8519C60.7342 18.7501 60.5005 20.6948 60.4932 22.6468C60.4667 23.8203 60.6966 24.9855 61.1671 26.0609C61.751 27.3412 61.8633 28.7113 61.8184 30.0814Z" fill="#EB6409"/>
<path d="M99.126 32.7991C97.6661 32.8215 96.8575 31.5637 97.3741 29.969C98.0479 27.9026 98.5645 25.8137 98.542 23.6125C98.5415 22.95 98.4118 22.2939 98.1602 21.6809C96.4981 17.7727 97.127 13.8196 98.0479 9.91137C98.295 8.87817 99.3057 8.38403 100.294 8.6311C101.282 8.87817 101.979 9.84399 101.709 11.0344C101.205 13.099 100.979 15.2215 101.035 17.3459C101.047 18.1375 101.199 18.9208 101.484 19.6594C103.214 23.7922 102.181 27.7454 100.811 31.6985C100.541 32.4172 99.9122 32.7766 99.126 32.7991Z" fill="#EB6409"/>
</svg>
