<svg width="116" height="116" viewBox="0 0 116 116" fill="none" xmlns="http://www.w3.org/2000/svg">
<path d="M42.8389 110.806C42.3477 110.533 41.8817 110.217 41.4464 109.862C41.1004 109.585 40.8216 109.232 40.631 108.832C40.4405 108.431 40.3429 107.992 40.3458 107.549C40.3458 105.662 40.3682 103.775 40.3907 101.866H74.9356C74.9581 103.798 75.003 105.707 74.9581 107.639C74.9131 109.211 73.835 110.334 72.3077 110.626H43.7823C43.5352 110.626 43.2432 110.559 43.0411 110.828L42.8389 110.806ZM49.6671 108.38H53.126C54.4512 108.312 55.2823 107.459 55.2598 106.179C55.2374 104.898 54.3839 104.135 53.1036 104.112C50.8575 104.09 48.6339 104.09 46.3878 104.112C45.0401 104.135 44.209 104.966 44.209 106.246C44.209 107.526 45.0626 108.357 46.4102 108.38H49.6671ZM65.5245 108.38H68.9835C70.2862 108.335 71.0948 107.504 71.1172 106.291C71.1397 105.078 70.3087 104.135 68.961 104.112C66.7374 104.09 64.4913 104.09 62.2676 104.112C60.92 104.135 60.0665 104.988 60.0889 106.246C60.1114 107.504 60.9424 108.357 62.2901 108.38H65.5245Z" fill="#016BB1"/>
<path d="M43.041 110.805C43.2432 110.536 43.5352 110.603 43.7822 110.603H72.3076C72.2891 110.661 72.2815 110.722 72.2852 110.783L43.041 110.805Z" fill="#016BB1"/>
<path d="M27.1613 79.7197C27.1313 67.486 27.1239 55.2523 27.1388 43.0186H81.8312V79.7422H27.1613V79.7197Z" fill="#1A87C9"/>
<path d="M46.4775 6.90137L52.9688 6.85645L68.8486 6.90137C68.7588 7.35059 68.332 7.2832 68.0625 7.41797C65.8389 8.63086 64.3115 10.3379 64.1992 12.9434C64.0869 15.5488 64.1992 17.75 64.1543 20.1533C64.1318 20.8945 64.4014 21.0742 65.0977 21.0518H74.1269C73.79 21.4111 73.3633 21.2314 72.959 21.2539H68.8486C74.6885 24.5332 78.8438 29.0479 80.8203 35.4717H29.0479L28.1494 35.4268C30.0586 29.1826 33.9893 24.6455 39.7842 21.6807C40.1885 21.4561 40.6152 21.2764 41.042 21.0518H50.2734C50.9697 21.0742 51.1943 20.8496 51.1719 20.1309C51.1419 17.8997 51.1419 15.6761 51.1719 13.46C51.2168 11.6631 50.4531 10.2256 49.3076 8.90039C48.5215 8.00195 47.3535 7.66504 46.4775 6.90137ZM59.8418 14.583C60.2092 14.5904 60.5768 14.5754 60.9424 14.5381C61.3679 14.5 61.7648 14.3078 62.0585 13.9975C62.3522 13.6873 62.5224 13.2805 62.5371 12.8535C62.5596 12.0449 61.8857 11.1689 61.0098 11.1465C58.7861 11.0791 56.54 11.0791 54.3389 11.1465C53.4629 11.1689 52.7891 12.0225 52.7891 12.8535C52.8038 13.2805 52.974 13.6873 53.2677 13.9975C53.5614 14.3078 53.9583 14.5 54.3838 14.5381C54.7494 14.5754 55.1169 14.5904 55.4844 14.583C55.4844 16.4473 55.5068 18.2891 55.4619 20.1533C55.4395 20.8271 55.6191 21.1416 56.3604 21.0967C57.2354 21.0406 58.1132 21.0406 58.9883 21.0967C59.6172 21.1191 59.8867 20.9619 59.8643 20.2432C59.8193 18.3564 59.8418 16.4697 59.8418 14.583Z" fill="#1A87C9"/>
<path d="M74.9355 101.866H40.3906C39.7842 101.484 39.0879 101.687 38.4141 101.574C31.6533 100.384 27.2061 95.1729 27.1611 88.2998C27.1611 87.9629 27.1387 87.626 27.1387 87.2891H81.8311C82.0781 93.084 79.2256 99.418 71.0723 101.731H75.0029C74.9987 101.783 74.9745 101.832 74.9355 101.866Z" fill="#1A87C9"/>
<path d="M28.1494 35.4268L29.0479 35.4717H80.8203L87.1992 35.4268C87.6709 35.4717 88.165 35.4492 88.6143 35.5391C89.4812 35.7041 90.2649 36.1626 90.8335 36.8376C91.4021 37.5125 91.7209 38.3627 91.7363 39.2451C91.7363 41.1992 90.3438 42.6816 88.21 43.0186H27.1387C24.8926 42.6367 23.4551 41.0195 23.6123 39.043C23.7695 37.0664 25.3418 35.5615 27.6328 35.4941L28.1494 35.4268Z" fill="#016BB1"/>
<path d="M81.8312 87.2666H27.1388C25.0051 86.9072 23.6799 85.5146 23.6125 83.583C23.5451 81.6514 24.7804 80.3037 27.1613 79.6973H88.1877C90.8605 80.3486 92.1408 82.1006 91.6017 84.3916C91.2424 85.9639 90.0295 86.9746 88.2101 87.2666H81.8312Z" fill="#016BB1"/>
<path d="M88.1875 79.7197H81.8311V42.9961H88.21C88.21 45.1299 88.1875 47.2637 88.1875 49.375V79.7197Z" fill="#016BB1"/>
<path d="M46.4773 6.90163C47.3533 7.6653 48.5213 8.00222 49.3074 8.90065C50.4529 10.2258 51.2166 11.6633 51.1717 13.4602C51.1417 15.6764 51.1417 17.9 51.1717 20.1311C51.1941 20.8499 50.9695 21.0745 50.2732 21.052H41.0418C41.0418 20.3108 41.0643 19.5696 41.0643 18.8284L41.2215 18.6262L43.243 18.5813C44.3885 18.5364 45.1072 17.9075 45.1522 16.762C45.1971 15.6165 45.2195 14.2014 45.1746 12.9212C45.1297 11.6409 44.4334 11.1243 43.1981 11.0794H42.1873C40.952 11.0794 40.8397 10.9446 41.0643 9.75417C41.2041 8.93143 41.6348 8.18628 42.2779 7.65446C42.921 7.12263 43.7338 6.83953 44.5682 6.85671C45.1971 6.83425 45.8484 6.87917 46.4773 6.90163Z" fill="#016BB1"/>
<path d="M74.127 21.052H65.0977C64.4014 21.0745 64.1319 20.8948 64.1543 20.1536C64.1992 17.7503 64.0869 15.3469 64.1992 12.9436C64.3115 10.5403 65.8389 8.63112 68.0625 7.41823C68.332 7.28347 68.7588 7.35085 68.8486 6.90163C69.5449 6.87917 70.2637 6.83425 70.96 6.85671C71.8815 6.8976 72.7497 7.30022 73.3763 7.97722C74.0028 8.65423 74.3371 9.55099 74.3067 10.4729C74.3067 10.9446 74.1494 11.1243 73.6777 11.0794C73.2061 11.0344 72.5996 11.0569 72.0381 11.0794C70.8926 11.1243 70.2188 11.7307 70.1514 12.8987C70.084 14.0667 70.1065 15.3919 70.1514 16.6497C70.1963 17.9075 70.8926 18.5364 72.1504 18.6038C72.7793 18.6262 73.6104 18.3118 73.9922 18.7385C74.374 19.1653 74.082 19.9065 74.127 20.4905C74.1629 20.6845 74.2233 20.8732 74.3067 21.052H74.127Z" fill="#016BB1"/>
<path d="M81.8311 87.2666H88.21C88.2324 89.5352 88.0527 91.8037 87.042 93.8701C84.5937 98.8789 80.5732 101.462 75.0029 101.687H71.0723C79.2256 99.3955 82.0781 93.0615 81.8311 87.2666Z" fill="#016BB1"/>
<path d="M74.127 21.0518H74.3066C78.8438 23.0957 82.4824 26.1504 85.0205 30.4404C85.9873 31.9867 86.7214 33.6668 87.1992 35.4268L80.8203 35.4717C78.8438 29.0479 74.6885 24.5332 68.8486 21.2539H72.959C73.3633 21.2314 73.79 21.4111 74.127 21.0518Z" fill="#016BB1"/>
<path d="M41.2217 18.6255L41.0645 18.8277C41.042 18.6929 41.0645 18.603 41.2217 18.6255Z" fill="#EC6667"/>
<path d="M49.6669 108.38H46.4101C45.0624 108.358 44.2314 107.527 44.2089 106.246C44.1865 104.966 45.04 104.135 46.3876 104.113C48.6337 104.09 50.8574 104.09 53.1035 104.113C54.3837 104.135 55.2372 104.966 55.2597 106.179C55.2822 107.392 54.4511 108.313 53.1259 108.38H49.6669Z" fill="#504F4F"/>
<path d="M65.5244 108.38H62.29C60.9424 108.358 60.0889 107.504 60.0889 106.246C60.0889 104.989 60.9199 104.135 62.2676 104.113C64.4912 104.09 66.7373 104.09 68.9609 104.113C70.3086 104.135 71.1172 105.011 71.1172 106.291C71.1172 107.572 70.2861 108.335 68.9834 108.38H65.5244Z" fill="#504F4F"/>
<path d="M55.4844 14.5828C55.1169 14.5902 54.7494 14.5752 54.3838 14.5378C53.9583 14.4998 53.5614 14.3075 53.2677 13.9973C52.974 13.6871 52.8038 13.2802 52.7891 12.8533C52.7891 12.0222 53.4629 11.1687 54.3389 11.1462C56.54 11.0789 58.7861 11.0789 61.0098 11.1462C61.8857 11.1687 62.5596 12.0447 62.5371 12.8533C62.5224 13.2802 62.3522 13.6871 62.0585 13.9973C61.7648 14.3075 61.3679 14.4998 60.9424 14.5378C60.5768 14.5752 60.2092 14.5902 59.8418 14.5828H55.4844Z" fill="#504F4F"/>
<path d="M55.4842 14.583H59.8417C59.8417 16.4697 59.8192 18.3564 59.8641 20.2432C59.8866 20.9619 59.617 21.1191 58.9881 21.0967C58.1131 21.0406 57.2353 21.0406 56.3602 21.0967C55.619 21.1416 55.4393 20.8271 55.4618 20.1533C55.5067 18.2891 55.4842 16.4473 55.4842 14.583Z" fill="#EB6409"/>
</svg>
