<svg width="116" height="116" viewBox="0 0 116 116" fill="none" xmlns="http://www.w3.org/2000/svg">
<path d="M99.7101 21.4785C96.1838 21.4785 93.1291 23.6348 91.6691 26.7344C89.9805 26.0409 88.1123 25.9148 86.3459 26.375L56.1808 34.4385C54.0435 35.0124 52.2212 36.4107 51.1137 38.3267C50.0063 40.2427 49.7041 42.5197 50.2736 44.6582C50.8475 46.7955 52.2459 48.6178 54.1618 49.7253C56.0778 50.8328 58.3548 51.1349 60.4933 50.5654L90.6359 42.5244C92.5599 42.0133 94.2347 40.8249 95.3527 39.1777C96.6728 39.9566 98.1774 40.3677 99.7101 40.3682C104.674 40.3682 108.694 36.1455 108.694 30.9346C108.694 25.7236 104.674 21.4785 99.7101 21.4785Z" fill="#1A87C9"/>
<path d="M71.7236 59.8643C81.1141 59.8643 88.7266 51.1054 88.7266 40.3008C88.7266 29.4962 81.1141 20.7373 71.7236 20.7373C62.3332 20.7373 54.7207 29.4962 54.7207 40.3008C54.7207 51.1054 62.3332 59.8643 71.7236 59.8643Z" fill="#504F4F"/>
<path d="M70.9824 56.585C79.0208 56.585 85.5371 49.3245 85.5371 40.3682C85.5371 31.4119 79.0208 24.1514 70.9824 24.1514C62.9441 24.1514 56.4277 31.4119 56.4277 40.3682C56.4277 49.3245 62.9441 56.585 70.9824 56.585Z" fill="#D0D8DA"/>
<path d="M70.7578 52.0254C76.6625 52.0254 81.4492 46.6957 81.4492 40.1211C81.4492 33.5465 76.6625 28.2168 70.7578 28.2168C64.8531 28.2168 60.0664 33.5465 60.0664 40.1211C60.0664 46.6957 64.8531 52.0254 70.7578 52.0254Z" fill="#504F4F"/>
<path d="M62.5823 92.5449L43.5578 96.3857C38.01 95.5771 32.2151 94.6113 26.1731 93.3984C20.8723 92.3428 15.7961 91.1748 10.9895 89.9619C10.8547 87.8506 10.8547 85.9639 10.8547 84.0772C10.8772 80.7529 10.7424 78.1924 10.7424 78.1924L6.81175 74.3291C6.81175 74.3291 6.4973 70.0615 7.37328 63.6377C7.80004 60.4258 8.76586 55.2598 10.2258 51.127C12.6291 44.3437 13.4153 40.75 16.133 38.3467C18.1994 36.46 20.4455 35.5615 22.8489 34.6182C26.5774 33.1357 29.8118 32.6865 32.1926 32.3721C34.3165 32.1105 36.4541 31.9755 38.594 31.9678C41.3791 32.3271 39.9866 32.125 47.7356 33.1582L62.717 35.1348L70.8703 36.0781L70.9377 39.9189H71.5666L71.7688 87.2217C71.7688 87.2217 64.0647 92.5449 62.5823 92.5449Z" fill="#F08137"/>
<path d="M79.9668 82.123L71.5439 87.1992V53.5303H72.4873C77.1143 53.5303 80.4609 57.3711 80.416 61.998V67.4785L80.0342 67.8603L79.9668 82.123Z" fill="#EB6409"/>
<path d="M71.5437 40.1881C67.6355 39.7388 57.7752 39.1773 52.2722 45.2193C50.0711 47.6451 48.7683 50.9244 46.1853 57.5054C45.1052 60.2812 44.1828 63.1158 43.4226 65.9957C41.8279 72.0601 41.0418 75.0924 42.0525 77.2262C44.1638 81.606 50.7 82.4596 52.8338 82.7291C55.488 83.0608 58.1815 82.87 60.7625 82.1676L60.8748 87.1988L71.5437 82.5045V40.1881Z" fill="#EB6409"/>
<path d="M15.8633 38.2344C15.8633 38.2344 24.3535 41.0195 32.0576 42.0078C43.4004 43.4678 49.1279 43.041 49.1279 43.041C48.2744 44.6582 47.2188 46.7695 46.0732 49.2402C45.5117 50.4756 43.8945 53.9795 41.8955 59.2129C38.9082 66.9844 38.3018 70.084 38.0996 71.207C37.1113 76.71 37.8076 78.4395 38.3916 79.4053C40.0537 82.123 43.1309 82.4824 42.9512 83.3359C42.7715 84.1895 38.459 84.3242 32.6865 84.0322C28.8008 83.8301 26.5771 83.7178 23.4326 82.9541C19.165 81.9434 16.335 80.4834 13.123 78.8213C7.30566 75.834 6.38477 73.7002 6.38477 73.7002C6.42969 71.7012 6.56445 69.1182 6.87891 66.1084C7.15556 63.095 7.62067 60.1018 8.27148 57.1465C9.13303 53.2344 10.3665 49.4137 11.9551 45.7363C13.0807 43.1473 14.3866 40.6405 15.8633 38.2344Z" fill="#EB6409"/>
</svg>
