<svg width="24" height="24" viewBox="0 0 24 24" fill="none" xmlns="http://www.w3.org/2000/svg">
<path fill-rule="evenodd" clip-rule="evenodd" d="M3.165 0.647502C2.82733 0.332862 2.38072 0.161569 1.91926 0.169711C1.45779 0.177853 1.0175 0.364794 0.691147 0.69115C0.364791 1.01751 0.17785 1.4578 0.169708 1.91926C0.161566 2.38073 0.332859 2.82734 0.647499 3.165L9.4825 12L0.647499 20.835C0.472493 20.9981 0.332125 21.1947 0.234769 21.4132C0.137413 21.6317 0.0850635 21.8676 0.0808436 22.1068C0.0766238 22.3459 0.12062 22.5835 0.210207 22.8053C0.299795 23.0271 0.433138 23.2286 0.602283 23.3977C0.771427 23.5669 0.972908 23.7002 1.1947 23.7898C1.4165 23.8794 1.65407 23.9234 1.89324 23.9192C2.13241 23.9149 2.36828 23.8626 2.58678 23.7652C2.80528 23.6679 3.00193 23.5275 3.165 23.3525L12 14.5175L20.835 23.3525C20.9981 23.5275 21.1947 23.6679 21.4132 23.7652C21.6317 23.8626 21.8676 23.9149 22.1068 23.9192C22.3459 23.9234 22.5835 23.8794 22.8053 23.7898C23.0271 23.7002 23.2286 23.5669 23.3977 23.3977C23.5669 23.2286 23.7002 23.0271 23.7898 22.8053C23.8794 22.5835 23.9234 22.3459 23.9192 22.1068C23.9149 21.8676 23.8626 21.6317 23.7652 21.4132C23.6679 21.1947 23.5275 20.9981 23.3525 20.835L14.5175 12L23.3525 3.165C23.6671 2.82734 23.8384 2.38073 23.8303 1.91926C23.8221 1.4578 23.6352 1.01751 23.3088 0.69115C22.9825 0.364794 22.5422 0.177853 22.0807 0.169711C21.6193 0.161569 21.1727 0.332862 20.835 0.647502L12 9.4825L3.165 0.647502Z" fill="#EC6300"/>
</svg>
