<svg width="24" height="24" viewBox="0 0 24 24" fill="none" xmlns="http://www.w3.org/2000/svg">
<g opacity="0.5">
<path d="M21.3036 4.59145C20.766 4.08695 20.1278 3.68675 19.4253 3.41371C18.7228 3.14066 17.9699 3.00012 17.2095 3.00012C16.4491 3.00012 15.6961 3.14066 14.9936 3.41371C14.2912 3.68675 13.6529 4.08695 13.1153 4.59145L11.9997 5.63797L10.8841 4.59145C9.79827 3.57288 8.32556 3.00065 6.78997 3.00065C5.25437 3.00065 3.78167 3.57288 2.69584 4.59145C1.61001 5.61003 1 6.99151 1 8.43199C1 9.87247 1.61001 11.254 2.69584 12.2725L3.81147 13.319L11.9997 21.0001L20.188 13.319L21.3036 12.2725C21.8414 11.7683 22.268 11.1695 22.5591 10.5106C22.8502 9.8516 23 9.14529 23 8.43199C23 7.71869 22.8502 7.01238 22.5591 6.3534C22.268 5.69443 21.8414 5.09571 21.3036 4.59145Z" stroke="#272624" stroke-width="2" stroke-linecap="round" stroke-linejoin="round"/>
</g>
</svg>
