<svg width="20" height="16" viewBox="0 0 20 16" fill="none" xmlns="http://www.w3.org/2000/svg">
<path d="M2.95455 6.20017e-09H17.0455C17.8001 -4.83082e-05 18.5262 0.28227 19.0748 0.789041C19.6233 1.29581 19.9527 1.98862 19.9955 2.72533L20 2.88889V13.1111C20 13.849 19.7113 14.559 19.193 15.0953C18.6747 15.6317 17.9662 15.9538 17.2127 15.9956L17.0455 16H2.95455C2.19987 16 1.47379 15.7177 0.925245 15.211C0.376697 14.7042 0.0472715 14.0114 0.00454557 13.2747L6.34108e-09 13.1111V2.88889C-4.94061e-05 2.15099 0.288686 1.44104 0.806974 0.904684C1.32526 0.368326 2.03381 0.046221 2.78727 0.00444455L2.95455 6.20017e-09ZM18.6364 5.24889L10.3145 9.48C10.2339 9.52096 10.1458 9.54575 10.0552 9.55293C9.96468 9.5601 9.87358 9.54951 9.78727 9.52178L9.68546 9.48L1.36364 5.24889V13.1111C1.36365 13.5015 1.51379 13.8776 1.78425 14.1648C2.05472 14.452 2.42573 14.6292 2.82364 14.6613L2.95455 14.6667H17.0455C17.4449 14.6666 17.8296 14.5197 18.1234 14.2551C18.4171 13.9904 18.5983 13.6274 18.6309 13.2382L18.6364 13.1111V5.24889ZM17.0455 1.33333H2.95455C2.55528 1.33335 2.17062 1.48015 1.87692 1.7446C1.58321 2.00906 1.40194 2.37182 1.36909 2.76089L1.36364 2.88889V3.74578L10 8.13689L18.6364 3.74578V2.88889C18.6363 2.49836 18.4861 2.12212 18.2154 1.83493C17.9448 1.54773 17.5735 1.37058 17.1755 1.33867L17.0455 1.33333Z" fill="#EC6300"/>
</svg>
