<svg width="16" height="16" viewBox="0 0 16 16" fill="none" xmlns="http://www.w3.org/2000/svg">
<path d="M13.914 14.9703L8.00099 9.05728L2.08799 14.9703C1.94578 15.1004 1.75883 15.1707 1.5661 15.1664C1.37338 15.1621 1.18973 15.0837 1.05342 14.9474C0.917103 14.811 0.838638 14.6274 0.834368 14.4347C0.830098 14.2419 0.900351 14.055 1.03049 13.9128L6.94049 7.99978L1.02899 2.08828C0.95677 2.01945 0.899037 1.93688 0.859185 1.84542C0.819334 1.75396 0.798168 1.65545 0.796932 1.5557C0.795697 1.45594 0.814417 1.35694 0.851991 1.26452C0.889565 1.1721 0.945236 1.08813 1.01573 1.01753C1.08623 0.946938 1.17012 0.891148 1.26249 0.853443C1.35485 0.815738 1.45382 0.796878 1.55358 0.797972C1.65334 0.799066 1.75188 0.820092 1.84339 0.859814C1.93491 0.899536 2.01756 0.957151 2.08649 1.02928L8.00099 6.94077L13.914 1.02778C14.0562 0.897635 14.2432 0.827381 14.4359 0.831652C14.6286 0.835922 14.8123 0.914387 14.9486 1.0507C15.0849 1.18701 15.1633 1.37066 15.1676 1.56339C15.1719 1.75612 15.1016 1.94306 14.9715 2.08528L9.05849 7.99828L14.9715 13.9128C15.0437 13.9816 15.1014 14.0642 15.1413 14.1556C15.1812 14.2471 15.2023 14.3456 15.2036 14.4454C15.2048 14.5451 15.1861 14.6441 15.1485 14.7365C15.1109 14.8289 15.0552 14.9129 14.9848 14.9835C14.9143 15.0541 14.8304 15.1099 14.738 15.1476C14.6456 15.1853 14.5467 15.2042 14.4469 15.2031C14.3471 15.202 14.2486 15.181 14.1571 15.1412C14.0656 15.1015 13.9829 15.0439 13.914 14.9718V14.9703Z" fill="#828282"/>
</svg>
