<svg width="40" height="40" viewBox="0 0 40 40" fill="none" xmlns="http://www.w3.org/2000/svg">
<path d="M12 4C10.9391 4 9.92172 4.42143 9.17157 5.17157C8.42143 5.92172 8 6.93913 8 8V32C8 33.0609 8.42143 34.0783 9.17157 34.8284C9.92172 35.5786 10.9391 36 12 36H18.406C18.1172 35.3648 17.9218 34.6912 17.826 34H12C11.4696 34 10.9609 33.7893 10.5858 33.4142C10.2107 33.0391 10 32.5304 10 32V8C10 7.46957 10.2107 6.96086 10.5858 6.58579C10.9609 6.21071 11.4696 6 12 6H20V13C20 13.7956 20.3161 14.5587 20.8787 15.1213C21.4413 15.6839 22.2044 16 23 16H30V18.406C30.64 18.114 31.314 17.922 32 17.826V14.828C31.9993 14.0326 31.6828 13.2701 31.12 12.708L23.292 4.878C22.7296 4.31596 21.9671 4.00017 21.172 4H12ZM29.586 14H23C22.7348 14 22.4804 13.8946 22.2929 13.7071C22.1054 13.5196 22 13.2652 22 13V6.414L29.586 14ZM36.706 21.294C36.2192 20.8071 35.6413 20.4209 35.0053 20.1574C34.3692 19.8939 33.6875 19.7583 32.999 19.7583C32.3105 19.7583 31.6288 19.8939 30.9927 20.1574C30.3567 20.4209 29.7788 20.8071 29.292 21.294L21.292 29.294C20.3088 30.2772 19.7565 31.6106 19.7565 33.001C19.7565 34.3914 20.3088 35.7248 21.292 36.708C22.2752 37.6912 23.6086 38.2435 24.999 38.2435C26.3894 38.2435 27.7228 37.6912 28.706 36.708L36.706 28.708C37.1929 28.2212 37.5791 27.6433 37.8426 27.0073C38.1061 26.3712 38.2417 25.6895 38.2417 25.001C38.2417 24.3125 38.1061 23.6308 37.8426 22.9947C37.5791 22.3587 37.1929 21.7808 36.706 21.294ZM30.706 22.708C31.0071 22.4069 31.3646 22.168 31.758 22.0051C32.1515 21.8421 32.5732 21.7582 32.999 21.7582C33.4249 21.7582 33.8465 21.8421 34.24 22.0051C34.6334 22.168 34.9909 22.4069 35.292 22.708C35.5931 23.0091 35.832 23.3666 35.9949 23.76C36.1579 24.1535 36.2418 24.5751 36.2418 25.001C36.2418 25.4268 36.1579 25.8485 35.9949 26.242C35.832 26.6354 35.5931 26.9929 35.292 27.294L32 30.586L27.414 26L30.706 22.708ZM26.292 31.292C26.4798 31.1042 26.7344 30.9987 27 30.9987C27.2656 30.9987 27.5202 31.1042 27.708 31.292C27.8958 31.4798 28.0013 31.7344 28.0013 32C28.0013 32.2656 27.8958 32.5202 27.708 32.708L25.708 34.708C25.5202 34.8958 25.2656 35.0013 25 35.0013C24.7344 35.0013 24.4798 34.8958 24.292 34.708C24.1042 34.5202 23.9987 34.2656 23.9987 34C23.9987 33.7344 24.1042 33.4798 24.292 33.292L26.292 31.292Z" fill="#FF9A62"/>
</svg>
