<svg width="15" height="7" viewBox="0 0 15 7" fill="none" xmlns="http://www.w3.org/2000/svg">
<path d="M14.4946 0.288658C14.4017 0.197192 14.2911 0.124593 14.1693 0.0750502C14.0474 0.025507 13.9167 0 13.7847 0C13.6527 0 13.522 0.025507 13.4002 0.0750502C13.2783 0.124593 13.1678 0.197192 13.0748 0.288658L8.49532 4.7581C8.40237 4.84956 8.29178 4.92216 8.16993 4.9717C8.04809 5.02125 7.9174 5.04676 7.7854 5.04676C7.6534 5.04676 7.52271 5.02125 7.40087 4.9717C7.27902 4.92216 7.16843 4.84956 7.07548 4.7581L2.496 0.288658C2.40305 0.197192 2.29246 0.124593 2.17061 0.0750502C2.04877 0.025507 1.91808 0 1.78608 0C1.65408 0 1.52339 0.025507 1.40155 0.0750502C1.2797 0.124593 1.16911 0.197192 1.07616 0.288658C0.88993 0.471497 0.7854 0.718831 0.7854 0.976639C0.7854 1.23445 0.88993 1.48178 1.07616 1.66462L5.66564 6.14382C6.22808 6.69206 6.99049 7 7.7854 7C8.58031 7 9.34272 6.69206 9.90516 6.14382L14.4946 1.66462C14.6809 1.48178 14.7854 1.23445 14.7854 0.976639C14.7854 0.718831 14.6809 0.471497 14.4946 0.288658Z" fill="black"/>
</svg>
