<svg width="17" height="17" viewBox="0 0 17 17" fill="none" xmlns="http://www.w3.org/2000/svg">
<circle cx="8.5" cy="8.5" r="8.5" fill="#026BB0"/>
<path d="M7.40932 10.4687L12.8827 5.1875C13.0122 5.0625 13.1662 5 13.3445 5C13.5228 5 13.6766 5.0625 13.8057 5.1875C13.9352 5.3125 14 5.46083 14 5.6325C14 5.80417 13.9352 5.95271 13.8057 6.07812L7.86273 11.8125C7.73318 11.9375 7.58205 12 7.40932 12C7.23659 12 7.08545 11.9375 6.9559 11.8125L4.18685 9.14062C4.0573 9.01562 3.99512 8.86708 4.0003 8.695C4.00548 8.52292 4.07306 8.37458 4.20304 8.25C4.33259 8.125 4.48653 8.0625 4.66487 8.0625C4.84322 8.0625 4.99694 8.125 5.12606 8.25L7.40932 10.4687Z" fill="white"/>
</svg>
