<svg width="21" height="15" viewBox="0 0 21 15" fill="none" xmlns="http://www.w3.org/2000/svg">
<path fill-rule="evenodd" clip-rule="evenodd" d="M6 7C6 5.93913 6.42143 4.92172 7.17157 4.17157C7.92172 3.42143 8.93913 3 10 3C11.0609 3 12.0783 3.42143 12.8284 4.17157C13.5786 4.92172 14 5.93913 14 7C14 8.06087 13.5786 9.07828 12.8284 9.82843C12.0783 10.5786 11.0609 11 10 11C8.93913 11 7.92172 10.5786 7.17157 9.82843C6.42143 9.07828 6 8.06087 6 7ZM10 4.6C9.36348 4.6 8.75303 4.85286 8.30294 5.30294C7.85286 5.75303 7.6 6.36348 7.6 7C7.6 7.63652 7.85286 8.24697 8.30294 8.69706C8.75303 9.14714 9.36348 9.4 10 9.4C10.6365 9.4 11.247 9.14714 11.6971 8.69706C12.1471 8.24697 12.4 7.63652 12.4 7C12.4 6.36348 12.1471 5.75303 11.6971 5.30294C11.247 4.85286 10.6365 4.6 10 4.6Z" fill="#828282"/>
<path fill-rule="evenodd" clip-rule="evenodd" d="M2.23246 5.99556C1.78123 6.66667 1.61538 7.19222 1.61538 7.5C1.61538 7.80778 1.78123 8.33333 2.23246 9.00445C2.66969 9.65222 3.318 10.3556 4.13862 11.0056C5.78308 12.3078 8.03708 13.3333 10.5 13.3333C12.9629 13.3333 15.2169 12.3078 16.8614 11.0056C17.682 10.3556 18.3303 9.65222 18.7675 9.00445C19.2188 8.33333 19.3846 7.80778 19.3846 7.5C19.3846 7.19222 19.2188 6.66667 18.7675 5.99556C18.3303 5.34778 17.682 4.64444 16.8614 3.99444C15.2169 2.69222 12.9629 1.66667 10.5 1.66667C8.03708 1.66667 5.78308 2.69222 4.13862 3.99444C3.318 4.64444 2.66969 5.34778 2.23246 5.99556ZM3.15431 2.67222C5.01846 1.19667 7.60954 0 10.5 0C13.3905 0 15.9815 1.19667 17.8446 2.67222C18.7783 3.41111 19.5494 4.23556 20.0943 5.04556C20.6242 5.83333 21 6.69667 21 7.5C21 8.30333 20.6231 9.16667 20.0943 9.95444C19.5494 10.7644 18.7783 11.5878 17.8457 12.3278C15.9826 13.8033 13.3905 15 10.5 15C7.60954 15 5.01846 13.8033 3.15538 12.3278C2.22169 11.5889 1.45062 10.7644 0.905692 9.95444C0.376923 9.16667 0 8.30333 0 7.5C0 6.69667 0.376923 5.83333 0.905692 5.04556C1.45062 4.23556 2.22169 3.41222 3.15431 2.67222Z" fill="#828282"/>
</svg>
