<svg width="21" height="19" viewBox="0 0 21 19" fill="none" xmlns="http://www.w3.org/2000/svg">
<path d="M15.3106 2C14.3257 2.01411 13.3622 2.26742 12.5176 2.73434C11.673 3.20126 10.977 3.86525 10.5 4.65927C10.023 3.86525 9.32704 3.20126 8.4824 2.73434C7.63775 2.26742 6.67434 2.01411 5.68944 2C4.1194 2.06285 2.64016 2.69564 1.57491 3.76014C0.509657 4.82464 -0.0550236 6.2343 0.00423426 7.68117C0.00423426 11.3453 4.1903 15.3471 7.70113 18.0604C8.485 18.6673 9.4761 19 10.5 19C11.5239 19 12.515 18.6673 13.2989 18.0604C16.8097 15.3471 20.9958 11.3453 20.9958 7.68117C21.055 6.2343 20.4903 4.82464 19.4251 3.76014C18.3598 2.69564 16.8806 2.06285 15.3106 2ZM12.1749 16.8274C11.7061 17.1912 11.1129 17.3906 10.5 17.3906C9.88709 17.3906 9.29388 17.1912 8.82505 16.8274C4.33111 13.3535 1.75353 10.0205 1.75353 7.68117C1.69374 6.66155 2.07397 5.66151 2.81129 4.89917C3.54862 4.13682 4.58322 3.67401 5.68944 3.61168C6.79567 3.67401 7.83026 4.13682 8.56759 4.89917C9.30491 5.66151 9.68514 6.66155 9.62535 7.68117C9.62535 7.89489 9.7175 8.09985 9.88153 8.25098C10.0456 8.4021 10.268 8.487 10.5 8.487C10.732 8.487 10.9544 8.4021 11.1185 8.25098C11.2825 8.09985 11.3746 7.89489 11.3746 7.68117C11.3149 6.66155 11.6951 5.66151 12.4324 4.89917C13.1697 4.13682 14.2043 3.67401 15.3106 3.61168C16.4168 3.67401 17.4514 4.13682 18.1887 4.89917C18.926 5.66151 19.3063 6.66155 19.2465 7.68117C19.2465 10.0205 16.6689 13.3535 12.1749 16.8242V16.8274Z" fill="#828282"/>
</svg>
