<svg width="17" height="15" viewBox="0 0 17 15" fill="none" xmlns="http://www.w3.org/2000/svg">
<path d="M12.3943 1C11.597 1.01162 10.8171 1.22023 10.1333 1.60475C9.44954 1.98927 8.88614 2.53609 8.5 3.18999C8.11386 2.53609 7.55046 1.98927 6.8667 1.60475C6.18294 1.22023 5.40303 1.01162 4.60574 1C3.33475 1.05176 2.13728 1.57288 1.27493 2.44953C0.41258 3.32617 -0.0445429 4.48707 0.00342773 5.67861C0.00342773 8.69614 3.39214 11.9917 6.23425 14.2262C6.86881 14.726 7.67113 15 8.5 15C9.32887 15 10.1312 14.726 10.7658 14.2262C13.6079 11.9917 16.9966 8.69614 16.9966 5.67861C17.0445 4.48707 16.5874 3.32617 15.7251 2.44953C14.8627 1.57288 13.6652 1.05176 12.3943 1ZM9.85591 13.2108C9.47639 13.5104 8.99617 13.6746 8.5 13.6746C8.00383 13.6746 7.52361 13.5104 7.14409 13.2108C3.50614 10.3499 1.41952 7.60513 1.41952 5.67861C1.37112 4.83892 1.67893 4.01537 2.27581 3.38755C2.87269 2.75973 3.71022 2.3786 4.60574 2.32726C5.50125 2.3786 6.33878 2.75973 6.93567 3.38755C7.53255 4.01537 7.84035 4.83892 7.79195 5.67861C7.79195 5.85461 7.86655 6.02341 7.99933 6.14786C8.13212 6.27232 8.31221 6.34224 8.5 6.34224C8.68779 6.34224 8.86788 6.27232 9.00066 6.14786C9.13345 6.02341 9.20805 5.85461 9.20805 5.67861C9.15965 4.83892 9.46745 4.01537 10.0643 3.38755C10.6612 2.75973 11.4987 2.3786 12.3943 2.32726C13.2898 2.3786 14.1273 2.75973 14.7242 3.38755C15.3211 4.01537 15.6289 4.83892 15.5805 5.67861C15.5805 7.60513 13.4939 10.3499 9.85591 13.2082V13.2108Z" fill="#828282"/>
</svg>
