<svg width="40" height="40" viewBox="0 0 40 40" fill="none" xmlns="http://www.w3.org/2000/svg">
<rect x="0.5" y="0.5" width="39" height="39" rx="2.5" fill="white" stroke="#026BB0"/>
<path d="M4 9C4 8.44772 4.44772 8 5 8H10C10.5523 8 11 8.44772 11 9V14C11 14.5523 10.5523 15 10 15H5C4.44772 15 4 14.5523 4 14V9Z" fill="#026BB0"/>
<path d="M13 9C13 8.44772 13.4477 8 14 8H35C35.5523 8 36 8.44772 36 9V14C36 14.5523 35.5523 15 35 15H14C13.4477 15 13 14.5523 13 14V9Z" fill="#026BB0"/>
<path d="M4 18C4 17.4477 4.44772 17 5 17H10C10.5523 17 11 17.4477 11 18V23C11 23.5523 10.5523 24 10 24H5C4.44772 24 4 23.5523 4 23V18Z" fill="#026BB0"/>
<path d="M13 18C13 17.4477 13.4477 17 14 17H35C35.5523 17 36 17.4477 36 18V23C36 23.5523 35.5523 24 35 24H14C13.4477 24 13 23.5523 13 23V18Z" fill="#026BB0"/>
<path d="M4 27C4 26.4477 4.44772 26 5 26H10C10.5523 26 11 26.4477 11 27V32C11 32.5523 10.5523 33 10 33H5C4.44772 33 4 32.5523 4 32V27Z" fill="#026BB0"/>
<path d="M13 27C13 26.4477 13.4477 26 14 26H35C35.5523 26 36 26.4477 36 27V32C36 32.5523 35.5523 33 35 33H14C13.4477 33 13 32.5523 13 32V27Z" fill="#026BB0"/>
</svg>
