<svg width="40" height="40" viewBox="0 0 40 40" fill="none" xmlns="http://www.w3.org/2000/svg">
<rect x="0.5" y="0.5" width="39" height="39" rx="2.5" fill="white" stroke="#026BB0"/>
<path d="M7 8C7 7.44772 7.44772 7 8 7H18C18.5523 7 19 7.44772 19 8V18C19 18.5523 18.5523 19 18 19H8C7.44772 19 7 18.5523 7 18V8Z" fill="#026BB0"/>
<path d="M21 8C21 7.44772 21.4477 7 22 7H32C32.5523 7 33 7.44772 33 8V18C33 18.5523 32.5523 19 32 19H22C21.4477 19 21 18.5523 21 18V8Z" fill="#026BB0"/>
<path d="M7 22C7 21.4477 7.44772 21 8 21H18C18.5523 21 19 21.4477 19 22V32C19 32.5523 18.5523 33 18 33H8C7.44772 33 7 32.5523 7 32V22Z" fill="#026BB0"/>
<path d="M21 22C21 21.4477 21.4477 21 22 21H32C32.5523 21 33 21.4477 33 22V32C33 32.5523 32.5523 33 32 33H22C21.4477 33 21 32.5523 21 32V22Z" fill="#026BB0"/>
</svg>
