<svg width="21" height="15" viewBox="0 0 21 15" fill="none" xmlns="http://www.w3.org/2000/svg">
<path d="M7.15957 11.7187L18.6536 0.401785C18.9256 0.133928 19.2489 0 19.6234 0C19.998 0 20.3208 0.133928 20.5919 0.401785C20.864 0.669642 21 0.9875 21 1.35536C21 1.72321 20.864 2.04152 20.5919 2.31027L8.11173 14.5982C7.83969 14.8661 7.5223 15 7.15957 15C6.79684 15 6.47945 14.8661 6.2074 14.5982L0.392376 8.87277C0.120328 8.60491 -0.0102541 8.28661 0.000627805 7.91786C0.0115097 7.54911 0.153428 7.23125 0.426382 6.96429C0.69843 6.69643 1.02171 6.5625 1.39623 6.5625C1.77075 6.5625 2.09358 6.69643 2.36472 6.96429L7.15957 11.7187Z" fill="#EC6300"/>
</svg>
