<svg width="17" height="20" viewBox="0 0 17 20" fill="none" xmlns="http://www.w3.org/2000/svg">
<path d="M8.5 19.9989L7.91037 19.501C7.09752 18.8305 0 12.7915 0 8.37418C0 3.74926 3.80559 0 8.5 0C13.1944 0 17 3.74926 17 8.37418C17 12.7916 9.90248 18.8305 9.093 19.5043L8.5 19.9989ZM8.5 1.81074C4.8224 1.81484 1.84215 4.75098 1.83799 8.37414C1.83799 11.1492 6.20466 15.5823 8.5 17.6114C10.7954 15.5815 15.162 11.1459 15.162 8.37414C15.1578 4.75098 12.1776 1.81488 8.5 1.81074Z" fill="black"/>
<path d="M8.50019 11.6936C6.63936 11.6936 5.13086 10.2074 5.13086 8.37414C5.13086 6.54086 6.63936 5.05469 8.50019 5.05469C10.361 5.05469 11.8695 6.54086 11.8695 8.37414C11.8695 10.2074 10.3611 11.6936 8.50019 11.6936ZM8.50019 6.71438C7.56977 6.71438 6.81552 7.45746 6.81552 8.3741C6.81552 9.29074 7.56977 10.0338 8.50019 10.0338C9.4306 10.0338 10.1848 9.29074 10.1848 8.3741C10.1848 7.45746 9.43064 6.71438 8.50019 6.71438Z" fill="black"/>
</svg>
