<svg width="21" height="24" viewBox="0 0 21 24" fill="none" xmlns="http://www.w3.org/2000/svg">
<path d="M10.958 23.7472L10.2609 23.1561C9.29995 22.3602 0.908997 15.1923 0.908997 9.94907C0.908997 4.45948 5.40811 0.00927734 10.958 0.00927734C16.5079 0.00927734 21.007 4.45948 21.007 9.94907C21.007 15.1923 12.6161 22.3603 11.6591 23.1601L10.958 23.7472ZM10.958 2.15855C6.61021 2.16342 3.08686 5.64848 3.08193 9.94902C3.08193 13.2429 8.24437 18.5048 10.958 20.9132C13.6717 18.5039 18.8341 13.2389 18.8341 9.94902C18.8292 5.64848 15.3059 2.16346 10.958 2.15855Z" fill="#F5F5F5"/>
<path d="M10.958 13.8891C8.75808 13.8891 6.97467 12.1251 6.97467 9.94908C6.97467 7.77305 8.75808 6.00903 10.958 6.00903C13.158 6.00903 14.9414 7.77305 14.9414 9.94908C14.9414 12.1251 13.158 13.8891 10.958 13.8891ZM10.958 7.97901C9.85805 7.97901 8.96634 8.86102 8.96634 9.94903C8.96634 11.037 9.85805 11.9191 10.958 11.9191C12.058 11.9191 12.9497 11.037 12.9497 9.94903C12.9497 8.86102 12.058 7.97901 10.958 7.97901Z" fill="#F5F5F5"/>
</svg>
