<svg width="28" height="21" viewBox="0 0 28 21" fill="none" xmlns="http://www.w3.org/2000/svg">
<g clip-path="url(#clip0_264_7529)">
<path d="M24.6665 19.0312C25.4638 19.0312 25.9998 18.5036 25.9998 17.7188V0.328125C25.9998 0.241101 25.9647 0.157641 25.9022 0.0961056C25.8397 0.0345702 25.7549 0 25.6665 0C25.5781 0 25.4933 0.0345702 25.4308 0.0961056C25.3683 0.157641 25.3332 0.241101 25.3332 0.328125V17.7188C25.3332 18.2897 24.9152 18.375 24.6665 18.375C24.5978 18.375 23.9998 18.3566 23.9998 17.7188V0.328125C23.9998 0.241101 23.9647 0.157641 23.9022 0.0961056C23.8397 0.0345702 23.7549 0 23.6665 0C23.5781 0 23.4933 0.0345702 23.4308 0.0961056C23.3683 0.157641 23.3332 0.241101 23.3332 0.328125V17.7188C23.3332 18.5804 24.0038 19.0312 24.6665 19.0312ZM2.99984 13.7812H9.6665C9.75491 13.7812 9.83969 13.7467 9.90221 13.6851C9.96472 13.6236 9.99984 13.5401 9.99984 13.4531V7.54688C9.99984 7.45985 9.96472 7.37639 9.90221 7.31486C9.83969 7.25332 9.75491 7.21875 9.6665 7.21875H2.99984C2.91143 7.21875 2.82665 7.25332 2.76414 7.31486C2.70162 7.37639 2.6665 7.45985 2.6665 7.54688V13.4531C2.6665 13.5401 2.70162 13.6236 2.76414 13.6851C2.82665 13.7467 2.91143 13.7812 2.99984 13.7812ZM3.33317 7.875H9.33317V13.125H3.33317V7.875ZM2.99984 5.25H18.9998C19.0882 5.25 19.173 5.21543 19.2355 5.15389C19.2981 5.09236 19.3332 5.0089 19.3332 4.92188V2.29688C19.3332 2.20985 19.2981 2.12639 19.2355 2.06486C19.173 2.00332 19.0882 1.96875 18.9998 1.96875H2.99984C2.91143 1.96875 2.82665 2.00332 2.76414 2.06486C2.70162 2.12639 2.6665 2.20985 2.6665 2.29688V4.92188C2.6665 5.0089 2.70162 5.09236 2.76414 5.15389C2.82665 5.21543 2.91143 5.25 2.99984 5.25ZM3.33317 2.625H18.6665V4.59375H3.33317V2.625ZM18.9998 7.21875H12.3332C12.2448 7.21875 12.16 7.25332 12.0975 7.31486C12.035 7.37639 11.9998 7.45985 11.9998 7.54688C11.9998 7.6339 12.035 7.71736 12.0975 7.77889C12.16 7.84043 12.2448 7.875 12.3332 7.875H18.9998C19.0882 7.875 19.173 7.84043 19.2355 7.77889C19.2981 7.71736 19.3332 7.6339 19.3332 7.54688C19.3332 7.45985 19.2981 7.37639 19.2355 7.31486C19.173 7.25332 19.0882 7.21875 18.9998 7.21875ZM18.9998 9.1875H12.3332C12.2448 9.1875 12.16 9.22207 12.0975 9.28361C12.035 9.34514 11.9998 9.4286 11.9998 9.51562C11.9998 9.60265 12.035 9.68611 12.0975 9.74764C12.16 9.80918 12.2448 9.84375 12.3332 9.84375H18.9998C19.0882 9.84375 19.173 9.80918 19.2355 9.74764C19.2981 9.68611 19.3332 9.60265 19.3332 9.51562C19.3332 9.4286 19.2981 9.34514 19.2355 9.28361C19.173 9.22207 19.0882 9.1875 18.9998 9.1875ZM18.9998 11.1562H12.3332C12.2448 11.1562 12.16 11.1908 12.0975 11.2524C12.035 11.3139 11.9998 11.3974 11.9998 11.4844C11.9998 11.5714 12.035 11.6549 12.0975 11.7164C12.16 11.7779 12.2448 11.8125 12.3332 11.8125H18.9998C19.0882 11.8125 19.173 11.7779 19.2355 11.7164C19.2981 11.6549 19.3332 11.5714 19.3332 11.4844C19.3332 11.3974 19.2981 11.3139 19.2355 11.2524C19.173 11.1908 19.0882 11.1562 18.9998 11.1562ZM18.9998 13.125H12.3332C12.2448 13.125 12.16 13.1596 12.0975 13.2211C12.035 13.2826 11.9998 13.3661 11.9998 13.4531C11.9998 13.5401 12.035 13.6236 12.0975 13.6851C12.16 13.7467 12.2448 13.7812 12.3332 13.7812H18.9998C19.0882 13.7812 19.173 13.7467 19.2355 13.6851C19.2981 13.6236 19.3332 13.5401 19.3332 13.4531C19.3332 13.3661 19.2981 13.2826 19.2355 13.2211C19.173 13.1596 19.0882 13.125 18.9998 13.125ZM18.9998 15.0938H12.3332C12.2448 15.0938 12.16 15.1283 12.0975 15.1899C12.035 15.2514 11.9998 15.3349 11.9998 15.4219C11.9998 15.5089 12.035 15.5924 12.0975 15.6539C12.16 15.7154 12.2448 15.75 12.3332 15.75H18.9998C19.0882 15.75 19.173 15.7154 19.2355 15.6539C19.2981 15.5924 19.3332 15.5089 19.3332 15.4219C19.3332 15.3349 19.2981 15.2514 19.2355 15.1899C19.173 15.1283 19.0882 15.0938 18.9998 15.0938ZM2.99984 15.75H9.6665C9.75491 15.75 9.83969 15.7154 9.90221 15.6539C9.96472 15.5924 9.99984 15.5089 9.99984 15.4219C9.99984 15.3349 9.96472 15.2514 9.90221 15.1899C9.83969 15.1283 9.75491 15.0938 9.6665 15.0938H2.99984C2.91143 15.0938 2.82665 15.1283 2.76414 15.1899C2.70162 15.2514 2.6665 15.3349 2.6665 15.4219C2.6665 15.5089 2.70162 15.5924 2.76414 15.6539C2.82665 15.7154 2.91143 15.75 2.99984 15.75ZM18.9998 17.0625H12.3332C12.2448 17.0625 12.16 17.0971 12.0975 17.1586C12.035 17.2201 11.9998 17.3036 11.9998 17.3906C11.9998 17.4776 12.035 17.5611 12.0975 17.6226C12.16 17.6842 12.2448 17.7188 12.3332 17.7188H18.9998C19.0882 17.7188 19.173 17.6842 19.2355 17.6226C19.2981 17.5611 19.3332 17.4776 19.3332 17.3906C19.3332 17.3036 19.2981 17.2201 19.2355 17.1586C19.173 17.0971 19.0882 17.0625 18.9998 17.0625ZM2.99984 17.7188H9.6665C9.75491 17.7188 9.83969 17.6842 9.90221 17.6226C9.96472 17.5611 9.99984 17.4776 9.99984 17.3906C9.99984 17.3036 9.96472 17.2201 9.90221 17.1586C9.83969 17.0971 9.75491 17.0625 9.6665 17.0625H2.99984C2.91143 17.0625 2.82665 17.0971 2.76414 17.1586C2.70162 17.2201 2.6665 17.3036 2.6665 17.3906C2.6665 17.4776 2.70162 17.5611 2.76414 17.6226C2.82665 17.6842 2.91143 17.7188 2.99984 17.7188Z" fill="#646464"/>
<path d="M3.33316 20.9656H24.6798C24.6845 20.9656 24.6885 20.963 24.6932 20.963C25.5626 20.9555 26.394 20.6107 27.0067 20.0033C27.6194 19.3959 27.9638 18.5751 27.9652 17.7191V0.3285C27.9652 0.2507 27.9338 0.176087 27.8779 0.121075C27.822 0.066062 27.7462 0.0351563 27.6672 0.0351562C27.5881 0.0351563 27.5123 0.066062 27.4564 0.121075C27.4006 0.176087 27.3692 0.2507 27.3692 0.3285V17.7191C27.3692 19.1858 26.1572 20.3789 24.6672 20.3789C23.1772 20.3789 21.9645 19.1858 21.9645 17.7191V0.3285C21.9645 0.166406 21.8312 0.0351562 21.6665 0.0351562H0.333156C0.16849 0.0351563 0.0351562 0.166406 0.0351562 0.3285V17.7191C0.0360387 18.5799 0.383789 19.4051 1.00209 20.0138C1.6204 20.6224 2.45874 20.9647 3.33316 20.9656ZM0.631156 0.621844H21.3678V17.7191C21.3678 17.9199 21.3925 18.1148 21.4278 18.3065C21.4352 18.3445 21.4412 18.3826 21.4498 18.42C21.4912 18.6024 21.5458 18.779 21.6172 18.9489C21.6298 18.9798 21.6452 19.0087 21.6592 19.0388C21.7312 19.1977 21.8145 19.3506 21.9112 19.4949C21.9225 19.5113 21.9312 19.5291 21.9425 19.5455C22.0478 19.6964 22.1678 19.8362 22.2965 19.9674C22.3245 19.9957 22.3518 20.0232 22.3812 20.0508C22.5052 20.1689 22.6358 20.2811 22.7772 20.3789H3.33316C2.61681 20.378 1.93006 20.0975 1.42353 19.5989C0.916996 19.1003 0.632038 18.4243 0.631156 17.7191V0.621844Z" fill="#646464"/>
</g>
<defs>
<clipPath id="clip0_264_7529">
<rect width="28" height="21" fill="white"/>
</clipPath>
</defs>
</svg>
