<svg width="40" height="40" viewBox="0 0 40 40" fill="none" xmlns="http://www.w3.org/2000/svg">
<path d="M31.0625 1.39844C31.6875 1.875 31.586 2.55469 31.5625 3.21094H13.7344C13.612 3.21614 13.4893 3.21353 13.3672 3.20312C13.125 3.17969 12.961 3.03906 12.9375 2.79688C12.8828 2.28125 12.8906 1.77344 13.4297 1.46875C13.5078 1.46094 13.6016 1.48438 13.6563 1.39844H31.0625Z" fill="#D0D8DA"/>
<path d="M24.5313 38.6016C24.375 38.2734 24.3828 37.9141 24.3828 37.5547C24.3906 36.75 24.3828 35.9453 24.3828 35.1406H26.7109C26.7109 35.9141 26.7031 36.6875 26.7109 37.4609C26.7188 37.8672 26.7031 38.2578 26.4922 38.6094L24.5313 38.6016Z" fill="#D0D8DA"/>
<path d="M17.8594 35.1328C17.8594 35.9609 17.8515 36.7969 17.8672 37.625C17.875 37.9766 17.8515 38.3047 17.6406 38.6016H15.7578C15.5 38.2344 15.539 37.8203 15.539 37.3984V35.1406L17.8594 35.1328Z" fill="#D0D8DA"/>
<path d="M13.4297 1.46875C12.8906 1.77344 12.8828 2.28125 12.9375 2.79688C12.9609 3.03906 13.125 3.17969 13.3672 3.20312C13.4893 3.21353 13.6119 3.21614 13.7344 3.21094H31.5625V4.36719H13.6875C13.0312 4.36719 12.9297 4.46875 12.9297 5.11719V26.7969C12.9297 27.4922 13.0234 27.5781 13.7266 27.5781H31.5625V28.7266H13.4687C13.1016 28.7344 12.9687 28.8906 12.9219 29.25C12.8924 29.464 12.9115 29.6819 12.9777 29.8874C13.044 30.093 13.1558 30.281 13.3047 30.4375L12.8906 30.4688H11.5156C10.9922 30.4609 10.6797 30.1562 10.6797 29.6328V2.41406C10.6797 1.73438 10.9453 1.46875 11.6172 1.46875H13.4297Z" fill="#959A9B"/>
<path d="M12.8906 30.4844L13.3047 30.4531C13.3984 30.4609 13.4922 30.4766 13.5859 30.4766H29.3359C29.2891 31.0781 29.1172 31.6563 29 32.2422C28.9297 32.5859 28.625 32.7891 28.2578 32.8047H14.625C13.375 32.8125 13.3516 32.7891 13.0859 31.5703C13.0156 31.2188 12.9531 30.8516 12.8906 30.4844Z" fill="#504F4F"/>
<path d="M10.6797 20.0391V24.6797H9.05469C8.57813 24.6719 8.35938 24.4688 8.35938 24V20.7109C8.35938 20.2422 8.57031 20.0391 9.05469 20.0391C9.53906 20.0391 10.1406 20.0391 10.6797 20.0391Z" fill="#504F4F"/>
<path d="M14.625 32.8125H18.8047C18.7969 33.3359 18.7969 33.8516 18.7969 34.3672C18.7969 34.8828 18.6797 35.1172 18.0391 35.125L17.8594 35.1406H15.5391L15.2891 35.125C14.8047 35.1172 14.6484 34.9688 14.6484 34.4688L14.625 32.8125Z" fill="#EB6409"/>
<path d="M31.5625 27.5859H13.7266C13.0234 27.5859 12.9297 27.5 12.9297 26.8047V5.11719C12.9297 4.46875 13.0312 4.36719 13.6875 4.36719H31.5625C31.5625 8.99219 31.5651 13.6172 31.5703 18.2422C31.5703 21.3516 31.5625 24.4688 31.5625 27.5859ZM21.1328 6.10937C20.6743 6.10731 20.2199 6.19597 19.7958 6.37025C19.3717 6.54453 18.9862 6.80099 18.6616 7.12485C18.337 7.44871 18.0797 7.83359 17.9045 8.25731C17.7293 8.68103 17.6396 9.13523 17.6406 9.59375C17.6406 11.5156 19.1953 13.0391 21.1094 13.0859C22.7813 13.125 24.6172 11.6406 24.6094 9.58594C24.6016 7.53125 22.7891 6.03125 21.1328 6.10937ZM22.8672 21.8047V19.5234C22.8594 18.5 22.1172 17.7188 21.1406 17.7188C20.1641 17.7188 19.3828 18.4844 19.3828 19.5234V24.0156C19.3828 25.0547 20.1328 25.8359 21.125 25.8359C22.1172 25.8359 22.8672 25.0547 22.8672 24.0078V21.8047Z" fill="#D0D8DA"/>
<path d="M29.3359 30.4766H13.5859C13.4922 30.4766 13.3984 30.4609 13.3047 30.4531C13.1558 30.2967 13.044 30.1087 12.9777 29.9031C12.9114 29.6975 12.8924 29.4796 12.9219 29.2656C12.9687 28.9063 13.1016 28.75 13.4687 28.7422H31.5625C31.5625 29.0547 31.5703 29.3672 31.5703 29.6797C31.5625 30.1719 31.2422 30.4844 30.75 30.4844L29.3359 30.4766Z" fill="#D0D8DA"/>
<path d="M23.4375 32.8125H27.6094C27.6016 33.3438 27.6016 33.8672 27.5938 34.3984C27.5859 34.9297 27.4844 35.1172 26.8906 35.125H24.0234C23.6406 35.1094 23.4453 34.9219 23.4453 34.5391C23.4375 33.9688 23.4375 33.3906 23.4375 32.8125Z" fill="#016BB1"/>
<path d="M21.1328 6.10936C22.7891 6.03124 24.6094 7.53124 24.6094 9.58592C24.6094 11.6406 22.7813 13.125 21.1094 13.0859C19.1953 13.039 17.6406 11.5156 17.6406 9.59374C17.6396 9.13521 17.7293 8.68101 17.9045 8.25729C18.0797 7.83357 18.3371 7.4487 18.6616 7.12484C18.9862 6.80097 19.3717 6.54452 19.7958 6.37024C20.2199 6.19596 20.6743 6.1073 21.1328 6.10936ZM21.1484 9.02342C20.8984 9.05467 20.7109 9.15624 20.6094 9.39842C20.5078 9.64061 20.5859 9.82811 20.7578 9.98436C21.0781 10.2734 21.4609 10.4844 21.8438 10.6875C22.2266 10.8906 22.375 10.6953 22.5234 10.4531C22.6719 10.2109 22.6328 9.92186 22.3906 9.74217C22.1484 9.56249 21.7188 9.31249 21.3828 9.10155C21.3076 9.06738 21.2291 9.04119 21.1484 9.02342Z" fill="#016BB1"/>
<path d="M22.8672 21.8047V24.0079C22.8672 25.0547 22.1172 25.836 21.125 25.836C20.1328 25.836 19.3828 25.0547 19.3828 24.0157V19.5235C19.3828 18.4844 20.1406 17.711 21.1406 17.7188C22.1406 17.7266 22.8594 18.5001 22.8672 19.5235V21.8047ZM21.6953 20.5235C21.6963 20.3722 21.6373 20.2268 21.531 20.1191C21.4248 20.0114 21.2802 19.9503 21.1289 19.9493C20.9777 19.9482 20.8322 20.0073 20.7245 20.1136C20.6168 20.2198 20.5557 20.3644 20.5547 20.5157C20.5469 20.7969 20.8437 21.1094 21.1172 21.1094C21.3906 21.1094 21.6953 20.8126 21.6953 20.5235ZM21.6953 23.0469C21.7031 22.7579 21.4141 22.4532 21.1328 22.4454C20.8516 22.4376 20.5547 22.7422 20.5547 23.0313C20.5526 23.1826 20.6107 23.3284 20.7162 23.4369C20.8217 23.5453 20.9659 23.6074 21.1172 23.6094C21.2684 23.6115 21.4143 23.5534 21.5227 23.4479C21.6312 23.3424 21.6932 23.1982 21.6953 23.0469Z" fill="#EB6409"/>
<path d="M21.1484 9.02344C21.2291 9.0412 21.3076 9.06739 21.3828 9.10156C21.7187 9.3125 22.0625 9.51562 22.3906 9.74219C22.7187 9.96875 22.6875 10.1875 22.5234 10.4531C22.3594 10.7188 22.125 10.8438 21.8437 10.6875C21.5625 10.5313 21.0781 10.2734 20.7578 9.98438C20.5859 9.82813 20.5078 9.64063 20.6094 9.39844C20.7109 9.15625 20.8984 9.05469 21.1484 9.02344Z" fill="#E7E6E6"/>
<path d="M21.6953 20.5235C21.6953 20.8125 21.3984 21.1094 21.1172 21.1094C20.8359 21.1094 20.5468 20.7969 20.5547 20.5156C20.5557 20.3644 20.6168 20.2197 20.7245 20.1135C20.8321 20.0073 20.9776 19.9482 21.1289 19.9492C21.2801 19.9503 21.4248 20.0113 21.531 20.119C21.6372 20.2267 21.6963 20.3722 21.6953 20.5235Z" fill="#E7E6E6"/>
<path d="M21.6953 23.0468C21.6932 23.198 21.6312 23.3423 21.5227 23.4478C21.4143 23.5533 21.2684 23.6114 21.1172 23.6093C20.9659 23.6072 20.8217 23.5451 20.7162 23.4367C20.6107 23.3283 20.5526 23.1824 20.5547 23.0312C20.5547 22.7421 20.8594 22.4374 21.1328 22.4452C21.4062 22.453 21.7031 22.7577 21.6953 23.0468Z" fill="#E7E6E6"/>
</svg>
