<svg width="40" height="40" viewBox="0 0 40 40" fill="none" xmlns="http://www.w3.org/2000/svg">
<path d="M20.1172 17.5391C21.5234 17.5391 22.9297 17.5313 24.3359 17.5469C24.5625 17.5469 24.6641 17.5156 24.6641 17.2422C24.6484 16.0156 24.6484 14.7891 24.6484 13.5625H28.9219L28.7344 13.6484C28.25 13.8828 27.9766 14.4063 28.0859 14.9063C28.1378 15.1605 28.2748 15.3895 28.4744 15.5554C28.6739 15.7213 28.9241 15.8142 29.1836 15.8188C29.443 15.8233 29.6963 15.7393 29.9015 15.5805C30.1068 15.4217 30.2518 15.1976 30.3125 14.9453C30.4531 14.3672 30.1562 13.8672 29.4844 13.5625H33.7578V17.5312C33.7578 17.9531 33.7266 18.3828 33.7578 18.8047C33.7891 19.2266 33.6797 19.2422 33.3281 19.2422C30.5 19.2266 27.6719 19.2344 24.8438 19.2344C24.0781 19.2344 24.0938 19.2344 24.0781 19.9922C24.0703 20.2969 24.1484 20.3906 24.4688 20.3906C27.3047 20.375 30.1484 20.3828 32.9922 20.3828C33.75 20.3828 33.7344 20.3828 33.75 21.1406C33.7578 21.4375 33.6719 21.5156 33.375 21.5156C30.5234 21.5 27.6719 21.5078 24.8203 21.5078C24.0781 21.5078 24.1016 21.5078 24.0781 22.25C24.0625 22.5859 24.1719 22.6641 24.4922 22.6641C27.3438 22.6484 30.1953 22.6562 33.0469 22.6562C33.75 22.6562 33.7266 22.6562 33.7578 23.3672C33.7734 23.7266 33.6484 23.7891 33.3203 23.7891C30.4922 23.7734 27.6562 23.7812 24.8281 23.7812C24.0781 23.7812 24.1016 23.7812 24.0703 24.5156C24.0625 24.875 24.1875 24.9375 24.5156 24.9375C27.3437 24.9219 30.1719 24.9297 33 24.9297C33.75 24.9297 33.7344 24.9297 33.7578 25.6641C33.7656 25.9766 33.6797 26.0625 33.3672 26.0625C30.5234 26.0469 27.6797 26.0547 24.8438 26.0547C24.0781 26.0547 24.0938 26.0547 24.0781 26.8125C24.0703 27.125 24.1562 27.2109 24.4688 27.2109C27.0859 27.1953 29.7031 27.2031 32.3203 27.2031C32.7109 27.2031 33.1016 27.2109 33.4922 27.1953C33.6953 27.1875 33.7578 27.2656 33.75 27.4688C33.7422 27.6719 33.75 28.1016 33.75 28.4219C33.75 28.9141 33.75 28.9141 34.2578 28.8906C35.1172 28.8906 35.9844 28.9062 36.8438 28.8906C37.0859 28.8906 37.1719 28.9453 37.1641 29.2031C37.1484 30.1458 37.1484 31.0911 37.1641 32.0391C37.1641 32.2578 37.1016 32.3203 36.8828 32.3125C36.1641 32.3047 35.4453 32.3047 34.7188 32.3125C34.6016 32.3125 34.4609 32.25 34.3672 32.3906C34.2656 32.2969 34.1484 32.3125 34.0312 32.3125H16.0234L15.5625 32.2969C15.5625 31.5625 15.5703 30.8281 15.5625 30.0938C15.5547 29.3594 15.0859 28.9062 14.4297 28.9062C13.7734 28.9062 13.2969 29.3984 13.2891 30.0938V32.2969H11.0234C11.0156 31.5547 11.0234 30.8047 11.0156 30.0625C11.0078 29.3203 10.5234 28.9062 9.88281 28.9062C9.24219 28.9062 8.75 29.3906 8.75 30.0625C8.75 30.7344 8.75 31.5547 8.75 32.2969L6.25781 32.3125C6.11719 32.3125 5.97656 32.2812 5.85938 32.3906C5.76562 32.25 5.61719 32.3125 5.5 32.3125C4.77344 32.3047 4.05469 32.2969 3.33594 32.3125C3.10938 32.3203 3.05469 32.2422 3.05469 32.0312C3.07031 31.0703 3.07031 30.1172 3.0625 29.1562C3.05469 28.9531 3.11719 28.8906 3.32031 28.8984C3.875 28.9062 4.42969 28.8828 4.98438 28.9062C5.27344 28.9219 5.33594 28.8281 5.33594 28.5547C5.33073 24.9453 5.32812 21.3333 5.32812 17.7188C5.32683 17.6613 5.32944 17.6039 5.33594 17.5469V12.9766C5.32813 12.6953 5.34375 12.4062 5.32031 12.125C5.29688 11.8437 5.40625 11.8359 5.625 11.8359H11.0156V17.5234C10.3906 17.5234 9.76562 17.5391 9.14062 17.5234C8.84375 17.5078 8.73438 17.5703 8.74219 17.8984C8.75781 20.3047 8.75781 22.7057 8.74219 25.1016C8.73438 25.4297 8.83594 25.4844 9.13281 25.4844C12.0339 25.474 14.9323 25.474 17.8281 25.4844C17.8372 25.5543 17.8424 25.6248 17.8437 25.6953C17.8437 27.0312 17.8438 28.3672 17.8281 29.7031C17.8281 29.9688 17.9062 30.0469 18.1719 30.0312C18.7031 30.0156 19.2344 30.0156 19.7656 30.0391C20.0547 30.0469 20.1172 29.9531 20.1172 29.6797C20.1094 28.2812 20.1172 26.8906 20.125 25.4922H22.1094C22.3203 25.4922 22.3984 25.4297 22.3906 25.2109C22.3802 23.8724 22.3802 22.5365 22.3906 21.2031C22.3984 20.9844 22.3203 20.9219 22.1094 20.9297C21.4453 20.9375 20.7812 20.9297 20.125 20.9219L20.1172 17.5391Z" fill="#016BB1"/>
<path d="M34.2578 28.8906C33.75 28.9141 33.75 28.9141 33.75 28.4219C33.75 28.1016 33.7344 27.7812 33.75 27.4688C33.7656 27.1562 33.6953 27.1875 33.4922 27.1953C33.1015 27.2109 32.7109 27.2031 32.3203 27.2031C29.7031 27.2031 27.0859 27.1953 24.4687 27.2109C24.1562 27.2109 24.0703 27.125 24.0781 26.8125C24.0937 26.0547 24.0781 26.0547 24.8437 26.0547C27.6797 26.0547 30.5234 26.0469 33.3672 26.0625C33.6797 26.0625 33.7656 25.9766 33.7578 25.6641C33.7344 24.9297 33.75 24.9297 33 24.9297C30.1719 24.9297 27.3437 24.9219 24.5156 24.9375C24.1875 24.9375 24.0625 24.875 24.0703 24.5156C24.1015 23.7812 24.0781 23.7812 24.8281 23.7812C27.6562 23.7812 30.4922 23.7734 33.3203 23.7891C33.6484 23.7891 33.7734 23.7266 33.7578 23.3672C33.7265 22.6563 33.75 22.6562 33.0469 22.6562C30.1953 22.6562 27.3437 22.6484 24.4922 22.6641C24.1719 22.6641 24.0625 22.5859 24.0781 22.25C24.1015 21.5078 24.0781 21.5078 24.8203 21.5078C27.6719 21.5078 30.5234 21.5 33.375 21.5156C33.6719 21.5156 33.7578 21.4375 33.75 21.1406C33.7344 20.3828 33.75 20.3828 32.9922 20.3828C30.1484 20.3828 27.3047 20.375 24.4687 20.3906C24.1484 20.3906 24.0703 20.2969 24.0781 19.9922C24.0937 19.2344 24.0781 19.2344 24.8437 19.2344C27.6719 19.2344 30.5 19.2266 33.3281 19.2422C33.6797 19.2422 33.7734 19.1406 33.7578 18.8047C33.7422 18.4688 33.7578 17.9531 33.7578 17.5312C35.7031 17.5781 37.1562 19.0625 37.1562 21.0156C37.164 22.4609 37.1328 23.9062 37.164 25.3516C37.2109 27.0547 35.9844 28.5859 34.3125 28.8516C34.289 28.8516 34.2734 28.875 34.2578 28.8906Z" fill="#76CBEE"/>
<path d="M11.0156 17.5312V11.8438C11.0234 11.4219 11.0312 11 11.0312 10.5781C11.0907 10.5781 11.1495 10.5648 11.2031 10.5391C12.3672 9.75 13.1797 8.69531 13.5078 7.30469L15.5078 7.32813C15.2656 7.99219 14.8984 8.60156 14.5938 9.24219C14.483 9.46018 14.4242 9.70082 14.4219 9.94531C14.4375 10.4766 14.4297 11.0078 14.4297 11.5391C14.4297 11.6719 14.4141 11.8047 14.5078 11.9141C14.375 11.9922 14.4219 12.125 14.4219 12.2344V17.2344C14.4219 17.3672 14.4141 17.4922 14.4922 17.6094C14.375 17.7109 14.4297 17.8516 14.4297 17.9766C14.4219 18.6562 14.4141 19.3437 14.4297 20.0312C14.4375 20.2891 14.375 20.3828 14.1016 20.375C13.1797 20.3594 12.2578 20.3672 11.3359 20.375C11.0781 20.3828 11.0156 20.2891 11.0156 20.0547C11.0312 19.2109 11.0156 18.375 11.0156 17.5312Z" fill="#A9B1BD"/>
<path d="M20.125 25.5001C20.1172 26.8986 20.1094 28.2892 20.1172 29.6876C20.1172 29.9611 20.0547 30.0548 19.7656 30.047C19.2344 30.0236 18.7031 30.0236 18.1719 30.0392C17.9062 30.0548 17.8281 29.9767 17.8281 29.7111C17.8437 28.3751 17.8437 27.0392 17.8437 25.7033C17.8424 25.6327 17.8372 25.5623 17.8281 25.4923C17.8281 23.9611 17.8281 22.4376 17.8203 20.9142C17.8281 20.7892 17.8437 20.6564 17.8437 20.5314C17.8437 19.2579 17.8516 17.9845 17.8359 16.7189C17.8359 16.4767 17.8906 16.3829 18.1484 16.3986C18.4062 16.4142 18.6875 16.3908 18.9609 16.3908C19.2344 16.3908 19.5547 16.4064 19.8437 16.3908C20.1328 16.3751 20.125 16.4455 20.1172 16.6564C20.1094 16.8673 20.1172 17.2423 20.1172 17.5392C20.1172 18.672 20.125 19.8048 20.125 20.9298V25.5001Z" fill="#EB6409"/>
<path d="M28.9219 13.5705H23.5078C23.8125 13.172 24.0703 12.8127 24.3359 12.4611C24.6016 12.1095 24.8516 11.547 25.2422 11.3517C25.6328 11.1564 26.1875 11.2892 26.6719 11.2892C28.7266 11.2892 30.7812 11.297 32.8359 11.2814C33.0859 11.2814 33.25 11.3439 33.3906 11.5548C33.8672 12.2111 34.3594 12.8595 34.8984 13.5705H28.9219Z" fill="#696F7A"/>
<path d="M18.9609 16.3906C18.6875 16.3906 18.414 16.4219 18.1484 16.3984C17.8828 16.375 17.8359 16.4766 17.8359 16.7188C17.8515 17.9844 17.8437 19.2578 17.8437 20.5312C17.8437 20.6562 17.8281 20.7891 17.8203 20.9141L14.4922 17.6094C14.414 17.4922 14.4218 17.3672 14.4218 17.2344V12.2344C14.4218 12.125 14.375 11.9922 14.5078 11.9141L18.9609 16.3906Z" fill="#016BB1"/>
<path d="M15.5078 7.32812L13.5078 7.30469L9.8906 7.28906C9.8906 6.63281 9.89842 5.96875 9.88279 5.30469C9.87498 5.07812 9.9531 5.03125 10.164 5.03125C11.8672 5.03646 13.5703 5.03385 15.2734 5.02344C15.5078 5.02344 15.5859 5.08594 15.5703 5.32031C15.5234 5.99219 15.6328 6.66406 15.5078 7.32812Z" fill="#768291"/>
<path d="M5.33594 12.9766V17.5469C4.65625 17.5391 3.98438 17.5312 3.3125 17.5391C3.10938 17.5391 3.05469 17.4844 3.05469 17.2812C3.07031 15.9375 3.07031 14.5859 3.05469 13.2344C3.05469 13.0391 3.10938 12.9766 3.3125 12.9844C3.98438 12.9922 4.65625 12.9766 5.33594 12.9766Z" fill="#696F7A"/>
<path d="M5.85938 32.3906C5.97656 32.2813 6.11719 32.3125 6.25781 32.3125L8.75 32.2969C9.30469 32.3438 9.85938 32.2578 10.4141 32.3516C9.375 33.0391 8.32813 33.7266 7.28906 34.4297C7.13728 34.5395 6.95275 34.5946 6.76562 34.5859H4.76562L5.85938 32.3906Z" fill="#696F7A"/>
<path d="M29.8203 32.3125H34.0312C34.1484 32.3125 34.2656 32.2969 34.3672 32.3906L35.4609 34.5859H33.2656C33.2076 34.5863 33.1507 34.57 33.1016 34.5391C32.0078 33.7891 30.8828 33.0938 29.8203 32.3125Z" fill="#696F7A"/>
<path d="M10.4141 32.3516C9.85937 32.2578 9.30468 32.3437 8.74999 32.2969C8.74999 31.5547 8.74218 30.8047 8.74999 30.0625C8.75781 29.3203 9.23437 28.9062 9.88281 28.9062C10.5312 28.9062 11.0078 29.3906 11.0156 30.0625C11.0234 30.7344 11.0156 31.5547 11.0234 32.2969C10.8203 32.3359 10.6094 32.2734 10.4141 32.3516Z" fill="#EB6409"/>
<path d="M13.2891 32.2969V30.0938C13.2969 29.3984 13.7656 28.9062 14.4297 28.9062C15.0937 28.9062 15.5625 29.3984 15.5625 30.0938C15.5625 30.7891 15.5625 31.5625 15.5625 32.2969H13.2891Z" fill="#EB6409"/>
<path d="M9.89062 7.28906L13.5078 7.30469C13.1797 8.69531 12.3672 9.75 11.2031 10.5391C11.1495 10.5648 11.0907 10.5781 11.0312 10.5781C11.1719 9.64844 10.6484 8.92969 10.2813 8.15625C10.1484 7.875 9.94531 7.61719 9.89062 7.28906Z" fill="#D0D8DA"/>
<path d="M14.4922 17.6094L17.8203 20.9141C17.8281 22.4375 17.8281 23.9609 17.8281 25.4922C14.9323 25.4818 12.0338 25.4818 9.1328 25.4922C8.83592 25.4922 8.73436 25.4375 8.74217 25.1094C8.7578 22.7135 8.7578 20.3125 8.74217 17.9062C8.73436 17.5781 8.84374 17.5156 9.14061 17.5312C9.76561 17.5469 10.3906 17.5312 11.0156 17.5312C11.0156 18.375 11.0312 19.2109 11.0156 20.0547C11.0156 20.2891 11.0781 20.3828 11.3359 20.375C12.2578 20.3672 13.1797 20.3594 14.1016 20.375C14.375 20.3828 14.4375 20.289 14.4297 20.0312C14.414 19.3437 14.4219 18.6562 14.4297 17.9765C14.4297 17.8515 14.375 17.7109 14.4922 17.6094Z" fill="#76CBEE"/>
<path d="M20.125 25.5V20.9297C20.7812 20.9375 21.4453 20.9453 22.1094 20.9375C22.3203 20.9297 22.3984 20.9922 22.3906 21.2109C22.3802 22.5495 22.3802 23.8854 22.3906 25.2187C22.3984 25.4375 22.3203 25.5 22.1094 25.5H20.125Z" fill="#76CBEE"/>
<path d="M28.9219 13.5703H29.4844C30.1562 13.875 30.4531 14.375 30.3125 14.9531C30.2517 15.2054 30.1068 15.4295 29.9015 15.5883C29.6963 15.7471 29.443 15.8311 29.1835 15.8266C28.9241 15.822 28.6739 15.7291 28.4743 15.5632C28.2748 15.3973 28.1378 15.1683 28.0859 14.9141C27.9765 14.4141 28.25 13.8906 28.7344 13.6563L28.9219 13.5703Z" fill="#EB6409"/>
</svg>
