<svg width="40" height="40" viewBox="0 0 40 40" fill="none" xmlns="http://www.w3.org/2000/svg">
<path d="M29.4766 18.3751C31.1719 18.3829 32.8594 18.3985 34.5469 18.3829C35.1719 18.3829 35.6641 17.8594 35.7109 17.2188C35.7188 17.1016 35.7109 16.9844 35.7109 16.8673C35.7109 12.1173 35.7188 7.36726 35.7031 2.62507C35.7031 2.30476 35.7813 2.20319 36.1094 2.21882C36.8047 2.24226 37.5 2.21882 38.1953 2.21882V17.8204C38.0781 17.8907 38.0938 18.0235 38.0703 18.1251C37.6406 19.711 36.25 20.836 34.6094 20.8673C32.9688 20.8985 31.1953 20.8829 29.4844 20.8907C29.4844 20.0548 29.4844 19.211 29.4766 18.3751Z" fill="#EB6409"/>
<path d="M29.4766 18.375C29.4844 19.2109 29.4844 20.0547 29.4844 20.8906C29.4844 22.5729 29.487 24.2526 29.4922 25.9297C29.5 26.2266 29.3828 26.5234 29.4688 26.8203C29.3125 26.9844 29.3359 27.2109 29.2891 27.4141C28.9219 28.8359 28.1094 29.9531 26.9844 30.8672C25.6641 31.8047 24.1875 32.1719 22.5859 32.0781C22.4062 32.0703 22.2109 32.0859 22.0234 32.0859H18.2656C17.4766 32.0547 16.6875 32.125 15.9062 31.9844C14.9609 31.8047 14.1094 31.3984 13.3125 30.8672L13.1328 30.6953C12.2495 29.9956 11.5809 29.0616 11.2031 28C11.0469 27.5703 10.9453 27.125 10.8203 26.6875C10.8203 24.8802 10.8177 23.0755 10.8125 21.2734C10.8125 19.9062 10.8047 18.5312 10.8047 17.1641C10.8125 15.5156 10.8125 13.8672 10.8203 12.2109L11.1406 12.1953H29.4609C29.4688 12.3984 29.4844 12.6016 29.4922 12.7969C29.4844 14.6562 29.4844 16.5156 29.4766 18.375ZM20.1406 19.6562H25.3516C25.6641 19.6562 25.7812 19.6016 25.7812 19.25C25.7578 17.8516 25.7656 16.4453 25.7812 15.0391C25.7812 14.75 25.7031 14.6562 25.4063 14.6562C21.9063 14.6667 18.4089 14.6667 14.9141 14.6562C14.6016 14.6562 14.5391 14.7578 14.5469 15.0391C14.5625 16.4453 14.5625 17.8516 14.5391 19.2578C14.5391 19.6016 14.6562 19.6641 14.9609 19.6562H20.1406Z" fill="#EB6409"/>
<path d="M15.4141 2.89844H14.6719C14.5338 2.89844 14.4219 3.01037 14.4219 3.14844V4.79063C14.4219 4.9287 14.5338 5.04062 14.6719 5.04062H15.4141C15.5521 5.04062 15.6641 4.9287 15.6641 4.79063V3.14844C15.6641 3.01037 15.5521 2.89844 15.4141 2.89844Z" fill="#504F4F"/>
<path d="M25.5 2.89844H24.7578C24.6197 2.89844 24.5078 3.01037 24.5078 3.14844V4.70391C24.5078 4.84198 24.6197 4.95391 24.7578 4.95391H25.5C25.6381 4.95391 25.75 4.84198 25.75 4.70391V3.14844C25.75 3.01037 25.6381 2.89844 25.5 2.89844Z" fill="#504F4F"/>
<path d="M29.4609 12.1955H11.1406L10.8203 12.2111C10.8047 12.1955 10.8047 12.1799 10.7969 12.1642C10.8047 10.4611 10.8047 8.76579 10.8125 7.07048C10.8125 5.9611 11.8125 4.84391 12.8672 4.7736H17.2578C17.3828 4.7736 17.5156 4.82048 17.625 4.7111C17.6337 4.70745 17.643 4.70557 17.6523 4.70557C17.6617 4.70557 17.671 4.70745 17.6797 4.7111H22.7344C22.8203 4.79704 22.9297 4.76579 23.0391 4.76579C24.5 4.7736 25.9609 4.76579 27.4219 4.76579C28.4297 4.84391 29.4453 5.89079 29.4688 6.91423C29.4922 7.62516 29.4844 8.34391 29.4922 9.06266C29.4766 10.1095 29.4688 11.1564 29.4609 12.1955ZM12.6641 8.3361V8.72673C12.6641 9.70329 12.6641 9.69548 13.6328 9.67985C13.8594 9.67985 13.9453 9.61735 13.9375 9.38298C13.9219 8.98454 13.9453 8.57829 13.9297 8.17985C13.9141 7.90641 13.9844 7.81266 14.2734 7.81266C15.2031 7.82829 15.2031 7.81266 15.1562 6.86735C15.1484 6.66423 15.0859 6.59391 14.8906 6.60173H13.3984C12.9219 6.60954 12.6875 6.82829 12.6719 7.31266C12.6562 7.65641 12.6641 8.00016 12.6641 8.3361ZM20.1641 9.67985C20.3271 9.68201 20.4888 9.65124 20.6396 9.58937C20.7904 9.52751 20.9272 9.43584 21.0418 9.31985C21.1563 9.20385 21.2462 9.06593 21.3062 8.91434C21.3661 8.76275 21.3948 8.60062 21.3906 8.43766C21.3881 8.27454 21.3534 8.11351 21.2886 7.96379C21.2238 7.81406 21.1301 7.67856 21.013 7.56502C20.8958 7.45149 20.7574 7.36215 20.6058 7.30209C20.4541 7.24203 20.292 7.21244 20.1289 7.21501C19.9658 7.21757 19.8048 7.25224 19.655 7.31704C19.5053 7.38183 19.3698 7.47548 19.2563 7.59265C19.1427 7.70981 19.0534 7.84818 18.9933 7.99987C18.9333 8.15157 18.9037 8.3136 18.9062 8.47673C18.9141 9.15641 19.4688 9.67985 20.1641 9.67985Z" fill="#1A87C9"/>
<path d="M10.8203 26.6875C10.9453 27.125 11.0469 27.5703 11.2032 28C11.5809 29.0616 12.2496 29.9956 13.1328 30.6953L13.3125 30.8672C13.3047 32.4375 13.3047 34.0078 13.2969 35.5781C13.2969 35.7812 13.3516 35.8438 13.5547 35.8359C14.1953 35.8281 14.836 35.8438 15.4688 35.8281C15.6875 35.8281 15.7891 35.8672 15.7813 36.1172C15.7578 36.75 15.7578 37.3906 15.7813 38.0312C15.7813 38.2578 15.6953 38.2969 15.4922 38.2969H8.6094C8.39065 38.2969 8.32815 38.2344 8.33596 38.0234C8.35159 37.3672 8.35159 36.7188 8.33596 36.0703C8.33596 35.8828 8.39065 35.8281 8.57815 35.8281C9.21878 35.8438 9.85159 35.8203 10.4922 35.8437C10.7657 35.8516 10.8203 35.7578 10.8203 35.5078C10.8151 32.6953 10.8125 29.8828 10.8125 27.0703C10.8125 26.9453 10.8203 26.8125 10.8203 26.6875Z" fill="#504F4F"/>
<path d="M26.9844 30.8672C28.1094 29.9531 28.9219 28.8359 29.2891 27.4141C29.3359 27.2109 29.3125 26.9844 29.4688 26.8203C29.4766 28.2813 29.4766 29.7422 29.4844 31.2109C29.4922 32.6797 29.4922 34.0703 29.4766 35.5C29.4687 35.7891 29.5625 35.8516 29.8359 35.8438C30.4453 35.8203 31.0625 35.8438 31.6797 35.8281C31.8906 35.8281 31.9609 35.8906 31.9531 36.1094C31.9453 36.7422 31.9453 37.3828 31.9531 38.0234C31.9609 38.2422 31.8906 38.2969 31.6797 38.2969H24.7969C24.5937 38.2969 24.5078 38.2578 24.5156 38.0234C24.5312 37.3906 24.5312 36.75 24.5156 36.1172C24.5078 35.8594 24.6094 35.8281 24.8203 35.8281C25.4609 35.8438 26.0938 35.8281 26.7344 35.8359C26.9297 35.8438 27 35.7891 27 35.5781C26.9844 34.0078 26.9844 32.4375 26.9844 30.8672Z" fill="#504F4F"/>
<path d="M10.7969 12.1641C10.8047 12.1797 10.8047 12.1953 10.8203 12.2109C10.8125 13.8672 10.8125 15.5156 10.8047 17.1641C10.0703 17.1641 9.33594 17.1563 8.60937 17.1719C8.39844 17.1719 8.32031 17.125 8.32031 16.8984C8.33594 15.4141 8.33594 13.9297 8.32031 12.4375C8.32031 12.2188 8.39062 12.1641 8.60156 12.1641C9.33594 12.1719 10.0703 12.1641 10.7969 12.1641Z" fill="#504F4F"/>
<path d="M22.625 4.70313H17.6797C17.8672 3.95313 18.0547 3.19531 18.2344 2.44531C18.2734 2.26563 18.3594 2.22656 18.5234 2.22656C19.6068 2.23698 20.6927 2.23698 21.7812 2.22656C21.9844 2.21875 22.0391 2.30469 22.0781 2.47656C22.2578 3.21875 22.4453 3.96094 22.625 4.70313Z" fill="#EB6409"/>
<path d="M9.36719 5.51567L9.25781 5.64848C8.57812 6.4688 8.57812 6.4688 7.83594 5.72661C7.59375 5.48442 7.35938 5.08598 7.09375 5.05473C6.82813 5.02348 6.60938 5.4688 6.35938 5.70317C6.10938 5.93755 5.74219 6.05473 5.35938 5.75005C4.42969 5.00786 3.5 4.25786 2.5625 3.52348C2.35938 3.36723 2.35938 3.25786 2.53125 3.08598C2.6674 2.95646 2.78564 2.80933 2.88281 2.64848C3.04688 2.35161 3.19531 2.41411 3.42188 2.60161C4.125 3.18755 4.85938 3.75005 5.57031 4.33598C5.74219 4.47661 5.84375 4.48442 5.99219 4.31255C6.19638 4.0823 6.41284 3.86324 6.64063 3.6563C6.90625 3.41411 7.25 3.39848 7.50781 3.64848C8.10156 4.2188 8.67969 4.81255 9.26562 5.39848L9.36719 5.51567Z" fill="#EB6409"/>
<path d="M9.17965 8.60923C9.03121 8.90611 8.87496 9.23423 8.68746 9.55455C8.62496 9.67173 8.51559 9.54673 8.44528 9.51548C7.90621 9.24986 7.35934 8.98423 6.8359 8.70298C6.64059 8.59361 6.5234 8.62486 6.38278 8.78111C6.24215 8.93736 5.9609 9.19517 5.76559 9.40611C5.57028 9.61705 5.21871 9.74986 4.86715 9.60142C3.95309 9.22642 3.03121 8.86705 2.10934 8.50767C1.92965 8.43736 1.86715 8.36705 1.95309 8.17955C2.06883 7.94553 2.1655 7.70255 2.24215 7.45298C2.30465 7.26548 2.3984 7.26548 2.55465 7.3358C3.31246 7.64048 4.07028 7.93736 4.82028 8.24986C4.99996 8.32017 5.11715 8.32017 5.24996 8.16392C5.38278 8.00767 5.73434 7.67955 5.97653 7.43736C6.21871 7.19517 6.47653 7.14048 6.78121 7.28892L9.0234 8.41392C9.09371 8.44517 9.19528 8.4608 9.17965 8.60923Z" fill="#EB6409"/>
<path d="M18.2656 32.0859H22.0234C22.0234 32.8203 22.0156 33.5469 22.0234 34.2812C22.0312 34.5 21.9531 34.5625 21.7422 34.5625H18.5547C18.2969 34.5703 18.2656 34.4531 18.2656 34.2422C18.2734 33.5234 18.2656 32.8047 18.2656 32.0859Z" fill="#1A87C9"/>
<path d="M29.4609 12.1953C29.4688 11.1563 29.4766 10.1094 29.4922 9.0625C30.2187 9.07031 30.9453 9.07812 31.6797 9.07031C31.9062 9.0625 31.9766 9.13281 31.9766 9.36719C31.9661 10.4141 31.9661 11.4609 31.9766 12.5078C31.9766 12.7344 31.9141 12.8047 31.6797 12.8047C30.9531 12.7891 30.2187 12.7969 29.4922 12.7969C29.4844 12.6016 29.4688 12.3984 29.4609 12.1953Z" fill="#504F4F"/>
<path d="M20.1406 19.6562H14.9609C14.6562 19.6641 14.5391 19.6016 14.5391 19.2578C14.5625 17.8516 14.5625 16.4453 14.5469 15.0391C14.5391 14.7578 14.6016 14.6562 14.9141 14.6562C18.4036 14.6667 21.901 14.6667 25.4062 14.6562C25.7031 14.6562 25.7812 14.75 25.7812 15.0391C25.7656 16.4453 25.7578 17.8516 25.7812 19.25C25.7812 19.6016 25.6641 19.6562 25.3516 19.6562H20.1406ZM20.1484 17.7578H20.4687C21.4297 17.7578 21.4219 17.7578 21.3906 16.7969C21.3828 16.5937 21.3125 16.5391 21.1172 16.5391C20.6797 16.5547 20.2422 16.5469 19.8047 16.5469C18.8516 16.5469 18.8516 16.5469 18.9062 17.5156C18.9141 17.7031 18.9766 17.7578 19.1562 17.7578C19.4844 17.75 19.8203 17.75 20.1484 17.7578ZM16.4219 17.1484C16.4219 17.7891 16.4219 17.7891 17.0469 17.7891C17.6719 17.7891 17.6641 17.875 17.6719 17.1797C17.6797 16.4844 17.6719 16.5469 17.0391 16.5469C16.4062 16.5469 16.4219 16.5469 16.4219 17.1484ZM23.2344 17.7578C23.8672 17.7578 23.8672 17.7578 23.8672 17.125C23.8672 16.4922 23.8672 16.5469 23.2891 16.5469C22.7109 16.5469 22.6562 16.5469 22.6562 17.1719C22.6562 17.7969 22.6562 17.7578 23.2344 17.7578Z" fill="#1A87C9"/>
<path d="M12.6641 8.33578C12.6641 7.99985 12.6562 7.6561 12.6719 7.31235C12.6875 6.82797 12.9219 6.60922 13.3984 6.60141H14.8906C15.0859 6.5936 15.1484 6.66391 15.1562 6.86703C15.2031 7.81235 15.2031 7.82797 14.2734 7.81235C13.9844 7.81235 13.9141 7.9061 13.9297 8.17953C13.9453 8.57797 13.9219 8.98422 13.9375 9.38266C13.9453 9.61703 13.8594 9.67953 13.6328 9.67953C12.6641 9.69516 12.6641 9.70297 12.6641 8.72641V8.33578Z" fill="#EB6409"/>
<path d="M20.164 9.6796C19.4687 9.6796 18.914 9.15616 18.9062 8.47647C18.901 8.14702 19.0269 7.82901 19.2562 7.59239C19.4855 7.35577 19.7994 7.21993 20.1289 7.21475C20.4583 7.20957 20.7763 7.33548 21.013 7.56477C21.2496 7.79406 21.3854 8.10796 21.3906 8.43741C21.3948 8.60037 21.3661 8.7625 21.3061 8.91409C21.2462 9.06567 21.1563 9.2036 21.0417 9.31959C20.9272 9.43558 20.7904 9.52726 20.6396 9.58912C20.4888 9.65098 20.327 9.68176 20.164 9.6796Z" fill="#EB6409"/>
<path d="M20.1484 17.7578C19.8203 17.75 19.4844 17.75 19.1562 17.7578C18.9766 17.7578 18.9141 17.7031 18.9062 17.5156C18.8516 16.5469 18.8516 16.5469 19.8047 16.5469C20.2422 16.5469 20.6797 16.5547 21.1172 16.5391C21.3125 16.5391 21.3828 16.5938 21.3906 16.7969C21.4219 17.7578 21.4297 17.7578 20.4687 17.7578H20.1484Z" fill="#EA7525"/>
<path d="M16.4219 17.1484C16.4219 16.5469 16.4219 16.5469 17.039 16.5469C17.6562 16.5469 17.6719 16.5469 17.6719 17.1797C17.6719 17.8125 17.7656 17.7812 17.0469 17.7891C16.3281 17.7969 16.4219 17.7891 16.4219 17.1484Z" fill="#EA7525"/>
<path d="M23.2344 17.7578C22.6562 17.7578 22.6562 17.7578 22.6562 17.1719C22.6562 16.5859 22.6563 16.5469 23.2891 16.5469C23.9219 16.5469 23.8672 16.5469 23.8672 17.125C23.8672 17.7031 23.8672 17.7578 23.2344 17.7578Z" fill="#EA7525"/>
</svg>
