<svg width="40" height="40" viewBox="0 0 40 40" fill="none" xmlns="http://www.w3.org/2000/svg">
<path d="M34.5078 7.29688C33.2812 7.29688 32.2187 8.04688 31.7109 9.125C31.1236 8.88379 30.4738 8.83993 29.8594 9L19.3672 11.8047C18.6238 12.0043 17.9899 12.4907 17.6047 13.1571C17.2195 13.8235 17.1144 14.6156 17.3125 15.3594C17.5121 16.1028 17.9985 16.7366 18.6649 17.1218C19.3313 17.507 20.1233 17.6121 20.8672 17.4141L31.3515 14.6172C32.0208 14.4394 32.6033 14.0261 32.9922 13.4531C33.4513 13.724 33.9747 13.867 34.5078 13.8672C36.2344 13.8672 37.6328 12.3984 37.6328 10.5859C37.6328 8.77344 36.2344 7.29688 34.5078 7.29688Z" fill="#1A87C9"/>
<path d="M24.7734 20.6484C28.0397 20.6484 30.6875 17.6019 30.6875 13.8438C30.6875 10.0856 28.0397 7.03906 24.7734 7.03906C21.5072 7.03906 18.8594 10.0856 18.8594 13.8438C18.8594 17.6019 21.5072 20.6484 24.7734 20.6484Z" fill="#504F4F"/>
<path d="M24.5156 19.5078C27.3116 19.5078 29.5781 16.9824 29.5781 13.8672C29.5781 10.752 27.3116 8.22656 24.5156 8.22656C21.7197 8.22656 19.4531 10.752 19.4531 13.8672C19.4531 16.9824 21.7197 19.5078 24.5156 19.5078Z" fill="#D0D8DA"/>
<path d="M24.4375 17.9219C26.4913 17.9219 28.1562 16.0681 28.1562 13.7812C28.1562 11.4944 26.4913 9.64062 24.4375 9.64062C22.3837 9.64062 20.7188 11.4944 20.7188 13.7812C20.7188 16.0681 22.3837 17.9219 24.4375 17.9219Z" fill="#504F4F"/>
<path d="M21.5937 32.0156L14.9766 33.3516C13.0469 33.0703 11.0312 32.7344 8.92969 32.3125C7.08594 31.9453 5.32031 31.5391 3.64844 31.1172C3.60156 30.3828 3.60156 29.7266 3.60156 29.0703C3.60937 27.9141 3.5625 27.0234 3.5625 27.0234L2.19531 25.6797C2.19531 25.6797 2.08594 24.1953 2.39062 21.9609C2.53906 20.8438 2.875 19.0469 3.38281 17.6094C4.21875 15.25 4.49219 14 5.4375 13.1641C6.15625 12.5078 6.9375 12.1953 7.77344 11.8672C9.07031 11.3516 10.1953 11.1953 11.0234 11.0859C11.7622 10.995 12.5057 10.948 13.25 10.9453C14.2187 11.0703 13.7344 11 16.4297 11.3594L21.6406 12.0469L24.4766 12.375L24.5 13.7109H24.7187L24.7891 30.1641C24.7891 30.1641 22.1094 32.0156 21.5937 32.0156Z" fill="#F08137"/>
<path d="M27.6406 28.3906L24.7109 30.1562V18.4453H25.0391C26.6484 18.4453 27.8125 19.7812 27.7969 21.3906V23.2969L27.6641 23.4297L27.6406 28.3906Z" fill="#EB6409"/>
<path d="M24.711 13.8045C23.3516 13.6483 19.9219 13.453 18.0078 15.5545C17.2422 16.3983 16.7891 17.5389 15.8907 19.828C15.515 20.7934 15.1941 21.7794 14.9297 22.7811C14.375 24.8905 14.1016 25.9451 14.4532 26.6873C15.1875 28.2108 17.461 28.5076 18.2032 28.6014C19.1264 28.7168 20.0632 28.6504 20.961 28.4061L21 30.1561L24.711 28.5233V13.8045Z" fill="#EB6409"/>
<path d="M5.34375 13.125C5.34375 13.125 8.29688 14.0938 10.9766 14.4375C14.9219 14.9453 16.9141 14.7969 16.9141 14.7969C16.6172 15.3594 16.25 16.0938 15.8516 16.9531C15.6562 17.3828 15.0938 18.6016 14.3984 20.4219C13.3594 23.125 13.1484 24.2031 13.0781 24.5937C12.7344 26.5078 12.9766 27.1094 13.1797 27.4453C13.7578 28.3906 14.8281 28.5156 14.7656 28.8125C14.7031 29.1094 13.2031 29.1562 11.1953 29.0547C9.84375 28.9844 9.07031 28.9453 7.97656 28.6797C6.49219 28.3281 5.50781 27.8203 4.39062 27.2422C2.36719 26.2031 2.04688 25.4609 2.04688 25.4609C2.0625 24.7656 2.10937 23.8672 2.21875 22.8203C2.31498 21.7722 2.47675 20.7311 2.70312 19.7031C3.00279 18.3424 3.43183 17.0135 3.98438 15.7344C4.37589 14.8338 4.83013 13.9619 5.34375 13.125Z" fill="#EB6409"/>
</svg>
