<svg width="40" height="40" viewBox="0 0 40 40" fill="none" xmlns="http://www.w3.org/2000/svg">
<path d="M9.64063 31.8906C9.47656 31.2188 9.29688 31.0625 8.71875 31.0625H7.44531C6.94531 31.0469 6.65625 30.7109 6.65625 30.125V19.4531C6.65625 19.2031 6.6875 19.1016 6.9375 19.1094H12.0391C12.2734 19.1094 12.3359 19.1797 12.3359 19.4453C12.3203 20.7969 12.3281 22.1406 12.3281 23.4844C12.3281 24.1641 12.5938 24.4688 13.1719 24.4688H18.9531C19.5156 24.4688 19.7812 24.1719 19.7812 23.5234C19.7812 22.1719 19.7891 20.8281 19.7734 19.4844C19.7656 19.1641 19.8516 19.1016 20.1094 19.1094C21.776 19.125 23.4427 19.1224 25.1094 19.1016C25.4219 19.1016 25.4688 19.2188 25.4609 19.5391C25.4453 20.8594 25.4531 22.1797 25.4531 23.5C25.4531 24.1641 25.7188 24.4688 26.3047 24.4688H30.1016C30.6641 24.4688 30.9141 24.1719 30.9141 23.5078C30.9219 22.1641 30.9219 20.8203 30.9141 19.4687C30.9062 19.1875 30.9609 19.1016 31.2188 19.1094C32.9063 19.125 34.6016 19.1172 36.2891 19.1094C36.5391 19.1016 36.6016 19.1797 36.5938 19.4687C36.5859 23 36.5938 26.5313 36.5938 30.0547C36.5938 30.7578 36.3359 31.0625 35.7266 31.0625H27.6797C26.3672 31.0625 25.4531 32.125 25.4531 33.6484C25.4531 35.1719 25.4453 36.4766 25.4609 37.8906C25.4609 38.1484 25.4141 38.2422 25.1719 38.2344H20.0703C19.8203 38.2422 19.7812 38.1406 19.7812 37.8828C19.7891 36.4844 19.7891 35.0859 19.7891 33.6797C19.7812 32.0859 18.8984 31.0625 17.5312 31.0625H15.4375C14.8906 31.0625 14.6797 31.2656 14.5703 31.8984H12.8281C12.6719 31.3203 12.4766 31.0938 12.1172 31.0703C11.7578 31.0469 11.5078 31.2891 11.3438 31.8984L9.64063 31.8906Z" fill="#1A87C9"/>
<path d="M16.461 10.6641C16.461 14.4453 13.3281 17.5313 9.50001 17.5313C5.67189 17.5313 2.50001 14.4219 2.50783 10.6328C2.51564 6.84377 5.67189 3.75783 9.52345 3.76564C13.375 3.77345 16.4688 6.8672 16.461 10.6641ZM11.8047 10.8203C11.8125 9.07814 10.2422 7.95314 8.72658 8.4922C8.44533 8.59376 8.29689 8.53908 8.10939 8.33595C7.64845 7.82033 7.15626 7.33595 6.6797 6.83595C6.55932 6.69934 6.39203 6.6129 6.21095 6.59377C5.8672 6.57814 5.60939 6.71877 5.45314 7.01564C5.29689 7.31252 5.35158 7.64064 5.59376 7.89845C6.07033 8.41408 6.54689 8.9297 7.04689 9.4297C7.2422 9.62501 7.32033 9.78908 7.23439 10.086C6.98439 11.0078 7.25783 11.8047 8.00001 12.4063C8.7422 13.0078 9.57814 13.125 10.4531 12.7188C11.3281 12.3125 11.7422 11.5938 11.8047 10.8203ZM5.44533 13.9141C5.44325 14.017 5.46172 14.1192 5.49966 14.2149C5.53759 14.3105 5.59423 14.3976 5.66626 14.4711C5.73829 14.5446 5.82426 14.603 5.91913 14.6428C6.014 14.6826 6.11587 14.7032 6.21876 14.7031C6.41952 14.6995 6.61153 14.6203 6.75637 14.4812C6.90122 14.3422 6.98823 14.1536 7.00001 13.9531C7.00001 13.7459 6.9177 13.5472 6.77119 13.4007C6.62468 13.2542 6.42596 13.1719 6.21876 13.1719C6.01836 13.1698 5.8251 13.2463 5.68049 13.385C5.53588 13.5238 5.45145 13.7138 5.44533 13.9141ZM14.9063 10.7969C14.9073 10.6974 14.8887 10.5986 14.8516 10.5063C14.8144 10.4139 14.7595 10.3298 14.6898 10.2587C14.6202 10.1876 14.5372 10.131 14.4457 10.0919C14.3541 10.0529 14.2558 10.0323 14.1563 10.0313C14.0536 10.0237 13.9506 10.0375 13.8536 10.0719C13.7566 10.1063 13.6678 10.1604 13.5928 10.231C13.5179 10.3015 13.4585 10.3868 13.4183 10.4816C13.3781 10.5763 13.358 10.6784 13.3594 10.7813C13.369 10.9867 13.4555 11.181 13.6016 11.3257C13.7478 11.4704 13.9429 11.5549 14.1485 11.5625C14.5391 11.5703 14.8985 11.1953 14.9063 10.7969ZM12.6406 13.1719C12.5381 13.1729 12.4367 13.1944 12.3427 13.2353C12.2486 13.2762 12.1637 13.3355 12.093 13.4099C12.0223 13.4842 11.9673 13.572 11.9312 13.668C11.8951 13.764 11.8786 13.8663 11.8828 13.9688C11.8929 14.1698 11.981 14.3589 12.1284 14.4961C12.2757 14.6332 12.4707 14.7075 12.6719 14.7031C12.8723 14.6972 13.0628 14.6143 13.2039 14.4718C13.3449 14.3293 13.4258 14.138 13.4297 13.9375C13.4287 13.8353 13.4074 13.7343 13.3671 13.6403C13.3268 13.5463 13.2683 13.4613 13.1949 13.3901C13.1215 13.3189 13.0348 13.2629 12.9396 13.2255C12.8445 13.188 12.7429 13.1698 12.6406 13.1719ZM9.54689 5.29689C9.44774 5.29271 9.34875 5.30825 9.25565 5.3426C9.16256 5.37695 9.0772 5.42944 9.00453 5.49702C8.93187 5.5646 8.87333 5.64593 8.83233 5.73629C8.79132 5.82666 8.76865 5.92426 8.76564 6.02345C8.76039 6.12593 8.77578 6.22842 8.81092 6.32483C8.84606 6.42124 8.90022 6.5096 8.97018 6.58467C9.04015 6.65973 9.12449 6.71997 9.21819 6.76179C9.31189 6.80362 9.41304 6.82618 9.51564 6.82814C9.72299 6.82823 9.9222 6.7475 10.071 6.60309C10.2198 6.45868 10.3064 6.26196 10.3125 6.0547C10.3047 5.85488 10.2213 5.66549 10.0791 5.52482C9.93702 5.38414 9.74678 5.30268 9.54689 5.29689ZM4.0547 10.6328C4.05154 10.735 4.06906 10.8367 4.10621 10.9319C4.14337 11.0271 4.19939 11.1137 4.27091 11.1867C4.34243 11.2597 4.42797 11.3175 4.52239 11.3565C4.61681 11.3956 4.71815 11.4152 4.82033 11.4141C5.02021 11.4164 5.21321 11.3411 5.35886 11.2042C5.50451 11.0673 5.59149 10.8793 5.60158 10.6797C5.6172 10.2656 5.25001 9.89845 4.82814 9.89064C4.62831 9.89048 4.43618 9.96766 4.292 10.106C4.14781 10.2444 4.06278 10.4332 4.0547 10.6328ZM13.5938 7.45314C13.5898 7.25341 13.5086 7.06297 13.3674 6.92171C13.2261 6.78045 13.0357 6.69932 12.836 6.69533C12.4141 6.69533 12.0391 7.06251 12.0469 7.47658C12.0549 7.67697 12.1397 7.86661 12.2837 8.00622C12.4276 8.14583 12.6198 8.22473 12.8203 8.22658C12.9228 8.22983 13.0248 8.21205 13.1201 8.17434C13.2154 8.13662 13.302 8.07976 13.3745 8.00729C13.447 7.93481 13.5038 7.84824 13.5415 7.75293C13.5792 7.65762 13.597 7.55559 13.5938 7.45314Z" fill="#76CBEE"/>
<path d="M25.875 11.9844C25.875 13.7187 25.8672 15.4453 25.8828 17.1797C25.8828 17.4844 25.7969 17.5703 25.4922 17.5625C23.5625 17.5547 21.625 17.5469 19.6875 17.5625C19.3828 17.5703 19.3047 17.4766 19.3047 17.1797C19.3203 13.6797 19.3203 10.1849 19.3047 6.6953C19.3047 6.39062 19.3906 6.30468 19.6953 6.31249C21.625 6.3203 23.5625 6.3203 25.4922 6.31249C25.8047 6.30468 25.8828 6.39843 25.875 6.6953C25.8672 8.46093 25.875 10.2187 25.875 11.9844Z" fill="#EB6409"/>
<path d="M33.7031 12.5233C32.8125 12.5233 31.9297 12.5155 31.0391 12.5312C30.7656 12.539 30.6328 12.4921 30.6563 12.1718C30.7891 10.3124 30.8985 8.45303 31.0078 6.59365C31.0235 6.34365 31.1016 6.23428 31.3828 6.24209C32.9531 6.25771 34.5156 6.2499 36.086 6.24209C36.3281 6.24209 36.4063 6.30459 36.4219 6.5624C36.5235 8.42178 36.625 10.2812 36.7578 12.1405C36.7813 12.4921 36.6797 12.539 36.3672 12.5312C35.4844 12.5155 34.5938 12.5233 33.7031 12.5233Z" fill="#D0D8DA"/>
<path d="M35.8203 16.9922C35.8183 17.2692 35.7617 17.5431 35.6538 17.7982C35.5459 18.0534 35.3888 18.2848 35.1915 18.4792C34.9941 18.6736 34.7604 18.8273 34.5037 18.9314C34.247 19.0355 33.9723 19.088 33.6953 19.086C32.5547 19.0703 31.5859 18.086 31.6016 16.9531C31.6118 16.3929 31.8421 15.8592 32.2427 15.4675C32.6432 15.0757 33.1819 14.8572 33.7422 14.8594C34.0188 14.8624 34.2922 14.9201 34.5465 15.029C34.8008 15.138 35.0311 15.2961 35.2242 15.4942C35.4173 15.6924 35.5693 15.9267 35.6716 16.1838C35.7739 16.4408 35.8244 16.7156 35.8203 16.9922Z" fill="#D0D8DA"/>
<path d="M36.7656 12.5391C36.5156 13.4297 36.289 14.25 36.0547 15.0781C35.9922 15.3125 35.9375 15.4531 35.6094 15.2969C34.3281 14.6875 33.0312 14.6953 31.7422 15.2969C31.5156 15.4063 31.4062 15.4297 31.3281 15.1094C31.1484 14.3672 30.914 13.6406 30.6953 12.9141C30.625 12.6719 30.625 12.5312 30.9531 12.5312C32.8672 12.5469 34.7812 12.5391 36.7656 12.5391Z" fill="#76CBEE"/>
<path d="M21.3906 19.1017C21.4922 18.6485 21.5859 18.2188 21.6719 17.797C21.7109 17.6173 21.7891 17.547 21.9609 17.5548C22.3828 17.5704 22.8047 17.5626 23.2344 17.5626C23.3516 17.5626 23.4609 17.5548 23.4922 17.7345C23.5859 18.1876 23.6875 18.6329 23.7969 19.1017H21.3906Z" fill="#D0D8DA"/>
<path d="M22.6406 3.70312C23.8828 3.70312 23.8828 3.70312 23.8828 4.9375C23.8828 6.3125 23.8828 6.3125 22.5156 6.3125C21.2734 6.3125 21.2734 6.3125 21.2734 5.07031C21.2734 3.70312 21.2734 3.70312 22.6406 3.70312Z" fill="#D0D8DA"/>
<path d="M6.80469 18.2891C6.80469 17.5313 6.80469 17.5312 9.41406 17.5312C12.1719 17.5312 12.1719 17.5313 12.1719 18.3672C12.1719 19.2031 12.1719 19.1172 9.61719 19.1172C6.80469 19.1172 6.80469 19.1172 6.80469 18.2891Z" fill="#D0D8DA"/>
<path d="M11.8047 10.8202C11.7422 11.5936 11.3359 12.3124 10.4531 12.7187C9.57028 13.1249 8.73435 13.0077 7.99997 12.4062C7.2656 11.8046 6.98435 11.0077 7.23435 10.0858C7.32028 9.78896 7.24216 9.6249 7.04685 9.42959C6.54685 8.92959 6.07028 8.41396 5.59372 7.89834C5.35153 7.64052 5.28903 7.33584 5.4531 7.01552C5.61716 6.69521 5.86716 6.57802 6.21091 6.59365C6.39199 6.61279 6.55928 6.69922 6.67966 6.83584C7.15622 7.33584 7.64841 7.82021 8.10935 8.33584C8.29685 8.53896 8.44528 8.59365 8.72653 8.49209C10.2422 7.95302 11.8125 9.07802 11.8047 10.8202ZM10.25 10.664C10.2578 10.2733 9.89841 9.89834 9.49216 9.89052C9.29338 9.89202 9.10248 9.96848 8.95764 10.1046C8.8128 10.2408 8.72468 10.4266 8.71091 10.6249C8.7145 10.8257 8.79375 11.0177 8.9328 11.1625C9.07185 11.3074 9.26046 11.3944 9.46091 11.4061C9.85153 11.4218 10.2343 11.0624 10.25 10.664Z" fill="#EB6409"/>
<path d="M5.44529 13.9141C5.45141 13.7138 5.53584 13.5238 5.68045 13.3851C5.82506 13.2463 6.01832 13.1698 6.21872 13.1719C6.42593 13.1719 6.62464 13.2542 6.77115 13.4007C6.91766 13.5473 6.99997 13.746 6.99997 13.9532C6.9882 14.1536 6.90118 14.3422 6.75633 14.4813C6.61149 14.6203 6.41948 14.6996 6.21872 14.7032C6.11583 14.7032 6.01396 14.6827 5.91909 14.6428C5.82422 14.603 5.73825 14.5446 5.66622 14.4711C5.59419 14.3977 5.53755 14.3105 5.49962 14.2149C5.46168 14.1192 5.44321 14.017 5.44529 13.9141Z" fill="#EB6409"/>
<path d="M14.9063 10.7969C14.8984 11.1954 14.5391 11.5704 14.1484 11.5626C13.9429 11.555 13.7478 11.4704 13.6016 11.3257C13.4555 11.1811 13.369 10.9867 13.3594 10.7813C13.358 10.6784 13.3781 10.5764 13.4183 10.4816C13.4584 10.3869 13.5179 10.3016 13.5928 10.231C13.6678 10.1605 13.7566 10.1063 13.8535 10.0719C13.9505 10.0376 14.0536 10.0237 14.1563 10.0313C14.2558 10.0323 14.3541 10.053 14.4457 10.092C14.5372 10.131 14.6202 10.1877 14.6898 10.2588C14.7595 10.3299 14.8144 10.414 14.8516 10.5063C14.8887 10.5987 14.9073 10.6974 14.9063 10.7969Z" fill="#EB6409"/>
<path d="M12.6405 13.172C12.7428 13.17 12.8444 13.1882 12.9395 13.2256C13.0346 13.2631 13.1214 13.319 13.1948 13.3902C13.2682 13.4614 13.3267 13.5465 13.367 13.6404C13.4073 13.7344 13.4286 13.8354 13.4296 13.9377C13.4257 14.1381 13.3448 14.3294 13.2037 14.472C13.0627 14.6145 12.8722 14.6973 12.6718 14.7033C12.4706 14.7076 12.2756 14.6333 12.1282 14.4962C11.9809 14.3591 11.8928 14.1699 11.8827 13.9689C11.8785 13.8664 11.895 13.7641 11.9311 13.6681C11.9672 13.5721 12.0222 13.4843 12.0929 13.41C12.1636 13.3357 12.2485 13.2763 12.3426 13.2354C12.4366 13.1946 12.538 13.173 12.6405 13.172Z" fill="#EB6409"/>
<path d="M9.5469 5.29705C9.74679 5.30284 9.93703 5.3843 10.0792 5.52498C10.2213 5.66565 10.3047 5.85505 10.3125 6.05486C10.3064 6.26212 10.2198 6.45884 10.071 6.60325C9.92221 6.74766 9.723 6.82839 9.51565 6.8283C9.41306 6.82634 9.3119 6.80378 9.2182 6.76195C9.1245 6.72013 9.04016 6.65989 8.9702 6.58483C8.90023 6.50976 8.84608 6.4214 8.81094 6.32499C8.7758 6.22858 8.7604 6.12609 8.76565 6.02361C8.76867 5.92443 8.79133 5.82682 8.83234 5.73646C8.87335 5.64609 8.93188 5.56476 9.00455 5.49718C9.07721 5.4296 9.16257 5.37712 9.25567 5.34276C9.34877 5.30841 9.44776 5.29287 9.5469 5.29705Z" fill="#EB6409"/>
<path d="M4.05469 10.6328C4.06276 10.4331 4.1478 10.2444 4.29198 10.106C4.43616 9.96765 4.6283 9.89046 4.82812 9.89063C5.25 9.89844 5.61718 10.2656 5.60156 10.6797C5.59148 10.8793 5.50449 11.0673 5.35884 11.2042C5.21319 11.3411 5.02019 11.4163 4.82031 11.4141C4.71813 11.4152 4.61679 11.3956 4.52237 11.3565C4.42796 11.3175 4.34241 11.2597 4.27089 11.1867C4.19937 11.1137 4.14335 11.027 4.1062 10.9319C4.06904 10.8367 4.05152 10.7349 4.05469 10.6328Z" fill="#EB6409"/>
<path d="M13.5937 7.45313C13.597 7.55558 13.5792 7.6576 13.5415 7.75291C13.5038 7.84822 13.4469 7.93479 13.3745 8.00727C13.302 8.07975 13.2154 8.1366 13.1201 8.17432C13.0248 8.21204 12.9228 8.22982 12.8203 8.22656C12.6198 8.22472 12.4276 8.14582 12.2836 8.00621C12.1397 7.86659 12.0549 7.67696 12.0469 7.47656C12.0391 7.0625 12.4141 6.69531 12.8359 6.69531C13.0357 6.69931 13.2261 6.78043 13.3674 6.92169C13.5086 7.06295 13.5898 7.25339 13.5937 7.45313Z" fill="#EB6409"/>
<path d="M10.25 10.6641C10.2344 11.0625 9.85156 11.4219 9.46094 11.4063C9.26049 11.3945 9.07188 11.3075 8.93283 11.1626C8.79378 11.0178 8.71453 10.8258 8.71094 10.625C8.72471 10.4267 8.81282 10.2409 8.95767 10.1047C9.10251 9.96858 9.29341 9.89212 9.49219 9.89062C9.89844 9.89844 10.2578 10.2734 10.25 10.6641Z" fill="#D0D8DA"/>
</svg>
