<svg width="40" height="40" viewBox="0 0 40 40" fill="none" xmlns="http://www.w3.org/2000/svg">
<path d="M14.7266 38.3672C14.5557 38.2724 14.3936 38.1626 14.2422 38.0391C14.1219 37.9425 14.0249 37.8199 13.9586 37.6806C13.8923 37.5412 13.8584 37.3887 13.8594 37.2344C13.8594 36.5781 13.8672 35.9219 13.875 35.2578H25.8906C25.8985 35.9297 25.9141 36.5938 25.8985 37.2656C25.8828 37.8125 25.5078 38.2031 24.9766 38.3047H15.0547C14.9688 38.3047 14.8672 38.2813 14.7969 38.375L14.7266 38.3672ZM17.1016 37.5234H18.3047C18.7656 37.5 19.0547 37.2031 19.0469 36.7578C19.0391 36.3125 18.7422 36.0469 18.2969 36.0391C17.5156 36.0312 16.7422 36.0312 15.961 36.0391C15.4922 36.0469 15.2031 36.3359 15.2031 36.7812C15.2031 37.2266 15.5 37.5156 15.9688 37.5234H17.1016ZM22.6172 37.5234H23.8203C24.2735 37.5078 24.5547 37.2188 24.5625 36.7969C24.5703 36.375 24.2813 36.0469 23.8125 36.0391C23.0391 36.0312 22.2578 36.0312 21.4844 36.0391C21.0156 36.0469 20.7188 36.3438 20.7266 36.7812C20.7344 37.2188 21.0235 37.5156 21.4922 37.5234H22.6172Z" fill="#016BB1"/>
<path d="M14.7969 38.3673C14.8672 38.2736 14.9688 38.297 15.0547 38.297H24.9766C24.9701 38.3172 24.9675 38.3384 24.9688 38.3595L14.7969 38.3673Z" fill="#016BB1"/>
<path d="M9.27342 27.5547C9.263 23.2995 9.2604 19.0443 9.2656 14.7891H28.289V27.5625H9.27342V27.5547Z" fill="#1A87C9"/>
<path d="M15.9922 2.22656L18.25 2.21094L23.7734 2.22656C23.7422 2.38281 23.5937 2.35938 23.5 2.40625C22.7266 2.82813 22.1953 3.42188 22.1562 4.32813C22.1172 5.23438 22.1562 6 22.1406 6.83594C22.1328 7.09375 22.2266 7.15625 22.4688 7.14844H25.6094C25.4922 7.27344 25.3438 7.21094 25.2031 7.21875H23.7734C25.8047 8.35938 27.25 9.92969 27.9375 12.1641H9.92969L9.61719 12.1484C10.2812 9.97656 11.6484 8.39844 13.6641 7.36719C13.8047 7.28906 13.9531 7.22656 14.1016 7.14844H17.3125C17.5547 7.15625 17.6328 7.07813 17.625 6.82813C17.6146 6.05208 17.6146 5.27865 17.625 4.50781C17.6406 3.88281 17.375 3.38281 16.9766 2.92188C16.7031 2.60938 16.2969 2.49219 15.9922 2.22656ZM20.6406 4.89844C20.7684 4.90103 20.8963 4.89581 21.0234 4.88281C21.1714 4.86957 21.3095 4.8027 21.4116 4.69479C21.5138 4.58689 21.573 4.44538 21.5781 4.29688C21.5859 4.01563 21.3516 3.71094 21.0469 3.70313C20.2734 3.67969 19.4922 3.67969 18.7266 3.70313C18.4219 3.71094 18.1875 4.00781 18.1875 4.29688C18.1926 4.44538 18.2518 4.58689 18.354 4.69479C18.4561 4.8027 18.5942 4.86957 18.7422 4.88281C18.8694 4.89581 18.9972 4.90103 19.125 4.89844C19.125 5.54688 19.1328 6.1875 19.1172 6.83594C19.1094 7.07031 19.1719 7.17969 19.4297 7.16406C19.7341 7.14454 20.0394 7.14454 20.3437 7.16406C20.5625 7.17188 20.6562 7.11719 20.6484 6.86719C20.6328 6.21094 20.6406 5.55469 20.6406 4.89844Z" fill="#1A87C9"/>
<path d="M25.8906 35.2578H13.875C13.6641 35.125 13.4219 35.1953 13.1875 35.1563C10.8359 34.7422 9.28906 32.9297 9.27344 30.5391C9.27344 30.4219 9.26562 30.3047 9.26562 30.1875H28.2891C28.375 32.2031 27.3828 34.4063 24.5469 35.2109H25.9141C25.9126 35.229 25.9042 35.2458 25.8906 35.2578Z" fill="#1A87C9"/>
<path d="M9.61717 12.1484L9.92967 12.1641H27.9375L30.1562 12.1484C30.3203 12.1641 30.4922 12.1562 30.6484 12.1875C30.95 12.2449 31.2226 12.4044 31.4203 12.6392C31.6181 12.8739 31.729 13.1696 31.7344 13.4766C31.7344 14.1562 31.25 14.6719 30.5078 14.7891H9.26561C8.48436 14.6563 7.98436 14.0938 8.03905 13.4063C8.09374 12.7188 8.64061 12.1953 9.43749 12.1719L9.61717 12.1484Z" fill="#016BB1"/>
<path d="M28.2891 30.1797H9.26562C8.52343 30.0547 8.06249 29.5703 8.03906 28.8984C8.01562 28.2266 8.44531 27.7578 9.27343 27.5469H30.5C31.4297 27.7734 31.875 28.3828 31.6875 29.1797C31.5625 29.7266 31.1406 30.0781 30.5078 30.1797H28.2891Z" fill="#016BB1"/>
<path d="M30.5 27.5547H28.2891V14.7812H30.5078C30.5078 15.5234 30.5 16.2656 30.5 17V27.5547Z" fill="#016BB1"/>
<path d="M15.9921 2.22674C16.2968 2.49236 16.703 2.60955 16.9765 2.92205C17.3749 3.38299 17.6405 3.88299 17.6249 4.50799C17.6145 5.27882 17.6145 6.05226 17.6249 6.8283C17.6327 7.0783 17.5546 7.15643 17.3124 7.14861H14.1015C14.1015 6.8908 14.1093 6.63299 14.1093 6.37518L14.164 6.30486L14.8671 6.28924C15.2655 6.27361 15.5155 6.05486 15.5312 5.65643C15.5468 5.25799 15.5546 4.7658 15.539 4.32049C15.5233 3.87518 15.2812 3.69549 14.8515 3.67986H14.4999C14.0702 3.67986 14.0312 3.63299 14.1093 3.21893C14.1579 2.93275 14.3077 2.67357 14.5314 2.48859C14.7551 2.30361 15.0378 2.20514 15.328 2.21111C15.5468 2.2033 15.7733 2.21893 15.9921 2.22674Z" fill="#016BB1"/>
<path d="M25.6093 7.14861H22.4687C22.2265 7.15643 22.1328 7.09393 22.1406 6.83611C22.1562 6.00018 22.1171 5.16424 22.1562 4.3283C22.1953 3.49236 22.7265 2.8283 23.4999 2.40643C23.5937 2.35955 23.7421 2.38299 23.7734 2.22674C24.0156 2.21893 24.2656 2.2033 24.5078 2.21111C24.8283 2.22534 25.1303 2.36538 25.3482 2.60086C25.5661 2.83634 25.6824 3.14825 25.6718 3.46893C25.6718 3.63299 25.6171 3.69549 25.4531 3.67986C25.289 3.66424 25.0781 3.67205 24.8828 3.67986C24.4843 3.69549 24.2499 3.90643 24.2265 4.31268C24.2031 4.71893 24.2109 5.17986 24.2265 5.61736C24.2421 6.05486 24.4843 6.27361 24.9218 6.29705C25.1406 6.30486 25.4296 6.19549 25.5624 6.34393C25.6953 6.49236 25.5937 6.75018 25.6093 6.9533C25.6218 7.02078 25.6428 7.08641 25.6718 7.14861H25.6093Z" fill="#016BB1"/>
<path d="M28.2891 30.1797H30.5078C30.5156 30.9688 30.4531 31.7578 30.1016 32.4766C29.25 34.2188 27.8516 35.1172 25.9141 35.1953H24.5469C27.3828 34.3984 28.375 32.1953 28.2891 30.1797Z" fill="#016BB1"/>
<path d="M25.6094 7.14844H25.6719C27.25 7.85938 28.5156 8.92188 29.3984 10.4141C29.7347 10.9519 29.99 11.5363 30.1563 12.1484L27.9375 12.1641C27.25 9.92969 25.8047 8.35938 23.7734 7.21875H25.2031C25.3438 7.21094 25.4922 7.27344 25.6094 7.14844Z" fill="#016BB1"/>
<path d="M14.1639 6.30491L14.1093 6.37522C14.1014 6.32834 14.1093 6.29709 14.1639 6.30491Z" fill="#EC6667"/>
<path d="M17.1016 37.5234H15.9688C15.5 37.5156 15.211 37.2266 15.2032 36.7812C15.1953 36.3359 15.4922 36.0469 15.961 36.0391C16.7422 36.0313 17.5157 36.0313 18.2969 36.0391C18.7422 36.0469 19.0391 36.3359 19.0469 36.7578C19.0547 37.1797 18.7657 37.5 18.3047 37.5234H17.1016Z" fill="#504F4F"/>
<path d="M22.6172 37.5234H21.4922C21.0234 37.5156 20.7266 37.2188 20.7266 36.7812C20.7266 36.3438 21.0156 36.0469 21.4844 36.0391C22.2578 36.0313 23.0391 36.0313 23.8125 36.0391C24.2812 36.0469 24.5625 36.3516 24.5625 36.7969C24.5625 37.2422 24.2734 37.5078 23.8203 37.5234H22.6172Z" fill="#504F4F"/>
<path d="M19.125 4.89844C18.9972 4.90102 18.8694 4.89581 18.7422 4.88281C18.5942 4.86957 18.4561 4.8027 18.354 4.69479C18.2518 4.58689 18.1926 4.44538 18.1875 4.29687C18.1875 4.00781 18.4219 3.71094 18.7266 3.70312C19.4922 3.67969 20.2734 3.67969 21.0469 3.70312C21.3516 3.71094 21.5859 4.01562 21.5781 4.29687C21.573 4.44538 21.5138 4.58689 21.4116 4.69479C21.3095 4.8027 21.1714 4.86957 21.0234 4.88281C20.8963 4.89581 20.7684 4.90102 20.6406 4.89844H19.125Z" fill="#504F4F"/>
<path d="M19.125 4.89844H20.6406C20.6406 5.55469 20.6328 6.21094 20.6485 6.86719C20.6563 7.11719 20.5625 7.17187 20.3438 7.16406C20.0394 7.14454 19.7341 7.14454 19.4297 7.16406C19.1719 7.17969 19.1094 7.07031 19.1172 6.83594C19.1328 6.1875 19.125 5.54687 19.125 4.89844Z" fill="#EB6409"/>
</svg>
