<svg width="40" height="40" viewBox="0 0 40 40" fill="none" xmlns="http://www.w3.org/2000/svg">
<path d="M37.1797 38.1719H35.4062C34.5859 37.8438 34.375 37.1953 34.4219 36.375C34.4688 35.5547 34.4219 34.9141 34.4375 34.1797C34.4453 33.875 34.3672 33.7734 34.0469 33.7734C32.7109 33.7969 31.375 33.7812 30.0391 33.7891V30.0234C31.3828 30.0234 32.7266 30.0156 34.0703 30.0312C34.3516 30.0312 34.4375 29.9531 34.4375 29.6719C34.4271 26.7812 34.4271 23.8906 34.4375 21C34.4375 20.7188 34.3516 20.6406 34.0703 20.6406C32.7266 20.6563 31.3828 20.6484 30.0391 20.6484C30.0312 20.4297 30.0234 20.2031 30.0234 19.9766C30.0234 18.9375 30.0938 17.8828 29.6328 16.8984C31.1016 16.8984 32.5625 16.8828 34.0312 16.8984C34.3672 16.8984 34.4375 16.7891 34.4375 16.4766C34.4271 14.4922 34.4245 12.5078 34.4297 10.5234C34.4297 10.0078 34.4297 10.0078 33.9141 10.0078H5.88281C5.67188 9.98438 5.59375 10.0703 5.59375 10.2891C5.60417 12.3932 5.60417 14.4948 5.59375 16.5938C5.59375 16.7969 5.64844 16.8906 5.875 16.8906L9.80469 16.875L13.7109 16.8906C14.8359 16.8984 15.6172 17.6797 15.625 18.8125C15.6328 19.2422 15.625 19.6641 15.625 20.0938C15.625 20.6719 15.625 20.6719 15.0469 20.6719H9.375C8.24219 20.6641 7.10938 20.6719 5.97656 20.6484C5.67969 20.6406 5.59375 20.7266 5.59375 21.0234C5.60417 23.9036 5.60417 26.7839 5.59375 29.6641C5.59375 29.9688 5.69531 30.0391 5.98438 30.0391H15.6172V33.8203L5.875 33.8047C5.65625 33.8047 5.59375 33.8984 5.59375 34.1016C5.60417 34.8464 5.60417 35.5885 5.59375 36.3281C5.60425 36.5886 5.59903 36.8495 5.57812 37.1094C5.50781 37.6797 5.09375 37.9609 4.625 38.1953H2.85156C2.03125 37.8672 1.86719 37.2188 1.86719 36.3984C1.88281 25.4661 1.88802 14.5391 1.88281 3.61719V3.20312C1.89063 2.40625 2.39844 1.89062 3.1875 1.88281C3.53125 1.8724 3.875 1.8724 4.21875 1.88281C5.10156 1.88281 5.59375 2.38281 5.59375 3.27344C5.59375 4.16406 5.60937 5 5.59375 5.85938C5.58594 6.14062 5.64844 6.25 5.96094 6.25H34.0703C34.375 6.25 34.4453 6.14062 34.4375 5.85938C34.4219 4.96354 34.4219 4.0651 34.4375 3.16406C34.4453 2.41406 34.9609 1.89844 35.7031 1.88281C36.1094 1.875 36.5078 1.875 36.9141 1.88281C37.2117 1.8887 37.4984 1.99621 37.7266 2.1875C37.9453 2.35937 38.0156 2.63281 38.1719 2.85156V37.1797C38.0804 37.4025 37.9455 37.6049 37.7752 37.7752C37.6049 37.9455 37.4025 38.0804 37.1797 38.1719Z" fill="#1A87C9"/>
<path d="M38.1719 2.85156C38.0156 2.63281 37.9453 2.35938 37.7266 2.1875C37.4984 1.99621 37.2117 1.8887 36.9141 1.88281C36.5078 1.875 36.1094 1.875 35.7031 1.88281C34.9609 1.89844 34.4453 2.41406 34.4375 3.16406C34.4219 4.0651 34.4219 4.96354 34.4375 5.85938C34.4453 6.14062 34.375 6.25 34.0703 6.25H5.96094C5.64844 6.25 5.58594 6.14062 5.59375 5.85938C5.60938 5 5.60156 4.13281 5.59375 3.27344C5.58594 2.41406 5.10156 1.88281 4.21875 1.88281C3.875 1.8724 3.53125 1.8724 3.1875 1.88281C2.39844 1.89063 1.89063 2.40625 1.88281 3.20312V3.59375C1.88281 14.526 1.8776 25.4531 1.86719 36.375C1.86719 37.1953 2.03125 37.8438 2.85156 38.1719C2.54688 38.1719 2.24219 38.1641 1.92969 38.1719C1.8125 38.1797 1.76563 38.1562 1.78906 38.0312C1.79298 37.9845 1.79298 37.9374 1.78906 37.8906C1.78906 25.9531 1.78646 14.0182 1.78125 2.08594C1.78125 1.83594 1.83594 1.78125 2.09375 1.78125H37.8906C38.1328 1.78125 38.2031 1.82813 38.1797 2.07031C38.1615 2.33034 38.1589 2.59122 38.1719 2.85156Z" fill="white"/>
<path d="M4.625 38.1719C5.09375 37.9375 5.50781 37.6563 5.57813 37.0859C5.59903 36.8261 5.60425 36.5652 5.59375 36.3047C5.60417 35.5651 5.60417 34.8229 5.59375 34.0781C5.59375 33.875 5.65625 33.7812 5.875 33.7812L15.6172 33.7969C15.6172 34.1484 15.6172 34.5 15.625 34.8594C15.625 35.7969 16.125 36.2969 17.0703 36.3047H28.3828C28.5469 36.3047 28.7109 36.3047 28.875 36.2891C29.5625 36.2109 30.0078 35.7266 30.0234 35.0312C30.0312 34.6172 30.0312 34.2031 30.0391 33.7969C31.375 33.7891 32.7109 33.8047 34.0469 33.7812C34.3672 33.7812 34.4453 33.8828 34.4375 34.1875C34.4219 34.9219 34.4688 35.6563 34.4219 36.3828C34.375 37.1094 34.5859 37.8516 35.4062 38.1797L4.625 38.1719Z" fill="white"/>
<path d="M37.1797 38.1719C37.4025 38.0804 37.6049 37.9455 37.7752 37.7752C37.9455 37.6049 38.0804 37.4025 38.1719 37.1797C38.1719 37.5078 38.2969 37.9688 38.1328 38.1328C37.9688 38.2969 37.5078 38.1719 37.1797 38.1719Z" fill="white"/>
<path d="M30.0391 33.7892C30.0312 34.1954 30.0312 34.6095 30.0234 35.0235C30.0078 35.7189 29.5625 36.2032 28.875 36.2814C28.7109 36.297 28.5469 36.297 28.3828 36.297H17.0703C16.125 36.2892 15.625 35.7892 15.625 34.8517C15.6172 34.4923 15.6172 34.1407 15.6172 33.7892V30.0157C15.6172 29.1173 15.6094 28.2189 15.625 27.3204C15.6328 27.0079 15.5703 26.8985 15.2266 26.8985C13.7109 26.922 12.2031 26.9142 10.6875 26.8985C9.89062 26.8985 9.37499 26.3829 9.37499 25.5939C9.36718 23.9532 9.37499 22.3048 9.37499 20.6642H15.0469C15.625 20.6642 15.625 20.6642 15.625 20.086C15.625 19.6564 15.6328 19.2345 15.625 18.8048C15.6172 17.672 14.8359 16.8907 13.7109 16.8829L9.80468 16.8673C10.6406 15.2267 11.9922 14.3829 13.8203 14.3751C17.6953 14.3595 21.5703 14.3751 25.4453 14.3751C25.9657 14.3642 26.4847 14.4326 26.9844 14.5782C28.1953 14.9767 29.0469 15.7814 29.6328 16.8907C30.0937 17.8751 30.0234 18.9298 30.0234 19.9689C30.0234 20.1954 30.0312 20.422 30.0391 20.6407C30.0312 21.8517 30.0234 23.0704 30.0234 24.2814C30.0312 26.1954 30.0312 28.1017 30.0391 30.0157V33.7892Z" fill="#EB6409"/>
<path d="M29.6328 16.8983C29.0469 15.7889 28.1953 14.9842 26.9844 14.5858C26.4847 14.4402 25.9657 14.3717 25.4453 14.3826C21.5703 14.3826 17.6953 14.367 13.8203 14.3826C11.9922 14.3905 10.6406 15.2342 9.80469 16.8748L5.875 16.8905C5.64844 16.8905 5.59375 16.7967 5.59375 16.5936C5.60417 14.4946 5.60417 12.3931 5.59375 10.2889C5.59375 10.0701 5.67188 9.98421 5.88281 10.0076H33.9141C34.4297 10.0076 34.4297 10.0076 34.4297 10.5233C34.4297 12.5076 34.4323 14.492 34.4375 16.4764C34.4375 16.7889 34.3672 16.8983 34.0312 16.8983C32.5625 16.8826 31.1016 16.8983 29.6328 16.8983Z" fill="white"/>
<path d="M9.375 20.6641C9.375 22.3047 9.36719 23.9531 9.375 25.5937C9.375 26.3828 9.89063 26.8984 10.6875 26.8984C12.2031 26.9141 13.7109 26.9219 15.2266 26.8984C15.5703 26.8984 15.6328 27.0078 15.625 27.3203C15.6094 28.2187 15.6172 29.1172 15.6172 30.0156H5.98438C5.69531 30.0156 5.59375 29.9453 5.59375 29.6406C5.60417 26.7656 5.60417 23.8854 5.59375 21C5.59375 20.7031 5.67969 20.6172 5.97656 20.625C7.10938 20.6641 8.24219 20.6562 9.375 20.6641Z" fill="white"/>
<path d="M30.0391 30.0234C30.0313 28.1094 30.0312 26.2031 30.0234 24.2891C30.0234 23.0781 30.0313 21.8594 30.0391 20.6484C31.3828 20.6484 32.7266 20.6562 34.0703 20.6406C34.3516 20.6406 34.4375 20.7187 34.4375 21C34.4271 23.8906 34.4271 26.7812 34.4375 29.6719C34.4375 29.9531 34.3516 30.0312 34.0703 30.0312C32.7266 30.0156 31.3828 30.0234 30.0391 30.0234Z" fill="white"/>
</svg>
