<svg width="25" height="18" viewBox="0 0 25 18" fill="none" xmlns="http://www.w3.org/2000/svg">
<path d="M24.1514 8.68359C24.1172 8.60645 23.29 6.77148 21.4512 4.93262C19.001 2.48242 15.9062 1.1875 12.5 1.1875C9.09374 1.1875 5.99901 2.48242 3.54882 4.93262C1.70995 6.77148 0.878897 8.60938 0.848623 8.68359C0.804203 8.78351 0.78125 8.89163 0.78125 9.00098C0.78125 9.11032 0.804203 9.21844 0.848623 9.31836C0.882803 9.39551 1.70995 11.2295 3.54882 13.0684C5.99901 15.5176 9.09374 16.8125 12.5 16.8125C15.9062 16.8125 19.001 15.5176 21.4512 13.0684C23.29 11.2295 24.1172 9.39551 24.1514 9.31836C24.1958 9.21844 24.2187 9.11032 24.2187 9.00098C24.2187 8.89163 24.1958 8.78351 24.1514 8.68359ZM12.5 15.25C9.49413 15.25 6.86815 14.1572 4.69433 12.0029C3.80238 11.1159 3.04353 10.1044 2.4414 9C3.04337 7.89545 3.80223 6.88396 4.69433 5.99707C6.86815 3.84277 9.49413 2.75 12.5 2.75C15.5058 2.75 18.1318 3.84277 20.3057 5.99707C21.1993 6.88375 21.9598 7.89523 22.5635 9C21.8594 10.3145 18.792 15.25 12.5 15.25ZM12.5 4.3125C11.5729 4.3125 10.6666 4.58742 9.89575 5.10249C9.1249 5.61756 8.52409 6.34964 8.1693 7.20617C7.81452 8.0627 7.72169 9.0052 7.90256 9.91449C8.08343 10.8238 8.52987 11.659 9.18543 12.3146C9.84099 12.9701 10.6762 13.4166 11.5855 13.5974C12.4948 13.7783 13.4373 13.6855 14.2938 13.3307C15.1503 12.9759 15.8824 12.3751 16.3975 11.6042C16.9126 10.8334 17.1875 9.9271 17.1875 9C17.1862 7.75719 16.6919 6.56566 15.8131 5.68686C14.9343 4.80807 13.7428 4.31379 12.5 4.3125ZM12.5 12.125C11.8819 12.125 11.2777 11.9417 10.7638 11.5983C10.2499 11.255 9.84939 10.7669 9.61287 10.1959C9.37634 9.62487 9.31446 8.99653 9.43504 8.39034C9.55561 7.78415 9.85324 7.22733 10.2903 6.79029C10.7273 6.35325 11.2841 6.05562 11.8903 5.93505C12.4965 5.81447 13.1249 5.87635 13.6959 6.11288C14.2669 6.3494 14.755 6.74994 15.0983 7.26384C15.4417 7.77775 15.625 8.38193 15.625 9C15.625 9.8288 15.2957 10.6237 14.7097 11.2097C14.1236 11.7958 13.3288 12.125 12.5 12.125Z" fill="#828282"/>
</svg>
