<svg width="22" height="18" viewBox="0 0 22 18" fill="none" xmlns="http://www.w3.org/2000/svg">
<path d="M3.25 6.58768e-09H18.75C19.5801 -5.13275e-05 20.3788 0.299912 20.9822 0.838356C21.5856 1.3768 21.948 2.11291 21.995 2.89567L22 3.06944V13.9306C22.0001 14.7146 21.6824 15.4689 21.1123 16.0388C20.5422 16.6087 19.7628 16.9509 18.934 16.9953L18.75 17H3.25C2.41986 17.0001 1.62117 16.7001 1.01777 16.1616C0.414367 15.6232 0.0519987 14.8871 0.00500012 14.1043L6.97518e-09 13.9306V3.06944C-5.43467e-05 2.28543 0.317554 1.53111 0.887672 0.961227C1.45779 0.391347 2.23719 0.0491099 3.066 0.00472234L3.25 6.58768e-09ZM20.5 5.57694L11.346 10.0725C11.2573 10.116 11.1603 10.1424 11.0607 10.15C10.9611 10.1576 10.8609 10.1464 10.766 10.1169L10.654 10.0725L1.5 5.57694V13.9306C1.50002 14.3453 1.66517 14.745 1.96268 15.0501C2.26019 15.3552 2.6683 15.5435 3.106 15.5777L3.25 15.5833H18.75C19.1893 15.5833 19.6126 15.4272 19.9357 15.146C20.2588 14.8648 20.4581 14.4792 20.494 14.0656L20.5 13.9306V5.57694ZM18.75 1.41667H3.25C2.81081 1.41668 2.38768 1.57266 2.06461 1.85364C1.74154 2.13462 1.54214 2.52006 1.506 2.93344L1.5 3.06944V3.97989L11 8.64544L20.5 3.97989V3.06944C20.5 2.6545 20.3347 2.25476 20.037 1.94961C19.7392 1.64446 19.3309 1.45624 18.893 1.42233L18.75 1.41667Z" fill="#EC6300"/>
</svg>
