<svg width="24" height="24" viewBox="0 0 24 24" fill="none" xmlns="http://www.w3.org/2000/svg">
<g opacity="0.5">
<path d="M8 3.00012H5C4.46957 3.00012 3.96086 3.21084 3.58579 3.58591C3.21071 3.96098 3 4.46969 3 5.00012V8.00012M21 8.00012V5.00012C21 4.46969 20.7893 3.96098 20.4142 3.58591C20.0391 3.21084 19.5304 3.00012 19 3.00012H16M16 21.0001H19C19.5304 21.0001 20.0391 20.7894 20.4142 20.4143C20.7893 20.0393 21 19.5306 21 19.0001V16.0001M3 16.0001V19.0001C3 19.5306 3.21071 20.0393 3.58579 20.4143C3.96086 20.7894 4.46957 21.0001 5 21.0001H8" stroke="black" stroke-width="2" stroke-linecap="round" stroke-linejoin="round"/>
<g clip-path="url(#clip0_4196_4814)">
<path d="M13.9736 13.6142L15.957 15.4822M15.0404 11.1965C15.0404 13.0901 13.3988 14.6251 11.3737 14.6251C9.34865 14.6251 7.70703 13.0901 7.70703 11.1965C7.70703 9.30297 9.34865 7.76794 11.3737 7.76794C13.3988 7.76794 15.0404 9.30297 15.0404 11.1965Z" stroke="black" stroke-width="2" stroke-linecap="round" stroke-linejoin="round"/>
</g>
</g>
<defs>
<clipPath id="clip0_4196_4814">
<rect width="11" height="14.1429" fill="white" transform="translate(6.33203 5.14294)"/>
</clipPath>
</defs>
</svg>
