<svg width="6" height="11" viewBox="0 0 6 11" fill="none" xmlns="http://www.w3.org/2000/svg">
<path d="M0.706184 0.707687C0.640851 0.774081 0.588995 0.853073 0.553607 0.940105C0.518219 1.02714 0.5 1.12049 0.5 1.21477C0.5 1.30906 0.518219 1.40241 0.553607 1.48944C0.588995 1.57647 0.640851 1.65546 0.706184 1.72186L3.89864 4.99292C3.96397 5.05931 4.01583 5.1383 4.05122 5.22533C4.08661 5.31237 4.10483 5.40572 4.10483 5.5C4.10483 5.59428 4.08661 5.68763 4.05122 5.77467C4.01583 5.8617 3.96397 5.94069 3.89864 6.00709L0.706184 9.27814C0.640851 9.34454 0.588995 9.42353 0.553607 9.51056C0.518219 9.5976 0.5 9.69095 0.5 9.78523C0.5 9.87951 0.518219 9.97286 0.553607 10.0599C0.588995 10.1469 0.640851 10.2259 0.706184 10.2923C0.836784 10.4253 1.01345 10.5 1.1976 10.5C1.38175 10.5 1.55841 10.4253 1.68901 10.2923L4.88844 7.01411C5.28004 6.61237 5.5 6.0678 5.5 5.5C5.5 4.93221 5.28004 4.38763 4.88844 3.98589L1.68901 0.707687C1.55841 0.574666 1.38175 0.5 1.1976 0.5C1.01345 0.5 0.836783 0.574666 0.706184 0.707687Z" fill="#026BB0"/>
</svg>
