<svg width="14" height="13" viewBox="0 0 14 13" fill="none" xmlns="http://www.w3.org/2000/svg">
<path d="M12.2923 6.24742C12.2259 6.16902 12.1469 6.10679 12.0599 6.06433C11.9729 6.02186 11.8795 6 11.7852 6C11.6909 6 11.5976 6.02186 11.5106 6.06433C11.4235 6.10679 11.3445 6.16902 11.2781 6.24742L8.00708 10.0784C7.94069 10.1568 7.8617 10.219 7.77467 10.2615C7.68763 10.3039 7.59428 10.3258 7.5 10.3258C7.40572 10.3258 7.31237 10.3039 7.22533 10.2615C7.1383 10.219 7.05931 10.1568 6.99291 10.0784L3.72186 6.24742C3.65546 6.16902 3.57647 6.10679 3.48944 6.06433C3.4024 6.02186 3.30905 6 3.21477 6C3.12049 6 3.02714 6.02186 2.9401 6.06433C2.85307 6.10679 2.77408 6.16902 2.70769 6.24742C2.57466 6.40414 2.5 6.61614 2.5 6.83712C2.5 7.0581 2.57466 7.2701 2.70769 7.42682L5.98589 11.2661C6.38763 11.7361 6.9322 12 7.5 12C8.06779 12 8.61237 11.7361 9.01411 11.2661L12.2923 7.42682C12.4253 7.2701 12.5 7.0581 12.5 6.83712C12.5 6.61614 12.4253 6.40414 12.2923 6.24742Z" fill="#026BB0"/>
</svg>
