<svg width="17" height="9" viewBox="0 0 17 9" fill="none" xmlns="http://www.w3.org/2000/svg">
<path d="M16.6469 0.829895C16.5341 0.725362 16.3998 0.642392 16.2518 0.585772C16.1039 0.529151 15.9452 0.5 15.7849 0.5C15.6246 0.5 15.4659 0.529151 15.318 0.585772C15.17 0.642392 15.0357 0.725362 14.9228 0.829895L9.36204 5.93783C9.24917 6.04236 9.11489 6.12533 8.96693 6.18195C8.81898 6.23857 8.66028 6.26772 8.5 6.26772C8.33972 6.26772 8.18102 6.23857 8.03307 6.18195C7.88511 6.12533 7.75082 6.04236 7.63795 5.93783L2.07716 0.829895C1.96428 0.725362 1.83 0.642392 1.68204 0.585772C1.53409 0.529151 1.37539 0.5 1.21511 0.5C1.05483 0.5 0.896132 0.529151 0.748177 0.585772C0.600222 0.642392 0.465936 0.725362 0.353065 0.829895C0.126929 1.03885 0 1.32152 0 1.61616C0 1.9108 0.126929 2.19346 0.353065 2.40242L5.92601 7.52151C6.60897 8.14807 7.53475 8.5 8.5 8.5C9.46525 8.5 10.391 8.14807 11.074 7.52151L16.6469 2.40242C16.8731 2.19346 17 1.9108 17 1.61616C17 1.32152 16.8731 1.03885 16.6469 0.829895Z" fill="#4F4F4F"/>
</svg>
