<svg width="27" height="27" viewBox="0 0 27 27" fill="none" xmlns="http://www.w3.org/2000/svg">
<g clip-path="url(#clip0_105_77)">
<path d="M15.9752 18.2936C12.6997 16.9067 10.0949 14.2959 8.71559 11.0171L12.5406 7.18538L5.49809 0.13725L1.93072 3.7035C1.31197 4.32579 0.82276 5.06459 0.491394 5.87717C0.160028 6.68976 -0.00691674 7.55998 0.000219489 8.4375C0.000219489 16.5915 10.4087 27 18.5627 27C19.4401 27.0077 20.3104 26.841 21.1228 26.5096C21.9353 26.1782 22.6739 25.6887 23.2956 25.0695L26.863 21.5021L19.8148 14.454L15.9752 18.2936ZM21.7037 23.4788C21.2906 23.8883 20.8001 24.2116 20.2609 24.4298C19.7217 24.6481 19.1444 24.7569 18.5627 24.75C11.5506 24.75 2.25022 15.4496 2.25022 8.4375C2.24359 7.85569 2.35255 7.27835 2.57078 6.73897C2.789 6.19959 3.11215 5.7089 3.52147 5.29537L5.49809 3.31875L9.36472 7.18538L6.06284 10.4872L6.33847 11.178C7.14987 13.3485 8.41833 15.3192 10.0579 16.9566C11.6975 18.594 13.6698 19.8599 15.8413 20.6685L16.5231 20.9284L19.8148 17.6355L23.6815 21.5021L21.7037 23.4788ZM15.7502 2.25V0C18.7329 0.00327555 21.5925 1.18959 23.7016 3.29867C25.8106 5.40774 26.9969 8.26732 27.0002 11.25H24.7502C24.7475 8.86387 23.7985 6.57625 22.1112 4.889C20.424 3.20175 18.1363 2.25268 15.7502 2.25ZM15.7502 6.75V4.5C17.5399 4.50179 19.2557 5.21352 20.5212 6.479C21.7867 7.74449 22.4984 9.46034 22.5002 11.25H20.2502C20.2502 10.0565 19.7761 8.91193 18.9322 8.06802C18.0883 7.22411 16.9437 6.75 15.7502 6.75Z" fill="#EC6300"/>
</g>
<defs>
<clipPath id="clip0_105_77">
<rect width="27" height="27" fill="white"/>
</clipPath>
</defs>
</svg>
