<svg width="20" height="20" viewBox="0 0 20 20" fill="none" xmlns="http://www.w3.org/2000/svg">
<path d="M11.8334 13.5507C9.40708 12.5234 7.47765 10.5894 6.45594 8.16075L9.28925 5.32244L4.07263 0.101651L1.43015 2.7433C0.971822 3.20425 0.609447 3.7515 0.363993 4.35341C0.118538 4.95532 -0.00512347 5.59992 0.000162583 6.24993C0.000162583 12.2899 7.7101 19.9998 13.7501 19.9998C14.4 20.0055 15.0446 19.882 15.6464 19.6365C16.2482 19.3911 16.7953 19.0285 17.2559 18.5698L19.8983 15.9274L14.6775 10.7066L11.8334 13.5507ZM16.0767 17.3915C15.7707 17.6949 15.4074 17.9343 15.0079 18.096C14.6085 18.2577 14.1809 18.3383 13.7501 18.3332C8.55593 18.3332 1.66682 11.4441 1.66682 6.24993C1.66191 5.81896 1.74262 5.39131 1.90426 4.99177C2.06591 4.59223 2.30527 4.22877 2.60847 3.92245L4.07263 2.4583L6.93677 5.32244L4.49096 7.76825L4.69512 8.27992C5.29616 9.88766 6.23575 11.3474 7.45023 12.5603C8.66471 13.7732 10.1257 14.7109 11.7342 15.3099L12.2392 15.5024L14.6775 13.0632L17.5417 15.9274L16.0767 17.3915ZM11.6667 1.66664V-1.52588e-05C13.8761 0.00241105 15.9943 0.881157 17.5566 2.44342C19.1188 4.00569 19.9976 6.12387 20 8.33325H18.3333C18.3314 6.56576 17.6284 4.87124 16.3785 3.62144C15.1287 2.37163 13.4342 1.66862 11.6667 1.66664ZM11.6667 4.99994V3.33329C12.9924 3.33461 14.2634 3.86182 15.2008 4.79921C16.1382 5.73659 16.6654 7.00758 16.6667 8.33325H15C15 7.4492 14.6489 6.60136 14.0237 5.97625C13.3986 5.35113 12.5508 4.99994 11.6667 4.99994Z" fill="#EC6300"/>
</svg>
