<svg width="20" height="20" viewBox="0 0 20 20" fill="none" xmlns="http://www.w3.org/2000/svg">
<path d="M11.8334 13.5507C9.40708 12.5234 7.47765 10.5895 6.45594 8.16077L9.28925 5.32246L4.07263 0.101666L1.43015 2.74331C0.971822 3.20426 0.609447 3.75152 0.363993 4.35343C0.118538 4.95533 -0.00512347 5.59994 0.000162583 6.24995C0.000162583 12.2899 7.7101 19.9998 13.7501 19.9998C14.4 20.0055 15.0446 19.882 15.6464 19.6366C16.2482 19.3911 16.7953 19.0285 17.2559 18.5698L19.8983 15.9274L14.6775 10.7066L11.8334 13.5507ZM16.0767 17.3915C15.7707 17.6949 15.4074 17.9344 15.0079 18.096C14.6085 18.2577 14.1809 18.3383 13.7501 18.3332C8.55593 18.3332 1.66682 11.4441 1.66682 6.24995C1.66191 5.81898 1.74262 5.39132 1.90426 4.99179C2.06591 4.59225 2.30527 4.22878 2.60847 3.92247L4.07263 2.45831L6.93677 5.32246L4.49096 7.76827L4.69512 8.27993C5.29616 9.88768 6.23575 11.3475 7.45023 12.5604C8.66471 13.7733 10.1257 14.7109 11.7342 15.3099L12.2392 15.5024L14.6775 13.0632L17.5417 15.9274L16.0767 17.3915ZM11.6667 1.66665V0C13.8761 0.00242631 15.9943 0.881172 17.5566 2.44344C19.1188 4.0057 19.9976 6.12389 20 8.33326H18.3333C18.3314 6.56578 17.6284 4.87125 16.3785 3.62145C15.1287 2.37165 13.4342 1.66864 11.6667 1.66665ZM11.6667 4.99996V3.33331C12.9924 3.33463 14.2634 3.86183 15.2008 4.79922C16.1382 5.73661 16.6654 7.0076 16.6667 8.33326H15C15 7.44922 14.6489 6.60138 14.0237 5.97626C13.3986 5.35115 12.5508 4.99996 11.6667 4.99996Z" fill="#EC6300"/>
</svg>
