<svg width="36" height="33" viewBox="0 0 36 33" fill="none" xmlns="http://www.w3.org/2000/svg">
<g clip-path="url(#clip0_287_6415)">
<path d="M34.0676 5.60588C33.6457 5.14173 33.1175 4.76843 32.5205 4.5125C31.9235 4.25656 31.2724 4.12426 30.6133 4.125H6.36265L6.29966 3.64238C6.17074 2.6392 5.64477 1.71426 4.82147 1.04291C3.99818 0.371557 2.93478 0.000469966 1.8329 0L1.49992 0C1.10212 0 0.720605 0.144866 0.439316 0.402728C0.158027 0.660591 0 1.01033 0 1.375C0 1.73967 0.158027 2.08941 0.439316 2.34727C0.720605 2.60513 1.10212 2.75 1.49992 2.75H1.8329C2.20028 2.75004 2.55487 2.87369 2.8294 3.09748C3.10394 3.32128 3.27934 3.62965 3.32232 3.96413L5.38621 20.0516C5.60047 21.7247 6.47736 23.2675 7.85044 24.387C9.22351 25.5066 10.9972 26.125 12.8348 26.125H28.4985C28.8963 26.125 29.2778 25.9801 29.5591 25.7223C29.8403 25.4644 29.9984 25.1147 29.9984 24.75C29.9984 24.3853 29.8403 24.0356 29.5591 23.7777C29.2778 23.5199 28.8963 23.375 28.4985 23.375H12.8348C11.9064 23.3726 11.0016 23.107 10.2443 22.6147C9.48709 22.1224 8.91448 21.4274 8.60503 20.625H26.4841C28.2424 20.6251 29.9449 20.0588 31.294 19.0251C32.6432 17.9914 33.5532 16.556 33.8652 14.9696L35.0426 8.98288C35.1601 8.38889 35.1337 7.77847 34.9652 7.19488C34.7967 6.61129 34.4903 6.06881 34.0676 5.60588ZM32.0983 8.49475L30.9193 14.4815C30.732 15.4344 30.1851 16.2965 29.3742 16.9169C28.5633 17.5373 27.5402 17.8765 26.4841 17.875H8.12806L6.71664 6.875H30.6133C30.8337 6.87379 31.0516 6.9171 31.2516 7.00185C31.4516 7.0866 31.6288 7.2107 31.7706 7.36534C31.9123 7.51997 32.0152 7.70134 32.0718 7.89654C32.1285 8.09174 32.1375 8.29599 32.0983 8.49475Z" fill="white"/>
<path d="M10.4998 33C12.1566 33 13.4997 31.7688 13.4997 30.25C13.4997 28.7312 12.1566 27.5 10.4998 27.5C8.84307 27.5 7.5 28.7312 7.5 30.25C7.5 31.7688 8.84307 33 10.4998 33Z" fill="white"/>
<path d="M25.4989 33C27.1556 33 28.4987 31.7688 28.4987 30.25C28.4987 28.7312 27.1556 27.5 25.4989 27.5C23.8421 27.5 22.499 28.7312 22.499 30.25C22.499 31.7688 23.8421 33 25.4989 33Z" fill="white"/>
</g>
<defs>
<clipPath id="clip0_287_6415">
<rect width="35.998" height="33" fill="white"/>
</clipPath>
</defs>
</svg>
