<svg width="38" height="38" viewBox="0 0 38 38" fill="none" xmlns="http://www.w3.org/2000/svg">
<circle cx="19" cy="19" r="19" fill="white"/>
<path d="M20.6836 22.0352H17.7188L17.5312 10.9375H20.8711L20.6836 22.0352ZM17.2969 26.4062C17.2969 25.8906 17.4648 25.4609 17.8008 25.1172C18.1367 24.7734 18.6016 24.6016 19.1953 24.6016C19.7734 24.6016 20.2344 24.7734 20.5781 25.1172C20.9219 25.4609 21.0938 25.8906 21.0938 26.4062C21.0938 26.9062 20.9219 27.3281 20.5781 27.6719C20.2344 28.0078 19.7734 28.1758 19.1953 28.1758C18.6016 28.1758 18.1367 28.0078 17.8008 27.6719C17.4648 27.3281 17.2969 26.9062 17.2969 26.4062Z" fill="#026BB0"/>
</svg>
