<svg width="21" height="21" viewBox="0 0 21 21" fill="none" xmlns="http://www.w3.org/2000/svg">
<path d="M0.578913 8.50275C0.578913 7.21558 1.07036 6.51716 2.27873 6.05539C2.34811 6.02653 2.39436 5.90531 2.41749 5.81873C2.61985 4.94138 3.14598 4.36417 4.00745 4.11019C4.25028 4.03516 4.51624 4.02361 4.77063 4.01784H7.99681C8.79468 4.02361 9.45957 3.74655 9.99148 3.15203C10.2054 2.9096 10.4309 2.67294 10.6506 2.43629C11.1189 1.92835 11.7144 1.93412 12.1827 2.44783C12.3967 2.68449 12.6164 2.9096 12.8245 3.14626C13.3506 3.74078 14.0098 4.01784 14.7961 4.01784C15.9929 4.01784 17.1897 4.0063 18.3865 4.03516C19.4041 4.05825 20.3407 4.97601 20.4332 5.9919C20.4505 6.19969 20.4621 6.40749 20.4621 6.61528V13.7669C20.4621 14.4595 20.2655 15.0829 19.7336 15.5447C19.4792 15.7583 19.167 15.9083 18.8664 16.0526C18.7276 16.1161 18.6524 16.1681 18.6177 16.3182C18.4096 17.2706 17.8199 17.8593 16.8775 18.0844C16.6583 18.1249 16.4354 18.1423 16.2126 18.1364C15.0505 18.1479 13.8883 18.1364 12.7262 18.1595C12.1307 18.171 11.6277 18.425 11.2114 18.8406C10.9223 19.1234 10.6564 19.4293 10.3846 19.7295C9.93367 20.2143 9.32659 20.2201 8.87562 19.7295C8.65014 19.487 8.42465 19.2446 8.20495 18.9964C7.69038 18.4192 7.04861 18.1364 6.27387 18.1421C5.18113 18.1421 4.08261 18.1364 2.98409 18.1421C2.07637 18.1421 1.371 17.7843 0.891123 17.005C0.654075 16.6125 0.578913 16.1739 0.578913 15.7179V8.50275ZM9.63302 6.43635H2.94362C1.79885 6.43635 1.03567 7.20403 1.03567 8.34691V15.7352C1.03567 16.9127 1.81041 17.6804 2.98409 17.6804C4.15777 17.6804 5.2216 17.6861 6.33746 17.6804C7.18737 17.6804 7.89274 17.9978 8.4709 18.6097L9.18783 19.3889C9.48077 19.7083 9.77564 19.7083 10.0724 19.3889C10.3268 19.1119 10.5754 18.829 10.8356 18.5635C11.4022 17.9863 12.0902 17.6861 12.8997 17.6804C14.0502 17.6804 15.195 17.6861 16.3398 17.6804C17.4845 17.6746 18.2246 16.8954 18.2246 15.8044V8.31227C18.2238 8.13913 18.2024 7.96669 18.161 7.79856C17.9933 7.09436 17.3169 6.4248 16.3166 6.43057C14.0907 6.44789 11.859 6.43635 9.63302 6.43635ZM18.6756 15.6313L18.8432 15.5909C19.1852 15.4596 19.479 15.2274 19.6856 14.9253C19.8922 14.6232 20.0017 14.2654 19.9996 13.8997C20.0054 11.4003 19.9996 8.90103 19.9996 6.40171C19.9996 5.22998 19.2306 4.46229 18.0511 4.46229H14.7209C13.8363 4.46806 13.1136 4.13328 12.5239 3.48681L11.8185 2.71912C11.5525 2.43629 11.2635 2.43629 10.9975 2.71912L10.2806 3.49835C9.68505 4.14483 8.95656 4.46806 8.07775 4.46229H4.63765C4.25971 4.46012 3.89063 4.57651 3.58252 4.79504C3.27441 5.01357 3.04283 5.3232 2.92049 5.6802C2.89209 5.77896 2.86893 5.87915 2.85111 5.98035H16.3109C16.97 5.98035 17.5424 6.18815 18.0107 6.65569C18.479 7.12322 18.6813 7.72929 18.6756 8.39886C18.6698 10.7192 18.6756 13.0396 18.6756 15.3542V15.6313Z" fill="#828282"/>
<path d="M9.62724 20.1797C9.33237 20.1797 9.04907 20.0469 8.81202 19.7872L8.71373 19.6833L8.14135 19.0541C7.64412 18.5 7.03705 18.2287 6.29121 18.2287H2.97831C2.02433 18.2287 1.29584 17.8304 0.815961 17.0454C0.596258 16.6818 0.492188 16.2604 0.492188 15.7179V8.50275C0.492188 7.18095 1.00098 6.44789 2.24982 5.97458C2.29068 5.9244 2.31848 5.86491 2.33076 5.80142C2.54468 4.88365 3.09972 4.28913 3.97854 4.02361C4.23871 3.94858 4.5278 3.93703 4.77063 3.93126H7.99681C8.78889 3.93703 9.4191 3.66574 9.9221 3.09431C10.0724 2.92692 10.2285 2.75953 10.3789 2.60368L10.587 2.37857C10.8298 2.11305 11.1131 1.96875 11.408 1.96875H11.4138C11.7086 1.96875 11.9977 2.11882 12.2463 2.39011L12.5007 2.66717C12.6337 2.8057 12.7667 2.94423 12.8939 3.08854C13.3911 3.6542 14.0098 3.93126 14.7903 3.93126H15.4841C16.4381 3.92549 17.4209 3.92549 18.3865 3.94858C19.4445 3.97744 20.4216 4.90674 20.5141 5.98035C20.5368 6.19125 20.5483 6.40318 20.5488 6.61528V13.7669C20.5488 14.5519 20.2944 15.1753 19.7856 15.6082C19.537 15.8218 19.2422 15.9718 18.9011 16.1277C18.7739 16.1912 18.7276 16.2258 18.7045 16.3412C18.4848 17.3225 17.8777 17.9401 16.8948 18.1652C16.6705 18.2112 16.4415 18.2305 16.2126 18.2229H14.8423C14.1485 18.2287 13.4316 18.2287 12.732 18.2403C12.1885 18.246 11.6971 18.4712 11.2692 18.8983C11.0669 19.1003 10.8761 19.3139 10.6853 19.5217L10.4482 19.7814C10.2112 20.0412 9.92789 20.1739 9.63302 20.1739L9.62724 20.1797ZM6.29121 18.0556C7.07752 18.0556 7.74819 18.3499 8.26854 18.9387L8.84093 19.5678L8.93922 19.6717C9.14158 19.8911 9.38441 20.0065 9.62724 20.0065H9.63302C9.88163 20.0065 10.1187 19.8911 10.321 19.6717L10.5581 19.412C10.7489 19.2042 10.9455 18.9849 11.1478 18.7771C11.6046 18.3211 12.1365 18.0844 12.7262 18.0729C13.4316 18.0613 14.1485 18.0613 14.8423 18.0556H16.2126C16.4278 18.0626 16.6431 18.0452 16.8543 18.0036C17.7678 17.79 18.3287 17.2186 18.5368 16.3066C18.5773 16.1104 18.6929 16.0411 18.8317 15.9776C19.1554 15.8275 19.4445 15.6832 19.6758 15.4812C20.1441 15.0772 20.3754 14.5173 20.3754 13.7727V6.61528C20.3754 6.41903 20.3638 6.21123 20.3465 5.99767C20.254 5.02218 19.3405 4.14483 18.3865 4.12174C17.4325 4.09865 16.4381 4.09865 15.4841 4.10442H14.7903C13.9693 4.10442 13.287 3.7985 12.7609 3.20398L12.1191 2.50555C11.9052 2.2689 11.6566 2.14191 11.4138 2.14191H11.408C11.1652 2.14191 10.9223 2.26313 10.7142 2.49401L10.5061 2.71912C10.3557 2.88074 10.1996 3.04236 10.0551 3.20975C9.52317 3.81005 8.82937 4.11019 7.99681 4.10442H4.77641C4.53936 4.11019 4.26762 4.12174 4.03057 4.191C3.20958 4.43343 2.69501 4.98755 2.49843 5.83605C2.48109 5.91109 2.42905 6.09002 2.31342 6.1362C1.12817 6.58642 0.665638 7.25021 0.665638 8.50275V15.7179C0.665638 16.2258 0.758145 16.6241 0.966285 16.9589C1.41726 17.6977 2.07637 18.0556 2.97831 18.0556H6.29121ZM9.62724 19.7179C9.45957 19.7179 9.28612 19.6313 9.12423 19.4524L8.82937 19.1349L8.4073 18.6732C7.8407 18.0786 7.1469 17.7727 6.34325 17.7727H6.33746C5.37192 17.7785 4.40638 17.7727 3.44084 17.7727H2.98409C1.76994 17.7727 0.94894 16.9589 0.94894 15.741V8.35268C0.94894 7.15786 1.75259 6.35554 2.94362 6.35554H16.334C17.4152 6.35554 18.0801 7.10014 18.2419 7.79279C18.2874 7.96618 18.3107 8.1446 18.3113 8.32382V15.8102C18.3113 16.9473 17.4845 17.7727 16.3398 17.7727C15.7096 17.7785 15.0794 17.7727 14.4492 17.7727H12.8997C12.5253 17.7702 12.1545 17.8448 11.8103 17.9917C11.4661 18.1387 11.1559 18.355 10.8992 18.627C10.7315 18.8002 10.5639 18.9849 10.4078 19.158L10.136 19.4524C9.97414 19.6313 9.80069 19.7179 9.62724 19.7179ZM6.34325 17.5996C7.19893 17.5996 7.93321 17.9228 8.5345 18.5577C8.67904 18.7078 8.82359 18.8694 8.96235 19.0195L9.25143 19.337C9.51161 19.614 9.75444 19.614 10.0088 19.337L10.2748 19.0426C10.4367 18.8637 10.6043 18.6847 10.772 18.5116C11.0441 18.2208 11.3737 17.9896 11.74 17.8326C12.1062 17.6756 12.5011 17.5963 12.8997 17.5996H14.4492C15.0794 17.5996 15.7096 17.6053 16.3398 17.5996C17.3805 17.5996 18.1379 16.8434 18.1379 15.8102V8.31227C18.1359 8.14681 18.1146 7.98215 18.0743 7.82165C17.9239 7.19249 17.3169 6.51716 16.334 6.51716H2.94362C1.85666 6.51716 1.12239 7.25021 1.12239 8.34114V15.7294C1.12239 16.8607 1.85666 17.588 2.98409 17.588H3.44084C4.40638 17.588 5.37192 17.5938 6.33746 17.588L6.34325 17.5996ZM18.5888 15.7467V8.39308C18.5946 7.69466 18.3807 7.14631 17.9471 6.71341C17.5134 6.2805 16.9757 6.06116 16.3166 6.06116H2.74126L2.76439 5.95149C2.77485 5.91753 2.78258 5.88278 2.78751 5.84759C2.80144 5.77942 2.81881 5.71199 2.83955 5.64557C2.96707 5.27134 3.2094 4.9467 3.53216 4.71773C3.85492 4.48875 4.24171 4.36707 4.63765 4.36994H8.07775C8.92766 4.37571 9.63302 4.06979 10.217 3.43486L10.4714 3.1578L10.9339 2.65563C11.0842 2.49978 11.2461 2.41897 11.408 2.41897C11.5757 2.41897 11.7318 2.49978 11.8821 2.65563L12.4082 3.22706L12.5875 3.42332C13.1714 4.05825 13.8652 4.36994 14.7036 4.36994H18.0511C19.2884 4.36994 20.0863 5.16649 20.0863 6.39594V13.8997C20.0866 14.2828 19.9708 14.6571 19.7541 14.9734C19.5374 15.2897 19.23 15.5331 18.8721 15.6717L18.7739 15.7005L18.6987 15.7179L18.5888 15.7467ZM16.3166 5.888C17.0162 5.888 17.606 6.12465 18.0743 6.59219C18.5426 7.05973 18.7681 7.64848 18.7623 8.39308V15.5216L18.8085 15.5101C19.1339 15.3843 19.4135 15.1631 19.6106 14.8757C19.8077 14.5882 19.9131 14.248 19.9128 13.8997V6.40171C19.9128 5.27616 19.1844 4.54887 18.0511 4.54887H14.7036C13.8247 4.54887 13.0673 4.21409 12.4545 3.54453L12.281 3.34828C12.1076 3.16357 11.9341 2.96732 11.7549 2.78261C11.5757 2.59791 11.5236 2.59791 11.408 2.59791C11.2924 2.59791 11.1767 2.65563 11.0611 2.78261C10.9455 2.9096 10.7489 3.1174 10.5986 3.28479L10.3442 3.55607C9.73709 4.21409 8.97969 4.54887 8.09509 4.54887H4.63765C4.27709 4.54476 3.92451 4.65483 3.63053 4.86328C3.33655 5.07173 3.11631 5.36784 3.00144 5.70906C2.98409 5.76101 2.97253 5.8245 2.95518 5.888H16.3166Z" fill="#828282"/>
<path d="M11.1982 10.4867C11.6856 10.4867 12.1499 10.4694 12.6084 10.4925C12.8457 10.4964 13.0802 10.5453 13.299 10.6367C13.7169 10.8385 13.9258 11.2076 13.9316 11.669C13.9432 12.6724 13.9432 13.6817 13.9316 14.6909C13.9308 14.8459 13.8993 14.9992 13.8387 15.142C13.7781 15.2849 13.6898 15.4144 13.5787 15.5232C13.4676 15.632 13.336 15.7179 13.1914 15.7759C13.0468 15.834 12.892 15.8631 12.7361 15.8616C11.8598 15.8616 10.9834 15.8501 10.1071 15.8616C9.57996 15.8779 9.06671 15.692 8.67365 15.3426C8.63888 15.3113 8.60204 15.2824 8.56339 15.2561C8.44151 15.7463 8.11072 15.8847 7.64644 15.8674C7.18216 15.8501 6.54958 15.8616 5.99826 15.8616C5.58621 15.8558 5.30184 15.579 5.29604 15.1696V11.1788C5.30184 10.7924 5.55139 10.504 5.93442 10.4983C6.59601 10.4752 7.2518 10.4867 7.9134 10.4925C8.19196 10.4983 8.37767 10.6655 8.51696 10.9077C8.81634 10.7087 9.03126 10.4068 9.12052 10.06C9.24819 9.61015 9.37587 9.16032 9.50935 8.71626C9.64283 8.2722 9.99104 8.15109 10.3973 8.31257C10.966 8.53748 11.2388 8.92964 11.1982 9.54672C11.1807 9.8466 11.1982 10.1465 11.1982 10.4867ZM8.55178 13.0242V14.4718C8.55178 14.5352 8.55178 14.6159 8.5924 14.6505C8.99864 15.0485 9.41069 15.4176 10.0433 15.4118C10.9254 15.4003 11.8075 15.4118 12.6896 15.406C13.1887 15.4003 13.4731 15.1119 13.4731 14.6217V11.7324C13.4673 11.2365 13.1655 10.9366 12.6722 10.9366H11.0473C10.8093 10.9366 10.7339 10.8616 10.7281 10.6309C10.7281 10.2561 10.7107 9.8812 10.7339 9.50635C10.7571 9.13149 10.612 8.88351 10.2522 8.7451C10.0433 8.66436 9.99104 8.67589 9.9272 8.89504C9.79952 9.33333 9.67765 9.76586 9.55578 10.1984C9.42523 10.6766 9.11319 11.0859 8.68526 11.3403C8.5866 11.4037 8.54597 11.4614 8.55178 11.5767C8.55758 12.0611 8.55178 12.5398 8.55178 13.0242ZM8.0933 13.1857C8.0933 12.534 8.09331 11.8881 8.0875 11.2422C8.0875 10.9942 8.02947 10.9366 7.77992 10.9366H6.08531C5.80674 10.9366 5.75451 10.9885 5.75451 11.2653V15.0831C5.75451 15.3541 5.81254 15.4118 6.09111 15.4118C6.64824 15.4195 7.20538 15.4195 7.76251 15.4118C8.03527 15.4118 8.0875 15.3541 8.0875 15.0831C8.09331 14.4487 8.0933 13.8143 8.0933 13.1857Z" fill="#828282"/>
<path d="M7.73349 15.9539H7.64644C7.28662 15.9366 6.9152 15.9424 6.56119 15.9424H5.99826C5.53398 15.9366 5.21479 15.6194 5.20898 15.1638V11.1788C5.21479 10.7347 5.51076 10.4233 5.93442 10.4118C6.51476 10.3945 7.10672 10.4002 7.68126 10.406H7.9134C8.16875 10.4118 8.37767 10.5329 8.54017 10.7866C8.78392 10.5971 8.95908 10.334 9.03927 10.0369C9.07989 9.8812 9.12632 9.72549 9.17275 9.56978C9.254 9.28143 9.34105 8.98155 9.4281 8.68743C9.45271 8.58919 9.49803 8.49726 9.56105 8.41773C9.62408 8.3382 9.70339 8.27287 9.79372 8.22606C9.89368 8.18293 10.0016 8.16115 10.1106 8.16214C10.2196 8.16314 10.3271 8.18688 10.4263 8.23183C11.0473 8.47981 11.3316 8.90657 11.2852 9.55248C11.2736 9.74856 11.2736 9.95618 11.2794 10.1696V10.4002H11.6218C11.9642 10.4002 12.2892 10.3945 12.6142 10.4118C12.8624 10.4135 13.1074 10.4665 13.3338 10.5675C13.7691 10.7751 14.0128 11.1673 14.0186 11.6748C14.0302 12.6782 14.0302 13.6932 14.0186 14.6967C14.0179 14.863 13.9841 15.0276 13.9191 15.1809C13.8542 15.3342 13.7594 15.4733 13.6402 15.5901C13.5211 15.7069 13.3798 15.7992 13.2247 15.8616C13.0695 15.9241 12.9035 15.9554 12.7361 15.9539H11.7147C11.1865 15.9481 10.641 15.9481 10.1071 15.9539C9.55801 15.9722 9.02322 15.7779 8.61562 15.4118H8.60981C8.44151 15.8732 8.05268 15.9539 7.73349 15.9539ZM7.01966 15.7693C7.22859 15.7693 7.44332 15.7693 7.65224 15.7809C8.13393 15.7982 8.38348 15.6367 8.47633 15.233L8.51115 15.1004L8.61562 15.1869L8.65624 15.2215L8.73169 15.2791C9.10747 15.6126 9.5977 15.7902 10.1013 15.7751C10.641 15.7693 11.1865 15.7693 11.7147 15.7751H12.7361C13.0275 15.7767 13.3077 15.6635 13.5154 15.4603C13.7232 15.2571 13.8415 14.9805 13.8445 14.6909C13.8561 13.6874 13.8561 12.6724 13.8445 11.669C13.8445 11.2249 13.6414 10.8962 13.2584 10.7174C13.0533 10.6282 12.8322 10.5811 12.6084 10.579C12.2834 10.5617 11.9642 10.5675 11.6276 10.5675H11.1111V10.481C11.1111 10.3714 11.1053 10.2676 11.1053 10.1696C11.0995 9.95041 11.0995 9.74279 11.1111 9.53518C11.1517 8.97001 10.9138 8.60092 10.3625 8.38754C10.1826 8.31257 10.0084 8.3068 9.86916 8.37601C9.80025 8.41306 9.73987 8.464 9.6919 8.52557C9.64394 8.58714 9.60943 8.65798 9.5906 8.73356C9.50355 9.02768 9.4223 9.3218 9.34105 9.61015C9.29462 9.76586 9.24819 9.92157 9.20757 10.0773C9.10805 10.4456 8.87965 10.7666 8.56339 10.9827L8.48794 11.0346L8.44151 10.9539C8.29643 10.7001 8.12813 10.5848 7.9134 10.579H7.67546C7.10672 10.5732 6.52057 10.5675 5.94022 10.5848C5.60942 10.5905 5.38889 10.8328 5.38309 11.1788V15.1696C5.38889 15.5271 5.63264 15.7693 5.99826 15.7751H7.01966V15.7693ZM6.92681 15.5041H6.08531C5.76612 15.5041 5.66746 15.406 5.66746 15.0888V11.2653C5.66746 10.9423 5.76031 10.8501 6.08531 10.8501H7.77992C8.0817 10.8501 8.17455 10.9481 8.17455 11.2422C8.18036 11.7036 8.18036 12.1649 8.18036 12.6321V13.722C8.18036 14.1776 8.18036 14.6275 8.17455 15.0831C8.17455 15.406 8.0817 15.4983 7.76251 15.4983L6.92681 15.5041ZM6.08531 11.0231C5.85317 11.0231 5.84156 11.0404 5.84156 11.2653V15.0831C5.84156 15.308 5.85897 15.3253 6.09111 15.3253C6.64824 15.331 7.21118 15.331 7.76251 15.3253C7.98304 15.3253 8.00045 15.308 8.00045 15.0831C8.00625 14.6275 8.00625 14.1776 8.00625 13.722V12.6321C8.00625 12.1649 8.00625 11.7036 8.00045 11.2422C8.00045 11.0404 7.98304 11.0231 7.77992 11.0231H6.08531ZM10.0201 15.4983C9.38748 15.4983 8.96963 15.1407 8.52856 14.714C8.47948 14.6453 8.45683 14.5614 8.46473 14.4775V11.5767C8.45892 11.4325 8.51115 11.346 8.63883 11.2653C9.0477 11.0232 9.34543 10.6321 9.46873 10.1753C9.52096 9.99078 9.57319 9.80623 9.63122 9.62169C9.68926 9.43714 9.77051 9.11996 9.84595 8.87197C9.88077 8.75087 9.91559 8.67013 9.99104 8.63552C10.0665 8.60092 10.1709 8.62399 10.2812 8.66436C10.6816 8.8143 10.8558 9.08535 10.8209 9.51788C10.8035 9.78316 10.8093 10.06 10.8151 10.331V10.6309C10.8209 10.8155 10.8558 10.8501 11.0473 10.8501H12.6722C13.2178 10.8501 13.5544 11.1903 13.5602 11.7324V14.6217C13.5602 15.1638 13.2352 15.4868 12.6896 15.4925H10.0201V15.4983ZM10.0839 8.78547H10.0723C10.0665 8.79123 10.0433 8.80854 10.0143 8.92388C9.93881 9.17186 9.86916 9.41984 9.79372 9.66782L9.63703 10.2215C9.5023 10.7209 9.17772 11.1489 8.73169 11.4152C8.65624 11.4614 8.63303 11.496 8.63883 11.5767V14.4718C8.63604 14.5125 8.63996 14.5534 8.65044 14.5929C9.06829 14.9966 9.46292 15.3368 10.0433 15.3253H12.6896C13.1365 15.3195 13.3861 15.0715 13.3861 14.6275V11.7324C13.3803 11.2826 13.1249 11.0231 12.6722 11.0231H11.0473C10.7571 11.0231 10.6468 10.9135 10.641 10.6309V10.331C10.6352 10.06 10.6294 9.7774 10.6468 9.50058C10.6642 9.22376 10.5482 8.94694 10.2232 8.82584L10.0839 8.78547Z" fill="#828282"/>
</svg>
