<svg width="24" height="23" viewBox="0 0 24 23" fill="none" xmlns="http://www.w3.org/2000/svg">
<g clip-path="url(#clip0_3_37)">
<path d="M24 21.6448L17.738 15.6437C19.3646 13.7372 20.1644 11.3045 19.9719 8.84874C19.7793 6.39298 18.6092 4.10209 16.7036 2.44991C14.798 0.797736 12.3026 -0.0893151 9.73367 -0.0277597C7.16472 0.0337958 4.71873 1.03925 2.90164 2.78063C1.08455 4.522 0.035382 6.86608 -0.0288498 9.32799C-0.0930816 11.7899 0.832537 14.1813 2.55655 16.0075C4.28056 17.8337 6.67106 18.9551 9.23359 19.1396C11.7961 19.3241 14.3346 18.5577 16.324 16.9988L22.586 22.9999L24 21.6448ZM10 17.2499C8.41778 17.2499 6.87106 16.8003 5.55546 15.9578C4.23987 15.1154 3.21449 13.9181 2.60899 12.5172C2.00349 11.1163 1.84506 9.57474 2.15374 8.08755C2.46243 6.60037 3.22435 5.2343 4.34317 4.16209C5.46199 3.08989 6.88746 2.35971 8.4393 2.06389C9.99115 1.76807 11.5997 1.9199 13.0615 2.50017C14.5233 3.08044 15.7727 4.0631 16.6518 5.32387C17.5308 6.58465 18 8.06692 18 9.58325C17.9976 11.6159 17.154 13.5646 15.6542 15.0019C14.1545 16.4392 12.121 17.2476 10 17.2499Z" fill="black"/>
</g>
<defs>
<clipPath id="clip0_3_37">
<rect width="24" height="23" fill="white"/>
</clipPath>
</defs>
</svg>
