<svg width="17" height="8" viewBox="0 0 17 8" fill="none" xmlns="http://www.w3.org/2000/svg">
<path d="M16.6469 0.329895C16.5341 0.225362 16.3998 0.142392 16.2518 0.0857716C16.1039 0.0291509 15.9452 0 15.7849 0C15.6246 0 15.4659 0.0291509 15.318 0.0857716C15.17 0.142392 15.0357 0.225362 14.9228 0.329895L9.36204 5.43783C9.24917 5.54236 9.11489 5.62533 8.96693 5.68195C8.81898 5.73857 8.66028 5.76772 8.5 5.76772C8.33972 5.76772 8.18102 5.73857 8.03307 5.68195C7.88511 5.62533 7.75082 5.54236 7.63795 5.43783L2.07716 0.329895C1.96428 0.225362 1.83 0.142392 1.68204 0.0857716C1.53409 0.0291509 1.37539 0 1.21511 0C1.05483 0 0.896132 0.0291509 0.748177 0.0857716C0.600222 0.142392 0.465936 0.225362 0.353065 0.329895C0.126929 0.538854 0 0.821521 0 1.11616C0 1.4108 0.126929 1.69346 0.353065 1.90242L5.92601 7.02151C6.60897 7.64807 7.53475 8 8.5 8C9.46525 8 10.391 7.64807 11.074 7.02151L16.6469 1.90242C16.8731 1.69346 17 1.4108 17 1.11616C17 0.821521 16.8731 0.538854 16.6469 0.329895Z" fill="#4F4F4F"/>
</svg>
