<svg width="24" height="24" viewBox="0 0 24 24" fill="none" xmlns="http://www.w3.org/2000/svg">
<g clip-path="url(#clip0_3_29)">
<path d="M1.44394 6.65746C1.1091 6.75296 0.805039 6.93409 0.561851 7.18293C0.318663 7.43176 0.144775 7.73967 0.0573935 8.07619C-0.0299883 8.4127 -0.0278354 8.76616 0.0636392 9.10159C0.155114 9.43703 0.33274 9.7428 0.578941 9.98866L3.99094 13.3907V19.9653H10.5839L14.0189 23.3894C14.2033 23.575 14.4226 23.7224 14.6643 23.8231C14.9059 23.9239 15.1651 23.9759 15.4269 23.9763C15.5991 23.976 15.7704 23.9539 15.9369 23.9105C16.2739 23.8257 16.5826 23.6539 16.8318 23.4122C17.0811 23.1706 17.2622 22.8676 17.3569 22.5338L23.9909 0.0209961L1.44394 6.65746ZM1.99994 8.57712L19.0279 3.56583L5.99294 16.5572V12.5642L1.99994 8.57712ZM15.4399 21.9778L11.4129 17.9688H7.41294L20.4459 4.96939L15.4399 21.9778Z" fill="white"/>
</g>
<defs>
<clipPath id="clip0_3_29">
<rect width="24" height="23.9583" fill="white"/>
</clipPath>
</defs>
</svg>
