<svg width="24" height="24" viewBox="0 0 24 24" fill="none" xmlns="http://www.w3.org/2000/svg">
<g clip-path="url(#clip0_3_48)">
<path fill-rule="evenodd" clip-rule="evenodd" d="M20.463 3.48194C18.217 1.23785 15.231 0.000998264 12.05 0C5.49501 0 0.160007 5.32474 0.157007 11.8714C0.156007 13.9637 0.704007 16.0062 1.74501 17.807L0.0570068 23.9583L6.36101 22.3072C8.09801 23.2536 10.054 23.7517 12.044 23.7527H12.049C18.603 23.7527 23.939 18.427 23.942 11.8803C23.944 8.70885 22.708 5.72504 20.463 3.48194ZM12.05 21.7472H12.046C10.272 21.7472 8.53301 21.271 7.01501 20.3716L6.65401 20.1579L2.91301 21.1372L3.91201 17.4956L3.67701 17.1222C2.68701 15.551 2.16501 13.7351 2.16601 11.8714C2.16801 6.43082 6.60301 2.00451 12.055 2.00451C14.695 2.00451 17.177 3.03273 19.043 4.89748C20.909 6.76324 21.936 9.24193 21.935 11.8783C21.932 17.3209 17.498 21.7472 12.05 21.7472ZM17.472 14.357C17.175 14.2083 15.714 13.4905 15.441 13.3917C15.169 13.2929 14.971 13.243 14.772 13.5395C14.573 13.8359 14.005 14.5048 13.831 14.7034C13.658 14.9011 13.484 14.926 13.187 14.7773C12.89 14.6286 11.932 14.3161 10.797 13.3049C9.91401 12.5182 9.31701 11.5469 9.14401 11.2494C8.97101 10.952 9.12601 10.7922 9.27401 10.6445C9.40801 10.5117 9.57101 10.2981 9.72001 10.1244C9.87001 9.95269 9.91901 9.82891 10.019 9.63025C10.118 9.4326 10.069 9.2589 9.99401 9.11016C9.91901 8.96241 9.32501 7.50195 9.07801 6.90799C8.83701 6.32899 8.59201 6.40786 8.40901 6.39887C8.23601 6.38989 8.03801 6.38889 7.83901 6.38889C7.64101 6.38889 7.31901 6.46276 7.04701 6.76024C6.77501 7.05773 6.00701 7.77548 6.00701 9.23494C6.00701 10.6954 7.07201 12.1059 7.22001 12.3036C7.36801 12.5013 9.31501 15.498 12.296 16.7828C13.005 17.0883 13.559 17.271 13.99 17.4077C14.702 17.6333 15.35 17.6014 15.862 17.5255C16.433 17.4407 17.62 16.8078 17.868 16.115C18.116 15.4222 18.116 14.8272 18.041 14.7044C17.967 14.5796 17.769 14.5058 17.472 14.357Z" fill="white"/>
</g>
<defs>
<clipPath id="clip0_3_48">
<rect width="24" height="23.9583" fill="white"/>
</clipPath>
</defs>
</svg>
