<svg width="24" height="25" viewBox="0 0 24 25" fill="none" xmlns="http://www.w3.org/2000/svg">
<g clip-path="url(#clip0_1_11)">
<path d="M21.0679 2.43428C20.447 1.86657 17.9322 0.0415683 12.3319 0.01761C12.3319 0.01761 5.72353 -0.377182 2.5044 2.57178C0.713793 4.35928 0.0866626 6.97698 0.0146626 10.2239C-0.0573374 13.4707 -0.137685 19.5562 5.73814 21.2103H5.74336L5.73814 23.7301C5.73814 23.7301 5.69953 24.7509 6.37153 24.9562C7.18336 25.2103 7.66336 24.4332 8.44075 23.5978C8.86649 23.1384 9.45292 22.4655 9.89849 21.952C12.4519 22.1881 15.0269 21.9919 17.5148 21.3718L17.3583 21.4051C18.1701 21.1416 22.7635 20.5551 23.5065 14.4707C24.2828 8.18948 23.1371 4.22698 21.0679 2.43428ZM21.7482 14.0124C21.1148 19.0905 17.3938 19.4134 16.7093 19.6322C15.215 20.0114 13.4995 20.228 11.7329 20.228C11.2258 20.228 10.7228 20.2103 10.2251 20.1749L10.2919 20.1791C10.2919 20.1791 7.74788 23.2405 6.95588 24.0364C6.6971 24.2947 6.41223 24.2739 6.41745 23.7582C6.41745 23.4218 6.43727 19.5728 6.43727 19.5728C1.46301 18.1957 1.75101 13.0124 1.80945 10.3051C1.86788 7.59782 2.3771 5.37282 3.89327 3.87907C6.61884 1.41344 12.2296 1.77907 12.2296 1.77907C16.9701 1.79886 19.2397 3.2249 19.7677 3.70303C21.5145 5.19782 22.4046 8.77386 21.7482 14.0124ZM14.9541 10.0666V10.0812C14.9519 10.1623 14.9186 10.2394 14.8611 10.2968C14.8035 10.3541 14.7261 10.3871 14.6449 10.3892C14.5636 10.3912 14.4847 10.3619 14.4244 10.3075C14.364 10.2531 14.327 10.1777 14.3207 10.0968C14.342 9.87929 14.3157 9.65875 14.2437 9.45239C14.1717 9.24603 14.0557 9.05772 13.9038 8.90046C13.7518 8.7432 13.5674 8.62073 13.3634 8.5415C13.1594 8.46227 12.9406 8.42818 12.7221 8.44157H12.7263C12.6452 8.4353 12.5696 8.39817 12.5152 8.33786C12.4607 8.27755 12.4316 8.19867 12.4337 8.1175C12.4358 8.03634 12.4691 7.9591 12.5267 7.90173C12.5843 7.84437 12.6617 7.81127 12.743 7.80928H12.7607H12.7597L12.8317 7.80823C13.123 7.80814 13.4113 7.86782 13.6785 7.98359C13.9458 8.09935 14.1863 8.26872 14.3853 8.48117C14.5842 8.69363 14.7372 8.94464 14.8349 9.21863C14.9326 9.49261 14.9728 9.78371 14.9531 10.0739V10.0676L14.9541 10.0666ZM15.9465 10.6197C15.9955 8.54886 14.6995 6.92803 12.239 6.74678C12.1963 6.74544 12.1543 6.73552 12.1156 6.71759C12.0768 6.69967 12.0421 6.67412 12.0135 6.64247C11.9848 6.61081 11.9629 6.57372 11.949 6.5334C11.9351 6.49309 11.9295 6.45038 11.9325 6.40785C11.9355 6.36532 11.9471 6.32383 11.9666 6.28588C11.9861 6.24793 12.013 6.2143 12.0458 6.187C12.0787 6.1597 12.1166 6.1393 12.1576 6.12702C12.1985 6.11474 12.2414 6.11083 12.2839 6.11553H12.2828H12.3006C12.8845 6.11551 13.4623 6.23464 13.9984 6.46562C14.5345 6.69659 15.0177 7.03453 15.4183 7.45868C15.8188 7.88283 16.1283 8.38424 16.3277 8.93212C16.5271 9.48 16.6122 10.0628 16.5778 10.6447L16.5788 10.6332C16.5732 10.714 16.5369 10.7895 16.4773 10.8443C16.4176 10.8992 16.3393 10.9291 16.2582 10.928C16.1771 10.927 16.0996 10.895 16.0414 10.8386C15.9832 10.7822 15.9489 10.7058 15.9454 10.6249V10.6166L15.9465 10.6197ZM18.2421 11.2749V11.277C18.2379 11.3577 18.2029 11.4338 18.1443 11.4896C18.0857 11.5454 18.0079 11.5767 17.9269 11.5771C17.8459 11.5775 17.7678 11.547 17.7087 11.4918C17.6495 11.4365 17.6138 11.3608 17.6087 11.2801C17.5837 7.29886 14.9239 5.13115 11.7006 5.10823C11.6591 5.10823 11.6179 5.10007 11.5796 5.08421C11.5412 5.06835 11.5064 5.0451 11.477 5.01579C11.4476 4.98648 11.4244 4.95169 11.4085 4.91339C11.3926 4.8751 11.3844 4.83406 11.3844 4.79261C11.3844 4.75116 11.3926 4.71012 11.4085 4.67183C11.4244 4.63353 11.4476 4.59874 11.477 4.56943C11.5064 4.54012 11.5412 4.51687 11.5796 4.50101C11.6179 4.48515 11.6591 4.47698 11.7006 4.47698C15.31 4.50198 18.2108 6.98844 18.2401 11.2739L18.2421 11.2749ZM17.6943 16.0645V16.0739C17.1663 17.002 16.1781 18.027 15.1607 17.6999L15.1514 17.6853C13.3375 17.019 11.6372 16.0777 10.1103 14.8947L10.1531 14.9259C9.39332 14.3237 8.70409 13.6378 8.09849 12.8812L8.07866 12.8551C7.53032 12.1661 7.04095 11.4322 6.61571 10.6614L6.57397 10.5791C6.07085 9.75106 5.65373 8.87395 5.3291 7.96136L5.29779 7.85928C4.97014 6.84365 5.99171 5.85719 6.92666 5.33011H6.93605C7.11999 5.21257 7.34087 5.16682 7.55647 5.2016C7.77206 5.23638 7.96726 5.34926 8.10475 5.51865L8.10579 5.52073C8.10579 5.52073 8.71205 6.24261 8.97188 6.5999C9.21605 6.93219 9.54475 7.46448 9.71484 7.76136C9.8429 7.96421 9.89502 8.20573 9.86198 8.44322C9.82895 8.68072 9.71289 8.89892 9.53431 9.05928L9.53327 9.06032L8.94684 9.52907C8.8554 9.61717 8.78474 9.72447 8.73998 9.8432C8.69523 9.96193 8.67749 10.0891 8.68805 10.2155V10.2124C8.97843 11.1784 9.50251 12.0581 10.2141 12.7741C10.9256 13.49 11.8027 14.0201 12.7681 14.3176L12.8119 14.3291C12.9379 14.339 13.0646 14.3211 13.1829 14.2766C13.3012 14.2321 13.4082 14.1622 13.4964 14.0718L13.966 13.4864C14.1273 13.3073 14.347 13.1911 14.586 13.1585C14.825 13.1259 15.0678 13.1789 15.2714 13.3082L15.2672 13.3062C16.1155 13.7884 16.8491 14.3187 17.518 14.9197L17.5065 14.9093C17.6762 15.0443 17.7891 15.2379 17.8231 15.4518C17.8571 15.6658 17.8096 15.8847 17.6901 16.0655L17.6922 16.0624L17.6943 16.0645Z" fill="white"/>
</g>
<defs>
<clipPath id="clip0_1_11">
<rect width="24" height="25" fill="white"/>
</clipPath>
</defs>
</svg>
