<svg width="145" height="25" viewBox="0 0 145 25" fill="none" xmlns="http://www.w3.org/2000/svg">
<path d="M23.4503 11.5657L19.0239 15.3928L20.3498 21.0907C20.42 21.3886 20.4 21.7003 20.2923 21.987C20.1846 22.2736 19.994 22.5225 19.7443 22.7024C19.4946 22.8823 19.1969 22.9853 18.8884 22.9985C18.58 23.0118 18.2744 22.9346 18.01 22.7767L12.9936 19.7625L7.98805 22.7767C7.72361 22.9346 7.41806 23.0118 7.1096 22.9985C6.80114 22.9853 6.50345 22.8823 6.25377 22.7024C6.00408 22.5225 5.81347 22.2736 5.70576 21.987C5.59805 21.7003 5.57803 21.3886 5.6482 21.0907L6.97222 15.3986L2.54475 11.5657C2.31057 11.3656 2.14124 11.1015 2.05798 10.8064C1.97473 10.5114 1.98126 10.1985 2.07675 9.90716C2.17224 9.61578 2.35244 9.35881 2.59476 9.16848C2.83708 8.97816 3.13073 8.86294 3.43888 8.83729L9.27478 8.33653L11.5528 2.95367C11.6718 2.67122 11.8724 2.42996 12.1295 2.26025C12.3866 2.09055 12.6886 2 12.9975 2C13.3065 2 13.6085 2.09055 13.8656 2.26025C14.1227 2.42996 14.3233 2.67122 14.4423 2.95367L16.7272 8.33653L22.5611 8.83729C22.8693 8.86294 23.1629 8.97816 23.4052 9.16848C23.6476 9.35881 23.8278 9.61578 23.9233 9.90716C24.0187 10.1985 24.0253 10.5114 23.942 10.8064C23.8588 11.1015 23.6894 11.3656 23.4553 11.5657H23.4503Z" fill="#EC6300"/>
<path d="M53.4503 11.5657L49.0239 15.3928L50.3498 21.0907C50.42 21.3886 50.4 21.7003 50.2923 21.987C50.1846 22.2736 49.994 22.5225 49.7443 22.7024C49.4946 22.8823 49.1969 22.9853 48.8884 22.9985C48.58 23.0118 48.2744 22.9346 48.01 22.7767L42.9936 19.7625L37.9881 22.7767C37.7236 22.9346 37.4181 23.0118 37.1096 22.9985C36.8011 22.9853 36.5035 22.8823 36.2538 22.7024C36.0041 22.5225 35.8135 22.2736 35.7058 21.987C35.5981 21.7003 35.578 21.3886 35.6482 21.0907L36.9722 15.3986L32.5447 11.5657C32.3106 11.3656 32.1412 11.1015 32.058 10.8064C31.9747 10.5114 31.9813 10.1985 32.0767 9.90716C32.1722 9.61578 32.3524 9.35881 32.5948 9.16848C32.8371 8.97816 33.1307 8.86294 33.4389 8.83729L39.2748 8.33653L41.5528 2.95367C41.6718 2.67122 41.8724 2.42996 42.1295 2.26025C42.3866 2.09055 42.6886 2 42.9975 2C43.3065 2 43.6085 2.09055 43.8656 2.26025C44.1227 2.42996 44.3233 2.67122 44.4423 2.95367L46.7272 8.33653L52.5611 8.83729C52.8693 8.86294 53.1629 8.97816 53.4052 9.16848C53.6476 9.35881 53.8278 9.61578 53.9233 9.90716C54.0187 10.1985 54.0253 10.5114 53.942 10.8064C53.8588 11.1015 53.6894 11.3656 53.4553 11.5657H53.4503Z" fill="#EC6300"/>
<path d="M83.4503 11.5657L79.0239 15.3928L80.3498 21.0907C80.42 21.3886 80.4 21.7003 80.2923 21.987C80.1846 22.2736 79.994 22.5225 79.7443 22.7024C79.4946 22.8823 79.1969 22.9853 78.8884 22.9985C78.58 23.0118 78.2744 22.9346 78.01 22.7767L72.9936 19.7625L67.9881 22.7767C67.7236 22.9346 67.4181 23.0118 67.1096 22.9985C66.8011 22.9853 66.5035 22.8823 66.2538 22.7024C66.0041 22.5225 65.8135 22.2736 65.7058 21.987C65.5981 21.7003 65.578 21.3886 65.6482 21.0907L66.9722 15.3986L62.5447 11.5657C62.3106 11.3656 62.1412 11.1015 62.058 10.8064C61.9747 10.5114 61.9813 10.1985 62.0767 9.90716C62.1722 9.61578 62.3524 9.35881 62.5948 9.16848C62.8371 8.97816 63.1307 8.86294 63.4389 8.83729L69.2748 8.33653L71.5528 2.95367C71.6718 2.67122 71.8724 2.42996 72.1295 2.26025C72.3866 2.09055 72.6886 2 72.9975 2C73.3065 2 73.6085 2.09055 73.8656 2.26025C74.1227 2.42996 74.3233 2.67122 74.4423 2.95367L76.7272 8.33653L82.5611 8.83729C82.8693 8.86294 83.1629 8.97816 83.4052 9.16848C83.6476 9.35881 83.8278 9.61578 83.9233 9.90716C84.0187 10.1985 84.0253 10.5114 83.942 10.8064C83.8588 11.1015 83.6894 11.3656 83.4553 11.5657H83.4503Z" fill="#EC6300"/>
<path d="M113.45 11.5657L109.024 15.3928L110.35 21.0907C110.42 21.3886 110.4 21.7003 110.292 21.987C110.185 22.2736 109.994 22.5225 109.744 22.7024C109.495 22.8823 109.197 22.9853 108.888 22.9985C108.58 23.0118 108.274 22.9346 108.01 22.7767L102.994 19.7625L97.9881 22.7767C97.7236 22.9346 97.4181 23.0118 97.1096 22.9985C96.8011 22.9853 96.5035 22.8823 96.2538 22.7024C96.0041 22.5225 95.8135 22.2736 95.7058 21.987C95.5981 21.7003 95.578 21.3886 95.6482 21.0907L96.9722 15.3986L92.5447 11.5657C92.3106 11.3656 92.1412 11.1015 92.058 10.8064C91.9747 10.5114 91.9813 10.1985 92.0767 9.90716C92.1722 9.61578 92.3524 9.35881 92.5948 9.16848C92.8371 8.97816 93.1307 8.86294 93.4389 8.83729L99.2748 8.33653L101.553 2.95367C101.672 2.67122 101.872 2.42996 102.13 2.26025C102.387 2.09055 102.689 2 102.998 2C103.306 2 103.608 2.09055 103.866 2.26025C104.123 2.42996 104.323 2.67122 104.442 2.95367L106.727 8.33653L112.561 8.83729C112.869 8.86294 113.163 8.97816 113.405 9.16848C113.648 9.35881 113.828 9.61578 113.923 9.90716C114.019 10.1985 114.025 10.5114 113.942 10.8064C113.859 11.1015 113.689 11.3656 113.455 11.5657H113.45Z" fill="#EC6300"/>
<path d="M144.196 11.1248L144.123 11.1874L139.697 15.0146L139.468 15.212L139.537 15.5061L140.863 21.204L140.863 21.2053C140.911 21.4066 140.897 21.6172 140.824 21.8111C140.751 22.005 140.622 22.1741 140.452 22.2967C140.282 22.4194 140.078 22.4899 139.867 22.499C139.656 22.508 139.447 22.4553 139.267 22.3479C139.267 22.3477 139.267 22.3476 139.266 22.3474L134.251 19.3339L133.993 19.179L133.736 19.3342L128.732 22.3474C128.732 22.3476 128.731 22.3477 128.731 22.3479C128.551 22.4553 128.342 22.508 128.131 22.499C127.92 22.4899 127.716 22.4194 127.546 22.2967C127.376 22.1741 127.247 22.005 127.174 21.8111C127.101 21.6172 127.087 21.4066 127.135 21.2053L127.135 21.204L128.459 15.5119L128.528 15.2181L128.299 15.0206L123.872 11.1876L123.872 11.1876L123.87 11.1855C123.71 11.0493 123.595 10.8701 123.539 10.6706C123.483 10.4712 123.487 10.2599 123.552 10.0629C123.616 9.86583 123.739 9.69133 123.904 9.5617C124.069 9.43202 124.269 9.35314 124.48 9.33557L124.482 9.33546L130.318 8.8347L130.618 8.80894L130.735 8.5314L133.013 3.14854L133.014 3.14775C133.094 2.95688 133.23 2.79309 133.405 2.67754C133.58 2.56196 133.786 2.5 133.998 2.5C134.209 2.5 134.415 2.56196 134.59 2.67754C134.765 2.79309 134.901 2.95688 134.981 3.14775L134.982 3.14904L137.267 8.5319L137.385 8.80896L137.684 8.8347L143.518 9.33546L143.52 9.33557C143.731 9.35314 143.931 9.43202 144.096 9.5617C144.261 9.69133 144.384 9.86583 144.448 10.0629C144.513 10.2599 144.517 10.4712 144.461 10.6706C144.413 10.8417 144.321 10.9978 144.196 11.1248Z" stroke="#EC6300"/>
<path fill-rule="evenodd" clip-rule="evenodd" d="M140.095 15.3311L137.686 8.23975L135.442 2.95367C135.323 2.67122 135.123 2.42996 134.866 2.26025C134.608 2.09055 134.306 2 133.998 2C133.689 2 133.387 2.09055 133.13 2.26025C132.872 2.42996 132.672 2.67122 132.553 2.95367L130.275 8.33653L124.439 8.83729C124.131 8.86294 123.837 8.97816 123.595 9.16848C123.352 9.35881 123.172 9.61578 123.077 9.90716C122.981 10.1985 122.975 10.5114 123.058 10.8064C123.141 11.1015 123.311 11.3656 123.545 11.5657L127.972 15.3986L126.648 21.0907C126.578 21.3886 126.598 21.7003 126.706 21.987C126.813 22.2736 127.004 22.5225 127.254 22.7024C127.503 22.8823 127.801 22.9853 128.11 22.9985C128.418 23.0118 128.724 22.9346 128.988 22.7767L133.994 19.7625L139.01 22.7767C139.274 22.9346 139.58 23.0118 139.888 22.9985C140.197 22.9853 140.495 22.8823 140.744 22.7024C140.994 22.5225 141.185 22.2736 141.292 21.987C141.4 21.7003 141.42 21.3886 141.35 21.0907L140.024 15.3928L140.095 15.3311Z" fill="#EC6300"/>
</svg>
